<svg xmlns="http://www.w3.org/2000/svg" viewBox="0 0 2048.0841 2233.0123"><defs><style>.cls-1{fill:#96c;}.cls-2{fill:#f280a1;}.cls-3{fill:none;stroke:#f280a1;stroke-linecap:round;stroke-miterlimit:10;stroke-width:55px;}</style></defs><g id="Layer_2" data-name="Layer 2"><g id="inner"><g id="light"><polygon id="slash" class="cls-1" points="1253.622 905.871 882.123 1466.801 794.503 1334.501 1165.993 773.551 1253.622 905.871"/><g id="brackets"><polygon class="cls-2" points="1618.755 1120.171 1365.545 1502.524 1190.288 1502.524 1443.509 1120.171 1190.288 737.818 1365.545 737.818 1618.755 1120.171"/><polygon class="cls-2" points="429.329 1120.171 682.539 1502.524 857.796 1502.524 604.575 1120.171 857.796 737.818 682.539 737.818 429.329 1120.171"/></g></g></g><g id="outer"><g id="light-2" data-name="light"><g id="text"><path d="M624.9478,2030.3486c6.2768-17.1377,17.1753-19.27,30.791-14.2822l46.9512,17.1963c42.0215,15.3916,73.8149,47.8037,49.5674,114.0049-19.604,53.5244-60.7681,73.5928-112.18,54.7617l-46.2471-16.9385c-13.6157-4.9873-20.5586-13.6533-14.2822-30.791ZM621.1441,2159.95l32.3965,11.8652c30.7529,11.2637,50.6728-12.5908,60.2168-38.6494,12.21-33.3349,6.9272-58.167-21.2432-68.4853l-32.1616-11.7793Z" transform="translate(0 -40.896)"/><path d="M939.3282,2253.5088c-5.7832,13.5527-12.4834,17.874-27.3243,15.6914-15.3354-2.2559-19.831-9.4863-21.2934-23.6L880.2139,2133.123l-.4946-.0722-42.4351,104.6924c-5.2163,13.1308-11.8511,18.7246-27.1865,16.47-14.8408-2.1826-20.0132-8.25-21.65-22.8945l-14.9771-140.4268a46.2639,46.2639,0,0,1-.269-11.916c1.8188-12.3672,12.833-16.8125,22.2319-15.43,10.3887,1.5273,15.8809,7.1367,16.6084,19.373l6.604,121.76.4947.0723L864.45,2089.11c3.6812-9.5665,8.4024-14.1788,23.49-11.96,17.0669,2.5107,19.33,11.1816,20.166,22.6767l9.9726,119.4747.4947.0732,41.6279-114.666c4.2192-11.5088,11.0942-15.2988,20.7407-13.8809,9.3989,1.3828,18.667,8.8106,16.8482,21.1778a46.2687,46.2687,0,0,1-3.6885,11.3339Z" transform="translate(0 -40.896)"/><path d="M1199.0557,2242.8037c-2.4561,14.5293-7.9609,20.2959-22.9,21.6426-15.4375,1.3906-21.499-4.59-26.2187-17.9707l-36.4893-106.9082-.498.0449-16.795,111.708c-2.0029,13.9863-7.1465,20.9766-22.584,22.3672-14.94,1.3457-21.3867-3.3447-26.4-17.2012L999.7925,2123.45a46.2741,46.2741,0,0,1-3.0459-11.5234c-1.1216-12.45,8.5488-19.3457,18.01-20.1973,10.458-.9424,17.1084,3.2275,20.6758,14.9551l34.874,116.8427.498-.0449,17.03-123.0244c1.3437-10.1621,4.8564-15.75,20.0449-17.1182,17.1807-1.5478,21.4072,6.3555,24.9063,17.336l37.6152,113.8349.4981-.0449,13.68-121.2168c1.4131-12.1758,7.212-17.4678,16.9229-18.3428,9.4619-.8525,20.208,4.2042,21.33,16.6534a46.3125,46.3125,0,0,1-.9375,11.8828Z" transform="translate(0 -40.896)"/><path d="M1449.3662,2171.1006c1.0528,14.6973-2.93,21.6035-17.1259,26.4473-14.67,5.0058-21.9737.63-29.7266-11.253l-60.7588-95.2295-.4736.1612,10.126,112.5068c1.3642,14.0635-1.9786,22.0713-16.6475,27.0771-14.1963,4.8438-21.57,1.8135-29.7207-10.4619l-77.5225-118.039a46.2393,46.2393,0,0,1-5.6875-10.4737c-4.0371-11.83,3.7266-20.8193,12.7168-23.8867,9.9375-3.3916,17.3868-.914,23.628,9.6358l61.541,105.2646.4736-.1611L1307.6123,2059.13c-1.1-10.19.99-16.4512,15.4229-21.376,16.3262-5.57,22.3027,1.1074,28.3018,10.9473l63.4921,101.6933.4737-.1611-15.4043-121.0088c-1.5088-12.1641,2.872-18.6777,12.1-21.8262,8.9912-3.0683,20.63-.7,24.666,11.1309a46.2067,46.2067,0,0,1,1.9014,11.7656Z" transform="translate(0 -40.896)"/><path d="M254.9268,376.5034c-12.7163-15.06-8.8833-26.4243,3.082-36.5273l41.26-34.8389c36.9277-31.1807,84.3476-43.6572,133.4707,14.519,39.7158,47.0362,36.51,96.39-8.67,134.5386l-40.6407,34.3164c-11.9653,10.1031-23.811,11.9781-36.5273-3.082Zm119.5366,72.9312,28.4693-24.0391c27.0253-22.8193,15.309-54.2725-4.0264-77.1714C374.17,318.93,348.05,310.5942,323.294,331.4976l-28.2632,23.8647Z" transform="translate(0 -40.896)"/><path d="M519.979,273.521c10.4263-6.2378,21.2622-7.0581,28.3321,4.7578s1.2246,20.9775-9.2017,27.2153l-38.2285,22.8736c-10.4263,6.2383-21.2622,7.0581-28.332-4.7578s-1.2246-20.9771,9.2016-27.2154Z" transform="translate(0 -40.896)"/><path d="M592.5108,179.6484c27.4736-11.9746,59.9419-13.1665,67.17,3.417,3.668,8.4151,1.2114,18.3218-8.1938,22.4214-14.1084,6.1489-21.8316-10.2187-44.6026-.2934-12.623,5.5019-19.2807,12.5268-15.9365,20.2,3.668,8.4155,12.6987,6.8354,24.9155,4.456l16.6089-3.1152c22.5933-4.2515,50.8726-6.2686,61.8765,18.9775,12.8379,29.4541-9.6929,55.4737-36.9195,67.34-32.6714,14.24-66.2627,11.5039-74.03-6.3174-3.4522-7.92-2.1255-17.04,8.0224-21.4629,15.5933-6.7964,26.7876,14.8325,53.5191,3.1811,12.8706-5.6093,18.5576-14.8623,15.3213-22.2876-3.9917-9.1582-12.56-7.1909-26.8326-4.7988l-23.5517,4.08c-23.3037,3.9722-43.4155,2.4292-53.9878-21.8271C543.0518,214.1646,567.5118,190.5444,592.5108,179.6484Z" transform="translate(0 -40.896)"/><path d="M740.1294,211.4648c5.2661,20.1123,22.1558,31.32,44.3579,25.5069,28.732-7.5225,23.8077-26.3291,39.2188-30.3643,9.1421-2.3935,17.7236,3.7329,19.57,10.7852,6.0181,22.9858-28.0068,43.3379-50.9927,49.3559-53.2846,13.9517-82.8349-16.8276-91.52-50-11.6264-44.4038,7.481-81.2246,52.6685-93.0561,43.8818-11.49,77.0952,13.0278,85.3017,44.3721,3.42,13.06.3907,17.4814-12.4082,20.8325Zm61.1226-39.4482c-6.6719-16.9536-23.083-26.333-40.061-21.8877-19.0674,4.9927-27.483,19.7559-26.8062,39.3955Z" transform="translate(0 -40.896)"/><path d="M855.4541,67.0527c-1.3007-12.8945,5.812-20.396,17.6319-21.5883s20.2876,4.7373,21.5884,17.6318l8.997,89.1855,38.64-52.7436c3.5962-4.7046,8.375-8.4434,14.2846-9.04,8.8648-.894,19.3213,5.92,20.3242,15.86.7046,6.9844-1.4965,9.3774-4.6093,13.4907l-25.95,33.2818,46.36,50.6816a21.514,21.514,0,0,1,5.3028,12.2192c1.0029,9.94-6.1348,19.8858-16.6114,20.9429-9.67.9756-15.2622-3.3452-18.6509-7.3452l-42.3554-48.6431-12.481,13.47,3.0083,29.8184c1.3008,12.894-5.812,20.396-17.6318,21.5884s-20.2876-4.7378-21.5884-17.6319Z" transform="translate(0 -40.896)"/><path d="M1022.21,118.3628l-6.7485-.1411c-11.0679-.2315-15.5664-4.6465-15.3858-13.2847s4.86-12.8613,15.9278-12.63l6.7485.1411.5024-24.0249c.271-12.9575,8.2408-19.5424,20.1177-19.2939s19.5654,7.1606,19.294,20.1182l-.502,24.0249,11.877.2485c11.6074.2427,17.7431,3.8818,17.5459,13.33s-6.48,12.8276-18.0879,12.5849l-11.877-.2485-1.6484,78.8233c-.125,5.9389,3.0468,9.246,10.0654,9.3925l5.6689.1187c8.6377.1806,13.6651,5.147,13.49,13.5151-.2373,11.3379-10.085,17.3433-28.9805,16.9478-28.6142-.5982-40.2436-12.7241-39.7578-35.9395Z" transform="translate(0 -40.896)"/><path d="M1114.2989,112.5542c1.0879-10.4736,6.3339-19.1577,21.6416-17.5669s18.6552,11.168,17.5673,21.6416l-11.247,108.2275c-1.0889,10.4737-6.335,19.1582-21.6426,17.5674s-18.6553-11.1684-17.5664-21.6421ZM1141.55,41.0078a20.52,20.52,0,1,1-22.5312,18.2891A20.5111,20.5111,0,0,1,1141.55,41.0078Z" transform="translate(0 -40.896)"/><path d="M1260.6953,115.45c46.3545,10.4521,63.9864,47.6406,54.8409,88.2017-8.6709,38.4536-35.0313,68.2133-87.4444,56.3955s-63.4521-50.0113-54.7822-88.4649C1182.4551,131.0215,1214.34,104.998,1260.6953,115.45Zm-26.19,116.1519c22.9151,5.1665,37.292-13.18,42.5772-36.6211,5.6416-25.021-.4131-46.0376-22.8008-51.0855s-36.876,11.3364-42.5176,36.3574C1206.4786,203.6938,1211.5909,226.4351,1234.5049,231.6021Z" transform="translate(0 -40.896)"/><path d="M1360.8692,161.7676c4.5039-10.9932,12.4687-16.1919,23.9619-11.4834s13.5215,14.001,9.0176,24.9941l-1.9444,4.7471.5.2051c15.7705-9.2954,32.9024-13.3648,53.64-4.8692,21.9863,9.0074,41.4678,29.8267,26.3193,66.8042l-29.0693,70.9566c-3.9912,9.7441-11.4688,16.6015-25.711,10.7671s-14.7587-15.9668-10.7666-25.711l26.1006-63.7109c6.0391-14.7412,3.0928-28.2031-12.6474-34.6514a30.6117,30.6117,0,0,0-39.5039,17.3711L1356.0977,277.4c-3.9922,9.7441-11.47,16.6011-25.7109,10.7671S1315.628,272.2,1319.62,262.4561Z" transform="translate(0 -40.896)"/><path d="M1516.3848,300.9663c-10.9473,17.6743-7.4326,37.6377,12.0781,49.7232,25.2491,15.64,35.4864-.8868,49.0283,7.5019,8.0342,4.9761,9.5079,15.417,5.668,21.6143-12.5117,20.2-50.706,9.563-70.9053-2.9488-46.8252-29.0053-44.8789-71.6294-26.8222-100.7807,24.1709-39.0215,64.0224-50.544,103.7324-25.9468,38.5625,23.8867,43.6787,64.8511,26.6162,92.3955-7.1084,11.4771-12.4,12.3281-23.6475,5.3613Zm70.7051,17.1172c7.69-16.5161,3.1806-34.8726-11.74-44.1147-16.7558-10.379-33.2539-6.3057-47.0214,7.7163Z" transform="translate(0 -40.896)"/><path d="M1666.7989,325.3438c7.8281-8.9366,17.05-11.2676,26.3925-3.0835s8.2442,17.6323.4161,26.5683l-3.3809,3.8589.4062.356c17.9346-3.6724,35.46-1.96,52.3165,12.8066,17.872,15.6567,29.541,41.6728,3.2089,71.731L1695.63,495.26c-6.9385,7.9209-16.2373,11.98-27.8135,1.8379s-8.7773-19.8931-1.8378-27.814l45.3681-51.7891c10.4971-11.9824,12.08-25.6718-.7148-36.8808a30.6125,30.6125,0,0,0-43.0039,3.6069l-42.878,48.9458c-6.9384,7.9209-16.2373,11.98-27.8144,1.8379s-8.7764-19.8931-1.8379-27.814Z" transform="translate(0 -40.896)"/></g><g id="circle"><path d="M1024.042,380.45a776.7159,776.7159,0,0,1,436.4125,133.2847,783.0563,783.0563,0,0,1,282.8829,343.4983,779.5181,779.5181,0,0,1-71.9625,740.2471,783.0547,783.0547,0,0,1-343.4983,282.8832,779.5176,779.5176,0,0,1-740.247-71.9625A783.0565,783.0565,0,0,1,304.7463,1464.902a779.5181,779.5181,0,0,1,71.9625-740.2471A783.06,783.06,0,0,1,720.2074,441.772,775.68,775.68,0,0,1,1024.042,380.45m0-55c-461.4989,0-835.6178,374.1185-835.6178,835.6174s374.1189,835.6178,835.6178,835.6178S1859.66,1622.5663,1859.66,1161.0674,1485.5409,325.45,1024.042,325.45Z" transform="translate(0 -40.896)"/></g><g id="arcs"><path id="arc_base" data-name="arc base" class="cls-3" d="M505.8879,2012.4778C219.02,1837.521,27.5,1521.66,27.5,1161.0674c0-235.31,81.5571-451.5717,217.946-622.0594" transform="translate(0 -40.896)"/><path id="arc_base-2" data-name="arc base" class="cls-3" d="M1802.6384,539.0085c136.3887,170.4876,217.9457,386.7489,217.9457,622.0589,0,360.5906-191.5178,676.45-478.3829,851.4073" transform="translate(0 -40.896)"/></g></g></g></g></svg>