<svg xmlns="http://www.w3.org/2000/svg" viewBox="0 0 2048.0841 2233.0123"><defs><style>.cls-1{fill:#96c;}.cls-2{fill:#f280a1;}.cls-3{fill:#fff;}.cls-4{fill:none;stroke:#f280a1;stroke-linecap:round;stroke-miterlimit:10;stroke-width:55px;}</style></defs><g id="Layer_2" data-name="Layer 2"><g id="inner"><g id="dark"><polygon id="slash" class="cls-1" points="1253.612 905.871 882.112 1466.801 794.492 1334.501 1165.982 773.551 1253.612 905.871"/><g id="brackets"><polygon class="cls-2" points="1618.755 1120.171 1365.545 1502.524 1190.288 1502.524 1443.509 1120.171 1190.288 737.818 1365.545 737.818 1618.755 1120.171"/><polygon class="cls-2" points="429.329 1120.171 682.539 1502.524 857.796 1502.524 604.575 1120.171 857.796 737.818 682.539 737.818 429.329 1120.171"/></g></g></g><g id="outer"><g id="dark-2" data-name="dark"><g id="text"><path class="cls-3" d="M624.9483,2030.3486c6.2763-17.1377,17.1748-19.27,30.791-14.2822l46.9512,17.1963c42.0215,15.3916,73.8144,47.8037,49.5664,114.0049-19.6035,53.5244-60.7676,73.5928-112.18,54.7617l-46.2461-16.9385c-13.6162-4.9873-20.5586-13.6533-14.2832-30.791ZM621.1436,2159.95l32.3965,11.8652c30.7539,11.2637,50.6738-12.5908,60.2168-38.6494,12.2109-33.3349,6.9277-58.167-21.2422-68.4853l-32.1621-11.7793Z" transform="translate(0 -40.896)"/><path class="cls-3" d="M939.3282,2253.5088c-5.7832,13.5527-12.4834,17.874-27.3243,15.6914-15.3349-2.2559-19.831-9.4863-21.2939-23.6L880.2139,2133.123l-.4941-.0722-42.4356,104.6924c-5.2168,13.1308-11.8515,18.7246-27.1865,16.47-14.8408-2.1826-20.0127-8.25-21.6494-22.8945l-14.9776-140.4268a46.2417,46.2417,0,0,1-.2685-11.916c1.8183-12.3672,12.832-16.8125,22.2314-15.43,10.3887,1.5273,15.8809,7.1367,16.6084,19.373l6.6035,121.76.4952.0723L864.45,2089.11c3.6817-9.5665,8.4024-14.1788,23.49-11.96,17.0664,2.5107,19.33,11.1816,20.166,22.6767l9.9726,119.4747.4942.0732,41.6289-114.666c4.2187-11.5088,11.0937-15.2988,20.74-13.8809,9.3985,1.3828,18.667,8.8106,16.8477,21.1778a46.2666,46.2666,0,0,1-3.6875,11.3339Z" transform="translate(0 -40.896)"/><path class="cls-3" d="M1199.0557,2242.8037c-2.4561,14.5293-7.9609,20.2959-22.9,21.6426-15.4375,1.3906-21.499-4.59-26.2187-17.9707l-36.4893-106.9082-.498.0449-16.795,111.708c-2.0029,13.9863-7.1465,20.9766-22.584,22.3672-14.94,1.3457-21.3867-3.3447-26.4-17.2012L999.792,2123.45a46.2724,46.2724,0,0,1-3.0449-11.5234c-1.1221-12.45,8.5488-19.3457,18.01-20.1973,10.458-.9424,17.1084,3.2275,20.6758,14.9551l34.874,116.8427.498-.0449,17.03-123.0244c1.3437-10.1621,4.8564-15.75,20.0449-17.1182,17.1807-1.5478,21.4072,6.3555,24.9063,17.336l37.6152,113.8349.4981-.0449,13.68-121.2168c1.4131-12.1758,7.212-17.4678,16.9229-18.3428,9.4619-.8525,20.208,4.2042,21.33,16.6534a46.3125,46.3125,0,0,1-.9375,11.8828Z" transform="translate(0 -40.896)"/><path class="cls-3" d="M1449.3662,2171.1006c1.0528,14.6973-2.93,21.6035-17.1259,26.4473-14.67,5.0058-21.9737.63-29.7266-11.253l-60.7588-95.2295-.4736.1612,10.126,112.5068c1.3642,14.0635-1.9786,22.0713-16.6475,27.0771-14.1963,4.8438-21.57,1.8135-29.7207-10.4619l-77.5225-118.039a46.2393,46.2393,0,0,1-5.6875-10.4737c-4.0371-11.83,3.7266-20.8193,12.7168-23.8867,9.9375-3.3916,17.3868-.914,23.628,9.6358l61.541,105.2646.4736-.1611L1307.6123,2059.13c-1.1-10.19.99-16.4512,15.4229-21.376,16.3262-5.57,22.3027,1.1074,28.3018,10.9473l63.4921,101.6933.4737-.1611-15.4043-121.0088c-1.5088-12.1641,2.872-18.6777,12.1-21.8262,8.9912-3.0683,20.63-.7,24.666,11.1309a46.2067,46.2067,0,0,1,1.9014,11.7656Z" transform="translate(0 -40.896)"/><path class="cls-3" d="M254.9268,376.5034c-12.7168-15.06-8.8828-26.4243,3.082-36.5273l41.26-34.8389c36.9277-31.1807,84.3476-43.6572,133.4707,14.519,39.7158,47.0362,36.51,96.39-8.67,134.5386l-40.6407,34.3164c-11.9648,10.1031-23.81,11.9781-36.5273-3.082Zm119.5371,72.9312,28.4688-24.0391c27.0253-22.8193,15.3085-54.2725-4.0264-77.1714-24.7354-29.2944-50.8565-37.63-75.6123-16.7265L295.03,355.3623Z" transform="translate(0 -40.896)"/><path class="cls-3" d="M519.98,273.521c10.4258-6.2378,21.2617-7.0581,28.3321,4.7578s1.2246,20.9775-9.2022,27.2153l-38.2285,22.8736c-10.4268,6.2383-21.2627,7.0581-28.332-4.7578s-1.2246-20.9771,9.2021-27.2154Z" transform="translate(0 -40.896)"/><path class="cls-3" d="M592.5108,179.6484c27.4736-11.9746,59.9414-13.1665,67.17,3.417,3.668,8.4151,1.2109,18.3218-8.1934,22.4214-14.1093,6.1489-21.832-10.2187-44.6035-.2934-12.623,5.5019-19.28,12.5268-15.9355,20.2,3.6679,8.4155,12.6982,6.8354,24.915,4.456l16.6084-3.1152c22.5938-4.2515,50.8731-6.2686,61.877,18.9775,12.8379,29.4541-9.6934,55.4737-36.92,67.34-32.6709,14.24-66.2617,11.5039-74.0292-6.3174-3.4532-7.92-2.126-17.04,8.0214-21.4629,15.5938-6.7964,26.7881,14.8325,53.52,3.1811,12.8711-5.6093,18.5576-14.8623,15.3213-22.2876-3.9913-9.1582-12.56-7.1909-26.8331-4.7988l-23.5507,4.08c-23.3047,3.9722-43.416,2.4292-53.9883-21.8271C543.0518,214.1646,567.5118,190.5444,592.5108,179.6484Z" transform="translate(0 -40.896)"/><path class="cls-3" d="M740.13,211.4648c5.2656,20.1123,22.1553,31.32,44.3574,25.5069,28.7325-7.5225,23.8077-26.3291,39.2188-30.3643,9.1426-2.3935,17.7236,3.7329,19.57,10.7852,6.0176,22.9858-28.0068,43.3379-50.9922,49.3559-53.2851,13.9517-82.8359-16.8276-91.5215-50-11.6259-44.4038,7.4815-81.2246,52.669-93.0561,43.8818-11.49,77.0947,13.0278,85.3017,44.3721,3.42,13.06.3907,17.4814-12.4082,20.8325Zm61.1221-39.4482c-6.6719-16.9536-23.083-26.333-40.0615-21.8877-19.0664,4.9927-27.4825,19.7559-26.8057,39.3955Z" transform="translate(0 -40.896)"/><path class="cls-3" d="M855.4541,67.0527c-1.3007-12.8945,5.8125-20.396,17.6319-21.5883s20.2881,4.7373,21.5888,17.6318l8.9961,89.1855,38.6407-52.7436c3.5957-4.7046,8.375-8.4434,14.2851-9.04,8.8643-.894,19.32,5.92,20.3242,15.86.7041,6.9844-1.497,9.3774-4.6093,13.4907l-25.95,33.2818,46.36,50.6816a21.5106,21.5106,0,0,1,5.3028,12.2192c1.0029,9.94-6.1348,19.8858-16.6114,20.9429-9.67.9756-15.2617-3.3452-18.65-7.3452l-42.3554-48.6431-12.4815,13.47,3.0088,29.8184c1.3008,12.894-5.8125,20.396-17.6328,21.5884s-20.2871-4.7378-21.5879-17.6319Z" transform="translate(0 -40.896)"/><path class="cls-3" d="M1022.21,118.3628l-6.748-.1411c-11.0684-.2315-15.5665-4.6465-15.3868-13.2847.1817-8.6382,4.86-12.8613,15.9278-12.63l6.749.1411.5029-24.0249c.27-12.9575,8.24-19.5424,20.1172-19.2939s19.5654,7.1606,19.294,20.1182l-.502,24.0249,11.877.2485c11.6074.2427,17.7431,3.8818,17.5459,13.33s-6.48,12.8276-18.0879,12.5849l-11.877-.2485-1.6484,78.8233c-.125,5.9389,3.0468,9.246,10.0654,9.3925l5.6689.1187c8.6377.1806,13.6651,5.147,13.49,13.5151-.2373,11.3379-10.085,17.3433-28.9805,16.9478-28.6142-.5982-40.2441-12.7241-39.7578-35.9395Z" transform="translate(0 -40.896)"/><path class="cls-3" d="M1114.2989,112.5542c1.0879-10.4736,6.3339-19.1577,21.6416-17.5669s18.6552,11.168,17.5673,21.6416l-11.247,108.2275c-1.0889,10.4737-6.335,19.1582-21.6426,17.5674s-18.6553-11.1684-17.5664-21.6421ZM1141.55,41.0078a20.52,20.52,0,1,1-22.5312,18.2891A20.5111,20.5111,0,0,1,1141.55,41.0078Z" transform="translate(0 -40.896)"/><path class="cls-3" d="M1260.6953,115.45c46.3545,10.4521,63.9864,47.6406,54.8409,88.2017-8.6709,38.4536-35.0313,68.2133-87.4444,56.3955s-63.4521-50.0113-54.7822-88.4649C1182.4551,131.0215,1214.34,104.998,1260.6953,115.45Zm-26.19,116.1519c22.9151,5.1665,37.292-13.18,42.5772-36.6211,5.6416-25.021-.4131-46.0376-22.8008-51.0855s-36.876,11.3364-42.5176,36.3574C1206.4786,203.6938,1211.5909,226.4351,1234.5049,231.6021Z" transform="translate(0 -40.896)"/><path class="cls-3" d="M1360.8692,161.7676c4.5039-10.9932,12.4687-16.1919,23.9619-11.4834s13.5215,14.001,9.0176,24.9941l-1.9444,4.7471.5.2051c15.7705-9.2954,32.9024-13.3648,53.64-4.8692,21.9863,9.0074,41.4678,29.8267,26.3193,66.8042l-29.0693,70.9566c-3.9912,9.7441-11.4688,16.6015-25.711,10.7671s-14.7587-15.9668-10.7666-25.711l26.1006-63.7109c6.0391-14.7412,3.0928-28.2031-12.6474-34.6514a30.6117,30.6117,0,0,0-39.5039,17.3711L1356.0977,277.4c-3.9922,9.7441-11.47,16.6011-25.7109,10.7671S1315.628,272.2,1319.62,262.4561Z" transform="translate(0 -40.896)"/><path class="cls-3" d="M1516.3848,300.9663c-10.9473,17.6743-7.4326,37.6377,12.0781,49.7232,25.2491,15.64,35.4864-.8868,49.0283,7.5019,8.0342,4.9761,9.5079,15.417,5.668,21.6143-12.5117,20.2-50.706,9.563-70.9053-2.9488-46.8252-29.0053-44.8789-71.6294-26.8222-100.7807,24.1709-39.0215,64.0224-50.544,103.7324-25.9468,38.5625,23.8867,43.6787,64.8511,26.6162,92.3955-7.1084,11.4771-12.4,12.3281-23.6475,5.3613Zm70.7051,17.1172c7.69-16.5161,3.1806-34.8726-11.74-44.1147-16.7558-10.379-33.2539-6.3057-47.0214,7.7163Z" transform="translate(0 -40.896)"/><path class="cls-3" d="M1666.7989,325.3438c7.8281-8.9366,17.05-11.2676,26.3925-3.0835s8.2442,17.6323.4161,26.5683l-3.3809,3.8589.4062.356c17.9346-3.6724,35.46-1.96,52.3165,12.8066,17.872,15.6567,29.541,41.6728,3.2089,71.731L1695.63,495.26c-6.9385,7.9209-16.2373,11.98-27.8135,1.8379s-8.7773-19.8931-1.8378-27.814l45.3681-51.7891c10.4971-11.9824,12.08-25.6718-.7148-36.8808a30.6125,30.6125,0,0,0-43.0039,3.6069l-42.878,48.9458c-6.9384,7.9209-16.2373,11.98-27.8144,1.8379s-8.7764-19.8931-1.8379-27.814Z" transform="translate(0 -40.896)"/></g><g id="circle"><path class="cls-3" d="M1024.042,380.45a776.7179,776.7179,0,0,1,436.4126,133.2847,783.0546,783.0546,0,0,1,282.8828,343.4983A779.5189,779.5189,0,0,1,1671.375,1597.48a783.0533,783.0533,0,0,1-343.4985,282.8832,779.5181,779.5181,0,0,1-740.2471-71.9625A783.0634,783.0634,0,0,1,304.7466,1464.902a779.5165,779.5165,0,0,1,71.9627-740.2471A783.054,783.054,0,0,1,720.2073,441.772,775.6818,775.6818,0,0,1,1024.042,380.45m0-55c-461.499,0-835.6174,374.1185-835.6174,835.6174s374.1184,835.6178,835.6174,835.6178S1859.66,1622.5663,1859.66,1161.0674,1485.5411,325.45,1024.042,325.45Z" transform="translate(0 -40.896)"/></g><g id="arcs"><path id="arc_base" data-name="arc base" class="cls-4" d="M505.8879,2012.4778C219.02,1837.521,27.5,1521.66,27.5,1161.0674c0-235.31,81.5571-451.5717,217.946-622.0594" transform="translate(0 -40.896)"/><path id="arc_base-2" data-name="arc base" class="cls-4" d="M1802.6384,539.0085c136.3887,170.4876,217.9457,386.7489,217.9457,622.0589,0,360.5906-191.5178,676.45-478.3829,851.4073" transform="translate(0 -40.896)"/></g></g></g></g></svg>