<?xml version="1.0" encoding="UTF-8"?>
<svg
  id="uuid-1f27d0e3-9415-44de-a739-23e5b2eb9ffd"
  data-name="Layer 1"
  xmlns="http://www.w3.org/2000/svg"
  viewBox="0 0 1000 1000"
>
  <defs>
    <style>
    .uuid-d7546517-aeb9-4cad-82d0-b63a46df9099 {
      fill: none;
      stroke: #4f4a45;
      stroke-miterlimit: 10;
      stroke-width: 3px;
    }

    .uuid-8ed05e78-9a86-4287-bcc4-8f20d77df998 {
      fill: #4f4a45;
    }
    </style>
  </defs>
  <path
    class="uuid-d7546517-aeb9-4cad-82d0-b63a46df9099"
    d="M659.048,464.986v105.417h222.634v-105.417h-222.634ZM88.46,464.986v105.417h223.37v-105.417H88.46ZM881.682,399.373v-142.277h45.336v15.483h44.6v276.08l28.381-.002v68.185l-28.381.005v47.182h-44.6v24.323h-45.336v-53.812h-44.969v29.489h-131.96v48.654h-18.431l.003,89.936h-111.313l.008-89.936h-192.422l.003,76.668h-87.721l-.003-76.668h-24.328v-48.654h-130.483v-29.489h-51.605v109.839h-42.018v-21.377H0v-395.136h46.441v-17.693h42.018v89.2h123.853v-201.991h45.703v28.748h48.656v173.242h124.584v-201.991h50.13v21.382h47.182v180.608h123.11v-201.991h44.969v21.382h48.654v180.608h136.382ZM354.589,464.986v105.417h259.688v-105.417h-259.688Z"
  />
  <g>
    <path
      class="uuid-8ed05e78-9a86-4287-bcc4-8f20d77df998"
      d="M470.475,349.12l-2.759,2.76-2.76-2.76,2.76-2.76,2.759,2.76ZM490.472,351.16h-17.677v-4.08h17.677v4.08Z"
    />
    <path
      class="uuid-8ed05e78-9a86-4287-bcc4-8f20d77df998"
      d="M465.596,338.4v-8.239c0-9.158,4.359-15.478,12.438-15.478,7.679,0,12.438,6.319,12.438,15.478v8.239h-24.876ZM486.152,333.921v-4.159c0-6.079-2.959-10.118-8.118-10.118-5.479,0-8.119,4.039-8.119,10.118v4.159h16.237Z"
    />
    <path
      class="uuid-8ed05e78-9a86-4287-bcc4-8f20d77df998"
      d="M469.556,302.881v1.68l-6.76-2.279v-5.879l6.76,6.479ZM490.472,308.6h-17.677v-10.838h3.879v6.759h2.439v-5.959h3.88v5.959h3.64v-7.199h3.839v11.278Z"
    />
    <path
      class="uuid-8ed05e78-9a86-4287-bcc4-8f20d77df998"
      d="M476.674,285.322h13.798v4.079h-13.798v5.199h-3.879v-5.199h-4.72v-4.079h4.72v-5.239h3.879v5.239Z"
    />
  </g>
  <g>
    <path
      class="uuid-8ed05e78-9a86-4287-bcc4-8f20d77df998"
      d="M250.392,377.44v-8.519h4.318v8.519h7.159v-10.278h4.319v14.758h-24.876v-14.118h4.319v9.639h4.76Z"
    />
    <path
      class="uuid-8ed05e78-9a86-4287-bcc4-8f20d77df998"
      d="M266.188,354.281v6.238h-17.677v-6.238c0-6.72,3.159-11.318,8.878-11.318,5.359,0,8.799,4.599,8.799,11.318ZM252.391,354.001v2.439h9.959v-2.439c0-3.96-1.76-6.599-4.96-6.599-3.399,0-4.999,2.639-4.999,6.599Z"
    />
    <path
      class="uuid-8ed05e78-9a86-4287-bcc4-8f20d77df998"
      d="M270.348,318.123c-1.16,3.56-3.72,7.439-11.558,14.198l-.601.56h7.999v4.079h-17.677v-4.079h5.079l-5.079-5.239v-5.319l7.158,7.479,1.72-1.601c1.68-1.56,3.76-3.279,6.239-5.998,2.6-2.8,3.959-5.08,4.399-7.879.76-4.52-.36-6.439-.8-8.039h2.6c1.279,3.319,2.119,6.799.52,11.838Z"
    />
    <path
      class="uuid-8ed05e78-9a86-4287-bcc4-8f20d77df998"
      d="M266.708,310.081v1.56l-18.196,8.358v-4.559l10.078-4.56-10.078-4.639v-4.52l18.196,8.358Z"
    />
    <path
      class="uuid-8ed05e78-9a86-4287-bcc4-8f20d77df998"
      d="M266.188,289.002h-3.239v6.639h3.239v4.08h-5.319c-6.639,0-11.038-2.64-13.117-7.439,2.079-4.719,6.479-7.358,13.117-7.358h5.319v4.079ZM252.351,292.321c.96,1.64,2.56,3,6.759,3.279v-6.559c-4.199.24-5.799,1.64-6.759,3.279Z"
    />
    <path
      class="uuid-8ed05e78-9a86-4287-bcc4-8f20d77df998"
      d="M252.391,273.242h13.798v4.079h-13.798v5.199h-3.879v-5.199h-4.72v-4.079h4.72v-5.239h3.879v5.239Z"
    />
    <path
      class="uuid-8ed05e78-9a86-4287-bcc4-8f20d77df998"
      d="M266.188,254.883h-3.239v6.639h3.239v4.08h-5.319c-6.639,0-11.038-2.64-13.117-7.439,2.079-4.719,6.479-7.358,13.117-7.358h5.319v4.079ZM252.351,258.202c.96,1.64,2.56,3,6.759,3.279v-6.559c-4.199.24-5.799,1.64-6.759,3.279Z"
    />
  </g>
  <g>
    <path
      class="uuid-8ed05e78-9a86-4287-bcc4-8f20d77df998"
      d="M715.415,581.061h8.239c9.158,0,15.478,4.359,15.478,12.438,0,7.679-6.319,12.438-15.478,12.438h-8.239v-24.876ZM719.895,601.617h4.159c6.079,0,10.118-2.959,10.118-8.118,0-5.479-4.039-8.119-10.118-8.119h-4.159v16.237Z"
    />
    <path
      class="uuid-8ed05e78-9a86-4287-bcc4-8f20d77df998"
      d="M747.535,585.939l-2.76-2.759,2.76-2.76,2.76,2.76-2.76,2.759ZM745.495,612.735v-24.476h4.08v20.437l-4.08,4.039Z"
    />
    <path
      class="uuid-8ed05e78-9a86-4287-bcc4-8f20d77df998"
      d="M764.294,606.736c-4.799-2.08-7.839-6.438-7.839-13.118v-5.358h4.08v5.039c0,5.438,1.919,7.719,3.719,8.878,1.8-1.159,3.76-3.439,3.76-8.878v-5.039h4.079v5.358c0,6.68-3.079,11.038-7.799,13.118Z"
    />
    <path
      class="uuid-8ed05e78-9a86-4287-bcc4-8f20d77df998"
      d="M797.251,610.216c-3.479-1.16-7.238-3.6-13.317-10.438h-1.16v6.159h-4.079v-17.677h6.398c3.68,0,6.039,2.52,6.039,5.719,0,1.88-.92,3.359-2.6,4.64,1.4,1.56,2.64,2.839,4.919,4.919,2.8,2.6,5.08,3.999,7.879,4.439,3.72.6,5.399-.04,7.079-.521l1.12,2.319c-3.319,1.521-7.279,2.16-12.278.44ZM784.493,592.099h-1.72v3.84h1.479c1.36,0,2.72-.84,2.72-1.92,0-1.12-.96-1.92-2.479-1.92Z"
    />
    <path
      class="uuid-8ed05e78-9a86-4287-bcc4-8f20d77df998"
      d="M803.534,606.536c-2.52,0-4.64-1.359-6.52-3.56l2.64-2.799c1.32,1.399,2.399,2.52,4.119,2.52.84,0,1.72-.561,1.72-1.64,0-1-1.039-1.76-3.399-3-2.319-1.239-4.159-2.839-4.159-5.159,0-3.199,2.68-5.239,5.719-5.239,1.84,0,3.439.84,5.52,2.28l-2.04,3.199c-1.72-1.12-2.64-1.6-3.599-1.6-.561,0-1.36.32-1.36,1.04,0,1.079,1.12,1.239,2.359,1.999,3.04,1.68,5.199,3.399,5.199,6.239,0,2.88-2.399,5.719-6.198,5.719Z"
    />
    <path
      class="uuid-8ed05e78-9a86-4287-bcc4-8f20d77df998"
      d="M825.172,605.937v-3.239h-6.639v3.239h-4.08v-5.319c0-6.639,2.64-11.038,7.439-13.117,4.719,2.079,7.358,6.479,7.358,13.117v5.319h-4.079ZM821.853,592.099c-1.64.96-3,2.56-3.279,6.759h6.559c-.24-4.199-1.64-5.799-3.279-6.759Z"
    />
    <path
      class="uuid-8ed05e78-9a86-4287-bcc4-8f20d77df998"
      d="M835.854,605.937v-17.677h4.079v13.838h7.438v3.839h-11.518Z"
    />
    <path
      class="uuid-8ed05e78-9a86-4287-bcc4-8f20d77df998"
      d="M862.051,605.937v-3.239h-6.639v3.239h-4.08v-5.319c0-6.639,2.64-11.038,7.439-13.117,4.719,2.079,7.358,6.479,7.358,13.117v5.319h-4.079ZM858.731,592.099c-1.64.96-3,2.56-3.279,6.759h6.559c-.24-4.199-1.64-5.799-3.279-6.759Z"
    />
    <path
      class="uuid-8ed05e78-9a86-4287-bcc4-8f20d77df998"
      d="M891.289,610.216c-3.479-1.16-7.238-3.6-13.317-10.438h-1.16v6.159h-4.079v-17.677h6.398c3.68,0,6.039,2.52,6.039,5.719,0,1.88-.92,3.359-2.6,4.64,1.4,1.56,2.64,2.839,4.919,4.919,2.8,2.6,5.08,3.999,7.879,4.439,3.72.6,5.399-.04,7.079-.521l1.12,2.319c-3.319,1.521-7.279,2.16-12.278.44ZM878.531,592.099h-1.72v3.84h1.479c1.36,0,2.72-.84,2.72-1.92,0-1.12-.96-1.92-2.479-1.92Z"
    />
  </g>
  <g>
    <path
      class="uuid-8ed05e78-9a86-4287-bcc4-8f20d77df998"
      d="M775.085,431.64h8.519v4.318h-8.519v7.159h10.278v4.319h-14.758v-24.876h14.118v4.319h-9.639v4.76Z"
    />
    <path
      class="uuid-8ed05e78-9a86-4287-bcc4-8f20d77df998"
      d="M794.405,436.958l-3.479-3.479,3.479-3.479,3.479,3.479-3.479,3.479ZM794.405,448.796l-3.479-3.479,3.479-3.479,3.479,3.479-3.479,3.479Z"
    />
    <path
      class="uuid-8ed05e78-9a86-4287-bcc4-8f20d77df998"
      d="M826.561,429.199c-1.8-1.72-4.519-2.759-7.759-2.759-5.599,0-10.198,3.519-10.198,8.559s4.239,8.559,10.198,8.559c3.08,0,5.88-1.08,7.759-2.88v5.239c-2.359,1.359-5.199,2.119-8.238,2.119-8.559,0-14.718-5.438-14.718-13.037s6.6-13.038,14.718-13.038c3.119,0,5.959.72,8.238,2.039v5.199Z"
    />
  </g>
  <g>
    <path
      class="uuid-8ed05e78-9a86-4287-bcc4-8f20d77df998"
      d="M680.74,387.922h4.319v7.439h20.557v4.479h-20.557v7.439h-4.319v-7.439h-7.119v-4.479h7.119v-7.439Z"
    />
    <path
      class="uuid-8ed05e78-9a86-4287-bcc4-8f20d77df998"
      d="M709.896,364.403c-1.16,3.479-3.6,7.238-10.438,13.317v1.16h6.159v4.079h-17.677v-6.398c0-3.68,2.52-6.039,5.719-6.039,1.88,0,3.359.92,4.64,2.6,1.56-1.4,2.839-2.64,4.919-4.919,2.6-2.8,3.999-5.08,4.439-7.879.6-3.72-.04-5.399-.521-7.079l2.319-1.12c1.521,3.319,2.16,7.279.44,12.278ZM691.778,377.161v1.72h3.84v-1.479c0-1.36-.84-2.72-1.92-2.72-1.12,0-1.92.96-1.92,2.479Z"
    />
    <path
      class="uuid-8ed05e78-9a86-4287-bcc4-8f20d77df998"
      d="M698.577,355.841h7.039v4.079h-7.039l-10.638,6.639v-4.759l6.358-3.919-6.358-3.92v-4.759l10.638,6.639Z"
    />
    <path
      class="uuid-8ed05e78-9a86-4287-bcc4-8f20d77df998"
      d="M706.216,336.801c0,6.319-4.079,10.799-9.398,10.799-5.358,0-9.479-4.8-9.479-10.799,0-2.239.521-4.318,1.521-6.238h4.839c-1.72,1.999-2.399,3.759-2.399,5.919,0,3.64,2.359,6.679,5.519,6.679,3.12,0,5.439-2.84,5.439-6.679,0-2.04-.68-3.88-2.52-5.919h4.919c1,1.999,1.56,4.039,1.56,6.238Z"
    />
    <path
      class="uuid-8ed05e78-9a86-4287-bcc4-8f20d77df998"
      d="M709.775,305.563c-1.16,3.56-3.72,7.439-11.558,14.198l-.601.56h7.999v4.079h-17.677v-4.079h5.079l-5.079-5.239v-5.319l7.158,7.479,1.72-1.601c1.68-1.56,3.76-3.279,6.239-5.998,2.6-2.8,3.959-5.08,4.399-7.879.76-4.52-.36-6.439-.8-8.039h2.6c1.279,3.319,2.119,6.799.52,11.838Z"
    />
    <path
      class="uuid-8ed05e78-9a86-4287-bcc4-8f20d77df998"
      d="M705.616,304.24h-17.677v-10.838h3.879v6.759h2.439v-5.959h3.88v5.959h3.64v-7.199h3.839v11.278Z"
    />
    <path
      class="uuid-8ed05e78-9a86-4287-bcc4-8f20d77df998"
      d="M709.896,268.684c-1.16,3.479-3.6,7.238-10.438,13.317v1.16h6.159v4.079h-17.677v-6.398c0-3.68,2.52-6.039,5.719-6.039,1.88,0,3.359.92,4.64,2.6,1.56-1.4,2.839-2.64,4.919-4.919,2.6-2.8,3.999-5.08,4.439-7.879.6-3.72-.04-5.399-.521-7.079l2.319-1.12c1.521,3.319,2.16,7.279.44,12.278ZM691.778,281.441v1.72h3.84v-1.479c0-1.36-.84-2.72-1.92-2.72-1.12,0-1.92.96-1.92,2.479Z"
    />
    <path
      class="uuid-8ed05e78-9a86-4287-bcc4-8f20d77df998"
      d="M685.619,264.521l-2.759,2.76-2.76-2.76,2.76-2.76,2.759,2.76ZM705.616,266.562h-17.677v-4.08h17.677v4.08Z"
    />
    <path
      class="uuid-8ed05e78-9a86-4287-bcc4-8f20d77df998"
      d="M705.616,255.001h-17.677v-10.838h3.879v6.759h2.439v-5.959h3.88v5.959h3.64v-7.199h3.839v11.278Z"
    />
    <path
      class="uuid-8ed05e78-9a86-4287-bcc4-8f20d77df998"
      d="M691.818,231.724h13.798v4.079h-13.798v5.199h-3.879v-5.199h-4.72v-4.079h4.72v-5.239h3.879v5.239Z"
    />
  </g>
  <g>
    <path
      class="uuid-8ed05e78-9a86-4287-bcc4-8f20d77df998"
      d="M56.296,619.513v4.479h-24.876v-8.479c0-4.76,3-7.919,7.319-7.919,3.919,0,7.278,3.959,7.278,8.318v3.6h10.278ZM41.738,619.513v-2.8c0-2.319-1.319-4.559-2.999-4.559-1.92,0-3.04,1.56-3.04,4.239v3.119h6.039Z"
    />
    <path
      class="uuid-8ed05e78-9a86-4287-bcc4-8f20d77df998"
      d="M56.296,602.791h-17.677v-4.079h13.838v-7.438h3.839v11.518Z"
    />
    <path
      class="uuid-8ed05e78-9a86-4287-bcc4-8f20d77df998"
      d="M56.296,576.594h-3.239v6.639h3.239v4.08h-5.319c-6.639,0-11.038-2.64-13.117-7.439,2.079-4.719,6.479-7.358,13.117-7.358h5.319v4.079ZM42.458,579.913c.96,1.64,2.56,3,6.759,3.279v-6.559c-4.199.24-5.799,1.64-6.759,3.279Z"
    />
    <path
      class="uuid-8ed05e78-9a86-4287-bcc4-8f20d77df998"
      d="M56.296,555.114h-13.798v6.719h13.798v4.079h-17.677v-14.917h17.677v4.119Z"
    />
    <path
      class="uuid-8ed05e78-9a86-4287-bcc4-8f20d77df998"
      d="M56.296,543.793h-17.677v-10.838h3.879v6.759h2.439v-5.959h3.88v5.959h3.64v-7.199h3.839v11.278Z"
    />
    <path
      class="uuid-8ed05e78-9a86-4287-bcc4-8f20d77df998"
      d="M42.498,520.515h13.798v4.079h-13.798v5.199h-3.879v-5.199h-4.72v-4.079h4.72v-5.239h3.879v5.239Z"
    />
    <path
      class="uuid-8ed05e78-9a86-4287-bcc4-8f20d77df998"
      d="M56.896,506.634c0,2.52-1.359,4.64-3.56,6.52l-2.799-2.64c1.399-1.32,2.52-2.399,2.52-4.119,0-.84-.561-1.72-1.64-1.72-1,0-1.76,1.04-3,3.399-1.239,2.319-2.839,4.159-5.159,4.159-3.199,0-5.239-2.68-5.239-5.719,0-1.84.84-3.439,2.28-5.52l3.199,2.04c-1.12,1.72-1.6,2.64-1.6,3.599,0,.561.32,1.36,1.04,1.36,1.079,0,1.239-1.12,1.999-2.359,1.68-3.04,3.399-5.199,6.239-5.199,2.88,0,5.719,2.399,5.719,6.198Z"
    />
    <path
      class="uuid-8ed05e78-9a86-4287-bcc4-8f20d77df998"
      d="M56.296,484.996h-3.239v6.639h3.239v4.08h-5.319c-6.639,0-11.038-2.64-13.117-7.439,2.079-4.719,6.479-7.358,13.117-7.358h5.319v4.079ZM42.458,488.315c.96,1.64,2.56,3,6.759,3.279v-6.559c-4.199.24-5.799,1.64-6.759,3.279Z"
    />
    <path
      class="uuid-8ed05e78-9a86-4287-bcc4-8f20d77df998"
      d="M56.296,474.314h-17.677v-4.079h13.838v-7.438h3.839v11.518Z"
    />
    <path
      class="uuid-8ed05e78-9a86-4287-bcc4-8f20d77df998"
      d="M56.296,448.116h-3.239v6.639h3.239v4.08h-5.319c-6.639,0-11.038-2.64-13.117-7.439,2.079-4.719,6.479-7.358,13.117-7.358h5.319v4.079ZM42.458,451.436c.96,1.64,2.56,3,6.759,3.279v-6.559c-4.199.24-5.799,1.64-6.759,3.279Z"
    />
    <path
      class="uuid-8ed05e78-9a86-4287-bcc4-8f20d77df998"
      d="M60.575,418.879c-1.16,3.479-3.6,7.238-10.438,13.317v1.16h6.159v4.079h-17.677v-6.398c0-3.68,2.52-6.039,5.719-6.039,1.88,0,3.359.92,4.64,2.6,1.56-1.4,2.839-2.64,4.919-4.919,2.6-2.8,3.999-5.08,4.439-7.879.6-3.72-.04-5.399-.521-7.079l2.319-1.12c1.521,3.319,2.16,7.279.44,12.278ZM42.458,431.637v1.72h3.84v-1.479c0-1.36-.84-2.72-1.92-2.72-1.12,0-1.92.96-1.92,2.479Z"
    />
  </g>
</svg>
