<?xml version="1.0" encoding="UTF-8"?>
<svg id="uuid-81109b4e-0b73-434b-a1bd-41f1374c31d8" data-name="Layer 1" xmlns="http://www.w3.org/2000/svg" viewBox="0 0 1000 1000">
  <defs>
    <style>
      .uuid-eb5aa0c3-3c3c-4bb7-ba35-4e9efc737832 {
        fill: none;
        stroke: #4f4a45;
        stroke-miterlimit: 10;
        stroke-width: 3px;
      }

      .uuid-cf4523ad-8cfc-4c69-be24-26255e119e91 {
        fill: #4f4a45;
      }
    </style>
  </defs>
  <path class="uuid-eb5aa0c3-3c3c-4bb7-ba35-4e9efc737832" d="M340.952,464.983v105.417H118.318v-105.417h222.634ZM911.538,464.983v105.417h-223.368v-105.417h223.368ZM118.318,399.37v-142.274h-45.336v15.48H28.382v276.08l-28.382-.002v68.187l28.382.002v47.182h44.6v24.326h45.336v-53.815h44.969v29.489h131.96v48.654h18.431l-.003,89.939h111.313l-.005-89.939h192.419l-.005,76.668h87.721l.005-76.668h24.326v-48.654h130.486v-29.489h51.602v109.842h42.021v-21.38h46.441v-395.133h-46.441v-17.693h-42.021v89.198h-123.85v-201.988h-45.705v28.748h-48.654v173.24h-124.584v-201.988h-50.133v21.38h-47.179v180.608h-123.11v-201.988h-44.972v21.38h-48.651v180.608H118.318ZM645.411,464.983v105.417h-259.688v-105.417h259.688Z"/>
  <g>
    <path class="uuid-cf4523ad-8cfc-4c69-be24-26255e119e91" d="M394.202,602.792v4.239h-4.479v-7.199c0-9.598,3.6-15.957,9.879-18.757,6.278,2.8,9.918,9.159,9.918,18.757v7.199h-4.479v-4.239h-10.838ZM405.04,598.473c-.199-8.039-2.759-10.599-5.438-12.238-2.68,1.64-5.199,4.199-5.399,12.238h10.838Z"/>
    <path class="uuid-cf4523ad-8cfc-4c69-be24-26255e119e91" d="M416.563,607.031v-17.677h4.079v13.838h7.438v3.839h-11.518Z"/>
    <path class="uuid-cf4523ad-8cfc-4c69-be24-26255e119e91" d="M436.721,593.233v2.439h5.959v3.88h-5.959v7.479h-4.079v-17.677h10.838v3.879h-6.759Z"/>
    <path class="uuid-cf4523ad-8cfc-4c69-be24-26255e119e91" d="M458.401,607.031v-3.239h-6.639v3.239h-4.08v-5.319c0-6.639,2.64-11.038,7.439-13.117,4.719,2.079,7.358,6.479,7.358,13.117v5.319h-4.079ZM455.082,593.193c-1.64.96-3,2.56-3.279,6.759h6.559c-.24-4.199-1.64-5.799-3.279-6.759Z"/>
    <path class="uuid-cf4523ad-8cfc-4c69-be24-26255e119e91" d="M471.482,601.433l3.479,3.479c-.6,2.28-3.439,5.56-5.52,7.079l-1.159-.84c2.839-2.319,2.359-4.639-.36-6.159l3.56-3.559Z"/>
    <path class="uuid-cf4523ad-8cfc-4c69-be24-26255e119e91" d="M491.481,582.155h9.959c4.279,0,7.358,2.68,7.358,5.959,0,1.84-1.08,3.479-2.8,4.6,2.64,1.319,4.439,3.799,4.439,6.639,0,5.079-3.68,7.679-8.918,7.679h-10.039v-24.876ZM495.96,591.273h4.439c2.159,0,3.64-1.119,3.64-2.439s-1.48-2.439-3.64-2.439h-4.439v4.879ZM495.96,602.712h4.52c3.039,0,5.119-1,5.119-3.6,0-1.999-2.319-3.6-5.119-3.6h-4.52v7.199Z"/>
    <path class="uuid-cf4523ad-8cfc-4c69-be24-26255e119e91" d="M516.681,607.031v-17.677h10.838v3.879h-6.759v2.439h5.959v3.88h-5.959v3.64h7.199v3.839h-11.278Z"/>
    <path class="uuid-cf4523ad-8cfc-4c69-be24-26255e119e91" d="M539.958,593.233v13.798h-4.079v-13.798h-5.199v-3.879h5.199v-4.72h4.079v4.72h5.239v3.879h-5.239Z"/>
    <path class="uuid-cf4523ad-8cfc-4c69-be24-26255e119e91" d="M558.319,607.031v-3.239h-6.639v3.239h-4.08v-5.319c0-6.639,2.64-11.038,7.439-13.117,4.719,2.079,7.358,6.479,7.358,13.117v5.319h-4.079ZM555,593.193c-1.64.96-3,2.56-3.279,6.759h6.559c-.24-4.199-1.64-5.799-3.279-6.759Z"/>
    <path class="uuid-cf4523ad-8cfc-4c69-be24-26255e119e91" d="M571.399,601.433l3.479,3.479c-.6,2.28-3.439,5.56-5.52,7.079l-1.159-.84c2.839-2.319,2.359-4.639-.36-6.159l3.56-3.559Z"/>
    <path class="uuid-cf4523ad-8cfc-4c69-be24-26255e119e91" d="M608.277,596.273h4.479v9.238c-2.359,1.359-5.199,2.119-8.238,2.119-8.559,0-14.718-5.438-14.718-13.037s6.6-13.038,14.718-13.038c3.119,0,5.959.72,8.238,2.039v5.199c-1.8-1.72-4.519-2.759-7.759-2.759-5.599,0-10.198,3.519-10.198,8.559s4.239,8.559,10.198,8.559c1.12,0,2.24-.16,3.28-.44v-6.438Z"/>
    <path class="uuid-cf4523ad-8cfc-4c69-be24-26255e119e91" d="M630.397,607.031v-3.239h-6.639v3.239h-4.08v-5.319c0-6.639,2.64-11.038,7.439-13.117,4.719,2.079,7.358,6.479,7.358,13.117v5.319h-4.079ZM627.078,593.193c-1.64.96-3,2.56-3.279,6.759h6.559c-.24-4.199-1.64-5.799-3.279-6.759Z"/>
    <path class="uuid-cf4523ad-8cfc-4c69-be24-26255e119e91" d="M658.036,607.031v-12.598l-4.399,1.279v11.318h-4.079v-11.318l-4.399-1.279v12.598h-4.079v-17.837l10.518,3.079,10.559-3.079v17.837h-4.119Z"/>
    <path class="uuid-cf4523ad-8cfc-4c69-be24-26255e119e91" d="M686.315,607.031v-12.598l-4.399,1.279v11.318h-4.079v-11.318l-4.399-1.279v12.598h-4.079v-17.837l10.518,3.079,10.559-3.079v17.837h-4.119Z"/>
    <path class="uuid-cf4523ad-8cfc-4c69-be24-26255e119e91" d="M707.755,607.031v-3.239h-6.639v3.239h-4.08v-5.319c0-6.639,2.64-11.038,7.439-13.117,4.719,2.079,7.358,6.479,7.358,13.117v5.319h-4.079ZM704.436,593.193c-1.64.96-3,2.56-3.279,6.759h6.559c-.24-4.199-1.64-5.799-3.279-6.759Z"/>
  </g>
  <g>
    <path class="uuid-cf4523ad-8cfc-4c69-be24-26255e119e91" d="M82.474,424.419c0,3.359-1.919,6.238-4.519,8.398l-3.2-2.84c1.64-1.52,3.399-3.199,3.399-5.919,0-1.56-1.079-3.159-3.119-3.159-1.72,0-2.8,1.52-4.839,5.199-1.72,3.119-3.84,5.599-7.039,5.599-4.399,0-6.759-3.52-6.759-7.479,0-2.479,1.16-4.6,2.919-6.919l3.6,2.199c-1.479,2-2.199,3.399-2.199,4.92,0,1.119.56,2.6,2.079,2.6,1.84,0,2.24-1.641,3.479-3.72,2.32-4.079,4.68-7.039,8.679-7.039,3.959,0,7.519,3.199,7.519,8.159Z"/>
    <path class="uuid-cf4523ad-8cfc-4c69-be24-26255e119e91" d="M61.877,408.378l-2.759,2.76-2.76-2.76,2.76-2.76,2.759,2.76ZM81.875,410.418h-17.677v-4.08h17.677v4.08Z"/>
    <path class="uuid-cf4523ad-8cfc-4c69-be24-26255e119e91" d="M81.875,391.339v7.519h-17.677v-7.438c0-3.319,2.199-5.639,4.639-5.639,1.16,0,2.2.56,3,1.56,1.04-1.68,2.6-2.72,4.399-2.72,3.679,0,5.639,2.76,5.639,6.719ZM67.997,392.139v2.64h2.6v-2.64c0-1.199-.6-2.079-1.279-2.079-.88,0-1.32.88-1.32,2.079ZM74.156,392.099v2.68h3.88v-2.68c0-1.84-.48-3.119-1.96-3.119-1.32,0-1.92,1.479-1.92,3.119Z"/>
    <path class="uuid-cf4523ad-8cfc-4c69-be24-26255e119e91" d="M81.875,378.458h-17.677v-10.838h3.879v6.759h2.439v-5.959h3.88v5.959h3.64v-7.199h3.839v11.278Z"/>
    <path class="uuid-cf4523ad-8cfc-4c69-be24-26255e119e91" d="M86.154,342.901c-1.16,3.479-3.6,7.238-10.438,13.317v1.16h6.159v4.079h-17.677v-6.398c0-3.68,2.52-6.039,5.719-6.039,1.88,0,3.359.92,4.64,2.6,1.56-1.4,2.839-2.64,4.919-4.919,2.6-2.8,3.999-5.08,4.439-7.879.6-3.72-.04-5.399-.521-7.079l2.319-1.12c1.521,3.319,2.16,7.279.44,12.278ZM68.037,355.659v1.72h3.84v-1.479c0-1.36-.84-2.72-1.92-2.72-1.12,0-1.92.96-1.92,2.479Z"/>
    <path class="uuid-cf4523ad-8cfc-4c69-be24-26255e119e91" d="M61.877,338.739l-2.759,2.76-2.76-2.76,2.76-2.76,2.759,2.76ZM81.875,340.779h-17.677v-4.08h17.677v4.08Z"/>
    <path class="uuid-cf4523ad-8cfc-4c69-be24-26255e119e91" d="M81.875,329.219h-17.677v-10.838h3.879v6.759h2.439v-5.959h3.88v5.959h3.64v-7.199h3.839v11.278Z"/>
    <path class="uuid-cf4523ad-8cfc-4c69-be24-26255e119e91" d="M81.875,301.422h-13.798v6.719h13.798v4.079h-17.677v-14.917h17.677v4.119Z"/>
  </g>
</svg>