<?xml version="1.0" encoding="UTF-8"?>
<svg id="uuid-4608dfd6-4474-46a7-ba7a-e0c57a29ff61" data-name="Layer 1" xmlns="http://www.w3.org/2000/svg" viewBox="0 0 1000 1000">
  <defs>
    <style>
      .uuid-c6f54fe9-4199-4dcf-a191-d5ea58b761c5, .uuid-bd47c20c-2760-4eab-a108-5999cf8f93e1 {
        fill: none;
        stroke: #4f4a45;
        stroke-miterlimit: 10;
        stroke-width: 3px;
      }

      .uuid-bd47c20c-2760-4eab-a108-5999cf8f93e1 {
        stroke-dasharray: 12;
      }

      .uuid-80b619b2-8a85-4bfc-a0c0-1cbe2b08e333 {
        fill: #4f4a45;
      }
    </style>
  </defs>
  <g>
    <path class="uuid-80b619b2-8a85-4bfc-a0c0-1cbe2b08e333" d="M477.457,420.02h-8.599v-4.319h15.197c-.959,4.119-3.159,7.479-5.839,9.519,3.08.88,5.879,3.879,5.879,7.759,0,4.52-3.879,8.198-8.678,8.198-3.32,0-6.199-1.76-7.679-4.359l3.439-1.72c.76,1.28,2.199,2.16,3.919,2.16,2.52,0,4.479-1.88,4.479-4.239s-1.96-4.239-4.479-4.239c-.56,0-1.12.12-1.6.279l-2.439-2.679c2.56-1.12,5.199-3,6.398-6.359Z"/>
    <path class="uuid-80b619b2-8a85-4bfc-a0c0-1cbe2b08e333" d="M500.336,420.02h-8.599v-4.319h15.197c-.959,4.119-3.159,7.479-5.839,9.519,3.08.88,5.879,3.879,5.879,7.759,0,4.52-3.879,8.198-8.677,8.198-3.32,0-6.199-1.76-7.679-4.359l3.439-1.72c.76,1.28,2.199,2.16,3.919,2.16,2.52,0,4.479-1.88,4.479-4.239s-1.959-4.239-4.479-4.239c-.56,0-1.12.12-1.6.279l-2.439-2.679c2.56-1.12,5.199-3,6.398-6.359Z"/>
    <path class="uuid-80b619b2-8a85-4bfc-a0c0-1cbe2b08e333" d="M528.494,415.7h5.439l-7.759,11.519,8.998,13.357h-5.398l-6.319-9.358-6.319,9.358h-5.398l8.998-13.357-7.759-11.519h5.439l5.039,7.519,5.039-7.519Z"/>
    <path class="uuid-80b619b2-8a85-4bfc-a0c0-1cbe2b08e333" d="M554.255,415.7h5.439l-7.759,11.519,8.998,13.357h-5.399l-6.318-9.358-6.319,9.358h-5.398l8.998-13.357-7.759-11.519h5.439l5.039,7.519,5.039-7.519Z"/>
  </g>
  <g>
    <path class="uuid-80b619b2-8a85-4bfc-a0c0-1cbe2b08e333" d="M193.633,420.02h-8.599v-4.319h15.197c-.959,4.119-3.159,7.479-5.839,9.519,3.08.88,5.879,3.879,5.879,7.759,0,4.52-3.879,8.198-8.678,8.198-3.32,0-6.199-1.76-7.679-4.359l3.439-1.72c.76,1.28,2.199,2.16,3.919,2.16,2.52,0,4.479-1.88,4.479-4.239s-1.96-4.239-4.479-4.239c-.56,0-1.12.12-1.6.279l-2.439-2.679c2.56-1.12,5.199-3,6.398-6.359Z"/>
    <path class="uuid-80b619b2-8a85-4bfc-a0c0-1cbe2b08e333" d="M216.513,420.02h-8.599v-4.319h15.197c-.959,4.119-3.159,7.479-5.839,9.519,3.08.88,5.879,3.879,5.879,7.759,0,4.52-3.879,8.198-8.678,8.198-3.32,0-6.199-1.76-7.679-4.359l3.439-1.72c.76,1.28,2.199,2.16,3.919,2.16,2.52,0,4.479-1.88,4.479-4.239s-1.96-4.239-4.479-4.239c-.56,0-1.12.12-1.6.279l-2.439-2.679c2.56-1.12,5.199-3,6.398-6.359Z"/>
    <path class="uuid-80b619b2-8a85-4bfc-a0c0-1cbe2b08e333" d="M244.671,415.7h5.439l-7.759,11.519,8.998,13.357h-5.398l-6.319-9.358-6.319,9.358h-5.398l8.998-13.357-7.759-11.519h5.439l5.039,7.519,5.039-7.519Z"/>
    <path class="uuid-80b619b2-8a85-4bfc-a0c0-1cbe2b08e333" d="M270.432,415.7h5.439l-7.759,11.519,8.998,13.357h-5.399l-6.318-9.358-6.319,9.358h-5.398l8.998-13.357-7.759-11.519h5.439l5.039,7.519,5.039-7.519Z"/>
  </g>
  <g>
    <path class="uuid-80b619b2-8a85-4bfc-a0c0-1cbe2b08e333" d="M763.853,420.02h-8.599v-4.319h15.197c-.959,4.119-3.159,7.479-5.839,9.519,3.08.88,5.879,3.879,5.879,7.759,0,4.52-3.879,8.198-8.678,8.198-3.32,0-6.199-1.76-7.679-4.359l3.439-1.72c.76,1.28,2.199,2.16,3.919,2.16,2.52,0,4.479-1.88,4.479-4.239s-1.96-4.239-4.479-4.239c-.56,0-1.12.12-1.6.279l-2.439-2.679c2.56-1.12,5.199-3,6.398-6.359Z"/>
    <path class="uuid-80b619b2-8a85-4bfc-a0c0-1cbe2b08e333" d="M786.732,420.02h-8.599v-4.319h15.197c-.959,4.119-3.159,7.479-5.839,9.519,3.08.88,5.879,3.879,5.879,7.759,0,4.52-3.879,8.198-8.678,8.198-3.32,0-6.199-1.76-7.679-4.359l3.439-1.72c.76,1.28,2.199,2.16,3.919,2.16,2.52,0,4.479-1.88,4.479-4.239s-1.96-4.239-4.479-4.239c-.56,0-1.12.12-1.6.279l-2.439-2.679c2.56-1.12,5.199-3,6.398-6.359Z"/>
    <path class="uuid-80b619b2-8a85-4bfc-a0c0-1cbe2b08e333" d="M814.891,415.7h5.439l-7.759,11.519,8.998,13.357h-5.398l-6.319-9.358-6.319,9.358h-5.398l8.998-13.357-7.759-11.519h5.439l5.039,7.519,5.039-7.519Z"/>
    <path class="uuid-80b619b2-8a85-4bfc-a0c0-1cbe2b08e333" d="M840.651,415.7h5.439l-7.759,11.519,8.998,13.357h-5.399l-6.318-9.358-6.319,9.358h-5.398l8.998-13.357-7.759-11.519h5.439l5.039,7.519,5.039-7.519Z"/>
  </g>
  <g>
    <path class="uuid-bd47c20c-2760-4eab-a108-5999cf8f93e1" d="M340.952,464.986v105.417H118.318v-105.417h222.634ZM911.538,464.986v105.417h-223.368v-105.417h223.368ZM118.318,399.373v-142.277h-45.339v15.483H28.382v276.08l-28.382-.003v68.185l28.382.005v47.182h44.598v24.323h45.339v-53.812h44.969v29.489h131.957v48.654h18.434l-.005,89.936h111.316l-.008-89.936h192.422l-.005,76.668h87.721l.005-76.668h24.326v-48.654h130.486v-29.489h51.602v109.839h42.021v-21.377h46.441v-395.136h-46.441v-17.693h-42.021v89.2h-123.85v-201.991h-45.705v28.748h-48.654v173.242h-124.584v-201.991h-50.133v21.382h-47.179v180.608h-123.11v-201.991h-44.972v21.382h-48.654v180.608H118.318ZM645.411,464.986v105.417h-259.69v-105.417h259.69Z"/>
    <rect class="uuid-c6f54fe9-4199-4dcf-a191-d5ea58b761c5" x="72.597" y="398.556" width="880.565" height="65.769"/>
    <polygon class="uuid-c6f54fe9-4199-4dcf-a191-d5ea58b761c5" points="911.096 569.473 118.177 569.538 118.177 633.677 163.147 633.677 163.147 663.166 295.106 663.166 295.106 711.82 729.312 711.82 729.312 663.166 859.793 663.166 859.793 633.677 893.516 633.828 893.516 616.64 911.096 616.552 911.096 569.473"/>
  </g>
</svg>