<?xml version="1.0" encoding="UTF-8"?>
<svg
  id="uuid-42df816a-f083-40ca-9325-28c9e38983ad"
  data-name="Layer 1"
  xmlns="http://www.w3.org/2000/svg"
  viewBox="0 0 1000 1000"
>
  <defs>
    <style>
    .uuid-b89f77b0-3ac7-4415-9d1c-8ee881e94164,
    .uuid-4be1c38c-8197-4a38-96e8-6947826baf0d {
      fill: none;
      stroke: #4f4a45;
      stroke-miterlimit: 10;
      stroke-width: 3px;
    }

    .uuid-4be1c38c-8197-4a38-96e8-6947826baf0d {
      stroke-dasharray: 12;
    }

    .uuid-87a4d5b7-f832-44b8-bd3e-32e76355f2e6 {
      fill: #4f4a45;
    }
    </style>
  </defs>
  <g>
    <path
      class="uuid-87a4d5b7-f832-44b8-bd3e-32e76355f2e6"
      d="M347.663,751.741h8.519v4.318h-8.519v7.159h10.278v4.319h-14.758v-24.876h14.118v4.319h-9.639v4.76Z"
    />
    <path
      class="uuid-87a4d5b7-f832-44b8-bd3e-32e76355f2e6"
      d="M366.983,757.06l-3.479-3.479,3.479-3.479,3.479,3.479-3.479,3.479ZM366.983,768.897l-3.479-3.479,3.479-3.479,3.479,3.479-3.479,3.479Z"
    />
    <path
      class="uuid-87a4d5b7-f832-44b8-bd3e-32e76355f2e6"
      d="M381.462,763.299v4.239h-4.479v-7.199c0-9.598,3.6-15.957,9.879-18.757,6.278,2.8,9.918,9.159,9.918,18.757v7.199h-4.479v-4.239h-10.838ZM392.3,758.979c-.199-8.039-2.759-10.599-5.438-12.238-2.68,1.64-5.199,4.199-5.399,12.238h10.838Z"
    />
  </g>
  <g>
    <path
      class="uuid-87a4d5b7-f832-44b8-bd3e-32e76355f2e6"
      d="M640.018,745.104h8.519v4.318h-8.519v7.159h10.278v4.319h-14.758v-24.876h14.118v4.319h-9.639v4.76Z"
    />
    <path
      class="uuid-87a4d5b7-f832-44b8-bd3e-32e76355f2e6"
      d="M659.338,750.423l-3.479-3.479,3.479-3.479,3.479,3.479-3.479,3.479ZM659.338,762.261l-3.479-3.479,3.479-3.479,3.479,3.479-3.479,3.479Z"
    />
    <path
      class="uuid-87a4d5b7-f832-44b8-bd3e-32e76355f2e6"
      d="M670.137,736.025h9.959c4.279,0,7.358,2.68,7.358,5.959,0,1.84-1.08,3.479-2.8,4.6,2.64,1.319,4.439,3.799,4.439,6.639,0,5.079-3.68,7.679-8.918,7.679h-10.039v-24.876ZM674.616,745.144h4.439c2.159,0,3.64-1.119,3.64-2.439s-1.48-2.439-3.64-2.439h-4.439v4.879ZM674.616,756.582h4.52c3.039,0,5.119-1,5.119-3.6,0-1.999-2.319-3.6-5.119-3.6h-4.52v7.199Z"
    />
  </g>
  <g>
    <path
      class="uuid-87a4d5b7-f832-44b8-bd3e-32e76355f2e6"
      d="M664.933,602.321v-4.479h9.238c1.359,2.359,2.119,5.199,2.119,8.238,0,8.559-5.438,14.718-13.037,14.718s-13.038-6.6-13.038-14.718c0-3.119.72-5.959,2.039-8.238h5.199c-1.72,1.8-2.759,4.519-2.759,7.759,0,5.599,3.519,10.198,8.559,10.198s8.559-4.239,8.559-10.198c0-1.12-.16-2.24-.44-3.28h-6.438Z"
    />
    <path
      class="uuid-87a4d5b7-f832-44b8-bd3e-32e76355f2e6"
      d="M673.371,569.202c3.999-4.159,5.839-7.519,6.559-11.638.92-5.479-.08-7.999-.64-9.799l2.479-1.08c1.92,3.96,2.8,9.479.359,16.357-1.72,4.999-5.679,10.719-16.957,19.997v1.6h10.519v4.479h-24.876v-8.479c0-4.76,3-7.919,7.319-7.919,2.799,0,5.039,2.199,6.238,4.959,2.439-2.119,5.56-4.879,8.999-8.479ZM661.133,584.64v-2.8c0-2.319-1.319-4.559-2.999-4.559-1.92,0-3.04,1.56-3.04,4.239v3.119h6.039Z"
    />
    <path
      class="uuid-87a4d5b7-f832-44b8-bd3e-32e76355f2e6"
      d="M671.611,554.961c-1.72-2.8-5.199-6.039-14.038-6.039h-6.759v-4.479h7.199c9.598,0,15.957,4.239,18.757,10.519-2.8,6.279-9.159,10.479-18.757,10.479h-7.199v-4.479h6.759c8.839,0,12.318-3.199,14.038-5.999Z"
    />
    <path
      class="uuid-87a4d5b7-f832-44b8-bd3e-32e76355f2e6"
      d="M675.69,531.16v4.479h-24.876v-8.479c0-4.76,3-7.919,7.319-7.919,3.919,0,7.278,3.959,7.278,8.318v3.6h10.278ZM661.133,531.16v-2.8c0-2.319-1.319-4.56-2.999-4.56-1.92,0-3.04,1.561-3.04,4.24v3.119h6.039Z"
    />
    <path
      class="uuid-87a4d5b7-f832-44b8-bd3e-32e76355f2e6"
      d="M675.69,508.761v4.479h-24.876v-8.479c0-4.76,3-7.919,7.319-7.919,3.919,0,7.278,3.959,7.278,8.318v3.6h10.278ZM661.133,508.761v-2.8c0-2.319-1.319-4.559-2.999-4.559-1.92,0-3.04,1.56-3.04,4.239v3.119h6.039Z"
    />
    <path
      class="uuid-87a4d5b7-f832-44b8-bd3e-32e76355f2e6"
      d="M673.371,470.923c3.999-4.159,5.839-7.519,6.559-11.638.92-5.479-.08-7.999-.64-9.799l2.479-1.08c1.92,3.96,2.8,9.479.359,16.357-1.72,4.999-5.679,10.719-16.957,19.997v1.6h10.519v4.479h-24.876v-8.479c0-4.76,3-7.919,7.319-7.919,2.799,0,5.039,2.199,6.238,4.959,2.439-2.119,5.56-4.879,8.999-8.479ZM661.133,486.36v-2.8c0-2.319-1.319-4.559-2.999-4.559-1.92,0-3.04,1.56-3.04,4.239v3.119h6.039Z"
    />
    <path
      class="uuid-87a4d5b7-f832-44b8-bd3e-32e76355f2e6"
      d="M671.611,456.681c-1.72-2.8-5.199-6.039-14.038-6.039h-6.759v-4.479h7.199c9.598,0,15.957,4.239,18.757,10.519-2.8,6.279-9.159,10.479-18.757,10.479h-7.199v-4.479h6.759c8.839,0,12.318-3.199,14.038-5.999Z"
    />
    <path
      class="uuid-87a4d5b7-f832-44b8-bd3e-32e76355f2e6"
      d="M675.69,432.881v4.479h-24.956l4.399-14.358-4.399-14.357h24.956v4.479h-19.037l2.32,7.639h16.717v4.479h-16.717l-2.32,7.639h19.037Z"
    />
  </g>
  <g>
    <path
      class="uuid-87a4d5b7-f832-44b8-bd3e-32e76355f2e6"
      d="M442.004,485.815v4.319h-7.439v20.557h-4.479v-20.557h-7.439v-4.319h7.439v-7.119h4.479v7.119h7.439Z"
    />
    <path
      class="uuid-87a4d5b7-f832-44b8-bd3e-32e76355f2e6"
      d="M452.085,503.652v7.039h-4.079v-7.039l-6.639-10.638h4.759l3.919,6.358,3.92-6.358h4.759l-6.639,10.638Z"
    />
    <path
      class="uuid-87a4d5b7-f832-44b8-bd3e-32e76355f2e6"
      d="M467.166,511.291c-2.52,0-4.64-1.359-6.52-3.56l2.64-2.799c1.32,1.399,2.399,2.52,4.119,2.52.84,0,1.72-.561,1.72-1.64,0-1-1.039-1.76-3.399-3-2.319-1.239-4.159-2.839-4.159-5.159,0-3.199,2.68-5.239,5.719-5.239,1.84,0,3.439.84,5.52,2.28l-2.04,3.199c-1.72-1.12-2.64-1.6-3.599-1.6-.561,0-1.36.32-1.36,1.04,0,1.079,1.12,1.239,2.359,1.999,3.04,1.68,5.199,3.399,5.199,6.239,0,2.88-2.399,5.719-6.198,5.719Z"
    />
    <path
      class="uuid-87a4d5b7-f832-44b8-bd3e-32e76355f2e6"
      d="M484.964,496.894v13.798h-4.079v-13.798h-5.199v-3.879h5.199v-4.72h4.079v4.72h5.239v3.879h-5.239Z"
    />
    <path
      class="uuid-87a4d5b7-f832-44b8-bd3e-32e76355f2e6"
      d="M520.723,485.815v4.319h-7.439v20.557h-4.479v-20.557h-7.439v-4.319h7.439v-7.119h4.479v7.119h7.439Z"
    />
    <path
      class="uuid-87a4d5b7-f832-44b8-bd3e-32e76355f2e6"
      d="M530.804,503.652v7.039h-4.079v-7.039l-6.639-10.638h4.759l3.919,6.358,3.92-6.358h4.759l-6.639,10.638Z"
    />
    <path
      class="uuid-87a4d5b7-f832-44b8-bd3e-32e76355f2e6"
      d="M545.885,511.291c-2.52,0-4.64-1.359-6.52-3.56l2.64-2.799c1.32,1.399,2.399,2.52,4.119,2.52.84,0,1.72-.561,1.72-1.64,0-1-1.039-1.76-3.399-3-2.319-1.239-4.159-2.839-4.159-5.159,0-3.199,2.68-5.239,5.719-5.239,1.84,0,3.439.84,5.52,2.28l-2.04,3.199c-1.72-1.12-2.64-1.6-3.599-1.6-.561,0-1.36.32-1.36,1.04,0,1.079,1.12,1.239,2.359,1.999,3.04,1.68,5.199,3.399,5.199,6.239,0,2.88-2.399,5.719-6.198,5.719Z"
    />
    <path
      class="uuid-87a4d5b7-f832-44b8-bd3e-32e76355f2e6"
      d="M563.683,496.894v13.798h-4.079v-13.798h-5.199v-3.879h5.199v-4.72h4.079v4.72h5.239v3.879h-5.239Z"
    />
    <path
      class="uuid-87a4d5b7-f832-44b8-bd3e-32e76355f2e6"
      d="M597.281,513.771v-3.319s-2.279.84-5.398.84c-6.56,0-9.959-3.679-9.959-8.158,0-3.359,2.479-6.399,6.319-7.239-1.32-.999-3.279-2.399-3.279-5.358,0-3,2.52-5.319,6.479-5.319,4.239,0,6.559,3.279,6.999,5.879l-3.72,1.2c-.2-1.72-1.199-3.399-3.119-3.399-1.32,0-2.16.88-2.16,2.079,0,2.56,3.36,4.839,12.878,4.839h3.8v3.64h-4.359v14.317h-4.479ZM597.281,499.453h-4.599c-2.84,0-5.959,1.64-5.959,4.119,0,2.32,1.72,4.319,5.438,4.319,2.399,0,4.159-.88,5.119-1.64v-6.799Z"
    />
    <path
      class="uuid-87a4d5b7-f832-44b8-bd3e-32e76355f2e6"
      d="M437.806,533.815h4.479v20.557h10.599v4.319h-15.078v-24.876Z"
    />
    <path
      class="uuid-87a4d5b7-f832-44b8-bd3e-32e76355f2e6"
      d="M459.326,537.814l-3.119-2.879,3.119-2.88,3.079,2.88-3.079,2.879ZM467.125,558.691v-3.239h-6.639v3.239h-4.08v-5.319c0-6.639,2.64-11.038,7.439-13.117,4.719,2.079,7.358,6.479,7.358,13.117v5.319h-4.079ZM463.805,544.854c-1.64.96-3,2.56-3.279,6.759h6.559c-.24-4.199-1.64-5.799-3.279-6.759ZM468.444,537.814l-3.119-2.879,3.119-2.88,3.08,2.88-3.08,2.879Z"
    />
    <path
      class="uuid-87a4d5b7-f832-44b8-bd3e-32e76355f2e6"
      d="M482.246,559.291c-2.52,0-4.64-1.359-6.52-3.56l2.64-2.799c1.32,1.399,2.399,2.52,4.119,2.52.84,0,1.72-.561,1.72-1.64,0-1-1.039-1.76-3.399-3-2.319-1.239-4.159-2.839-4.159-5.159,0-3.199,2.68-5.239,5.719-5.239,1.84,0,3.439.84,5.52,2.28l-2.04,3.199c-1.72-1.12-2.64-1.6-3.599-1.6-.561,0-1.36.32-1.36,1.04,0,1.079,1.12,1.239,2.359,1.999,3.04,1.68,5.199,3.399,5.199,6.239,0,2.88-2.399,5.719-6.198,5.719Z"
    />
    <path
      class="uuid-87a4d5b7-f832-44b8-bd3e-32e76355f2e6"
      d="M503.885,558.691v-3.239h-6.639v3.239h-4.08v-5.319c0-6.639,2.64-11.038,7.439-13.117,4.719,2.079,7.359,6.479,7.359,13.117v5.319h-4.079ZM500.565,544.854c-1.64.96-3,2.56-3.279,6.759h6.559c-.24-4.199-1.64-5.799-3.28-6.759Z"
    />
    <path
      class="uuid-87a4d5b7-f832-44b8-bd3e-32e76355f2e6"
      d="M524.965,533.815h4.479v20.557h10.599v4.319h-15.078v-24.876Z"
    />
    <path
      class="uuid-87a4d5b7-f832-44b8-bd3e-32e76355f2e6"
      d="M546.484,537.814l-3.119-2.879,3.119-2.88,3.079,2.88-3.079,2.879ZM554.283,558.691v-3.239h-6.639v3.239h-4.08v-5.319c0-6.639,2.64-11.038,7.439-13.117,4.719,2.079,7.358,6.479,7.358,13.117v5.319h-4.079ZM550.964,544.854c-1.64.96-3,2.56-3.279,6.759h6.559c-.24-4.199-1.64-5.799-3.279-6.759ZM555.603,537.814l-3.119-2.879,3.119-2.88,3.08,2.88-3.08,2.879Z"
    />
    <path
      class="uuid-87a4d5b7-f832-44b8-bd3e-32e76355f2e6"
      d="M569.404,559.291c-2.52,0-4.64-1.359-6.52-3.56l2.64-2.799c1.32,1.399,2.399,2.52,4.119,2.52.84,0,1.72-.561,1.72-1.64,0-1-1.039-1.76-3.399-3-2.319-1.239-4.159-2.839-4.159-5.159,0-3.199,2.68-5.239,5.719-5.239,1.84,0,3.439.84,5.52,2.28l-2.04,3.199c-1.72-1.12-2.64-1.6-3.599-1.6-.561,0-1.36.32-1.36,1.04,0,1.079,1.12,1.239,2.359,1.999,3.04,1.68,5.199,3.399,5.199,6.239,0,2.88-2.399,5.719-6.198,5.719Z"
    />
    <path
      class="uuid-87a4d5b7-f832-44b8-bd3e-32e76355f2e6"
      d="M591.043,558.691v-3.239h-6.639v3.239h-4.08v-5.319c0-6.639,2.64-11.038,7.439-13.117,4.719,2.079,7.358,6.479,7.358,13.117v5.319h-4.079ZM587.724,544.854c-1.64.96-3,2.56-3.279,6.759h6.559c-.24-4.199-1.64-5.799-3.279-6.759Z"
    />
  </g>
  <g>
    <path
      class="uuid-87a4d5b7-f832-44b8-bd3e-32e76355f2e6"
      d="M361.312,602.321v-4.479h9.238c1.359,2.359,2.119,5.199,2.119,8.238,0,8.559-5.438,14.718-13.037,14.718s-13.038-6.6-13.038-14.718c0-3.119.72-5.959,2.039-8.238h5.199c-1.72,1.8-2.759,4.519-2.759,7.759,0,5.599,3.519,10.198,8.559,10.198s8.559-4.239,8.559-10.198c0-1.12-.16-2.24-.44-3.28h-6.438Z"
    />
    <path
      class="uuid-87a4d5b7-f832-44b8-bd3e-32e76355f2e6"
      d="M369.75,569.202c3.999-4.159,5.839-7.519,6.559-11.638.92-5.479-.08-7.999-.64-9.799l2.479-1.08c1.92,3.96,2.8,9.479.359,16.357-1.72,4.999-5.679,10.719-16.957,19.997v1.6h10.519v4.479h-24.876v-8.479c0-4.76,3-7.919,7.319-7.919,2.799,0,5.039,2.199,6.238,4.959,2.439-2.119,5.56-4.879,8.999-8.479ZM357.512,584.64v-2.8c0-2.319-1.319-4.559-2.999-4.559-1.92,0-3.04,1.56-3.04,4.239v3.119h6.039Z"
    />
    <path
      class="uuid-87a4d5b7-f832-44b8-bd3e-32e76355f2e6"
      d="M367.99,554.961c-1.72-2.8-5.199-6.039-14.038-6.039h-6.759v-4.479h7.199c9.598,0,15.957,4.239,18.757,10.519-2.8,6.279-9.159,10.479-18.757,10.479h-7.199v-4.479h6.759c8.839,0,12.318-3.199,14.038-5.999Z"
    />
    <path
      class="uuid-87a4d5b7-f832-44b8-bd3e-32e76355f2e6"
      d="M372.069,531.16v4.479h-24.876v-8.479c0-4.76,3-7.919,7.319-7.919,3.919,0,7.278,3.959,7.278,8.318v3.6h10.278ZM357.512,531.16v-2.8c0-2.319-1.319-4.56-2.999-4.56-1.92,0-3.04,1.561-3.04,4.24v3.119h6.039Z"
    />
    <path
      class="uuid-87a4d5b7-f832-44b8-bd3e-32e76355f2e6"
      d="M372.069,508.761v4.479h-24.876v-8.479c0-4.76,3-7.919,7.319-7.919,3.919,0,7.278,3.959,7.278,8.318v3.6h10.278ZM357.512,508.761v-2.8c0-2.319-1.319-4.559-2.999-4.559-1.92,0-3.04,1.56-3.04,4.239v3.119h6.039Z"
    />
    <path
      class="uuid-87a4d5b7-f832-44b8-bd3e-32e76355f2e6"
      d="M369.75,470.923c3.999-4.159,5.839-7.519,6.559-11.638.92-5.479-.08-7.999-.64-9.799l2.479-1.08c1.92,3.96,2.8,9.479.359,16.357-1.72,4.999-5.679,10.719-16.957,19.997v1.6h10.519v4.479h-24.876v-8.479c0-4.76,3-7.919,7.319-7.919,2.799,0,5.039,2.199,6.238,4.959,2.439-2.119,5.56-4.879,8.999-8.479ZM357.512,486.36v-2.8c0-2.319-1.319-4.559-2.999-4.559-1.92,0-3.04,1.56-3.04,4.239v3.119h6.039Z"
    />
    <path
      class="uuid-87a4d5b7-f832-44b8-bd3e-32e76355f2e6"
      d="M367.99,456.681c-1.72-2.8-5.199-6.039-14.038-6.039h-6.759v-4.479h7.199c9.598,0,15.957,4.239,18.757,10.519-2.8,6.279-9.159,10.479-18.757,10.479h-7.199v-4.479h6.759c8.839,0,12.318-3.199,14.038-5.999Z"
    />
    <path
      class="uuid-87a4d5b7-f832-44b8-bd3e-32e76355f2e6"
      d="M372.069,432.881v4.479h-24.956l4.399-14.358-4.399-14.357h24.956v4.479h-19.037l2.32,7.639h16.717v4.479h-16.717l-2.32,7.639h19.037Z"
    />
  </g>
  <g>
    <path
      class="uuid-87a4d5b7-f832-44b8-bd3e-32e76355f2e6"
      d="M822.268,534.414v24.877h-4.479v-24.877h4.479Z"
    />
    <path
      class="uuid-87a4d5b7-f832-44b8-bd3e-32e76355f2e6"
      d="M842.268,534.414h4.438v15.197h2.84v3.84h-2.84v5.84h-4.479v-5.84h-10.719v-3.08l10.759-15.957ZM836.668,549.611h5.56v-8.197l-5.56,8.197Z"
    />
    <path
      class="uuid-87a4d5b7-f832-44b8-bd3e-32e76355f2e6"
      d="M870.586,534.414h5.439l-7.759,11.52,8.998,13.357h-5.398l-6.319-9.359-6.319,9.359h-5.398l8.998-13.357-7.759-11.52h5.439l5.039,7.52,5.039-7.52Z"
    />
    <path
      class="uuid-87a4d5b7-f832-44b8-bd3e-32e76355f2e6"
      d="M896.346,534.414h5.439l-7.759,11.52,8.998,13.357h-5.398l-6.319-9.359-6.319,9.359h-5.398l8.998-13.357-7.759-11.52h5.439l5.039,7.52,5.039-7.52Z"
    />
  </g>
  <g>
    <path
      class="uuid-87a4d5b7-f832-44b8-bd3e-32e76355f2e6"
      d="M459.605,666.362h8.519v4.318h-8.519v11.479h-4.479v-24.876h14.118v4.319h-9.639v4.76Z"
    />
    <path
      class="uuid-87a4d5b7-f832-44b8-bd3e-32e76355f2e6"
      d="M481.164,682.759c-5.839,0-10.038-4.039-10.038-9.398,0-5.398,4.479-9.479,10.038-9.479,5.8,0,9.999,4.08,9.999,9.479,0,5.359-4.479,9.398-9.999,9.398ZM481.164,667.842c-3.159,0-5.799,2.399-5.799,5.519,0,3.08,2.399,5.439,5.799,5.439,3.16,0,5.76-2.359,5.76-5.439,0-3.119-2.4-5.519-5.76-5.519Z"
    />
    <path
      class="uuid-87a4d5b7-f832-44b8-bd3e-32e76355f2e6"
      d="M506.684,682.159v-3.239h-6.639v3.239h-4.08v-5.319c0-6.639,2.64-11.038,7.44-13.117,4.719,2.079,7.358,6.479,7.358,13.117v5.319h-4.079ZM503.364,668.321c-1.64.96-3,2.56-3.28,6.759h6.559c-.24-4.199-1.64-5.799-3.279-6.759Z"
    />
    <path
      class="uuid-87a4d5b7-f832-44b8-bd3e-32e76355f2e6"
      d="M517.365,682.159v-17.677h4.079v13.838h7.438v3.839h-11.518Z"
    />
    <path
      class="uuid-87a4d5b7-f832-44b8-bd3e-32e76355f2e6"
      d="M535.765,662.162l-2.76-2.759,2.76-2.76,2.76,2.76-2.76,2.759ZM533.725,688.958v-24.476h4.08v20.437l-4.08,4.039Z"
    />
    <path
      class="uuid-87a4d5b7-f832-44b8-bd3e-32e76355f2e6"
      d="M545.285,682.159v-17.677h10.838v3.879h-6.759v2.439h5.959v3.88h-5.959v3.64h7.199v3.839h-11.278ZM551.004,661.243h-1.68l2.279-6.76h5.879l-6.479,6.76Z"
    />
    <path
      class="uuid-87a4d5b7-f832-44b8-bd3e-32e76355f2e6"
      d="M573.082,682.159v-13.798h-6.719v13.798h-4.079v-17.677h14.917v17.677h-4.119Z"
    />
  </g>
  <g>
    <path
      class="uuid-87a4d5b7-f832-44b8-bd3e-32e76355f2e6"
      d="M455.905,744.377h-4.479v-24.876h4.479v6.719h13.118v-6.719h4.479v24.876h-4.479v-8.318h-13.118v8.318ZM455.905,732.419h13.118v-2.56h-13.118v2.56Z"
    />
    <path
      class="uuid-87a4d5b7-f832-44b8-bd3e-32e76355f2e6"
      d="M489.145,745.177c-4.799-2.08-7.839-6.438-7.839-13.118v-5.358h4.08v5.039c0,5.438,1.919,7.719,3.719,8.878,1.8-1.159,3.76-3.439,3.76-8.878v-5.039h4.079v5.358c0,6.68-3.079,11.038-7.799,13.118Z"
    />
    <path
      class="uuid-87a4d5b7-f832-44b8-bd3e-32e76355f2e6"
      d="M510.265,744.896h-1.56l-8.358-18.196h4.559l4.56,10.078,4.639-10.078h4.52l-8.358,18.196Z"
    />
    <path
      class="uuid-87a4d5b7-f832-44b8-bd3e-32e76355f2e6"
      d="M529.863,745.177c-4.799-2.08-7.839-6.438-7.839-13.118v-5.358h4.08v5.039c0,5.438,1.919,7.719,3.719,8.878,1.8-1.159,3.76-3.439,3.76-8.878v-5.039h4.079v5.358c0,6.68-3.079,11.038-7.799,13.118Z"
    />
    <path
      class="uuid-87a4d5b7-f832-44b8-bd3e-32e76355f2e6"
      d="M550.503,744.377h-6.238v-17.677h6.238c6.72,0,11.318,3.159,11.318,8.878,0,5.359-4.599,8.799-11.318,8.799ZM550.783,730.579h-2.439v9.959h2.439c3.96,0,6.599-1.76,6.599-4.96,0-3.399-2.639-4.999-6.599-4.999Z"
    />
    <path
      class="uuid-87a4d5b7-f832-44b8-bd3e-32e76355f2e6"
      d="M567.824,734.259v-4.319h13.077v4.319h-13.077Z"
    />
    <path
      class="uuid-87a4d5b7-f832-44b8-bd3e-32e76355f2e6"
      d="M473.046,792.377v-17.677h10.838v3.879h-6.759v2.439h5.959v3.88h-5.959v3.64h7.199v3.839h-11.278Z"
    />
    <path
      class="uuid-87a4d5b7-f832-44b8-bd3e-32e76355f2e6"
      d="M500.844,792.377v-13.798h-6.719v13.798h-4.079v-17.677h14.917v17.677h-4.119Z"
    />
    <path
      class="uuid-87a4d5b7-f832-44b8-bd3e-32e76355f2e6"
      d="M518.443,778.579v13.798h-4.079v-13.798h-5.199v-3.879h5.199v-4.72h4.079v4.72h5.239v3.879h-5.239Z"
    />
    <path
      class="uuid-87a4d5b7-f832-44b8-bd3e-32e76355f2e6"
      d="M546.441,796.656c-3.479-1.16-7.238-3.6-13.317-10.438h-1.16v6.159h-4.079v-17.677h6.398c3.68,0,6.039,2.52,6.039,5.719,0,1.88-.92,3.359-2.6,4.64,1.4,1.56,2.64,2.839,4.919,4.919,2.8,2.6,5.08,3.999,7.879,4.439,3.72.6,5.399-.04,7.079-.521l1.12,2.319c-3.319,1.521-7.279,2.16-12.278.44ZM533.684,778.539h-1.72v3.84h1.479c1.36,0,2.72-.84,2.72-1.92,0-1.12-.96-1.92-2.479-1.92Z"
    />
    <path
      class="uuid-87a4d5b7-f832-44b8-bd3e-32e76355f2e6"
      d="M548.284,792.377v-17.677h10.838v3.879h-6.759v2.439h5.959v3.88h-5.959v3.64h7.199v3.839h-11.278ZM554.003,771.461h-1.68l2.279-6.76h5.879l-6.479,6.76Z"
    />
  </g>
  <g>
    <path
      class="uuid-87a4d5b7-f832-44b8-bd3e-32e76355f2e6"
      d="M94.426,616.341v-4.479h9.238c1.359,2.359,2.119,5.199,2.119,8.238,0,8.559-5.438,14.718-13.037,14.718s-13.038-6.6-13.038-14.718c0-3.119.72-5.959,2.039-8.238h5.199c-1.72,1.8-2.759,4.519-2.759,7.759,0,5.599,3.519,10.198,8.559,10.198s8.559-4.239,8.559-10.198c0-1.12-.16-2.24-.44-3.28h-6.438Z"
    />
    <path
      class="uuid-87a4d5b7-f832-44b8-bd3e-32e76355f2e6"
      d="M105.184,604.338h-17.677v-4.079h13.838v-7.438h3.839v11.518Z"
    />
    <path
      class="uuid-87a4d5b7-f832-44b8-bd3e-32e76355f2e6"
      d="M105.184,578.14h-3.239v6.639h3.239v4.08h-5.319c-6.639,0-11.038-2.64-13.117-7.439,2.079-4.719,6.479-7.358,13.117-7.358h5.319v4.079ZM91.346,581.459c.96,1.64,2.56,3,6.759,3.279v-6.559c-4.199.24-5.799,1.64-6.759,3.279Z"
    />
    <path
      class="uuid-87a4d5b7-f832-44b8-bd3e-32e76355f2e6"
      d="M105.783,563.02c0,2.52-1.359,4.64-3.56,6.52l-2.799-2.64c1.399-1.32,2.52-2.399,2.52-4.119,0-.84-.561-1.72-1.64-1.72-1,0-1.76,1.039-3,3.399-1.239,2.319-2.839,4.159-5.159,4.159-3.199,0-5.239-2.68-5.239-5.719,0-1.84.84-3.439,2.28-5.52l3.199,2.04c-1.12,1.72-1.6,2.64-1.6,3.599,0,.561.32,1.36,1.04,1.36,1.079,0,1.239-1.12,1.999-2.359,1.68-3.04,3.399-5.199,6.239-5.199,2.88,0,5.719,2.399,5.719,6.198Z"
    />
    <path
      class="uuid-87a4d5b7-f832-44b8-bd3e-32e76355f2e6"
      d="M105.703,544.78v1.56l-18.196,8.358v-4.559l10.078-4.56-10.078-4.639v-4.52l18.196,8.358Z"
    />
    <path
      class="uuid-87a4d5b7-f832-44b8-bd3e-32e76355f2e6"
      d="M105.184,532.42h-17.677v-10.838h3.879v6.759h2.439v-5.959h3.88v5.959h3.64v-7.199h3.839v11.278Z"
    />
    <path
      class="uuid-87a4d5b7-f832-44b8-bd3e-32e76355f2e6"
      d="M109.463,496.863c-1.16,3.479-3.6,7.238-10.438,13.317v1.16h6.159v4.079h-17.677v-6.398c0-3.68,2.52-6.039,5.719-6.039,1.88,0,3.359.92,4.64,2.6,1.56-1.4,2.839-2.64,4.919-4.919,2.6-2.8,3.999-5.08,4.439-7.879.6-3.72-.04-5.399-.521-7.079l2.319-1.12c1.521,3.319,2.16,7.279.44,12.278ZM91.346,509.621v1.72h3.84v-1.479c0-1.36-.84-2.72-1.92-2.72-1.12,0-1.92.96-1.92,2.479Z"
    />
    <path
      class="uuid-87a4d5b7-f832-44b8-bd3e-32e76355f2e6"
      d="M105.184,484.902h-3.239v6.639h3.239v4.08h-5.319c-6.639,0-11.038-2.64-13.117-7.439,2.079-4.719,6.479-7.358,13.117-7.358h5.319v4.079ZM91.346,488.222c.96,1.64,2.56,3,6.759,3.279v-6.559c-4.199.24-5.799,1.64-6.759,3.279Z"
    />
    <path
      class="uuid-87a4d5b7-f832-44b8-bd3e-32e76355f2e6"
      d="M105.184,463.423h-13.798v6.719h13.798v4.079h-17.677v-14.917h17.677v4.119Z"
    />
    <path
      class="uuid-87a4d5b7-f832-44b8-bd3e-32e76355f2e6"
      d="M105.184,445.863v6.238h-17.677v-6.238c0-6.72,3.159-11.318,8.878-11.318,5.359,0,8.799,4.599,8.799,11.318ZM91.386,445.583v2.439h9.959v-2.439c0-3.96-1.76-6.599-4.96-6.599-3.399,0-4.999,2.639-4.999,6.599Z"
    />
    <path
      class="uuid-87a4d5b7-f832-44b8-bd3e-32e76355f2e6"
      d="M105.184,419.023h-3.239v6.639h3.239v4.08h-5.319c-6.639,0-11.038-2.64-13.117-7.439,2.079-4.719,6.479-7.358,13.117-7.358h5.319v4.079ZM91.346,422.343c.96,1.64,2.56,3,6.759,3.279v-6.559c-4.199.24-5.799,1.64-6.759,3.279Z"
    />
    <path
      class="uuid-87a4d5b7-f832-44b8-bd3e-32e76355f2e6"
      d="M105.184,397.544h-13.798v6.719h13.798v4.079h-17.677v-14.917h17.677v4.119Z"
    />
  </g>
  <g>
    <path
      class="uuid-87a4d5b7-f832-44b8-bd3e-32e76355f2e6"
      d="M216.033,581.815v24.876h-4.479v-24.876h4.479Z"
    />
    <path
      class="uuid-87a4d5b7-f832-44b8-bd3e-32e76355f2e6"
      d="M234.113,581.815v24.876h-4.479v-24.876h4.479Z"
    />
    <path
      class="uuid-87a4d5b7-f832-44b8-bd3e-32e76355f2e6"
      d="M258.832,581.815h5.439l-7.759,11.519,8.998,13.357h-5.398l-6.319-9.358-6.319,9.358h-5.398l8.998-13.357-7.759-11.519h5.439l5.039,7.519,5.039-7.519Z"
    />
    <path
      class="uuid-87a4d5b7-f832-44b8-bd3e-32e76355f2e6"
      d="M284.592,581.815h5.439l-7.759,11.519,8.998,13.357h-5.398l-6.319-9.358-6.319,9.358h-5.398l8.998-13.357-7.759-11.519h5.439l5.039,7.519,5.039-7.519Z"
    />
  </g>
  <g>
    <path
      class="uuid-87a4d5b7-f832-44b8-bd3e-32e76355f2e6"
      d="M190.31,641.082h4.479v9.238c-2.359,1.359-5.199,2.119-8.238,2.119-8.559,0-14.718-5.438-14.718-13.037s6.6-13.038,14.718-13.038c3.119,0,5.959.72,8.238,2.039v5.199c-1.8-1.72-4.519-2.759-7.759-2.759-5.599,0-10.198,3.519-10.198,8.559s4.239,8.559,10.198,8.559c1.12,0,2.24-.16,3.28-.44v-6.438Z"
    />
    <path
      class="uuid-87a4d5b7-f832-44b8-bd3e-32e76355f2e6"
      d="M220.869,656.119c-3.479-1.16-7.238-3.6-13.317-10.438h-1.16v6.159h-4.079v-17.677h6.398c3.68,0,6.039,2.52,6.039,5.719,0,1.88-.92,3.359-2.6,4.64,1.4,1.56,2.64,2.839,4.919,4.919,2.8,2.6,5.08,3.999,7.879,4.439,3.72.6,5.399-.04,7.079-.521l1.12,2.319c-3.319,1.521-7.279,2.16-12.278.44ZM208.111,638.002h-1.72v3.84h1.479c1.36,0,2.72-.84,2.72-1.92,0-1.12-.96-1.92-2.479-1.92Z"
    />
    <path
      class="uuid-87a4d5b7-f832-44b8-bd3e-32e76355f2e6"
      d="M229.95,652.64c-4.799-2.08-7.839-6.438-7.839-13.118v-5.358h4.08v5.039c0,5.438,1.919,7.719,3.719,8.878,1.8-1.159,3.76-3.439,3.76-8.878v-5.039h4.079v5.358c0,6.68-3.079,11.038-7.799,13.118Z"
    />
    <path
      class="uuid-87a4d5b7-f832-44b8-bd3e-32e76355f2e6"
      d="M250.471,645.681h-2.04v6.159h-4.079v-17.677h6.398c3.68,0,6.039,2.479,6.039,5.759,0,3.119-2.959,5.759-6.318,5.759ZM250.15,638.002h-1.72v3.84h1.479c1.36,0,2.72-.84,2.72-1.92,0-1.12-.96-1.92-2.479-1.92Z"
    />
    <path
      class="uuid-87a4d5b7-f832-44b8-bd3e-32e76355f2e6"
      d="M268.23,645.681h-2.04v6.159h-4.079v-17.677h6.398c3.68,0,6.039,2.479,6.039,5.759,0,3.119-2.959,5.759-6.318,5.759ZM267.91,638.002h-1.72v3.84h1.479c1.36,0,2.72-.84,2.72-1.92,0-1.12-.96-1.92-2.479-1.92Z"
    />
    <path
      class="uuid-87a4d5b7-f832-44b8-bd3e-32e76355f2e6"
      d="M298.427,656.119c-3.479-1.16-7.238-3.6-13.317-10.438h-1.16v6.159h-4.079v-17.677h6.398c3.68,0,6.039,2.52,6.039,5.719,0,1.88-.92,3.359-2.6,4.64,1.4,1.56,2.64,2.839,4.919,4.919,2.8,2.6,5.08,3.999,7.879,4.439,3.72.6,5.399-.04,7.079-.521l1.12,2.319c-3.319,1.521-7.279,2.16-12.278.44ZM285.669,638.002h-1.72v3.84h1.479c1.36,0,2.72-.84,2.72-1.92,0-1.12-.96-1.92-2.479-1.92Z"
    />
    <path
      class="uuid-87a4d5b7-f832-44b8-bd3e-32e76355f2e6"
      d="M307.509,652.64c-4.799-2.08-7.839-6.438-7.839-13.118v-5.358h4.08v5.039c0,5.438,1.919,7.719,3.719,8.878,1.8-1.159,3.76-3.439,3.76-8.878v-5.039h4.079v5.358c0,6.68-3.079,11.038-7.799,13.118Z"
    />
    <path
      class="uuid-87a4d5b7-f832-44b8-bd3e-32e76355f2e6"
      d="M338.866,651.84v-12.598l-4.399,1.279v11.318h-4.079v-11.318l-4.399-1.279v12.598h-4.079v-17.837l10.518,3.079,10.559-3.079v17.837h-4.119Z"
    />
  </g>
  <g>
    <path
      class="uuid-87a4d5b7-f832-44b8-bd3e-32e76355f2e6"
      d="M688.64,589.461h8.519v4.318h-8.519v11.479h-4.479v-24.876h14.118v4.319h-9.639v4.76Z"
    />
    <path
      class="uuid-87a4d5b7-f832-44b8-bd3e-32e76355f2e6"
      d="M704.88,585.261l-2.76-2.759,2.76-2.76,2.76,2.76-2.76,2.759ZM702.84,605.258v-17.677h4.08v17.677h-4.08Z"
    />
    <path
      class="uuid-87a4d5b7-f832-44b8-bd3e-32e76355f2e6"
      d="M733.237,609.417c-3.56-1.16-7.439-3.72-14.198-11.558l-.56-.601v7.999h-4.079v-17.677h4.079v5.079l5.239-5.079h5.319l-7.479,7.158,1.601,1.72c1.56,1.68,3.279,3.76,5.998,6.239,2.8,2.6,5.08,3.959,7.879,4.399,4.52.76,6.439-.36,8.039-.8v2.6c-3.319,1.279-6.799,2.119-11.838.52Z"
    />
    <path
      class="uuid-87a4d5b7-f832-44b8-bd3e-32e76355f2e6"
      d="M744.679,605.258v-3.239h-6.639v3.239h-4.08v-5.319c0-6.639,2.64-11.038,7.439-13.117,4.719,2.079,7.358,6.479,7.358,13.117v5.319h-4.079ZM741.359,591.42c-1.64.96-3,2.56-3.279,6.759h6.559c-.24-4.199-1.64-5.799-3.279-6.759Z"
    />
    <path
      class="uuid-87a4d5b7-f832-44b8-bd3e-32e76355f2e6"
      d="M770.238,589.461h8.519v4.318h-8.519v11.479h-4.479v-24.876h14.118v4.319h-9.639v4.76Z"
    />
    <path
      class="uuid-87a4d5b7-f832-44b8-bd3e-32e76355f2e6"
      d="M786.479,585.261l-2.76-2.759,2.76-2.76,2.76,2.76-2.76,2.759ZM784.438,605.258v-17.677h4.08v17.677h-4.08Z"
    />
    <path
      class="uuid-87a4d5b7-f832-44b8-bd3e-32e76355f2e6"
      d="M814.836,609.417c-3.56-1.16-7.439-3.72-14.198-11.558l-.56-.601v7.999h-4.079v-17.677h4.079v5.079l5.239-5.079h5.319l-7.479,7.158,1.601,1.72c1.56,1.68,3.279,3.76,5.998,6.239,2.8,2.6,5.08,3.959,7.879,4.399,4.52.76,6.439-.36,8.039-.8v2.6c-3.319,1.279-6.799,2.119-11.838.52Z"
    />
    <path
      class="uuid-87a4d5b7-f832-44b8-bd3e-32e76355f2e6"
      d="M826.276,605.258v-3.239h-6.639v3.239h-4.08v-5.319c0-6.639,2.64-11.038,7.439-13.117,4.719,2.079,7.358,6.479,7.358,13.117v5.319h-4.079ZM822.957,591.42c-1.64.96-3,2.56-3.279,6.759h6.559c-.24-4.199-1.64-5.799-3.279-6.759Z"
    />
    <path
      class="uuid-87a4d5b7-f832-44b8-bd3e-32e76355f2e6"
      d="M861.115,608.337v-3.319s-2.279.84-5.398.84c-6.56,0-9.959-3.679-9.959-8.158,0-3.359,2.479-6.399,6.319-7.239-1.32-.999-3.279-2.399-3.279-5.358,0-3,2.52-5.319,6.479-5.319,4.239,0,6.559,3.279,6.999,5.879l-3.72,1.2c-.2-1.72-1.199-3.399-3.119-3.399-1.32,0-2.16.88-2.16,2.079,0,2.56,3.36,4.839,12.878,4.839h3.8v3.64h-4.359v14.317h-4.479ZM861.115,594.02h-4.599c-2.84,0-5.959,1.64-5.959,4.119,0,2.32,1.72,4.319,5.438,4.319,2.399,0,4.159-.88,5.119-1.64v-6.799Z"
    />
    <path
      class="uuid-87a4d5b7-f832-44b8-bd3e-32e76355f2e6"
      d="M702.319,628.382h4.479v20.557h10.599v4.319h-15.078v-24.876Z"
    />
    <path
      class="uuid-87a4d5b7-f832-44b8-bd3e-32e76355f2e6"
      d="M727.198,637.461h8.519v4.318h-8.519v7.159h10.278v4.319h-14.758v-24.876h14.118v4.319h-9.639v4.76Z"
    />
    <path
      class="uuid-87a4d5b7-f832-44b8-bd3e-32e76355f2e6"
      d="M745.318,628.382h8.239c9.158,0,15.478,4.359,15.478,12.438,0,7.679-6.319,12.438-15.478,12.438h-8.239v-24.876ZM749.798,648.938h4.159c6.079,0,10.118-2.959,10.118-8.118,0-5.479-4.039-8.119-10.118-8.119h-4.159v16.237Z"
    />
    <path
      class="uuid-87a4d5b7-f832-44b8-bd3e-32e76355f2e6"
      d="M797.675,635.021c-1.8-1.72-4.519-2.759-7.759-2.759-5.599,0-10.198,3.519-10.198,8.559s4.239,8.559,10.198,8.559c3.08,0,5.88-1.08,7.759-2.88v5.239c-2.359,1.359-5.199,2.119-8.238,2.119-8.559,0-14.718-5.438-14.718-13.037s6.6-13.038,14.718-13.038c3.119,0,5.959.72,8.238,2.039v5.199Z"
    />
    <path
      class="uuid-87a4d5b7-f832-44b8-bd3e-32e76355f2e6"
      d="M814.997,653.258v-3.239h-6.639v3.239h-4.08v-5.319c0-6.639,2.64-11.038,7.439-13.117,4.719,2.079,7.358,6.479,7.358,13.117v5.319h-4.079ZM811.678,639.42c-1.64.96-3,2.56-3.279,6.759h6.559c-.24-4.199-1.64-5.799-3.279-6.759Z"
    />
    <path
      class="uuid-87a4d5b7-f832-44b8-bd3e-32e76355f2e6"
      d="M829.757,639.46v2.439h5.959v3.88h-5.959v7.479h-4.079v-17.677h10.838v3.879h-6.759Z"
    />
    <path
      class="uuid-87a4d5b7-f832-44b8-bd3e-32e76355f2e6"
      d="M842.118,653.258v-17.677h10.838v3.879h-6.759v2.439h5.959v3.88h-5.959v3.64h7.199v3.839h-11.278ZM847.837,632.342h-1.68l2.279-6.76h5.879l-6.479,6.76Z"
    />
  </g>
  <polyline
    class="uuid-4be1c38c-8197-4a38-96e8-6947826baf0d"
    points="617.378 712.677 617.373 789.346 705.097 789.346 705.102 712.677"
  />
  <polyline
    class="uuid-4be1c38c-8197-4a38-96e8-6947826baf0d"
    points="313.65 712.677 313.648 802.618 424.961 802.618 424.954 712.677"
  />
  <path
    class="uuid-b89f77b0-3ac7-4415-9d1c-8ee881e94164"
    d="M340.952,464.983v105.417H118.318v-105.417h222.634ZM911.538,464.983v105.417h-223.368v-105.417h223.368ZM118.318,399.37v-142.274h-45.339v15.48H28.381v276.08l-28.381-.002v68.187l28.381.005v47.179h44.598v24.326h45.339v-53.812h44.969v29.487h131.957v48.654h18.434l37.626-.015,52.745-.02,20.933.035h192.422l12.092-.005,50.319-.053,25.31.058h24.326v-48.654h130.486v-29.487h51.602v109.839h42.021v-21.38h46.441v-395.133h-46.441v-17.693h-42.021v89.198h-123.85v-201.988h-45.705v28.748h-48.654v173.24h-124.584v-201.988h-50.133v21.38h-47.179v180.608h-123.11v-201.988h-44.972v21.38h-48.654v180.608H118.318ZM645.411,464.983v105.417h-259.69v-105.417h259.69Z"
  />
</svg>
