<?xml version="1.0" encoding="UTF-8"?>
<svg
  id="uuid-e9af8a76-d0a3-41c0-93ef-da7e4d4964cf"
  data-name="Layer 1"
  xmlns="http://www.w3.org/2000/svg"
  xmlns:xlink="http://www.w3.org/1999/xlink"
  viewBox="0 0 590.873 1000"
>
  <defs>
    <style>
    .uuid-d8e79c08-7494-4928-94ff-2fe8efad383e {
      fill: url(#uuid-30008fda-f1e5-4f65-9045-be4dbcff9adc);
    }

    .uuid-b0fb6ecc-9d14-4266-adaa-831afba39f04 {
      fill: none;
      stroke: #4f4a45;
      stroke-width: 3px;
    }

    .uuid-b0fb6ecc-9d14-4266-adaa-831afba39f04,
    .uuid-b124d3a9-ddb7-4327-8a76-65ca4763d4d1 {
      stroke-miterlimit: 10;
    }

    .uuid-b124d3a9-ddb7-4327-8a76-65ca4763d4d1 {
      fill: url(#uuid-b4b03926-0bd6-4fc8-a117-289f2cb5f37b);
      stroke: #0095da;
    }

    .uuid-b1f5205b-6555-46a4-a3d7-9ad38a2374ab {
      fill: url(#uuid-d9be6de1-cdd5-4924-adea-38e2e3836a7b);
    }

    .uuid-f7e6a477-a9f6-4dc0-b548-30735ba4a110 {
      fill: url(#uuid-d19c71fb-bc52-4d63-b77f-f0875ce904a8);
    }

    .uuid-d86f4208-b591-4963-aefb-353f1c264421 {
      fill: url(#uuid-7c1c4d1c-faa8-4554-819b-5281f34419b5);
    }

    .uuid-9b5b4c00-69d9-4780-8c79-f93dcd48c23f {
      fill: url(#uuid-69976d6f-2eb6-4271-8e2e-0c1748a3997f);
    }

    .uuid-e453ecdb-a36b-4d8c-bf32-21406f8d8eb3 {
      fill: url(#uuid-fcfee6d8-dc3b-4cd4-b89a-208188bfb85b);
    }

    .uuid-ccf8b0fe-9bf3-464a-b387-afafbc5e24b7 {
      fill: url(#uuid-c99e8f32-e85c-440c-b399-ca94a2d8b57f);
    }

    .uuid-39ee0347-4403-4a2a-b712-ba6ff8686020 {
      fill: url(#uuid-ef208199-3de6-475b-8279-4743802f23fd);
    }

    .uuid-92631256-cb7f-47ea-8b2f-833c8ac0fa8a {
      fill: url(#uuid-9d76edd1-3378-4b18-a874-ba68b4abef20);
    }

    .uuid-9e21d8ee-2a65-4d9e-b38c-c0cf9fb28004 {
      fill: #4f4a45;
    }

    .uuid-676ba9c4-07af-4ad3-96aa-c3bdd02e3d23 {
      fill: #ba6e29;
    }

    .uuid-9017baef-5c36-4ed7-a2ff-9008eed7c271 {
      fill: url(#uuid-a43c50a4-c075-4c0b-905e-2159ac60a6b3);
    }

    .uuid-fe15c106-9dd7-4ee1-b6c1-112e357eeafa {
      fill: #7f7f7f;
    }

    .uuid-4bfa3b85-0947-47d1-b01d-f6c2c30e3fb2 {
      fill: url(#uuid-422b8568-3be2-4811-84e3-05b8b6226694);
    }

    .uuid-3746ac23-7112-4895-a74a-4d9c86fd9cf7 {
      fill: url(#uuid-3628e3d7-5f6f-4c4b-9623-08db62fe832e);
    }

    .uuid-9f593536-2f70-4d84-8959-73b9a01a0d30 {
      fill: #f6861f;
    }

    .uuid-7ad26aa6-e5bd-428e-9709-38d7f46c8243 {
      fill: url(#uuid-4fe8f43a-4d39-4dba-82dc-f5a3f0ba9f8c);
    }
    </style>
    <linearGradient
      id="uuid-d9be6de1-cdd5-4924-adea-38e2e3836a7b"
      x1="429.424"
      y1="235.666"
      x2="226.534"
      y2="118.528"
      gradientUnits="userSpaceOnUse"
    >
      <stop offset="0" stop-color="#fff" />
      <stop offset=".016" stop-color="#fefef6" />
      <stop offset=".114" stop-color="#fdfac5" />
      <stop offset=".218" stop-color="#fcf699" />
      <stop offset=".325" stop-color="#fbf375" />
      <stop offset=".436" stop-color="#fbf157" />
      <stop offset=".553" stop-color="#faef40" />
      <stop offset=".678" stop-color="#faee2f" />
      <stop offset=".818" stop-color="#faed26" />
      <stop offset="1" stop-color="#faed23" />
    </linearGradient>
    <linearGradient
      id="uuid-4fe8f43a-4d39-4dba-82dc-f5a3f0ba9f8c"
      x1="346.032"
      y1="99.458"
      x2="346.032"
      y2="259.341"
      gradientUnits="userSpaceOnUse"
    >
      <stop offset="0" stop-color="#37bfc4" />
      <stop offset=".081" stop-color="#4dc4b1" />
      <stop offset=".322" stop-color="#8ad27f" />
      <stop offset=".544" stop-color="#badd57" />
      <stop offset=".737" stop-color="#dde63a" />
      <stop offset=".896" stop-color="#f2eb29" />
      <stop offset="1" stop-color="#faed23" />
    </linearGradient>
    <linearGradient
      id="uuid-c99e8f32-e85c-440c-b399-ca94a2d8b57f"
      x1="269.594"
      y1="126.453"
      x2="263.069"
      y2="122.686"
      xlink:href="#uuid-d9be6de1-cdd5-4924-adea-38e2e3836a7b"
    />
    <linearGradient
      id="uuid-3628e3d7-5f6f-4c4b-9623-08db62fe832e"
      x1="292.001"
      y1="241.657"
      x2="288.009"
      y2="239.352"
      xlink:href="#uuid-d9be6de1-cdd5-4924-adea-38e2e3836a7b"
    />
    <linearGradient
      id="uuid-a43c50a4-c075-4c0b-905e-2159ac60a6b3"
      x1="293.507"
      y1="139.875"
      x2="273.932"
      y2="128.574"
      xlink:href="#uuid-d9be6de1-cdd5-4924-adea-38e2e3836a7b"
    />
    <linearGradient
      id="uuid-fcfee6d8-dc3b-4cd4-b89a-208188bfb85b"
      x1="297.733"
      y1="257.228"
      x2="293.38"
      y2="254.715"
      xlink:href="#uuid-d9be6de1-cdd5-4924-adea-38e2e3836a7b"
    />
    <linearGradient
      id="uuid-7c1c4d1c-faa8-4554-819b-5281f34419b5"
      x1="315.433"
      y1="254.802"
      x2="308.546"
      y2="250.826"
      xlink:href="#uuid-d9be6de1-cdd5-4924-adea-38e2e3836a7b"
    />
    <linearGradient
      id="uuid-69976d6f-2eb6-4271-8e2e-0c1748a3997f"
      x1="419.758"
      y1="103.07"
      x2="417.243"
      y2="101.618"
      xlink:href="#uuid-d9be6de1-cdd5-4924-adea-38e2e3836a7b"
    />
    <linearGradient
      id="uuid-9d76edd1-3378-4b18-a874-ba68b4abef20"
      x1="95.088"
      y1="735.286"
      x2="151.607"
      y2="735.286"
      gradientUnits="userSpaceOnUse"
    >
      <stop offset="0" stop-color="#f07531" />
      <stop offset="1" stop-color="#f99c1c" />
    </linearGradient>
    <linearGradient
      id="uuid-ef208199-3de6-475b-8279-4743802f23fd"
      x1="423.087"
      y1="752.315"
      x2="331.55"
      y2="660.778"
      gradientUnits="userSpaceOnUse"
    >
      <stop offset="0" stop-color="#8e68ad" />
      <stop offset=".164" stop-color="#a96ea9" />
      <stop offset=".39" stop-color="#c975a5" />
      <stop offset=".609" stop-color="#df7aa2" />
      <stop offset=".816" stop-color="#ed7da0" />
      <stop offset="1" stop-color="#f27fa0" />
    </linearGradient>
    <linearGradient
      id="uuid-422b8568-3be2-4811-84e3-05b8b6226694"
      x1="427.602"
      y1="916.178"
      x2="329.285"
      y2="817.861"
      gradientUnits="userSpaceOnUse"
    >
      <stop offset="0" stop-color="#6c0c2b" />
      <stop offset=".101" stop-color="#7b0f2a" />
      <stop offset=".524" stop-color="#b61a29" />
      <stop offset=".835" stop-color="#db2229" />
      <stop offset="1" stop-color="#ea2529" />
    </linearGradient>
    <linearGradient
      id="uuid-d19c71fb-bc52-4d63-b77f-f0875ce904a8"
      x1="381.864"
      y1="537.713"
      x2="481.346"
      y2="537.713"
      gradientUnits="userSpaceOnUse"
    >
      <stop offset="0" stop-color="#4686c6" />
      <stop offset=".371" stop-color="#3f6cb4" />
      <stop offset=".743" stop-color="#3958a6" />
      <stop offset="1" stop-color="#3852a2" />
    </linearGradient>
    <linearGradient
      id="uuid-30008fda-f1e5-4f65-9045-be4dbcff9adc"
      x1="437.86"
      y1="405.748"
      x2="560.442"
      y2="283.165"
      gradientUnits="userSpaceOnUse"
    >
      <stop offset="0" stop-color="#8a55a2" />
      <stop offset="1" stop-color="#922a8c" />
    </linearGradient>
    <linearGradient
      id="uuid-b4b03926-0bd6-4fc8-a117-289f2cb5f37b"
      x1="196.54"
      y1="764.214"
      x2="265.691"
      y2="764.214"
      gradientUnits="userSpaceOnUse"
    >
      <stop offset="0" stop-color="#5c9fd6" />
      <stop offset=".609" stop-color="#62bcdf" />
      <stop offset="1" stop-color="#65cbe4" />
    </linearGradient>
  </defs>
  <path
    class="uuid-b1f5205b-6555-46a4-a3d7-9ad38a2374ab"
    d="M389.024,145.82v.02h92.261v-.02h-92.261ZM424.786,105.23h-6.275v.02h6.275v-.02ZM418.491,99.458v-.02h-84.537v9.655h.02v-9.634h84.517ZM316.575,224.806h13.999v-.02h-13.999v.02ZM313.176,200.649h.02v-11.847h-.02v11.847ZM307.383,259.341h.02v-6.517h-.02v6.517ZM292.66,212.738h5.792v-.02h-5.792v.02ZM296.763,145.82h-85.986v.02h85.986v-.02ZM287.35,218.048h5.31v-.02h-5.31v.02ZM242.899,203.787v3.138h.02v-3.118h19.068v-.02h-19.088ZM242.899,257.893h.02v-2.655h-.02v2.655Z"
  />
  <g>
    <polygon
      class="uuid-7ad26aa6-e5bd-428e-9709-38d7f46c8243"
      points="313.176 188.802 313.176 200.649 316.575 200.649 316.575 224.806 330.574 224.806 330.574 237.357 316.575 237.357 316.575 252.804 307.403 252.804 307.403 252.824 307.383 252.824 307.383 259.341 298.453 259.341 298.453 255.962 292.66 255.962 292.66 240.494 287.35 240.494 287.35 218.048 292.66 218.048 292.66 212.738 298.453 212.738 298.453 206.442 274.538 206.442 274.538 257.893 242.919 257.893 242.919 255.238 227.935 255.238 227.935 206.925 242.919 206.925 242.919 203.807 261.987 203.807 261.987 200.408 265.366 200.408 265.366 188.802 210.778 188.802 210.778 145.84 296.763 145.84 296.763 134.214 270.676 134.214 270.676 124.56 261.987 124.56 261.987 109.092 333.973 109.092 333.973 99.458 418.491 99.458 418.491 105.23 418.511 105.23 418.511 105.25 424.786 105.25 424.786 116.353 412.698 116.353 412.698 125.042 389.024 125.042 389.024 145.84 481.286 145.84 481.286 188.802 313.176 188.802"
    />
    <rect
      class="uuid-ccf8b0fe-9bf3-464a-b387-afafbc5e24b7"
      x="261.987"
      y="124.56"
      width="8.689"
      height=".02"
    />
    <rect
      class="uuid-3746ac23-7112-4895-a74a-4d9c86fd9cf7"
      x="287.35"
      y="240.494"
      width="5.31"
      height=".02"
    />
    <rect
      class="uuid-9017baef-5c36-4ed7-a2ff-9008eed7c271"
      x="270.676"
      y="134.214"
      width="26.087"
      height=".02"
    />
    <rect
      class="uuid-e453ecdb-a36b-4d8c-bf32-21406f8d8eb3"
      x="292.66"
      y="255.962"
      width="5.792"
      height=".02"
    />
    <rect
      class="uuid-d86f4208-b591-4963-aefb-353f1c264421"
      x="307.403"
      y="252.804"
      width="9.172"
      height=".02"
    />
    <rect
      class="uuid-9b5b4c00-69d9-4780-8c79-f93dcd48c23f"
      x="418.491"
      y="99.458"
      width=".02"
      height="5.773"
    />
  </g>
  <polygon
    class="uuid-92631256-cb7f-47ea-8b2f-833c8ac0fa8a"
    points="139.046 761.009 151.607 761.009 151.607 773.327 139.29 773.327 139.29 776.708 132.767 776.708 132.767 797.722 122.139 797.722 122.139 770.428 115.375 770.428 115.375 716.323 121.899 716.323 121.899 691.69 118.758 691.69 118.758 696.521 95.088 696.521 95.088 691.69 95.088 672.849 118.758 672.849 128.66 672.849 128.66 674.784 133.01 674.784 135.665 674.784 135.665 685.889 133.01 685.889 133.01 709.806 139.529 709.806 139.529 713.43 151.607 713.43 151.607 734.68 139.046 734.68 139.046 761.009"
  />
  <rect
    class="uuid-676ba9c4-07af-4ad3-96aa-c3bdd02e3d23"
    x="170.822"
    y="675.13"
    width="48.589"
    height="34.492"
    transform="translate(-71.246 24.165) rotate(-5.995)"
  />
  <rect
    class="uuid-676ba9c4-07af-4ad3-96aa-c3bdd02e3d23"
    x="264.792"
    y="619.341"
    width="40.854"
    height="40.703"
    transform="translate(-406.493 749.649) rotate(-75.002)"
  />
  <polygon
    class="uuid-39ee0347-4403-4a2a-b712-ba6ff8686020"
    points="391.438 682.993 391.438 699.909 416.56 699.909 416.56 705.46 419.939 705.46 419.939 712.701 391.438 712.701 391.438 729.617 416.56 729.617 416.56 735.168 419.939 735.168 419.939 742.409 391.438 742.409 391.438 761.256 404.492 761.256 404.492 767.531 401.595 767.531 401.595 773.806 345.8 773.806 345.8 767.531 340.49 767.531 340.49 761.256 358.351 761.256 358.351 754.497 354.248 754.497 354.248 736.616 347.731 736.616 347.731 733.479 337.111 733.479 337.111 721.149 347.731 721.149 347.731 694.358 335.18 694.358 335.18 679.614 347.731 679.614 347.731 675.994 354.248 675.994 354.248 658.113 358.351 658.113 358.351 651.113 350.386 651.113 350.386 645.079 353.041 645.079 353.041 639.287 360.302 639.287 360.302 635.184 370.198 635.184 370.198 639.287 408.836 639.287 408.836 645.079 411.733 645.079 411.733 651.113 391.438 651.113 391.438 670.201 416.56 670.201 416.56 675.753 419.939 675.753 419.939 682.993 391.438 682.993"
  />
  <polygon
    class="uuid-9f593536-2f70-4d84-8959-73b9a01a0d30"
    points="347.732 905.204 347.732 899.168 347.732 875.255 347.732 869.7 332.755 869.7 332.755 905.204 347.732 905.204"
  />
  <polygon
    class="uuid-4bfa3b85-0947-47d1-b01d-f6c2c30e3fb2"
    points="359.566 892.401 356.67 892.401 356.67 899.168 393.14 899.168 393.14 905.28 399.767 905.28 399.767 944.013 393.14 944.013 393.14 950.131 356.67 950.131 356.67 953.991 347.731 953.991 347.731 950.131 347.731 911.724 332.755 911.724 332.755 935.398 327.199 935.398 327.199 947.955 320.196 947.955 320.196 935.398 320.196 917.761 313.19 917.761 313.19 914.623 301.114 914.623 301.114 898.924 313.19 898.924 313.19 872.354 302.323 872.354 302.323 860.521 313.19 860.521 313.19 857.142 320.196 857.142 320.196 839.263 320.196 826.95 327.199 826.95 327.199 839.263 332.755 839.263 332.755 863.178 347.731 863.178 347.731 824.293 347.731 814.871 356.67 814.871 356.67 824.293 393.14 824.293 393.14 830.988 399.66 830.988 399.66 806.657 451.346 806.657 451.346 810.823 462.847 812.241 457.033 859.594 451.346 858.892 451.346 875.257 399.66 875.257 399.66 868.559 393.14 868.559 393.14 875.257 356.67 875.257 356.67 889.986 359.566 889.986 359.566 892.401"
  />
  <polygon
    id="uuid-cff0f0a3-c9d2-43df-80a1-9a0b20217d89"
    data-name="V-Huset"
    class="uuid-f7e6a477-a9f6-4dc0-b548-30735ba4a110"
    points="481.346 511.042 481.346 551.089 478.269 551.089 478.269 556.921 439.328 556.921 439.328 568.346 450.632 568.346 450.632 604.249 439.328 604.249 439.328 601.835 428.367 601.835 428.367 556.921 412.336 556.921 412.336 563.358 407.871 563.358 407.871 578.161 400.871 578.161 400.871 563.358 394.254 563.358 394.254 560.12 381.864 560.12 381.864 535.179 394.254 535.179 394.254 517.056 381.864 517.056 381.864 502.011 394.254 502.011 394.254 498.793 400.871 498.793 400.871 483.97 407.871 483.97 407.871 498.793 412.336 498.793 412.336 505.209 428.367 505.209 428.367 471.177 439.328 471.177 439.328 477.935 450.632 477.935 450.632 493.785 439.328 493.785 439.328 505.209 478.269 505.209 478.269 511.042 481.346 511.042"
  />
  <polygon
    class="uuid-fe15c106-9dd7-4ee1-b6c1-112e357eeafa"
    points="257.902 554.652 275.902 530.767 269.417 525.868 288.797 487.833 292.689 489.816 296.285 482.758 302.595 485.972 298.998 493.03 284.754 520.992 291.45 526.041 287.505 531.272 308.822 547.337 286.864 576.477 257.902 554.652"
  />
  <polygon
    id="uuid-042c91d1-4f75-4919-856d-26057e379ecf"
    data-name="A-Huset"
    class="uuid-d8e79c08-7494-4928-94ff-2fe8efad383e"
    points="534.687 369.966 534.687 375.296 526.461 375.296 526.461 429.864 524.771 429.864 524.771 445.09 506.91 445.09 506.91 429.864 505.221 429.864 505.221 426.968 490.719 426.968 490.719 451.365 483.96 451.365 483.96 445.552 477.665 445.552 477.665 430.105 471.41 430.105 471.41 426.968 465.617 426.968 465.617 411.52 471.41 411.52 471.41 397.018 462.218 397.018 462.218 378.916 471.41 378.916 471.41 375.758 477.665 375.758 477.665 360.291 483.96 360.291 483.96 354.277 490.719 354.277 490.719 378.916 503.028 378.916 503.028 322.679 492.268 322.699 487.44 321.029 482.633 319.38 496.029 280.38 493.494 279.515 494.701 276.015 494.198 275.834 492.549 275.834 492.549 275.251 469.821 267.447 473.119 257.913 469.579 256.686 474.266 243.089 491.704 249.083 492.65 249.083 492.65 258.315 497.597 260.025 497.597 265.596 498.221 265.817 500.755 266.702 502.204 267.185 502.204 237.859 505.08 237.859 505.08 233.495 510.772 233.495 510.772 247.635 505.2 247.635 505.2 257.551 527.547 257.551 527.547 274.084 505.2 274.084 505.2 282.411 527.547 282.411 527.547 324.308 505.2 324.308 505.2 336.275 527.547 336.275 527.547 357.898 505.221 357.898 505.221 369.966 534.687 369.966"
  />
  <path
    class="uuid-b124d3a9-ddb7-4327-8a76-65ca4763d4d1"
    d="M208.367,766.564c6.762-6.277,14.975-14.975,20.771-23.185,5.797-8.212,8.212-14.011,15.942-16.909,7.728-2.9,10.143-4.829,14.492-5.314,4.349-.481,7.728,2.414,5.314,7.245-2.418,4.831-6.279,13.044-4.831,20.289,1.45,7.247,2.414,14.49-1.933,14.979-4.347.483-5.314,3.862-8.212,9.176-2.898,5.316-10.626,15.461-11.593,19.806-.965,4.347-2.414,8.697-3.381,11.591-.965,2.9-3.381,3.866-6.762,2.418-3.381-1.448-11.111-.483-14.009-.483s-8.695-.965-12.076-1.448c-3.381-.487-9.18-2.902-2.416-10.147,6.762-7.245,8.695-7.728,7.245-13.042-1.448-5.314-5.314-8.695,1.45-14.975h0Z"
  />
  <rect
    class="uuid-fe15c106-9dd7-4ee1-b6c1-112e357eeafa"
    x="321.985"
    y="5.429"
    width="27.961"
    height="19.326"
    transform="translate(32.227 159.464) rotate(-27.995)"
  />
  <g>
    <path
      class="uuid-9e21d8ee-2a65-4d9e-b38c-c0cf9fb28004"
      d="M344.408,28.835h2.704v12.408h6.396v2.607h-9.101v-15.015Z"
    />
    <path
      class="uuid-9e21d8ee-2a65-4d9e-b38c-c0cf9fb28004"
      d="M361.328,44.212c-3.524,0-6.059-2.438-6.059-5.673,0-3.259,2.704-5.721,6.059-5.721,3.5,0,6.035,2.462,6.035,5.721,0,3.234-2.704,5.673-6.035,5.673ZM361.328,35.208c-1.907,0-3.5,1.449-3.5,3.332,0,1.858,1.448,3.283,3.5,3.283,1.907,0,3.476-1.424,3.476-3.283,0-1.883-1.448-3.332-3.476-3.332Z"
    />
    <path
      class="uuid-9e21d8ee-2a65-4d9e-b38c-c0cf9fb28004"
      d="M374.675,40.132h-1.231v3.717h-2.462v-10.669h3.862c2.221,0,3.645,1.497,3.645,3.476,0,1.883-1.786,3.476-3.814,3.476ZM374.482,35.498h-1.038v2.317h.893c.821,0,1.642-.507,1.642-1.159,0-.676-.58-1.159-1.497-1.159Z"
    />
    <path
      class="uuid-9e21d8ee-2a65-4d9e-b38c-c0cf9fb28004"
      d="M389.132,43.85v-2.993h-4.973v2.993h-2.462v-10.669h2.462v2.51h4.973v-2.51h2.462v10.669h-2.462ZM389.132,37.742h-4.973v1.062h4.973v-1.062Z"
    />
    <path
      class="uuid-9e21d8ee-2a65-4d9e-b38c-c0cf9fb28004"
      d="M399.752,35.521v8.328h-2.462v-8.328h-3.138v-2.341h3.138v-2.849h2.462v2.849h3.162v2.341h-3.162Z"
    />
    <path
      class="uuid-9e21d8ee-2a65-4d9e-b38c-c0cf9fb28004"
      d="M405.447,43.85v-10.669h6.542v2.341h-4.08v1.473h3.597v2.341h-3.597v2.197h4.345v2.317h-6.808Z"
    />
    <path
      class="uuid-9e21d8ee-2a65-4d9e-b38c-c0cf9fb28004"
      d="M419.495,35.521v8.328h-2.462v-8.328h-3.138v-2.341h3.138v-2.849h2.462v2.849h3.162v2.341h-3.162Z"
    />
  </g>
  <g>
    <path
      class="uuid-9e21d8ee-2a65-4d9e-b38c-c0cf9fb28004"
      d="M329.42,213.363h-2.703v-15.015h2.703v5.093l5.094-5.093h3.379l-5.986,5.986,1.641,1.835c1.328,1.497,2.849,3.403,5.19,5.648,2.511,2.414,4.539,3.524,7.025,3.959,4.007.676,5.673-.338,6.566-.58v1.593c-2.511.99-5.432,1.738-9.632.338-3.042-1.014-6.325-3.331-12.07-10.283l-1.207-1.352v7.87Z"
    />
    <path
      class="uuid-9e21d8ee-2a65-4d9e-b38c-c0cf9fb28004"
      d="M343.37,213.363v-10.669h6.542v2.341h-4.08v1.473h3.597v2.341h-3.597v2.197h4.345v2.317h-6.808Z"
    />
    <path
      class="uuid-9e21d8ee-2a65-4d9e-b38c-c0cf9fb28004"
      d="M363.862,213.363v-7.604l-2.655.772v6.832h-2.462v-6.832l-2.655-.772v7.604h-2.462v-10.766l6.349,1.859,6.373-1.859v10.766h-2.486Z"
    />
    <path
      class="uuid-9e21d8ee-2a65-4d9e-b38c-c0cf9fb28004"
      d="M372.092,201.293l-1.666-1.666,1.666-1.666,1.666,1.666-1.666,1.666ZM370.86,213.363v-10.669h2.462v10.669h-2.462Z"
    />
    <path
      class="uuid-9e21d8ee-2a65-4d9e-b38c-c0cf9fb28004"
      d="M383.629,213.725c-3.814,0-6.518-2.462-6.518-5.673,0-3.235,2.897-5.721,6.518-5.721,1.352,0,2.607.314,3.766.917v2.921c-1.207-1.038-2.27-1.449-3.573-1.449-2.197,0-4.031,1.424-4.031,3.332,0,1.883,1.714,3.283,4.031,3.283,1.231,0,2.341-.41,3.573-1.521v2.969c-1.207.603-2.438.941-3.766.941Z"
    />
    <path
      class="uuid-9e21d8ee-2a65-4d9e-b38c-c0cf9fb28004"
      d="M391.11,213.363v-10.669h6.542v2.341h-4.08v1.473h3.597v2.341h-3.597v2.197h4.345v2.317h-6.808Z"
    />
    <path
      class="uuid-9e21d8ee-2a65-4d9e-b38c-c0cf9fb28004"
      d="M407.885,213.363v-8.328h-4.055v8.328h-2.462v-10.669h9.004v10.669h-2.487Z"
    />
    <path
      class="uuid-9e21d8ee-2a65-4d9e-b38c-c0cf9fb28004"
      d="M418.505,205.035v8.328h-2.462v-8.328h-3.138v-2.341h3.138v-2.849h2.462v2.849h3.162v2.341h-3.162Z"
    />
    <path
      class="uuid-9e21d8ee-2a65-4d9e-b38c-c0cf9fb28004"
      d="M435.401,215.946c-2.1-.7-4.369-2.173-8.038-6.3h-.7v3.717h-2.462v-10.669h3.862c2.221,0,3.645,1.521,3.645,3.452,0,1.135-.555,2.028-1.569,2.8.845.941,1.593,1.714,2.969,2.969,1.689,1.569,3.065,2.414,4.755,2.679,2.245.362,3.259-.024,4.272-.313l.676,1.4c-2.004.917-4.394,1.304-7.411.266ZM427.701,205.011h-1.038v2.317h.893c.821,0,1.642-.507,1.642-1.159,0-.676-.58-1.159-1.497-1.159Z"
    />
    <path
      class="uuid-9e21d8ee-2a65-4d9e-b38c-c0cf9fb28004"
      d="M440.879,213.846c-2.897-1.255-4.731-3.887-4.731-7.918v-3.234h2.462v3.042c0,3.283,1.159,4.659,2.245,5.359,1.086-.7,2.269-2.076,2.269-5.359v-3.042h2.462v3.234c0,4.031-1.859,6.663-4.707,7.918Z"
    />
    <path
      class="uuid-9e21d8ee-2a65-4d9e-b38c-c0cf9fb28004"
      d="M459.802,213.363v-7.604l-2.655.772v6.832h-2.462v-6.832l-2.655-.772v7.604h-2.462v-10.766l6.349,1.859,6.373-1.859v10.766h-2.486Z"
    />
  </g>
  <g>
    <path
      class="uuid-9e21d8ee-2a65-4d9e-b38c-c0cf9fb28004"
      d="M429.047,279.164l-1.858-1.859,1.858-1.858,1.859,1.858-1.859,1.859ZM430.399,280.54v15.015h-2.704v-15.015h2.704Z"
    />
    <path
      class="uuid-9e21d8ee-2a65-4d9e-b38c-c0cf9fb28004"
      d="M439.136,295.555h-2.704v-15.015h2.704v5.093l5.093-5.093h3.379l-5.986,5.986,1.641,1.835c1.328,1.497,2.849,3.403,5.19,5.648,2.511,2.414,4.539,3.524,7.025,3.959,4.007.676,5.672-.338,6.566-.58v1.593c-2.511.99-5.432,1.738-9.632.338-3.042-1.014-6.324-3.331-12.07-10.283l-1.207-1.352v7.87Z"
    />
    <path
      class="uuid-9e21d8ee-2a65-4d9e-b38c-c0cf9fb28004"
      d="M453.81,280.54h4.973c5.528,0,9.342,2.631,9.342,7.507,0,4.635-3.814,7.507-9.342,7.507h-4.973v-15.015ZM456.514,292.948h2.51c3.669,0,6.107-1.787,6.107-4.9,0-3.307-2.438-4.9-6.107-4.9h-2.51v9.801Z"
    />
    <path
      class="uuid-9e21d8ee-2a65-4d9e-b38c-c0cf9fb28004"
      d="M485.406,284.547c-1.086-1.038-2.728-1.666-4.683-1.666-3.379,0-6.155,2.125-6.155,5.166s2.559,5.166,6.155,5.166c1.859,0,3.549-.652,4.683-1.738v3.162c-1.424.821-3.138,1.28-4.973,1.28-5.166,0-8.883-3.283-8.883-7.87s3.983-7.87,8.883-7.87c1.883,0,3.597.435,4.973,1.231v3.138Z"
    />
  </g>
  <g>
    <path
      class="uuid-9e21d8ee-2a65-4d9e-b38c-c0cf9fb28004"
      d="M461.266,501.341l-6.832-15.498h2.993l4.225,9.656,4.249-9.656h2.993l-6.832,15.498h-.796Z"
    />
    <path
      class="uuid-9e21d8ee-2a65-4d9e-b38c-c0cf9fb28004"
      d="M471.185,494.751v-2.607h7.894v2.607h-7.894Z"
    />
    <path
      class="uuid-9e21d8ee-2a65-4d9e-b38c-c0cf9fb28004"
      d="M486.849,500.858h-2.703v-15.015h2.703v4.055h7.918v-4.055h2.704v15.015h-2.704v-5.021h-7.918v5.021ZM486.849,493.641h7.918v-1.545h-7.918v1.545Z"
    />
    <path
      class="uuid-9e21d8ee-2a65-4d9e-b38c-c0cf9fb28004"
      d="M506.907,501.341c-2.897-1.255-4.731-3.887-4.731-7.918v-3.234h2.462v3.042c0,3.283,1.159,4.659,2.245,5.359,1.086-.7,2.269-2.076,2.269-5.359v-3.042h2.462v3.234c0,4.031-1.859,6.663-4.707,7.918Z"
    />
    <path
      class="uuid-9e21d8ee-2a65-4d9e-b38c-c0cf9fb28004"
      d="M518.275,501.221c-1.521,0-2.8-.821-3.935-2.148l1.593-1.69c.796.845,1.448,1.521,2.486,1.521.507,0,1.038-.338,1.038-.99,0-.604-.627-1.062-2.052-1.811-1.4-.749-2.51-1.714-2.51-3.114,0-1.931,1.617-3.162,3.452-3.162,1.11,0,2.076.507,3.332,1.376l-1.231,1.931c-1.038-.676-1.593-.965-2.172-.965-.338,0-.821.193-.821.627,0,.652.676.748,1.424,1.207,1.834,1.014,3.138,2.052,3.138,3.766,0,1.738-1.448,3.452-3.742,3.452Z"
    />
    <path
      class="uuid-9e21d8ee-2a65-4d9e-b38c-c0cf9fb28004"
      d="M525.225,500.858v-10.669h6.542v2.341h-4.08v1.473h3.597v2.341h-3.597v2.197h4.345v2.317h-6.808Z"
    />
    <path
      class="uuid-9e21d8ee-2a65-4d9e-b38c-c0cf9fb28004"
      d="M539.273,492.53v8.328h-2.462v-8.328h-3.138v-2.341h3.138v-2.849h2.462v2.849h3.162v2.341h-3.162Z"
    />
  </g>
  <g>
    <path
      class="uuid-9e21d8ee-2a65-4d9e-b38c-c0cf9fb28004"
      d="M250.029,409.328v2.559h-2.704v-4.345c0-5.793,2.172-9.631,5.962-11.321,3.79,1.69,5.986,5.528,5.986,11.321v4.345h-2.704v-2.559h-6.542ZM256.57,406.721c-.121-4.852-1.666-6.397-3.283-7.386-1.617.989-3.138,2.534-3.259,7.386h6.542Z"
    />
    <path
      class="uuid-9e21d8ee-2a65-4d9e-b38c-c0cf9fb28004"
      d="M266.949,411.887h-2.704v-15.015h2.704v5.093l5.093-5.093h3.379l-5.986,5.986,1.641,1.835c1.328,1.497,2.849,3.403,5.19,5.648,2.511,2.414,4.539,3.524,7.025,3.959,4.007.676,5.672-.338,6.566-.58v1.593c-2.511.99-5.432,1.738-9.632.338-3.042-1.014-6.324-3.331-12.07-10.283l-1.207-1.352v7.87Z"
    />
    <path
      class="uuid-9e21d8ee-2a65-4d9e-b38c-c0cf9fb28004"
      d="M278.485,405.779v-2.607h7.894v2.607h-7.894Z"
    />
    <path
      class="uuid-9e21d8ee-2a65-4d9e-b38c-c0cf9fb28004"
      d="M294.15,411.887h-2.704v-15.015h5.118c2.873,0,4.78,1.811,4.78,4.417,0,2.366-2.39,4.394-5.021,4.394h-2.172v6.204ZM294.15,403.1h1.689c1.4,0,2.752-.797,2.752-1.811,0-1.159-.941-1.834-2.559-1.834h-1.883v3.645Z"
    />
    <path
      class="uuid-9e21d8ee-2a65-4d9e-b38c-c0cf9fb28004"
      d="M309.139,411.887v-1.955h-4.007v1.955h-2.462v-3.21c0-4.007,1.593-6.663,4.49-7.918,2.849,1.255,4.442,3.911,4.442,7.918v3.21h-2.462ZM307.135,403.535c-.99.579-1.811,1.545-1.979,4.08h3.959c-.145-2.535-.99-3.5-1.979-4.08Z"
    />
    <path
      class="uuid-9e21d8ee-2a65-4d9e-b38c-c0cf9fb28004"
      d="M326.783,414.47c-2.1-.7-4.369-2.173-8.038-6.3h-.7v3.717h-2.462v-10.669h3.862c2.221,0,3.645,1.521,3.645,3.452,0,1.135-.555,2.028-1.569,2.8.845.941,1.593,1.714,2.969,2.969,1.689,1.569,3.065,2.414,4.755,2.679,2.245.362,3.259-.024,4.272-.313l.676,1.4c-2.004.917-4.394,1.304-7.411.266ZM319.083,403.535h-1.038v2.317h.893c.821,0,1.642-.507,1.642-1.159,0-.676-.58-1.159-1.497-1.159Z"
    />
    <path
      class="uuid-9e21d8ee-2a65-4d9e-b38c-c0cf9fb28004"
      d="M339.261,414.397c-2.148-.7-4.49-2.245-8.569-6.976l-.338-.362v4.828h-2.462v-10.669h2.462v3.065l3.162-3.065h3.21l-4.514,4.321.965,1.038c.941,1.014,1.979,2.269,3.621,3.766,1.689,1.569,3.065,2.39,4.755,2.655,2.728.458,3.886-.217,4.852-.483v1.569c-2.003.772-4.104,1.279-7.146.313Z"
    />
    <path
      class="uuid-9e21d8ee-2a65-4d9e-b38c-c0cf9fb28004"
      d="M340.056,411.887v-10.669h6.542v2.341h-4.08v1.473h3.597v2.341h-3.597v2.197h4.345v2.317h-6.808Z"
    />
    <path
      class="uuid-9e21d8ee-2a65-4d9e-b38c-c0cf9fb28004"
      d="M356.832,411.887v-8.328h-4.056v8.328h-2.462v-10.669h9.004v10.669h-2.486Z"
    />
  </g>
  <g>
    <path
      class="uuid-9e21d8ee-2a65-4d9e-b38c-c0cf9fb28004"
      d="M424.99,409.328v2.559h-2.704v-4.345c0-5.793,2.172-9.631,5.962-11.321,3.79,1.69,5.986,5.528,5.986,11.321v4.345h-2.704v-2.559h-6.542ZM431.531,406.721c-.121-4.852-1.666-6.397-3.283-7.386-1.617.989-3.138,2.534-3.259,7.386h6.542Z"
    />
    <path
      class="uuid-9e21d8ee-2a65-4d9e-b38c-c0cf9fb28004"
      d="M438.482,405.779v-2.607h7.894v2.607h-7.894Z"
    />
    <path
      class="uuid-9e21d8ee-2a65-4d9e-b38c-c0cf9fb28004"
      d="M454.146,411.887h-2.703v-15.015h2.703v4.055h7.918v-4.055h2.704v15.015h-2.704v-5.021h-7.918v5.021ZM454.146,404.669h7.918v-1.545h-7.918v1.545Z"
    />
    <path
      class="uuid-9e21d8ee-2a65-4d9e-b38c-c0cf9fb28004"
      d="M474.204,412.37c-2.897-1.255-4.731-3.887-4.731-7.918v-3.234h2.462v3.042c0,3.283,1.159,4.659,2.245,5.359,1.086-.7,2.269-2.076,2.269-5.359v-3.042h2.462v3.234c0,4.031-1.859,6.663-4.707,7.918Z"
    />
    <path
      class="uuid-9e21d8ee-2a65-4d9e-b38c-c0cf9fb28004"
      d="M485.571,412.249c-1.521,0-2.8-.821-3.935-2.148l1.593-1.69c.797.845,1.449,1.521,2.487,1.521.507,0,1.038-.338,1.038-.99,0-.604-.627-1.062-2.052-1.811-1.4-.749-2.51-1.714-2.51-3.114,0-1.931,1.617-3.162,3.452-3.162,1.11,0,2.076.507,3.332,1.376l-1.231,1.931c-1.038-.676-1.593-.965-2.172-.965-.338,0-.821.193-.821.627,0,.652.676.748,1.424,1.207,1.834,1.014,3.138,2.052,3.138,3.766,0,1.738-1.449,3.452-3.742,3.452Z"
    />
    <path
      class="uuid-9e21d8ee-2a65-4d9e-b38c-c0cf9fb28004"
      d="M492.522,411.887v-10.669h6.542v2.341h-4.08v1.473h3.597v2.341h-3.597v2.197h4.345v2.317h-6.808Z"
    />
    <path
      class="uuid-9e21d8ee-2a65-4d9e-b38c-c0cf9fb28004"
      d="M506.569,403.559v8.328h-2.462v-8.328h-3.138v-2.341h3.138v-2.849h2.462v2.849h3.162v2.341h-3.162Z"
    />
  </g>
  <g>
    <path
      class="uuid-9e21d8ee-2a65-4d9e-b38c-c0cf9fb28004"
      d="M401.544,659.024h5.142v2.607h-5.142v4.321h6.204v2.607h-8.908v-15.015h8.521v2.607h-5.817v2.873Z"
    />
    <path
      class="uuid-9e21d8ee-2a65-4d9e-b38c-c0cf9fb28004"
      d="M411.752,662.452v-2.607h7.894v2.607h-7.894Z"
    />
    <path
      class="uuid-9e21d8ee-2a65-4d9e-b38c-c0cf9fb28004"
      d="M427.417,668.56h-2.703v-15.015h2.703v4.055h7.918v-4.055h2.704v15.015h-2.704v-5.021h-7.918v5.021ZM427.417,661.342h7.918v-1.545h-7.918v1.545Z"
    />
    <path
      class="uuid-9e21d8ee-2a65-4d9e-b38c-c0cf9fb28004"
      d="M447.474,669.042c-2.897-1.255-4.731-3.887-4.731-7.918v-3.234h2.462v3.042c0,3.283,1.159,4.659,2.245,5.359,1.086-.7,2.269-2.076,2.269-5.359v-3.042h2.462v3.234c0,4.031-1.859,6.663-4.707,7.918Z"
    />
    <path
      class="uuid-9e21d8ee-2a65-4d9e-b38c-c0cf9fb28004"
      d="M458.842,668.922c-1.521,0-2.8-.821-3.935-2.148l1.593-1.69c.796.845,1.448,1.521,2.486,1.521.507,0,1.038-.338,1.038-.99,0-.604-.627-1.062-2.052-1.811-1.4-.749-2.51-1.714-2.51-3.114,0-1.931,1.617-3.162,3.452-3.162,1.11,0,2.076.507,3.332,1.376l-1.231,1.931c-1.038-.676-1.593-.965-2.172-.965-.338,0-.821.193-.821.627,0,.652.676.748,1.424,1.207,1.834,1.014,3.138,2.052,3.138,3.766,0,1.738-1.448,3.452-3.742,3.452Z"
    />
    <path
      class="uuid-9e21d8ee-2a65-4d9e-b38c-c0cf9fb28004"
      d="M465.792,668.56v-10.669h6.542v2.341h-4.08v1.473h3.597v2.341h-3.597v2.197h4.345v2.317h-6.808Z"
    />
    <path
      class="uuid-9e21d8ee-2a65-4d9e-b38c-c0cf9fb28004"
      d="M479.84,660.231v8.328h-2.462v-8.328h-3.138v-2.341h3.138v-2.849h2.462v2.849h3.162v2.341h-3.162Z"
    />
  </g>
  <g>
    <path
      class="uuid-9e21d8ee-2a65-4d9e-b38c-c0cf9fb28004"
      d="M260.035,627.29c-1.689,0-3.137-.965-4.223-2.272l1.428-1.609c.764.824,1.609,1.709,2.977,1.709.784,0,1.589-.543,1.589-1.569,0-.865-.764-1.408-2.615-2.434-1.568-.865-2.815-1.931-2.815-3.54,0-2.212,1.77-3.398,3.761-3.398,1.247,0,2.313.583,3.479,1.468l-1.106,1.81c-1.005-.744-1.709-1.106-2.474-1.106-.563,0-1.307.281-1.307,1.046,0,.925.825,1.126,1.871,1.75,2.051,1.167,3.54,2.353,3.54,4.364,0,1.991-1.609,3.781-4.103,3.781Z"
    />
    <path
      class="uuid-9e21d8ee-2a65-4d9e-b38c-c0cf9fb28004"
      d="M270.092,620.05v6.938h-2.051v-6.938h-2.614v-1.951h2.614v-2.373h2.051v2.373h2.635v1.951h-2.635Z"
    />
    <path
      class="uuid-9e21d8ee-2a65-4d9e-b38c-c0cf9fb28004"
      d="M278.48,627.391c-2.414-1.046-3.942-3.238-3.942-6.597v-2.695h2.051v2.534c0,2.735.965,3.881,1.871,4.464.905-.583,1.89-1.729,1.89-4.464v-2.534h2.051v2.695c0,3.359-1.548,5.551-3.921,6.597Z"
    />
    <path
      class="uuid-9e21d8ee-2a65-4d9e-b38c-c0cf9fb28004"
      d="M288.858,626.988h-3.137v-8.889h3.137c3.379,0,5.691,1.589,5.691,4.465,0,2.695-2.312,4.424-5.691,4.424ZM288.998,620.05h-1.227v5.008h1.227c1.991,0,3.318-.885,3.318-2.494,0-1.709-1.327-2.514-3.318-2.514Z"
    />
    <path
      class="uuid-9e21d8ee-2a65-4d9e-b38c-c0cf9fb28004"
      d="M298.733,616.933l-1.388-1.388,1.388-1.388,1.388,1.388-1.388,1.388ZM297.708,626.988v-8.889h2.051v8.889h-2.051Z"
    />
    <path
      class="uuid-9e21d8ee-2a65-4d9e-b38c-c0cf9fb28004"
      d="M303.521,626.988v-8.889h5.45v1.951h-3.399v1.227h2.997v1.951h-2.997v1.83h3.62v1.931h-5.671Z"
    />
    <path
      class="uuid-9e21d8ee-2a65-4d9e-b38c-c0cf9fb28004"
      d="M256.867,635.919c-.905-.865-2.273-1.387-3.902-1.387-2.815,0-5.128,1.77-5.128,4.304s2.132,4.304,5.128,4.304c1.549,0,2.957-.543,3.902-1.448v2.635c-1.187.684-2.615,1.066-4.143,1.066-4.304,0-7.401-2.735-7.401-6.556s3.318-6.556,7.401-6.556c1.569,0,2.997.362,4.143,1.025v2.614Z"
    />
    <path
      class="uuid-9e21d8ee-2a65-4d9e-b38c-c0cf9fb28004"
      d="M260.488,645.09v-8.889h5.45v1.951h-3.399v1.227h2.997v1.951h-2.997v1.83h3.62v1.931h-5.671Z"
    />
    <path
      class="uuid-9e21d8ee-2a65-4d9e-b38c-c0cf9fb28004"
      d="M274.466,645.09v-6.938h-3.379v6.938h-2.051v-8.889h7.501v8.889h-2.071Z"
    />
    <path
      class="uuid-9e21d8ee-2a65-4d9e-b38c-c0cf9fb28004"
      d="M283.316,638.152v6.938h-2.051v-6.938h-2.614v-1.951h2.614v-2.373h2.051v2.373h2.635v1.951h-2.635Z"
    />
    <path
      class="uuid-9e21d8ee-2a65-4d9e-b38c-c0cf9fb28004"
      d="M297.395,647.242c-1.75-.583-3.64-1.81-6.697-5.249h-.583v3.097h-2.051v-8.889h3.218c1.85,0,3.037,1.267,3.037,2.876,0,.945-.462,1.689-1.307,2.333.704.784,1.327,1.428,2.474,2.474,1.408,1.307,2.554,2.011,3.962,2.232,1.87.301,2.715-.021,3.56-.262l.563,1.167c-1.669.764-3.66,1.086-6.174.221ZM290.98,638.132h-.865v1.931h.744c.684,0,1.368-.422,1.368-.965,0-.563-.483-.965-1.247-.965Z"
    />
    <path
      class="uuid-9e21d8ee-2a65-4d9e-b38c-c0cf9fb28004"
      d="M301.962,645.493c-2.414-1.046-3.942-3.238-3.942-6.597v-2.695h2.051v2.534c0,2.735.965,3.881,1.871,4.464.905-.583,1.89-1.729,1.89-4.464v-2.534h2.051v2.695c0,3.359-1.548,5.551-3.921,6.597Z"
    />
    <path
      class="uuid-9e21d8ee-2a65-4d9e-b38c-c0cf9fb28004"
      d="M317.729,645.09v-6.335l-2.212.644v5.691h-2.051v-5.691l-2.212-.644v6.335h-2.051v-8.97l5.289,1.549,5.31-1.549v8.97h-2.072Z"
    />
  </g>
  <g>
    <path
      class="uuid-9e21d8ee-2a65-4d9e-b38c-c0cf9fb28004"
      d="M48.176,667.077h-2.703v-15.063l8.666,2.655,8.666-2.655v15.063h-2.704v-11.49l-4.611,1.4v10.09h-2.704v-10.09l-4.611-1.4v11.49Z"
    />
    <path
      class="uuid-9e21d8ee-2a65-4d9e-b38c-c0cf9fb28004"
      d="M73.979,667.077v-1.955h-4.007v1.955h-2.462v-3.21c0-4.007,1.593-6.663,4.49-7.918,2.849,1.255,4.442,3.911,4.442,7.918v3.21h-2.462ZM71.975,658.725c-.99.579-1.811,1.545-1.979,4.08h3.959c-.145-2.535-.99-3.5-1.979-4.08Z"
    />
    <path
      class="uuid-9e21d8ee-2a65-4d9e-b38c-c0cf9fb28004"
      d="M83.487,658.749v8.328h-2.462v-8.328h-3.138v-2.341h3.138v-2.849h2.462v2.849h3.162v2.341h-3.162Z"
    />
    <path
      class="uuid-9e21d8ee-2a65-4d9e-b38c-c0cf9fb28004"
      d="M92.973,658.749v8.328h-2.462v-8.328h-3.138v-2.341h3.138v-2.849h2.462v2.849h3.162v2.341h-3.162Z"
    />
    <path
      class="uuid-9e21d8ee-2a65-4d9e-b38c-c0cf9fb28004"
      d="M98.668,667.077v-10.669h6.542v2.341h-4.08v1.473h3.597v2.341h-3.597v2.197h4.345v2.317h-6.808Z"
    />
    <path
      class="uuid-9e21d8ee-2a65-4d9e-b38c-c0cf9fb28004"
      d="M116.361,667.077v-2.993h-4.973v2.993h-2.462v-10.669h2.462v2.51h4.973v-2.51h2.462v10.669h-2.462ZM116.361,660.97h-4.973v1.062h4.973v-1.062Z"
    />
    <path
      class="uuid-9e21d8ee-2a65-4d9e-b38c-c0cf9fb28004"
      d="M127.56,667.56c-2.897-1.255-4.731-3.887-4.731-7.918v-3.234h2.462v3.042c0,3.283,1.159,4.659,2.245,5.359,1.086-.7,2.269-2.076,2.269-5.359v-3.042h2.462v3.234c0,4.031-1.859,6.663-4.707,7.918Z"
    />
    <path
      class="uuid-9e21d8ee-2a65-4d9e-b38c-c0cf9fb28004"
      d="M138.927,667.439c-1.521,0-2.8-.821-3.935-2.148l1.593-1.69c.797.845,1.449,1.521,2.487,1.521.507,0,1.038-.338,1.038-.99,0-.604-.627-1.062-2.052-1.811-1.4-.749-2.51-1.714-2.51-3.114,0-1.931,1.617-3.162,3.452-3.162,1.11,0,2.076.507,3.332,1.376l-1.231,1.931c-1.038-.676-1.593-.965-2.172-.965-.338,0-.821.193-.821.627,0,.652.676.748,1.424,1.207,1.834,1.014,3.138,2.052,3.138,3.766,0,1.738-1.449,3.452-3.742,3.452Z"
    />
    <path
      class="uuid-9e21d8ee-2a65-4d9e-b38c-c0cf9fb28004"
      d="M145.878,667.077v-10.669h6.542v2.341h-4.08v1.473h3.597v2.341h-3.597v2.197h4.345v2.317h-6.808Z"
    />
    <path
      class="uuid-9e21d8ee-2a65-4d9e-b38c-c0cf9fb28004"
      d="M159.925,658.749v8.328h-2.462v-8.328h-3.138v-2.341h3.138v-2.849h2.462v2.849h3.162v2.341h-3.162Z"
    />
  </g>
  <g>
    <path
      class="uuid-9e21d8ee-2a65-4d9e-b38c-c0cf9fb28004"
      d="M177.917,687.011h-2.253v-12.549l7.22,2.212,7.22-2.212v12.549h-2.252v-9.573l-3.841,1.167v8.406h-2.252v-8.406l-3.841-1.167v9.573Z"
    />
    <path
      class="uuid-9e21d8ee-2a65-4d9e-b38c-c0cf9fb28004"
      d="M199.417,687.011v-1.629h-3.338v1.629h-2.051v-2.675c0-3.338,1.327-5.551,3.741-6.596,2.373,1.045,3.7,3.258,3.7,6.596v2.675h-2.051ZM197.748,680.052c-.825.483-1.508,1.287-1.649,3.399h3.298c-.121-2.112-.825-2.916-1.649-3.399Z"
    />
    <path
      class="uuid-9e21d8ee-2a65-4d9e-b38c-c0cf9fb28004"
      d="M207.342,680.072v6.938h-2.051v-6.938h-2.614v-1.951h2.614v-2.373h2.051v2.373h2.635v1.951h-2.635Z"
    />
    <path
      class="uuid-9e21d8ee-2a65-4d9e-b38c-c0cf9fb28004"
      d="M215.247,680.072v6.938h-2.051v-6.938h-2.614v-1.951h2.614v-2.373h2.051v2.373h2.635v1.951h-2.635Z"
    />
    <path
      class="uuid-9e21d8ee-2a65-4d9e-b38c-c0cf9fb28004"
      d="M219.994,687.011v-8.889h5.45v1.951h-3.399v1.227h2.997v1.951h-2.997v1.83h3.62v1.931h-5.671Z"
    />
    <path
      class="uuid-9e21d8ee-2a65-4d9e-b38c-c0cf9fb28004"
      d="M167.327,703.363h-.784l-4.203-9.15h2.292l2.293,5.068,2.333-5.068h2.273l-4.204,9.15Z"
    />
    <path
      class="uuid-9e21d8ee-2a65-4d9e-b38c-c0cf9fb28004"
      d="M177.926,703.102v-1.629h-3.338v1.629h-2.051v-2.675c0-3.338,1.327-5.551,3.741-6.596,2.373,1.045,3.7,3.258,3.7,6.596v2.675h-2.051ZM176.257,696.143c-.825.483-1.508,1.287-1.649,3.399h3.298c-.121-2.112-.825-2.916-1.649-3.399Z"
    />
    <path
      class="uuid-9e21d8ee-2a65-4d9e-b38c-c0cf9fb28004"
      d="M188.727,703.102v-6.938h-3.378v6.938h-2.051v-8.889h7.501v8.889h-2.072Z"
    />
    <path
      class="uuid-9e21d8ee-2a65-4d9e-b38c-c0cf9fb28004"
      d="M199.85,703.102v-6.938h-3.379v6.938h-2.051v-8.889h7.501v8.889h-2.071Z"
    />
    <path
      class="uuid-9e21d8ee-2a65-4d9e-b38c-c0cf9fb28004"
      d="M205.543,703.102v-8.889h5.45v1.951h-3.399v1.227h2.997v1.951h-2.997v1.83h3.62v1.931h-5.671Z"
    />
    <path
      class="uuid-9e21d8ee-2a65-4d9e-b38c-c0cf9fb28004"
      d="M218.938,703.102l-2.112-2.977-2.091,2.977h-2.494l3.338-4.746-2.896-4.143h2.514l1.629,2.373,1.669-2.373h2.494l-2.896,4.143,3.318,4.746h-2.474Z"
    />
    <path
      class="uuid-9e21d8ee-2a65-4d9e-b38c-c0cf9fb28004"
      d="M223.202,703.102v-8.889h5.45v1.951h-3.399v1.227h2.997v1.951h-2.997v1.83h3.62v1.931h-5.671Z"
    />
    <path
      class="uuid-9e21d8ee-2a65-4d9e-b38c-c0cf9fb28004"
      d="M234.907,696.163v6.938h-2.051v-6.938h-2.614v-1.951h2.614v-2.373h2.051v2.373h2.635v1.951h-2.635Z"
    />
  </g>
  <g>
    <path
      class="uuid-9e21d8ee-2a65-4d9e-b38c-c0cf9fb28004"
      d="M270.971,699.085h2.252v4.646c-1.187.684-2.615,1.066-4.143,1.066-4.304,0-7.401-2.735-7.401-6.556s3.318-6.556,7.401-6.556c1.569,0,2.997.362,4.143,1.025v2.615c-.905-.865-2.273-1.388-3.902-1.388-2.815,0-5.128,1.77-5.128,4.304s2.132,4.304,5.128,4.304c.563,0,1.126-.081,1.649-.221v-3.238Z"
    />
    <path
      class="uuid-9e21d8ee-2a65-4d9e-b38c-c0cf9fb28004"
      d="M286.096,699.085h2.252v4.646c-1.187.684-2.615,1.066-4.143,1.066-4.304,0-7.401-2.735-7.401-6.556s3.318-6.556,7.401-6.556c1.569,0,2.997.362,4.143,1.025v2.615c-.905-.865-2.273-1.388-3.902-1.388-2.815,0-5.128,1.77-5.128,4.304s2.132,4.304,5.128,4.304c.563,0,1.126-.081,1.649-.221v-3.238Z"
    />
  </g>
  <g>
    <path
      class="uuid-9e21d8ee-2a65-4d9e-b38c-c0cf9fb28004"
      d="M381.083,893.714h-2.704v-15.063l8.667,2.655,8.666-2.655v15.063h-2.704v-11.49l-4.611,1.4v10.09h-2.704v-10.09l-4.61-1.4v11.49Z"
    />
    <path
      class="uuid-9e21d8ee-2a65-4d9e-b38c-c0cf9fb28004"
      d="M400.777,887.606v-2.607h7.894v2.607h-7.894Z"
    />
    <path
      class="uuid-9e21d8ee-2a65-4d9e-b38c-c0cf9fb28004"
      d="M416.442,893.714h-2.704v-15.015h2.704v4.055h7.917v-4.055h2.704v15.015h-2.704v-5.021h-7.917v5.021ZM416.442,886.496h7.917v-1.545h-7.917v1.545Z"
    />
    <path
      class="uuid-9e21d8ee-2a65-4d9e-b38c-c0cf9fb28004"
      d="M436.499,894.197c-2.897-1.255-4.731-3.887-4.731-7.918v-3.234h2.462v3.042c0,3.283,1.159,4.659,2.245,5.359,1.086-.7,2.269-2.076,2.269-5.359v-3.042h2.462v3.234c0,4.031-1.859,6.663-4.707,7.918Z"
    />
    <path
      class="uuid-9e21d8ee-2a65-4d9e-b38c-c0cf9fb28004"
      d="M447.866,894.076c-1.521,0-2.8-.821-3.935-2.148l1.593-1.69c.796.845,1.448,1.521,2.486,1.521.507,0,1.038-.338,1.038-.99,0-.604-.627-1.062-2.052-1.811-1.4-.749-2.51-1.714-2.51-3.114,0-1.931,1.617-3.162,3.452-3.162,1.11,0,2.076.507,3.332,1.376l-1.231,1.931c-1.038-.676-1.593-.965-2.172-.965-.338,0-.821.193-.821.627,0,.652.676.748,1.424,1.207,1.834,1.014,3.138,2.052,3.138,3.766,0,1.738-1.448,3.452-3.742,3.452Z"
    />
    <path
      class="uuid-9e21d8ee-2a65-4d9e-b38c-c0cf9fb28004"
      d="M454.817,893.714v-10.669h6.542v2.341h-4.08v1.473h3.597v2.341h-3.597v2.197h4.345v2.317h-6.808Z"
    />
    <path
      class="uuid-9e21d8ee-2a65-4d9e-b38c-c0cf9fb28004"
      d="M468.864,885.386v8.328h-2.462v-8.328h-3.138v-2.341h3.138v-2.849h2.462v2.849h3.162v2.341h-3.162Z"
    />
  </g>
  <g>
    <path
      class="uuid-9e21d8ee-2a65-4d9e-b38c-c0cf9fb28004"
      d="M216.695,764.442c-2.028,0-3.766-1.159-5.069-2.728l1.714-1.931c.917.99,1.931,2.052,3.573,2.052.941,0,1.907-.652,1.907-1.883,0-1.038-.917-1.689-3.138-2.921-1.883-1.038-3.38-2.317-3.38-4.249,0-2.655,2.125-4.08,4.514-4.08,1.497,0,2.776.7,4.176,1.762l-1.328,2.173c-1.207-.894-2.052-1.328-2.969-1.328-.676,0-1.569.338-1.569,1.255,0,1.11.99,1.352,2.245,2.1,2.462,1.4,4.249,2.825,4.249,5.238,0,2.39-1.931,4.539-4.924,4.539Z"
    />
    <path
      class="uuid-9e21d8ee-2a65-4d9e-b38c-c0cf9fb28004"
      d="M226.374,752.01l-1.666-1.666,1.666-1.666,1.666,1.666-1.666,1.666ZM225.142,768.184v-14.773h2.462v12.335l-2.462,2.438Z"
    />
    <path
      class="uuid-9e21d8ee-2a65-4d9e-b38c-c0cf9fb28004"
      d="M237.452,764.442c-3.524,0-6.059-2.438-6.059-5.673,0-3.259,2.704-5.721,6.059-5.721,3.5,0,6.035,2.462,6.035,5.721,0,3.234-2.704,5.673-6.035,5.673ZM234.869,751.479l-1.738-1.738,1.738-1.738,1.738,1.738-1.738,1.738ZM237.452,755.438c-1.907,0-3.5,1.449-3.5,3.332,0,1.858,1.448,3.283,3.5,3.283,1.907,0,3.476-1.424,3.476-3.283,0-1.883-1.448-3.332-3.476-3.332ZM239.987,751.479l-1.738-1.738,1.738-1.738,1.738,1.738-1.738,1.738Z"
    />
    <path
      class="uuid-9e21d8ee-2a65-4d9e-b38c-c0cf9fb28004"
      d="M253.624,764.08v-8.328h-4.056v8.328h-2.462v-10.669h9.004v10.669h-2.486Z"
    />
    <path
      class="uuid-9e21d8ee-2a65-4d9e-b38c-c0cf9fb28004"
      d="M216.695,786.567c-2.028,0-3.766-1.159-5.069-2.728l1.714-1.931c.917.99,1.931,2.052,3.573,2.052.941,0,1.907-.652,1.907-1.883,0-1.038-.917-1.689-3.138-2.921-1.883-1.038-3.38-2.317-3.38-4.249,0-2.655,2.125-4.08,4.514-4.08,1.497,0,2.776.7,4.176,1.762l-1.328,2.173c-1.207-.894-2.052-1.328-2.969-1.328-.676,0-1.569.338-1.569,1.255,0,1.11.99,1.352,2.245,2.1,2.462,1.4,4.249,2.825,4.249,5.238,0,2.39-1.931,4.539-4.924,4.539Z"
    />
    <path
      class="uuid-9e21d8ee-2a65-4d9e-b38c-c0cf9fb28004"
      d="M226.374,774.135l-1.666-1.666,1.666-1.666,1.666,1.666-1.666,1.666ZM225.142,790.309v-14.773h2.462v12.335l-2.462,2.438Z"
    />
    <path
      class="uuid-9e21d8ee-2a65-4d9e-b38c-c0cf9fb28004"
      d="M231.393,780.895c0-3.259,2.704-5.721,6.059-5.721,1.086,0,2.076.241,2.921.652l1.497-1.834,1.4,1.134-1.424,1.738c1.038,1.038,1.641,2.438,1.641,4.031,0,3.234-2.704,5.673-6.035,5.673-1.086,0-2.076-.242-2.945-.652l-1.473,1.834-1.376-1.135,1.4-1.714c-1.062-1.014-1.666-2.414-1.666-4.007ZM238.78,777.805c-.386-.169-.845-.242-1.328-.242-1.907,0-3.5,1.449-3.5,3.332,0,.772.241,1.472.7,2.028l4.128-5.118ZM236.101,783.96c.41.145.869.217,1.352.217,1.907,0,3.476-1.424,3.476-3.283,0-.772-.241-1.473-.676-2.052l-4.152,5.117Z"
    />
    <path
      class="uuid-9e21d8ee-2a65-4d9e-b38c-c0cf9fb28004"
      d="M253.624,786.205v-8.328h-4.056v8.328h-2.462v-10.669h9.004v10.669h-2.486Z"
    />
  </g>
  <g>
    <path
      class="uuid-9e21d8ee-2a65-4d9e-b38c-c0cf9fb28004"
      d="M177.216,581.607h-2.704v-15.015h2.704v5.093l5.093-5.093h3.379l-5.986,5.986,1.641,1.835c1.328,1.497,2.849,3.403,5.19,5.648,2.511,2.414,4.539,3.524,7.025,3.959,4.007.676,5.672-.338,6.566-.58v1.593c-2.511.99-5.432,1.738-9.632.338-3.042-1.014-6.324-3.331-12.07-10.283l-1.207-1.352v7.87Z"
    />
    <path
      class="uuid-9e21d8ee-2a65-4d9e-b38c-c0cf9fb28004"
      d="M197.274,581.607v-1.955h-4.007v1.955h-2.462v-3.21c0-4.007,1.593-6.663,4.49-7.918,2.849,1.255,4.442,3.911,4.442,7.918v3.21h-2.462ZM195.27,569.224c-1.376,0-2.486-1.111-2.486-2.462,0-1.376,1.11-2.486,2.486-2.486,1.352,0,2.462,1.11,2.462,2.486,0,1.352-1.11,2.462-2.462,2.462ZM195.27,573.255c-.99.579-1.811,1.545-1.979,4.08h3.959c-.145-2.535-.99-3.5-1.979-4.08ZM195.27,565.651c-.604,0-1.11.507-1.11,1.11s.507,1.086,1.11,1.086c.579,0,1.086-.483,1.086-1.086s-.507-1.11-1.086-1.11Z"
    />
    <path
      class="uuid-9e21d8ee-2a65-4d9e-b38c-c0cf9fb28004"
      d="M214.917,584.19c-2.1-.7-4.369-2.173-8.038-6.3h-.7v3.717h-2.462v-10.669h3.862c2.221,0,3.645,1.521,3.645,3.452,0,1.135-.555,2.028-1.569,2.8.845.941,1.593,1.714,2.969,2.969,1.689,1.569,3.065,2.414,4.755,2.679,2.245.362,3.259-.024,4.272-.313l.676,1.4c-2.004.917-4.394,1.304-7.411.266ZM207.217,573.255h-1.038v2.317h.893c.821,0,1.642-.507,1.642-1.159,0-.676-.58-1.159-1.497-1.159Z"
    />
    <path
      class="uuid-9e21d8ee-2a65-4d9e-b38c-c0cf9fb28004"
      d="M223.461,581.607v-2.993h-4.973v2.993h-2.462v-10.669h2.462v2.51h4.973v-2.51h2.462v10.669h-2.462ZM223.461,575.5h-4.973v1.062h4.973v-1.062Z"
    />
    <path
      class="uuid-9e21d8ee-2a65-4d9e-b38c-c0cf9fb28004"
      d="M234.66,582.09c-2.897-1.255-4.731-3.887-4.731-7.918v-3.234h2.462v3.042c0,3.283,1.159,4.659,2.245,5.359,1.086-.7,2.269-2.076,2.269-5.359v-3.042h2.462v3.234c0,4.031-1.859,6.663-4.707,7.918Z"
    />
    <path
      class="uuid-9e21d8ee-2a65-4d9e-b38c-c0cf9fb28004"
      d="M246.027,581.97c-1.521,0-2.8-.821-3.935-2.148l1.593-1.69c.796.845,1.448,1.521,2.486,1.521.507,0,1.038-.338,1.038-.99,0-.604-.627-1.062-2.052-1.811-1.4-.749-2.51-1.714-2.51-3.114,0-1.931,1.617-3.162,3.452-3.162,1.11,0,2.076.507,3.332,1.376l-1.231,1.931c-1.038-.676-1.593-.965-2.172-.965-.338,0-.821.193-.821.627,0,.652.676.748,1.424,1.207,1.834,1.014,3.138,2.052,3.138,3.766,0,1.738-1.448,3.452-3.742,3.452Z"
    />
    <path
      class="uuid-9e21d8ee-2a65-4d9e-b38c-c0cf9fb28004"
      d="M252.978,581.607v-10.669h6.542v2.341h-4.08v1.473h3.597v2.341h-3.597v2.197h4.345v2.317h-6.808Z"
    />
    <path
      class="uuid-9e21d8ee-2a65-4d9e-b38c-c0cf9fb28004"
      d="M267.025,573.279v8.328h-2.462v-8.328h-3.138v-2.341h3.138v-2.849h2.462v2.849h3.162v2.341h-3.162Z"
    />
  </g>
  <circle
    class="uuid-9e21d8ee-2a65-4d9e-b38c-c0cf9fb28004"
    cx="340.244"
    cy="585.163"
    r="10.057"
  />
  <circle
    class="uuid-9e21d8ee-2a65-4d9e-b38c-c0cf9fb28004"
    cx="485.552"
    cy="788.233"
    r="10.057"
  />
  <circle
    class="uuid-9e21d8ee-2a65-4d9e-b38c-c0cf9fb28004"
    cx="508.87"
    cy="639.692"
    r="10.057"
  />
  <circle
    class="uuid-9e21d8ee-2a65-4d9e-b38c-c0cf9fb28004"
    cx="580.816"
    cy="490.8"
    r="10.057"
  />
  <circle
    class="uuid-9e21d8ee-2a65-4d9e-b38c-c0cf9fb28004"
    cx="559.004"
    cy="212.717"
    r="10.057"
  />
  <circle
    class="uuid-9e21d8ee-2a65-4d9e-b38c-c0cf9fb28004"
    cx="481.346"
    cy="65.557"
    r="10.057"
  />
  <circle
    class="uuid-9e21d8ee-2a65-4d9e-b38c-c0cf9fb28004"
    cx="161.14"
    cy="78.458"
    r="10.057"
  />
  <circle
    class="uuid-9e21d8ee-2a65-4d9e-b38c-c0cf9fb28004"
    cx="148.473"
    cy="275.448"
    r="10.057"
  />
  <circle
    class="uuid-9e21d8ee-2a65-4d9e-b38c-c0cf9fb28004"
    cx="283.362"
    cy="325.232"
    r="10.057"
  />
  <circle
    class="uuid-9e21d8ee-2a65-4d9e-b38c-c0cf9fb28004"
    cx="369.217"
    cy="427.342"
    r="10.057"
  />
  <circle
    class="uuid-9e21d8ee-2a65-4d9e-b38c-c0cf9fb28004"
    cx="421.649"
    cy="240.514"
    r="10.057"
  />
  <circle
    class="uuid-9e21d8ee-2a65-4d9e-b38c-c0cf9fb28004"
    cx="472.025"
    cy="966.892"
    r="10.057"
  />
  <circle
    class="uuid-9e21d8ee-2a65-4d9e-b38c-c0cf9fb28004"
    cx="285.253"
    cy="804.767"
    r="10.057"
  />
  <circle
    class="uuid-9e21d8ee-2a65-4d9e-b38c-c0cf9fb28004"
    cx="256.108"
    cy="989.943"
    r="10.057"
  />
  <circle
    class="uuid-9e21d8ee-2a65-4d9e-b38c-c0cf9fb28004"
    cx="70.153"
    cy="897.355"
    r="10.057"
  />
  <circle
    class="uuid-9e21d8ee-2a65-4d9e-b38c-c0cf9fb28004"
    cx="10.057"
    cy="632.277"
    r="10.057"
  />
  <circle
    class="uuid-9e21d8ee-2a65-4d9e-b38c-c0cf9fb28004"
    cx="161.14"
    cy="624.515"
    r="10.057"
  />
  <circle
    class="uuid-9e21d8ee-2a65-4d9e-b38c-c0cf9fb28004"
    cx="138.416"
    cy="527.656"
    r="10.057"
  />
  <circle
    class="uuid-9e21d8ee-2a65-4d9e-b38c-c0cf9fb28004"
    cx="215.917"
    cy="427.342"
    r="10.057"
  />
  <line
    class="uuid-b0fb6ecc-9d14-4266-adaa-831afba39f04"
    x1="340.244"
    y1="585.163"
    x2="285.22"
    y2="806.657"
  />
  <line
    class="uuid-b0fb6ecc-9d14-4266-adaa-831afba39f04"
    x1="161.14"
    y1="624.515"
    x2="340.244"
    y2="585.163"
  />
  <line
    class="uuid-b0fb6ecc-9d14-4266-adaa-831afba39f04"
    x1="508.87"
    y1="639.692"
    x2="340.244"
    y2="585.163"
  />
  <line
    class="uuid-b0fb6ecc-9d14-4266-adaa-831afba39f04"
    x1="485.552"
    y1="788.233"
    x2="285.253"
    y2="804.767"
  />
  <line
    class="uuid-b0fb6ecc-9d14-4266-adaa-831afba39f04"
    x1="508.87"
    y1="639.692"
    x2="485.552"
    y2="788.233"
  />
  <line
    class="uuid-b0fb6ecc-9d14-4266-adaa-831afba39f04"
    x1="580.816"
    y1="490.8"
    x2="508.87"
    y2="639.692"
  />
  <line
    class="uuid-b0fb6ecc-9d14-4266-adaa-831afba39f04"
    x1="369.217"
    y1="427.342"
    x2="340.244"
    y2="585.163"
  />
  <line
    class="uuid-b0fb6ecc-9d14-4266-adaa-831afba39f04"
    x1="580.816"
    y1="490.8"
    x2="369.217"
    y2="427.342"
  />
  <line
    class="uuid-b0fb6ecc-9d14-4266-adaa-831afba39f04"
    x1="421.649"
    y1="240.514"
    x2="283.362"
    y2="325.232"
  />
  <line
    class="uuid-b0fb6ecc-9d14-4266-adaa-831afba39f04"
    x1="559.004"
    y1="212.717"
    x2="421.649"
    y2="240.514"
  />
  <line
    class="uuid-b0fb6ecc-9d14-4266-adaa-831afba39f04"
    x1="481.346"
    y1="65.557"
    x2="559.004"
    y2="212.717"
  />
  <line
    class="uuid-b0fb6ecc-9d14-4266-adaa-831afba39f04"
    x1="161.14"
    y1="78.458"
    x2="481.346"
    y2="65.557"
  />
  <line
    class="uuid-b0fb6ecc-9d14-4266-adaa-831afba39f04"
    x1="148.473"
    y1="275.448"
    x2="161.14"
    y2="78.458"
  />
  <line
    class="uuid-b0fb6ecc-9d14-4266-adaa-831afba39f04"
    x1="283.362"
    y1="325.232"
    x2="148.473"
    y2="275.448"
  />
  <line
    class="uuid-b0fb6ecc-9d14-4266-adaa-831afba39f04"
    x1="369.217"
    y1="427.342"
    x2="421.649"
    y2="240.514"
  />
  <line
    class="uuid-b0fb6ecc-9d14-4266-adaa-831afba39f04"
    x1="472.025"
    y1="966.892"
    x2="485.552"
    y2="788.233"
  />
  <line
    class="uuid-b0fb6ecc-9d14-4266-adaa-831afba39f04"
    x1="559.004"
    y1="212.717"
    x2="580.816"
    y2="490.8"
  />
  <line
    class="uuid-b0fb6ecc-9d14-4266-adaa-831afba39f04"
    x1="283.362"
    y1="325.232"
    x2="215.917"
    y2="427.342"
  />
  <line
    class="uuid-b0fb6ecc-9d14-4266-adaa-831afba39f04"
    x1="369.217"
    y1="427.342"
    x2="215.917"
    y2="427.342"
  />
  <line
    class="uuid-b0fb6ecc-9d14-4266-adaa-831afba39f04"
    x1="256.108"
    y1="989.943"
    x2="285.253"
    y2="804.767"
  />
  <line
    class="uuid-b0fb6ecc-9d14-4266-adaa-831afba39f04"
    x1="472.025"
    y1="966.892"
    x2="256.108"
    y2="989.943"
  />
  <line
    class="uuid-b0fb6ecc-9d14-4266-adaa-831afba39f04"
    x1="138.416"
    y1="527.656"
    x2="215.917"
    y2="427.342"
  />
  <line
    class="uuid-b0fb6ecc-9d14-4266-adaa-831afba39f04"
    x1="161.14"
    y1="624.515"
    x2="138.416"
    y2="527.656"
  />
  <line
    class="uuid-b0fb6ecc-9d14-4266-adaa-831afba39f04"
    x1="161.14"
    y1="624.515"
    x2="10.057"
    y2="632.277"
  />
  <line
    class="uuid-b0fb6ecc-9d14-4266-adaa-831afba39f04"
    x1="70.153"
    y1="897.355"
    x2="10.057"
    y2="632.277"
  />
  <line
    class="uuid-b0fb6ecc-9d14-4266-adaa-831afba39f04"
    x1="70.153"
    y1="897.355"
    x2="285.253"
    y2="804.767"
  />
</svg>
