<?xml version="1.0" encoding="utf-8"?>
<!-- Generator: Adobe Illustrator 23.0.1, SVG Export Plug-In . SVG Version: 6.00 Build 0)  -->
<svg version="1.1" xmlns="http://www.w3.org/2000/svg" xmlns:xlink="http://www.w3.org/1999/xlink" x="0px" y="0px"
	 viewBox="0 0 1000 1000" style="enable-background:new 0 0 1000 1000;" xml:space="preserve">
<style type="text/css">
	.st0{fill:#E38295;}
	.st1{fill:#9E4A5A;}
	.st2{fill:#F9D8E2;}
</style>
<g id="Lager_1">
	<g>
		<g>
			<path class="st0" d="M79.9,621c3.8-14.4,7.4-28.9,11.5-43.3c11.9-41.7,24-83.3,35.9-125c11.5-40.5,22.9-81.1,34.3-121.7
				c7.2-25.9,14.3-51.8,21.5-77.7c3.2-11.5,7.6-22.1,17.1-30.2c7.6-6.4,16.2-8.3,25.6-6.9c15.9,2.4,31.8,5,47.7,7.8
				c30.2,5.2,60.4,10.5,90.6,15.8c33.1,5.9,66.2,12,99.4,17.8c35.7,6.2,71.4,12,107.1,18.2c39.2,6.8,78.3,13.9,117.5,20.8
				c25,4.4,50,8.8,75.1,13.2c40.3,7.1,80.6,14,120.8,21.2c13.3,2.4,26.7,4.9,39.8,8c4.8,1.1,9,4.5,13.5,6.8c0.3,0.4,0.6,0.7,0.8,1.1
				c0,0,0,0,0,0c0.6,3.7,1.9,7.5,1.7,11.2c-0.4,8.8-0.8,17.7-2.5,26.3c-12.1,59-24.7,117.9-36.9,177
				c-10.4,50.7-20.2,101.5-30.8,152.2c-3.5,17.1-7.7,34.1-12.8,50.7c-2.9,9.6-9.1,17.9-19.2,21.8c-10.7,4.1-21.7,3.1-32.5,1.1
				c-33.4-6.1-66.8-12.1-100.1-18.7c-70.1-13.7-140.1-27.9-210.1-41.6c-67.5-13.2-134.9-26.3-202.5-38.9
				c-53.7-10-107.5-18.8-161.2-28.6c-12.5-2.3-25-5.7-36.9-10.1c-10-3.6-14.7-12.1-14.4-22.9C79.8,624.7,79.9,622.9,79.9,621z
				 M708.9,520.1c-0.4-0.7-0.8-1.3-1.2-2c-6.2-9.6-14.9-15.1-26.3-17.1c-17.5-3.1-35-6.5-52.5-10.2c-5.1-1.1-7.3,0.6-9,5.1
				c-19.8,52.3-39.7,104.6-59.5,157c-1.1,2.8-1,6.1-1.4,9.2c1.1,2.7,1.8,5.8,3.6,8.2c1.7,2.3,4.3,5,6.9,5.6
				c15.8,3.3,31.6,6.7,47.6,8.9c31.8,4.4,60.2-13,70.5-42.6c3.4-9.8,4.3-19.9,1.3-29.9c-1.5-4.9-3.8-9.4-5.8-14.2
				c0.5-0.3,0.9-0.6,1.4-0.8c20.2-8.8,35.5-34.3,33.5-56.4C717.2,532.9,715.2,525.5,708.9,520.1
				C708.9,520.1,708.9,520.1,708.9,520.1z M665.2,322.9c-1.6-0.8-3.1-2-4.7-2.3c-25.9-5.1-51.8-10.2-77.7-14.9
				c-2.1-0.4-4.5,1.5-6.8,2.4c-2.2-0.7-4.4-1.4-6.6-2.1c-1.4-0.8-2.6-2.1-4.1-2.4c-8.6-1.6-17.2-3.2-25.9-4.2c-2-0.2-5,1.5-6.4,3.2
				c-6.4,7.9-12.5,16.2-18.7,24.3c0.1-3.1-0.2-6.3,0.2-9.4c1.2-9.6,0.2-18.3-8.4-24.4c-10.1-1.9-20.3-3.8-30.4-5.7
				c-3.4-0.7-5,0.5-4.9,4.1c0,3.5-0.4,7-0.5,10.5c-0.8,22.3-1.4,44.6-2.3,66.9c-0.4,10.3-1.4,20.3-6,30
				c-6.3,13.5-11.2,27.6-16.7,41.5c-0.4,1-0.1,2.3-0.2,3.5c1.5,3.7,2.9,7.4,4.7,10.9c0.6,1.2,2,2.6,3.2,2.8c9.5,1.7,19,3.2,28.5,4.6
				c3.1,0.5,5.3-0.9,6.5-4.1c4.3-10.8,8.5-21.7,13.3-32.3c4.6-10.1,7.7-20.7,15.3-29.5c11.5-13.4,22-27.5,33.2-41.2
				c5.1-6.3,10.7-12.1,16.1-18.2c0.4,0.2,0.7,0.3,1.1,0.5c2.5,9.4,6.6,17.1,18.2,16.6c0.6,0,1.3,0.3,1.9,0.5
				c-1.3,3.2-2.7,6.3-3.9,9.5c-3.6,9.7-6.9,19.6-10.7,29.3c-7.6,19.5-15.5,38.8-23.1,58.3c-1.2,3.2-1.6,6.7-2.4,10
				c1.2,3.2,2,6.8,3.8,9.6c1.5,2.3,4.1,4.9,6.6,5.4c8.5,1.6,17.1,2.4,25.7,3.5c3.8,0.5,6.4-0.7,7.6-4.6c1-3.3,2.4-6.6,3.6-9.8
				c10.6-27.4,21.2-54.9,31.8-82.3c2.9-7.4,5.7-14.8,8.5-21.8c8.9,1.6,17,3,25.1,4.5c-0.7,2.4-1.2,4.8-2.1,7.1
				c-4.4,11.7-8.9,23.4-13.5,35c-7.6,19.5-15.4,38.9-22.9,58.4c-0.7,1.8-0.2,4-0.3,6.1c0,10.5,1.9,13,11.9,15c7,1.4,14,2.7,21.1,3.9
				c14.1,2.3,28.2,4.5,42.3,6.6c4.5,0.7,7.2-1.4,8.8-5.6c3.4-9,7-17.9,10.3-27c1.7-4.7-3.5-11.8-8.4-11.6c-0.5,0-0.9,1.1-1.4,1.7
				c-1.9-1.5-3.6-3.7-5.7-4.2c-6.8-1.8-13.8-3.1-20.7-4.5c1-3.5,2-6.9,2.9-10.4c1.1-4.1,3.4-4.9,7.4-4c8.1,1.8,16.3,3.1,24.4,4.4
				c3.5,0.6,6.1-0.7,7.5-4.3c3.2-8.5,6.4-17.1,9.9-25.5c1.4-3.5,0.7-6.2-2.2-8.3c-2.1-1.5-4.5-2.7-6.8-4c-1.8-0.9-3.6-2.2-5.6-2.7
				c-5.1-1.3-10.3-2.2-15.4-3.2c1.3-3.6,2.7-7.1,3.8-10.8c1.2-4,3.7-4.8,7.6-4.1c8.6,1.7,17.3,3.1,26,4.5c6.9,1.1,8,0.4,10.3-6
				c2.6-7.2,5.4-14.3,8.1-21.4c2.8-7.4,0.4-11.5-7.7-13.2c-1.6-1-3.1-2.6-4.8-2.9c-20.6-4-41.3-7.9-61.9-11.9
				c-3.2-0.6-5.9-0.3-7.6,2.8C671.8,325,668.5,324,665.2,322.9z M444.1,460.6c-1-0.7-2-2-3.2-2.1c-10-1.3-20.1-2.7-30.2-3.5
				c-1.5-0.1-4,1.9-4.8,3.6c-2.6,5.4-4.6,11-6.8,16.6c-18.4,46.9-36.7,93.8-55,140.7c-1.1,2.9-1.5,6.1-2.2,9.1
				c0.6,2.2,1.1,4.5,1.9,6.7c1.7,4.5,3.9,8,9.6,8.7c11.7,1.5,23.3,3.6,35,5.6c11.6,2,23.2,4.1,34.8,6.3c4.1,0.8,6.5-0.4,7.8-4.7
				c1.8-5.9,3.5-11.9,6.6-17.2c6.1-10.4,3.7-18.4-5.3-25.4c-8.8-1.7-17.6-3.4-26.4-5.1c0.4-1.6,0.6-3.3,1.2-4.8
				c14.8-38.7,29.7-77.4,44.6-116C455.5,469.7,453.6,465.1,444.1,460.6z M453.8,298.9c-1.2-2.2-2.2-4.5-3.6-6.4
				c-6.6-8.5-15.4-12.9-25.9-14.4c-13.8-2-27.7-3.9-41.4-6.4c-4.9-0.9-6.9,0.5-8.5,4.8c-12,31.4-24.1,62.7-36.2,94
				c-5.4,14.1-11,28.2-16.1,42.4c-1,2.7-0.6,6-0.9,9c-0.1,8.2,4.2,12.9,11.8,15c-9.9,1.8-20.7,1.8-29.7,5.7
				c-15.1,6.5-25.9,18.7-32.2,34c-10.1,24.6-20.1,49.3-29.2,74.3c-5.9,16.2-9.5,33.1-0.8,49.8c0,0.8-0.2,1.7,0.1,2.4
				c6.2,12.9,15.4,22.6,29.4,26.4c37.4,10,71.2-8,83.2-49.1c2-7-0.4-11.4-7.5-15.5c-0.5-0.4-1.1-1-1.6-1.1
				c-10.5-1.7-21-3.4-31.5-4.7c-1.2-0.1-3.1,1.9-4,3.4c-2.8,4.9-5,10.2-7.9,15c-3.3,5.4-7.9,7-14.1,5.7c0.2-2.1-0.1-4.4,0.6-6.3
				c9.8-26.3,19.7-52.7,29.7-78.9c3.1-8.1,10.9-12.9,17.6-11.5c-1.1,3.2-2.2,6.4-3.2,9.7c-1,3.5-1.9,7.1-2.8,10.7
				c0.3,1.6,0.2,3.5,1,4.8c2,3.2,4,8,6.9,8.9c9.2,2.6,18.9,3.9,28.4,5.2c6,0.8,9.4-1.5,11.7-7.1c1.9-4.6,3.5-9.3,5.4-14
				c6.3-15.9,4.6-31-4.8-45.2c-0.3-0.5-1.3-0.5-1.9-0.7c-4.5-9-12.3-14.3-20.9-18.7c7.7,1.1,15.4,2.4,23.1,3.3
				c36.3,3.8,57.7-24,60-53.2c0.6-7.8-2.2-14.5-7.3-20.7c13.4-7.5,23.3-17.4,28.4-31.6c4.8-13.4,5.1-26.3-3.3-38.5
				C455.6,298.9,454.5,299,453.8,298.9z M603.1,488.7c-1.5-1.2-2.9-3.1-4.6-3.3c-8.8-1.5-17.8-2.2-26.5-4c-5.4-1.1-7.8,0.7-9.5,5.6
				c-5.2,15.3-10.5,30.5-16.3,45.6c-9.5,24.9-19.4,49.7-29.2,74.5c-2.8,7-10.6,12.9-19.8,9.8c0.4-1.8,0.5-3.6,1.1-5.3
				c6.9-18.7,13.7-37.4,20.8-56c7.8-20.5,16-40.8,23.8-61.3c2.9-7.6-0.2-14.6-7.4-17.1c-1.5-0.9-3-2.2-4.6-2.6
				c-8.5-2.1-17.2-3.7-25.7-6c-4.4-1.2-6.4,0.4-7.9,4.2c-14.5,38.3-29.1,76.5-43.7,114.7c-6.3,16.4-9.9,32.9-0.7,49.6
				c1,2.4,1.7,5,3.1,7.1c14.8,23.2,45.2,27,64.9,21.3c21.9-6.4,35.6-22,44-42.5c7.7-18.8,14.5-37.9,21.8-56.9
				c7.8-20.5,15.6-41,23.3-61.6C612.3,498.2,609.4,491.6,603.1,488.7z M528.7,718.4c-0.1,0.6-0.1,1.2-0.2,1.7
				c1.9,1.1,3.7,2.6,5.8,3.2c8.1,2.1,16.2,4.3,24.5,5.7c22.6,4,45.2,7.8,67.8,11.5c2.9,0.5,6,0.5,8.9,0.1c1.3-0.2,2.5-1.8,3.7-2.7
				c-0.9-1.1-1.6-2.6-2.7-3.2c-1.9-1-4-1.8-6.1-2.2c-31.3-5.2-62.6-10.3-94-15.2C534,716.9,531.3,718,528.7,718.4z M130.3,641
				c0.7,0,1.5,0.2,2,0c2-1.1,5-2,5.7-3.7c0.7-1.7-0.2-5.3-1.7-6.4c-8.6-6.5-14.5-14.8-19.3-24.3c-0.9-1.8-2.7-3.4-4.5-4.5
				c-2.9-1.8-6-1.7-8.6,1c-7.6,8-6.1,24.4,2.9,30.6C113.9,638.5,122,640.2,130.3,641z M722.9,757c3.3,0,6.7,0.2,10-0.1
				c3.4-0.3,8.1,0.2,8.5-4.2c0.4-4.5-4.5-5-7.7-5.4c-21.8-2.9-43.6-5.5-65.4-8.1c-3.5-0.4-8.3-1-9.1,3.7c-0.8,4.8,4,5.5,7.5,6.2
				C685.1,753.3,703.8,756.7,722.9,757z M198,272.1c-0.3,7.2,2,10.6,6.6,11.5c5,1,6.5-2.8,8.4-6.2c2.3-4.2,5-8.2,7.4-12.4
				c2.3-4.2,4.7-8.4,6.5-12.8c1.9-4.5,0-8.2-4-10.7c-4.2-2.6-8.9-2-12.2,2C203.4,252.4,199.3,262.6,198,272.1z M158.5,452.4
				c-0.2-2.4-0.3-4.7-0.7-6.9c-0.8-3.7-3.3-4.4-6.1-1.7c-1.2,1.1-2.2,2.6-2.8,4.1c-1.8,4.5-3.6,8.9-5,13.6
				c-3.5,11.8-6.9,23.6-10,35.5c-0.4,1.4,1.2,3.3,1.9,5c1.8-0.8,4.5-1.1,5.3-2.4C149.4,484.7,155.4,469,158.5,452.4z M811,769.7
				c6.4,0.6,11.7-1.6,15.7-6.3c1.9-2.2,3-5.1,4.5-7.6c-2.8-1.4-5.6-2.9-8.5-4.2c-0.7-0.3-1.7-0.3-2.5-0.1
				c-8.3,1.4-16.7,2.6-24.9,4.5c-2,0.5-4.6,3.3-4.6,5.1c0,1.9,2.4,4.9,4.3,5.5C800.2,768.1,805.7,768.7,811,769.7z M201.5,303.6
				c-0.9-1.3-2-4.7-3.7-5c-1.9-0.3-4.3,2.1-6.2,3.6c-1,0.8-1.7,2.1-2,3.4c-2.7,10.6-5.3,21.2-7.6,31.9c-0.3,1.4,1.5,4.7,2.5,4.8
				c2,0.2,5.4-0.7,6.1-2.1C196.2,329.1,199.4,317.2,201.5,303.6z M131.3,554.7c-0.3-0.2-0.6-0.3-0.9-0.5c-0.5-3.1-0.8-6.2-1.8-9.2
				c-0.4-1.3-2.1-3.1-3.2-3.1c-1.1-0.1-3,1.5-3.5,2.8c-3.6,9.5-7,19-10.1,28.6c-0.5,1.5,0.2,4.7,1.2,5.2c1.8,0.8,4.7,0.9,6.5,0
				c2.1-1,4.2-3.1,5.1-5.2C127.1,567.1,129.1,560.9,131.3,554.7z M171.4,652.6c0.1-0.2,0.2-0.4,0.3-0.7c1.5-0.2,3.1,0,4.4-0.7
				c2.1-1.1,3.8-2.7,5.7-4c-1.6-1.7-2.9-4.1-4.8-4.9c-5.7-2.1-11.6-3.7-17.6-5.2c-3.1-0.8-5.7,0.8-5.2,4.1c0.4,2.3,1.9,5.3,3.9,6.4
				C162.3,649.9,167,651,171.4,652.6z M167.9,376.2c0.4,0.2,0.8,0.4,1.3,0.5c0,0.5-0.2,1.1,0,1.5c1,1.9,2.1,3.8,3.2,5.7
				c1.4-1.3,3.5-2.3,4.2-3.9c2.4-5.6,4.7-11.3,6.4-17.2c0.7-2.3,0.2-5.2-0.7-7.6c-0.9-2.5-3.4-3.3-4.8-0.5
				C174.1,361.8,171.1,369,167.9,376.2z M421.5,689c-0.2,0.4-0.3,0.7-0.5,1.1c-1.1,0.1-2.4,0-3.4,0.5c-1.4,0.7-2.5,1.8-3.8,2.8
				c0.9,1.1,1.6,2.9,2.7,3.3c7.7,2.3,15.6,4.3,23.4,6.2c1.1,0.2,2.5-1.1,3.7-1.6c-0.7-1.4-1.1-3.5-2.1-4
				C435,694.2,428.2,691.7,421.5,689z M260.3,659.2c-0.1,0.3-0.1,0.6-0.2,0.8c-0.8,0-1.7-0.2-2.5,0c-1.8,0.5-3.5,1.1-5.3,1.7
				c1.3,1.4,2.5,3.9,4.1,4.2c7.6,1.4,15.2,2.4,22.9,3.2c1.2,0.1,2.6-1.5,4-2.3c-1.1-1.1-2-2.9-3.3-3.2
				C273.5,662.1,266.9,660.7,260.3,659.2z M780.1,756.7c-3-2.4-4.9-4.7-7.3-5.6c-4.6-1.8-9-0.5-12.2,3.3c-0.7,0.8-0.2,3.5,0.6,4.7
				c2.8,3.8,9.3,5.7,13,3.7C776.2,761.7,777.5,759.5,780.1,756.7z M167.7,415.1c-0.9-2.8-1.2-5.3-4.8-3.8
				c-4.9,1.9-9.9,11.2-8.4,16.2c0.5,1.6,1.9,3.3,3.3,3.9c0.8,0.3,3.1-1.2,3.7-2.4C163.9,424.5,165.7,419.7,167.7,415.1z M344,680.2
				c-1.6-1.7-2.5-3.6-3.9-4c-5.1-1.4-10.2-2.4-15.4-3.2c-1-0.2-2.2,0.9-3.3,1.4c0.6,1.1,1,2.6,1.9,3.2
				C329.5,681.2,335.9,683.3,344,680.2z"/>
			<path class="st1" d="M79.9,621c0,1.8-0.1,3.7-0.1,5.5c-0.2,10.8,4.4,19.3,14.4,22.9c12,4.3,24.4,7.8,36.9,10.1
				c53.7,9.8,107.6,18.6,161.2,28.6c67.6,12.5,135.1,25.7,202.5,38.9c70.1,13.7,140.1,27.9,210.1,41.6
				c33.3,6.5,66.7,12.6,100.1,18.7c10.9,2,21.8,3,32.5-1.1c10.1-3.9,16.2-12.2,19.2-21.8c5.1-16.7,9.3-33.7,12.8-50.7
				c10.5-50.7,20.3-101.5,30.8-152.2c12.1-59,24.8-117.9,36.9-177c1.8-8.6,2.1-17.5,2.5-26.3c0.2-3.7-1.1-7.5-1.7-11.2
				c3.7,4.7,8.2,9,10.9,14.3c6.5,12.6,7.2,26.3,4.6,40c-6.4,33.3-13,66.6-19.7,99.9c-10.1,50.7-20.3,101.4-30.4,152.1
				c-8.3,41.9-16.1,83.9-24.6,125.8c-3.1,15.4-6.4,31.1-15.5,44.5c-10,14.9-23.6,23.5-42.2,20.7c-19.9-3-39.7-6.5-59.5-10.1
				c-25.5-4.7-51-9.7-76.5-14.6c-35.3-6.7-70.5-13.6-105.8-20.2c-45.9-8.7-91.8-17.3-137.8-25.8c-39.3-7.3-78.6-14.1-117.8-21.4
				c-39.7-7.4-79.4-15.1-119.1-22.6c-11.1-2.1-22.3-3.6-33.5-5.4c-19-3-38-5.8-57-9c-12.9-2.2-24.7-7.4-30.4-20
				c-3.3-7.4-5.1-15.8-6.2-23.9C75.3,654.3,75.6,637.6,79.9,621z"/>
			<path class="st1" d="M938,347c-0.3-0.4-0.6-0.7-0.8-1.1C937.5,346.2,937.7,346.6,938,347z"/>
			<path class="st2" d="M559,661.9c0.5-3.1,0.4-6.4,1.4-9.2c19.8-52.3,39.7-104.6,59.5-157c1.7-4.5,3.9-6.1,9-5.1
				c17.4,3.7,34.9,7.2,52.5,10.2c11.4,2,20.1,7.5,26.3,17.1c0.4,0.7,0.8,1.3,1.2,2c0,0,0,0,0,0c3,14.2-1.1,27.3-6.8,40.1
				c-4.4,9.9-11.1,17.7-21.4,21.8c-3.1,1.2-6.1,2.5-9.2,3.8c11.1,11.3,13.8,19.2,10.6,33.7c-1.3,5.8-3.5,11.4-6,16.8
				c-10.5,22.3-27.8,35-52.9,34.4c-11-0.2-21.9-2.7-32.8-4.3C580,665,569.5,663.4,559,661.9z M645.4,564.8c2.8-0.7,5.9-0.9,8.4-2.2
				c7.5-4.1,11.6-11,13.2-19.3c2-10.8-8.2-16.8-20.6-15.3c-4.4,11.5-8.8,23.1-13.4,35.3C637.6,563.9,641.5,564.4,645.4,564.8z
				 M642.9,614c1.9-6.7-1-13.2-7.7-15.6c-4.4-1.6-9.2-2.3-14-3.4c-3.7,9.9-7.1,19-10.5,28.2c-3.9,10.8-3,12,9.1,11.5
				C631.7,635.1,642.1,625.8,642.9,614z"/>
			<path class="st2" d="M497.2,617c9.2,3.1,17-2.8,19.8-9.8c9.8-24.8,19.7-49.6,29.2-74.5c5.8-15.1,11.1-30.3,16.3-45.6
				c1.7-4.9,4.1-6.7,9.5-5.6c8.8,1.7,17.7,2.5,26.5,4c1.7,0.3,3.1,2.2,4.6,3.3c-1,2.5-2.1,4.9-3,7.4
				c-13.8,36.3-27.5,72.6-41.3,108.8c-5.8,15.2-14.3,28.4-27.2,38.6c-23.6,18.4-62.2,12-78.6-6.1c-9.2-16.7-5.5-33.1,0.7-49.6
				c14.6-38.2,29.2-76.5,43.7-114.7c1.5-3.9,3.5-5.4,7.9-4.2c8.5,2.3,17.2,3.9,25.7,6c1.6,0.4,3.1,1.7,4.6,2.6
				c-8.1,21.6-16.2,43.2-24.4,64.7c-3.3,8.8-6.7,17.5-9.9,26.3c-4.3,11.7-8.8,23.3-12.6,35.2C486.5,610.5,490,615.4,497.2,617z"/>
			<path class="st2" d="M329.1,506.9c0.9-3.6,1.8-7.2,2.8-10.7c1-3.3,2.1-6.5,3.2-9.7c2.4-3.5,3.5-7.4,0.8-11.1
				c-2.9-4.1-7.3-5.1-12-4.2c-7.5,1.5-12.3,6.7-15,13.4c-6.9,16.9-13.5,33.9-19.8,51c-4.3,11.5-8.3,23.1-11.7,34.9
				c-2.1,7.4,1.9,12,9.6,12.8c6.2,1.3,10.8-0.3,14.1-5.7c2.9-4.8,5.1-10.1,7.9-15c0.9-1.5,2.8-3.6,4-3.4c10.5,1.3,21,3,31.5,4.7
				c0.6,0.1,1.1,0.7,1.6,1.1c-3.4,15.5-11.6,28.1-23.2,38.6c-22.9,20.8-66.4,20.5-82-2.9c-8.7-16.7-5.2-33.6,0.8-49.8
				c9.1-25,19.1-49.7,29.2-74.3c6.3-15.3,17.2-27.5,32.2-34c9-3.9,19.7-3.9,29.7-5.7c7.3,1.1,14.7,2.2,22,3.3
				c8.7,4.3,16.4,9.7,20.9,18.7c0.7,4.1,2,8.1,2.1,12.2c0.2,12.6-5.4,23.8-9.3,35.4c-1.8,5.2-4.7,6.2-9.8,5.3
				C348.9,509.8,339,508.4,329.1,506.9z"/>
			<path class="st2" d="M321.1,421.8c0.3-3-0.1-6.3,0.9-9c5.2-14.2,10.7-28.3,16.1-42.4c12.1-31.3,24.2-62.7,36.2-94
				c1.7-4.4,3.6-5.7,8.5-4.8c13.7,2.5,27.6,4.4,41.4,6.4c10.5,1.5,19.4,6,25.9,14.4c1.5,1.9,2.4,4.3,3.6,6.4
				c3.1,11,0.3,21.3-4.3,31.3c-6,13.1-15.9,22-29.8,26.1c0.1,0.6,0.1,0.8,0.2,0.9c0.6,0.6,1.1,1.2,1.8,1.7
				c6.2,4.9,9.6,11.4,8.2,19.2c-1.3,7.2-2.9,14.8-6.1,21.3c-9.5,18.7-29.4,35.7-57.3,29.8C351.5,425.9,336.2,424.2,321.1,421.8z
				 M398.1,338.9c8.6-1.6,14.7-6.3,17.7-14.6c1.4-4.5,2-9.7-2.3-12.3c-4.5-2.7-10.1-3.5-15.3-4.9c-0.5-0.1-1.7,1-2,1.7
				c-3.8,9.3-7.6,18.7-11.9,29.5C389.8,338.5,393.9,338.7,398.1,338.9z M394.9,382.2c1-5.6-0.1-10.8-5.5-13.2c-4.6-2-9.8-3-14.8-3.2
				c-1.1,0-2.4,5-3.6,7.8c-0.3,0.6-0.7,1.1-0.9,1.7c-3.1,7.5-6.1,14.9-9.5,23.2c4.9,0.5,8.7,1,12.6,1.4
				C382.5,400.3,390.9,393.4,394.9,382.2z"/>
			<path class="st2" d="M701.2,388.9c5.1,1.1,10.3,2,15.4,3.2c2,0.5,3.7,1.8,5.6,2.7c-3.4,7.9-7.1,15.8-10,23.9
				c-1.5,4.3-3.8,4.7-7.6,4c-7.2-1.4-14.3-3.1-21.6-3.6c-8.4-0.6-7.3-1.1-10.2,5.8c-1.2,2.9-2.3,5.9-3.5,8.8
				c-4.8,11.8-4,13,9.1,13.2c0.2,0,0.3,0,0.5,0c6.9,1.5,13.9,2.7,20.7,4.5c2.1,0.6,3.8,2.8,5.7,4.2c-3.4,8.5-6.8,16.9-10,25.4
				c-1.2,3.2-2.6,5-6.5,4c-5.6-1.4-11.2-2.2-16.9-3.2c-10-1.7-20-3.3-30-5.1c-7-1.3-14.1-2.8-21.1-4.2c0.1-2-0.4-4.3,0.3-6.1
				c7.5-19.5,15.3-38.9,22.9-58.4c4.6-11.6,9.1-23.3,13.5-35c0.9-2.3,1.4-4.7,2.1-7.1c5.1-13.3,10.2-26.7,15.3-40
				c1.8-3.1,4.4-3.4,7.6-2.8c20.6,4,41.3,7.8,61.9,11.9c1.7,0.3,3.2,1.9,4.8,2.9c-3.2,7.7-6.6,15.3-9.5,23c-1.4,3.8-3.1,5.2-7.4,4.3
				c-11.2-2.3-22.5-4-34-6c-3.6,9.1-7.2,18-10.9,27.5C692.5,387.6,696.8,388.3,701.2,388.9z"/>
			<path class="st2" d="M342,625c0.7-3,1.1-6.2,2.2-9.1c18.3-46.9,36.6-93.8,55-140.7c2.2-5.6,4.2-11.2,6.8-16.6
				c0.8-1.7,3.3-3.7,4.8-3.6c10.1,0.8,20.1,2.1,30.2,3.5c1.1,0.2,2.1,1.4,3.2,2.1c-0.2,0.6-0.3,1.3-0.5,1.9
				c-15.1,40.1-30.3,80.1-45.4,120.2c-1.8,4.9-3.5,9.8-5.4,15.2c4.9,0.7,9.1,1.3,13.3,1.9c8.8,1.7,17.6,3.4,26.4,5.1
				c-0.7,11.1-7.4,20.1-10.2,30.5c-1,3.5-3,3.8-6,3.2c-5-1-10-1.8-15-2.7C381.5,632.2,361.8,628.6,342,625z"/>
			<path class="st2" d="M514.2,326.9c6.2-8.1,12.2-16.4,18.7-24.3c1.4-1.7,4.4-3.5,6.4-3.2c8.7,1,17.3,2.6,25.9,4.2
				c1.5,0.3,2.7,1.6,4.1,2.4c-4.2,5.5-8.4,11-12.7,16.4c-14.9,18.7-29.9,37.5-44.8,56.2c-5.7,7.1-11.3,14.2-14.6,23
				c-5.5,14.6-11.8,28.9-17.7,43.4c-1.1,2.7-2.4,4-5.6,3.4c-9.6-1.7-19.3-3.1-28.9-4.5c0-1.2-0.2-2.4,0.2-3.5
				c5.4-13.9,10.4-28,16.7-41.5c4.5-9.7,5.5-19.7,6-30c0.9-22.3,1.6-44.6,2.3-66.9c0.1-3.5,0.6-7,0.5-10.5c0-3.6,1.5-4.8,4.9-4.1
				c10.1,1.9,20.2,3.8,30.4,5.7c-1.7,17.5-3.5,34.9-5.2,52.4c0.4,0.1,0.8,0.1,1.2,0.2C506.1,339.4,510.2,333.2,514.2,326.9z"/>
			<path class="st2" d="M547,461.6c0.8-3.4,1.1-6.9,2.4-10c7.6-19.5,15.5-38.8,23.1-58.3c3.8-9.7,7.1-19.5,10.7-29.3
				c1.2-3.2,2.6-6.3,3.9-9.5c1.9-4.2,3.8-8.4,6-13.1c-9.4-1.5-17.7-2.7-26-4c-0.4-0.2-0.7-0.3-1.1-0.5c0.4-1.6,0.8-3.2,1.3-4.7
				c2.9-8.1,5.8-16.1,8.7-24.2c2.3-0.8,4.8-2.8,6.8-2.4c25.9,4.8,51.8,9.8,77.7,14.9c1.7,0.3,3.1,1.5,4.7,2.3
				c-3.3,8.4-6.4,16.8-9.9,25c-0.6,1.4-2.4,3.2-3.7,3.2c-6.2-0.2-12.5-0.2-18.4-1.7c-5.5-1.4-7.8,0.3-9.6,5
				c-4.3,11.1-8.8,22.2-13.1,33.3c-9.4,24.3-18.8,48.6-27.8,73c-1.8,5-4.5,5.8-9,5C564.8,464.3,555.9,463,547,461.6z"/>
			<path class="st1" d="M452.9,637.3c16.4,18.1,55.1,24.6,78.6,6.1c13-10.2,21.5-23.4,27.2-38.6c13.8-36.2,27.5-72.5,41.3-108.8
				c0.9-2.5,2-4.9,3-7.4c6.2,2.9,9.2,9.5,6.8,16.1c-7.7,20.6-15.5,41.1-23.3,61.6c-7.2,19-14.1,38.1-21.8,56.9
				c-8.4,20.5-22.1,36.1-44,42.5c-19.6,5.7-50,1.9-64.9-21.3C454.6,642.3,453.9,639.7,452.9,637.3z"/>
			<path class="st1" d="M559,661.9c10.5,1.5,21,3.1,31.5,4.5c10.9,1.5,21.8,4,32.8,4.3c25.1,0.6,42.4-12.1,52.9-34.4
				c2.5-5.4,4.7-11,6-16.8c3.2-14.5,0.5-22.4-10.6-33.7c3.1-1.3,6.2-2.6,9.2-3.8c10.3-4.1,17-11.9,21.4-21.8
				c5.7-12.8,9.8-25.8,6.8-40.1c6.3,5.4,8.3,12.8,9,20.6c2,22.1-13.3,47.6-33.5,56.4c-0.4,0.2-0.8,0.5-1.4,0.8
				c2,4.8,4.3,9.4,5.8,14.2c3,10.1,2.1,20.1-1.3,29.9c-10.3,29.6-38.7,46.9-70.5,42.6c-16-2.2-31.8-5.6-47.6-8.9
				c-2.6-0.5-5.1-3.3-6.9-5.6C560.9,667.7,560.2,664.6,559,661.9z"/>
			<path class="st1" d="M575.9,308c-2.9,8.1-5.8,16.1-8.7,24.2c-0.5,1.5-0.9,3.1-1.3,4.7c-5.4,6-11,11.9-16.1,18.2
				c-11.1,13.7-21.7,27.8-33.2,41.2c-7.5,8.8-10.7,19.4-15.3,29.5c-4.8,10.6-9,21.5-13.3,32.3c-1.3,3.2-3.4,4.6-6.5,4.1
				c-9.5-1.4-19.1-2.9-28.5-4.6c-1.2-0.2-2.6-1.6-3.2-2.8c-1.7-3.6-3.1-7.3-4.7-10.9c9.6,1.5,19.3,2.9,28.9,4.5
				c3.2,0.6,4.5-0.8,5.6-3.4c5.9-14.5,12.1-28.8,17.7-43.4c3.3-8.8,8.9-15.9,14.6-23c15-18.7,29.9-37.4,44.8-56.2
				c4.3-5.4,8.4-10.9,12.7-16.4C571.5,306.7,573.7,307.4,575.9,308z"/>
			<path class="st1" d="M321.1,421.8c15.1,2.4,30.4,4.1,45.4,7.3c27.9,5.9,47.8-11.1,57.3-29.8c3.3-6.5,4.8-14,6.1-21.3
				c1.5-7.8-2-14.2-8.2-19.2c-0.6-0.5-1.2-1.1-1.8-1.7c-0.1-0.1-0.1-0.3-0.2-0.9c13.9-4,23.8-13,29.8-26.1
				c4.5-9.9,7.4-20.2,4.3-31.3c0.7,0.1,1.7,0.1,2,0.5c8.4,12.2,8.1,25.2,3.3,38.5c-5.1,14.2-15,24-28.4,31.6
				c5.1,6.1,7.9,12.8,7.3,20.7c-2.3,29.2-23.7,57.1-60,53.2c-7.7-0.8-15.4-2.2-23.1-3.3c-7.3-1.1-14.7-2.2-22-3.3
				C325.2,434.8,321,430,321.1,421.8z"/>
			<path class="st1" d="M547,461.6c8.9,1.4,17.7,2.7,26.6,4.2c4.5,0.8,7.1,0,9-5c9-24.4,18.4-48.7,27.8-73
				c4.3-11.1,8.8-22.2,13.1-33.3c1.8-4.7,4.2-6.4,9.6-5c5.9,1.5,12.3,1.5,18.4,1.7c1.2,0,3.1-1.8,3.7-3.2c3.5-8.3,6.6-16.7,9.9-25
				c3.3,1,6.6,2,9.9,3c-5.1,13.3-10.2,26.7-15.3,40c-8.1-1.5-16.3-2.9-25.1-4.5c-2.7,7-5.6,14.4-8.5,21.8
				c-10.6,27.4-21.2,54.9-31.8,82.3c-1.3,3.3-2.6,6.5-3.6,9.8c-1.2,3.9-3.8,5.1-7.6,4.6c-8.6-1.1-17.2-1.9-25.7-3.5
				c-2.5-0.5-5.1-3.1-6.6-5.4C549,468.4,548.2,464.8,547,461.6z"/>
			<path class="st1" d="M406.1,599.9c-4.2-0.6-8.4-1.2-13.3-1.9c1.9-5.4,3.6-10.3,5.4-15.2c15.1-40.1,30.3-80.1,45.4-120.2
				c0.2-0.6,0.3-1.3,0.5-1.9c9.4,4.4,11.3,9,7.7,18.4c-14.9,38.7-29.7,77.3-44.6,116C406.7,596.6,406.5,598.3,406.1,599.9z"/>
			<path class="st1" d="M241,600.7c15.6,23.3,59.1,23.7,82,2.9c11.6-10.6,19.8-23.2,23.2-38.6c7.1,4.1,9.6,8.5,7.5,15.5
				c-12,41-45.8,59.1-83.2,49.1c-14-3.8-23.3-13.5-29.4-26.4C240.8,602.4,241.1,601.5,241,600.7z"/>
			<path class="st1" d="M497.2,617c-7.2-1.6-10.7-6.5-8.5-13.5c3.8-11.9,8.3-23.5,12.6-35.2c3.2-8.8,6.6-17.5,9.9-26.3
				c8.1-21.6,16.2-43.2,24.4-64.7c7.2,2.5,10.3,9.4,7.4,17.1c-7.9,20.4-16,40.8-23.8,61.3c-7.1,18.6-13.9,37.3-20.8,56
				C497.7,613.4,497.6,615.2,497.2,617z"/>
			<path class="st1" d="M287.1,583.3c-7.8-0.8-11.8-5.5-9.6-12.8c3.4-11.8,7.4-23.4,11.7-34.9c6.3-17.1,13-34.1,19.8-51
				c2.7-6.7,7.4-11.9,15-13.4c4.7-0.9,9.1,0.1,12,4.2c2.7,3.7,1.6,7.5-0.8,11.1c-6.7-1.4-14.5,3.4-17.6,11.5
				c-10.1,26.3-19.9,52.6-29.7,78.9C287,578.9,287.3,581.2,287.1,583.3z"/>
			<path class="st1" d="M342,625c19.7,3.6,39.4,7.2,59.2,10.8c5,0.9,10,1.7,15,2.7c3,0.6,5,0.3,6-3.2c2.8-10.3,9.5-19.4,10.2-30.5
				c9,7,11.4,15,5.3,25.4c-3.1,5.2-4.8,11.3-6.6,17.2c-1.3,4.3-3.7,5.5-7.8,4.7c-11.6-2.2-23.2-4.3-34.8-6.3
				c-11.6-2-23.3-4.1-35-5.6c-5.7-0.7-7.9-4.2-9.6-8.7C343.2,629.5,342.7,627.2,342,625z"/>
			<path class="st1" d="M621,472.6c7,1.4,14,3,21.1,4.2c10,1.8,20,3.4,30,5.1c5.6,1,11.3,1.8,16.9,3.2c3.9,1,5.3-0.8,6.5-4
				c3.2-8.5,6.7-16.9,10-25.4c0.5-0.6,0.9-1.7,1.4-1.7c4.9-0.2,10.1,6.9,8.4,11.6c-3.3,9-6.9,18-10.3,27c-1.6,4.1-4.3,6.2-8.8,5.6
				c-14.1-2.2-28.2-4.3-42.3-6.6c-7-1.1-14.1-2.5-21.1-3.9C622.9,485.6,621,483.1,621,472.6z"/>
			<path class="st1" d="M701.2,388.9c-4.3-0.7-8.7-1.4-13.6-2.1c3.8-9.5,7.3-18.4,10.9-27.5c11.6,2,22.9,3.7,34,6
				c4.3,0.9,6-0.6,7.4-4.3c2.9-7.8,6.3-15.4,9.5-23c8,1.7,10.5,5.8,7.7,13.2c-2.7,7.1-5.5,14.2-8.1,21.4c-2.3,6.4-3.5,7.1-10.3,6
				c-8.7-1.4-17.4-2.8-26-4.5c-3.9-0.8-6.4,0-7.6,4.1C703.9,381.8,702.5,385.3,701.2,388.9z"/>
			<path class="st1" d="M679,446.9c-0.2,0-0.3,0-0.5,0c-13.1-0.2-13.9-1.4-9.1-13.2c1.2-2.9,2.3-5.9,3.5-8.8c2.8-7,1.8-6.4,10.2-5.8
				c7.3,0.5,14.4,2.3,21.6,3.6c3.7,0.7,6,0.3,7.6-4c2.9-8.1,6.6-15.9,10-23.9c2.3,1.3,4.7,2.4,6.8,4c2.9,2.1,3.6,4.8,2.2,8.3
				c-3.5,8.4-6.7,17-9.9,25.5c-1.3,3.6-4,4.8-7.5,4.3c-8.2-1.3-16.4-2.6-24.4-4.4c-4-0.9-6.4-0.1-7.4,4C681,440,680,443.4,679,446.9
				z"/>
			<path class="st1" d="M329.1,506.9c9.9,1.6,19.8,2.9,29.7,4.8c5.1,1,8.1,0,9.8-5.3c3.9-11.6,9.5-22.8,9.3-35.4
				c-0.1-4.1-1.4-8.1-2.1-12.2c0.7,0.2,1.6,0.3,1.9,0.7c9.4,14.2,11,29.3,4.8,45.2c-1.8,4.6-3.5,9.4-5.4,14c-2.3,5.6-5.6,8-11.7,7.1
				c-9.6-1.3-19.2-2.6-28.4-5.2c-2.9-0.8-4.9-5.7-6.9-8.9C329.3,510.4,329.4,508.5,329.1,506.9z"/>
			<path class="st2" d="M528.7,718.4c2.6-0.4,5.3-1.5,7.8-1.1c31.3,4.9,62.7,10.1,94,15.2c2.1,0.3,4.2,1.1,6.1,2.2
				c1.1,0.6,1.8,2.1,2.7,3.2c-1.2,1-2.4,2.6-3.7,2.7c-2.9,0.4-6,0.4-8.9-0.1c-22.6-3.7-45.3-7.5-67.8-11.5
				c-8.2-1.5-16.4-3.6-24.5-5.7c-2.1-0.5-3.9-2.1-5.8-3.2C528.5,719.6,528.6,719,528.7,718.4z"/>
			<path class="st2" d="M130.3,641c-8.4-0.8-16.4-2.5-23.5-7.4c-9-6.1-10.5-22.6-2.9-30.6c2.6-2.7,5.6-2.8,8.6-1
				c1.8,1.1,3.6,2.7,4.5,4.5c4.7,9.5,10.7,17.8,19.3,24.3c1.5,1.1,2.4,4.7,1.7,6.4c-0.7,1.7-3.6,2.6-5.7,3.7
				C131.8,641.2,131,641,130.3,641z"/>
			<path class="st2" d="M722.9,757c-19.1-0.3-37.7-3.8-56.3-7.8c-3.4-0.7-8.3-1.4-7.5-6.2c0.8-4.7,5.6-4.1,9.1-3.7
				c21.8,2.5,43.6,5.2,65.4,8.1c3.2,0.4,8.1,0.9,7.7,5.4c-0.4,4.4-5.2,3.9-8.5,4.2C729.5,757.2,726.2,757,722.9,757z"/>
			<path class="st2" d="M198,272.1c1.3-9.5,5.4-19.7,12.7-28.5c3.3-3.9,7.9-4.6,12.2-2c4,2.5,5.8,6.2,4,10.7
				c-1.8,4.4-4.2,8.6-6.5,12.8c-2.3,4.2-5,8.2-7.4,12.4c-1.9,3.4-3.4,7.2-8.4,6.2C200,282.6,197.7,279.2,198,272.1z"/>
			<path class="st2" d="M158.5,452.4c-3.2,16.7-9.1,32.3-17.5,47c-0.8,1.4-3.5,1.6-5.3,2.4c-0.7-1.7-2.2-3.6-1.9-5
				c3.1-11.9,6.5-23.7,10-35.5c1.4-4.6,3.2-9.1,5-13.6c0.6-1.5,1.6-2.9,2.8-4.1c2.8-2.7,5.3-2,6.1,1.7
				C158.3,447.7,158.3,450,158.5,452.4z"/>
			<path class="st2" d="M811,769.7c-5.4-1-10.8-1.6-16-3.2c-1.9-0.6-4.4-3.6-4.3-5.5c0-1.8,2.7-4.7,4.6-5.1
				c8.2-1.9,16.6-3.1,24.9-4.5c0.8-0.1,1.8-0.2,2.5,0.1c2.9,1.3,5.7,2.8,8.5,4.2c-1.5,2.6-2.6,5.4-4.5,7.6
				C822.7,768.2,817.5,770.3,811,769.7z"/>
			<path class="st2" d="M201.5,303.6c-2,13.6-5.3,25.4-10.9,36.5c-0.8,1.5-4.1,2.3-6.1,2.1c-1-0.1-2.8-3.3-2.5-4.8
				c2.3-10.7,4.9-21.3,7.6-31.9c0.3-1.2,1.1-2.6,2-3.4c1.9-1.5,4.4-3.9,6.2-3.6C199.4,298.9,200.6,302.3,201.5,303.6z"/>
			<path class="st2" d="M131.3,554.7c-2.2,6.2-4.1,12.4-6.7,18.4c-0.9,2.1-3,4.2-5.1,5.2c-1.8,0.9-4.7,0.8-6.5,0
				c-1-0.5-1.7-3.6-1.2-5.2c3.1-9.6,6.5-19.1,10.1-28.6c0.5-1.3,2.4-2.8,3.5-2.8c1.2,0.1,2.8,1.8,3.2,3.1c0.9,3,1.2,6.1,1.8,9.2
				C130.7,554.4,131,554.5,131.3,554.7z"/>
			<path class="st1" d="M514.2,326.9c-4.1,6.3-8.1,12.5-12.2,18.8c-0.4-0.1-0.8-0.1-1.2-0.2c1.7-17.5,3.5-34.9,5.2-52.4
				c8.6,6.1,9.6,14.8,8.4,24.4C514,320.6,514.3,323.8,514.2,326.9z"/>
			<path class="st2" d="M171.4,652.6c-4.5-1.6-9.2-2.8-13.3-5c-1.9-1-3.5-4-3.9-6.4c-0.5-3.3,2.1-4.8,5.2-4.1
				c5.9,1.5,11.9,3.1,17.6,5.2c1.9,0.7,3.2,3.2,4.8,4.9c-1.9,1.4-3.7,3-5.7,4c-1.2,0.6-2.9,0.5-4.4,0.7
				C171.6,652.2,171.5,652.4,171.4,652.6z"/>
			<path class="st1" d="M567,337.4c8.3,1.3,16.6,2.6,26,4c-2.1,4.7-4.1,8.9-6,13.1c-0.6-0.2-1.3-0.6-1.9-0.5
				C573.6,354.5,569.5,346.8,567,337.4z"/>
			<path class="st2" d="M167.9,376.2c3.2-7.2,6.2-14.5,9.6-21.5c1.4-2.8,3.9-2.1,4.8,0.5c0.8,2.4,1.3,5.3,0.7,7.6
				c-1.7,5.9-3.9,11.6-6.4,17.2c-0.7,1.6-2.8,2.6-4.2,3.9c-1.1-1.9-2.2-3.7-3.2-5.7c-0.2-0.4,0-1,0-1.5
				C168.8,376.6,168.4,376.4,167.9,376.2z"/>
			<path class="st2" d="M421.5,689c6.7,2.7,13.4,5.3,20,8.2c1.1,0.5,1.4,2.6,2.1,4c-1.3,0.6-2.7,1.9-3.7,1.6
				c-7.9-1.9-15.7-3.9-23.4-6.2c-1.1-0.3-1.8-2.1-2.7-3.3c1.2-1,2.4-2.1,3.8-2.8c1-0.5,2.3-0.3,3.4-0.5
				C421.2,689.7,421.4,689.3,421.5,689z"/>
			<path class="st2" d="M260.3,659.2c6.6,1.5,13.2,2.8,19.7,4.5c1.3,0.3,2.2,2.1,3.3,3.2c-1.3,0.8-2.7,2.4-4,2.3
				c-7.7-0.8-15.3-1.8-22.9-3.2c-1.6-0.3-2.7-2.7-4.1-4.2c1.8-0.6,3.5-1.3,5.3-1.7c0.8-0.2,1.6,0,2.5,0
				C260.2,659.8,260.2,659.5,260.3,659.2z"/>
			<path class="st2" d="M780.1,756.7c-2.6,2.8-3.9,5-5.8,6c-3.7,2-10.3,0.1-13-3.7c-0.9-1.2-1.4-3.9-0.6-4.7c3.2-3.7,7.6-5,12.2-3.3
				C775.2,752.1,777.1,754.3,780.1,756.7z"/>
			<path class="st2" d="M167.7,415.1c-2,4.7-3.8,9.4-6.1,14c-0.6,1.2-2.9,2.7-3.7,2.4c-1.4-0.6-2.8-2.4-3.3-3.9
				c-1.5-5,3.5-14.3,8.4-16.2C166.5,409.8,166.8,412.3,167.7,415.1z"/>
			<path class="st2" d="M344,680.2c-8.1,3.1-14.5,1-20.7-2.6c-0.9-0.5-1.3-2.1-1.9-3.2c1.1-0.5,2.3-1.6,3.3-1.4
				c5.2,0.9,10.4,1.9,15.4,3.2C341.5,676.6,342.5,678.5,344,680.2z"/>
			<path class="st1" d="M708.9,520.1c-0.4-0.7-0.8-1.3-1.2-2C708.1,518.7,708.5,519.4,708.9,520.1z"/>
			<path class="st1" d="M619.9,634.7c-12.1,0.5-13-0.7-9.1-11.5c3.3-9.2,6.8-18.3,10.5-28.2c4.8,1.1,9.5,1.8,14,3.4
				c6.7,2.4,9.6,8.9,7.7,15.6c-0.2-0.2-0.5-0.5-0.7-0.7c-4.6-3-12.3-3.8-13.6-1C625.3,619.7,622.7,627.3,619.9,634.7z"/>
			<path class="st1" d="M645.4,564.8c-3.9-0.4-7.8-0.9-12.4-1.4c4.7-12.3,9.1-23.8,13.4-35.3c12.3-1.6,22.5,4.4,20.6,15.3
				c-1.6-0.2-3.3-0.1-4.8-0.5c-6.6-1.4-7.3-1-9.7,5C650.1,553.6,647.7,559.2,645.4,564.8z"/>
			<path class="st0" d="M619.9,634.7c2.9-7.5,5.4-15.1,8.7-22.4c1.3-2.9,9-2,13.6,1c0.3,0.2,0.5,0.4,0.7,0.7
				C642.1,625.8,631.7,635.1,619.9,634.7z"/>
			<path class="st0" d="M645.4,564.8c2.3-5.6,4.8-11.3,7-16.9c2.4-6.1,3.1-6.5,9.7-5c1.6,0.3,3.2,0.3,4.8,0.5
				c-1.6,8.3-5.7,15.1-13.2,19.3C651.3,564,648.2,564.1,645.4,564.8z"/>
			<path class="st1" d="M373.3,399.9c-3.9-0.4-7.8-0.9-12.6-1.4c3.4-8.3,6.4-15.8,9.5-23.2c0.2-0.6,0.6-1.1,0.9-1.7
				c1.2-2.7,2.5-7.8,3.6-7.8c5,0.2,10.2,1.2,14.8,3.2c5.4,2.4,6.5,7.6,5.5,13.2c-3.4-0.6-6.8-1.5-10.3-1.6c-1.6-0.1-4.2,1-4.8,2.2
				C377.3,388.4,375.4,394.2,373.3,399.9z"/>
			<path class="st1" d="M398.1,338.9c-4.1-0.2-8.3-0.4-13.8-0.6c4.3-10.8,8-20.1,11.9-29.5c0.3-0.8,1.5-1.8,2-1.7
				c5.2,1.4,10.8,2.3,15.3,4.9c4.3,2.6,3.7,7.7,2.3,12.3c-0.9-0.3-1.8-0.7-2.8-1c-6.3-2.2-7.7-1.8-10.4,4.2
				C400.9,331.1,399.6,335.1,398.1,338.9z"/>
			<path class="st0" d="M373.3,399.9c2.1-5.7,4-11.6,6.5-17.1c0.6-1.3,3.2-2.3,4.8-2.2c3.4,0.1,6.8,1,10.3,1.6
				C390.9,393.4,382.5,400.3,373.3,399.9z"/>
			<path class="st0" d="M398.1,338.9c1.5-3.8,2.8-7.7,4.5-11.5c2.7-6,4.1-6.4,10.4-4.2c0.9,0.3,1.9,0.7,2.8,1
				C412.7,332.6,406.7,337.3,398.1,338.9z"/>
		</g>
	</g>
</g>
<g id="Lager_2">
</g>
</svg>
