<?xml version="1.0" encoding="UTF-8"?>
<svg id="Layer_2" data-name="Layer 2" xmlns="http://www.w3.org/2000/svg" viewBox="0 0 762.58 698.06">
  <defs>
    <style>
      .cls-1 {
        fill: #bb7b9c;
      }

      .cls-1, .cls-2, .cls-3, .cls-4 {
        stroke-width: 0px;
      }

      .cls-3 {
        fill: #5b407d;
      }

      .cls-4 {
        fill: #fff;
      }
    </style>
  </defs>
  <g id="Layer_1-2" data-name="Layer 1">
    <g id="mantelbrodyr">
      <g id="blixtar_4" data-name="blixtar 4">
        <path class="cls-4" d="M291.97,485.98c-2.5-2.62-4.65-5.2-7.09-7.4-20.34-18.26-21.89-19.81-39.33-5.79-5.98,4.8-9.62,6.72-17.93,15.38,9.69-17.69,19.11-34.74,40-39.08,12.99-2.7,25.48-9.59,38.43-13.15,8.34-2.3,11.61-7.34,13.28-15.65,1.1-5.48,3.3-10.79,7.58-15.91-.91,8.24-2.53,16.54-2.56,24.72-.06,13.58-10.48,12.02-17.17,15.4-8.84,4.47-18.09,7.81-29.26,12.52,8.1,8.17,15.03,15.95,22.75,22.65,4.62,4.01,5.14,7.48,1.96,13.13-5.45,9.7-10.5,19.65-17.69,28.9-.07-2.44,2.68-12.24,2.58-15.37-21.79,17.62-39.8,47.37-52.23,70.63-12.82-24.21-22.49-29.66-32.62-39.03-4.52-4.18-25.1-9.87-25.1-9.87,3.25,14.28,2.27,10.06,4.76,19.57-11.4-1.44-23.59-.27-25.86.43,6.73,5.94,12.49,8.98,20.04,13.01-25.59,23.03-50.27,48.85-53.18,51.97-14.24,15.31-30.6,34.48-45.65,50.94-4.96-9.87-8.84-20.43-13.54-28.04-17.53,16.55-32.49,35.26-49.75,51.55-.55-.58,5.93-8.32,8.46-12.22,17.43-22.92,27.69-37.78,45.7-61.47,4.49,9.05,4.08,14.7,12.96,31.34,23.59-28.91,46.3-54.95,67.66-76.57,5.79-5.86,4.76-10.62-2.13-13.44-8.89-3.63-17.8-7.23-26.47-13.09,32.49-3.59,44.99-.59,51.17-3.33-2.17-7.04-8.05-16.56-8.91-21.58,6.84.84,20.13,1.63,28.25,2.37.39-12.93-1.62-15.34-1.44-35.21,5.61,14.32,6.56,21.88,9.3,28.11,4.69,10.65,26.45,21.3,37.68,31.84,18.64-19.62,36.89-38.83,55.35-58.26Z"/>
        <path class="cls-4" d="M482.47,198.03c2.46,2.65,4.58,5.26,7,7.48,20.11,18.51,21.64,20.08,39.25,6.28,6.04-4.73,9.7-6.6,18.13-15.15-9.91,17.57-19.54,34.5-40.49,38.58-13.02,2.54-25.6,9.27-38.59,12.67-8.37,2.19-11.7,7.2-13.47,15.48-1.17,5.47-3.43,10.74-7.78,15.81,1.01-8.23,2.73-16.51,2.87-24.69.23-13.57,10.63-11.89,17.36-15.19,8.89-4.36,18.18-7.58,29.42-12.15-8-8.27-14.83-16.13-22.47-22.94-4.57-4.07-5.04-7.55-1.8-13.15,5.57-9.63,10.74-19.51,18.05-28.68.04,2.44-2.83,12.2-2.77,15.33,22.01-17.35,40.39-46.87,53.11-69.97,12.52,24.37,22.12,29.94,32.13,39.44,4.46,4.24,24.97,10.18,24.97,10.18-3.08-14.32-2.15-10.09-4.52-19.63,11.38,1.58,23.58.57,25.86-.11-6.65-6.02-12.37-9.13-19.87-13.26,25.88-22.71,50.88-48.22,53.83-51.31,14.43-15.13,31.03-34.09,46.29-50.37,4.84,9.93,8.58,20.54,13.19,28.21,17.73-16.33,32.93-34.85,50.39-50.92.55.58-6.03,8.24-8.61,12.12-17.71,22.7-28.16,37.43-46.46,60.9-4.38-9.11-3.9-14.75-12.57-31.5-23.95,28.61-46.98,54.37-68.61,75.72-5.86,5.79-4.89,10.56,1.97,13.47,8.85,3.74,17.71,7.45,26.31,13.42-32.53,3.18-45,.03-51.21,2.69,2.08,7.06,7.85,16.66,8.64,21.69-6.83-.93-20.11-1.88-28.22-2.73-.55,12.92,1.42,15.36,1,35.22-5.43-14.38-6.28-21.96-8.95-28.22-4.56-10.7-26.18-21.63-37.28-32.31-18.88,19.39-37.37,38.37-56.07,57.57Z"/>
      </g>
      <g>
        <g>
          <path class="cls-4" d="M428.16,307.41c.6.26,16.67,7.99,27.37,15.41,9.2,6.38,31.53,20.68,31.96,20.92,9.51,5.4-8.17,25.5-24.17,29.28-.44-.37-4.87.95-5.83,1.55-25.17,15.63-46.21,20.17-74,19.5-28.61-.7-57.17-8.33-79.33-28.33-5.1-4.6-11.54-7.12-17.56-10.67-4.24-2.5-3.77-10.94,1.39-14.33,7.07-4.65,38.37-25.17,52-28.9-2.72,20.94,2.06,43.26,15.67,54.9,10.84,9.28,28.74,13.71,35.94,11.17,29.49-10.39,44.02-30.81,38.72-68.33"/>
          <path class="cls-3" d="M380.49,299.89c11.34-.02,8.53-3.5,22.17-1.98,17,1.42,24.87,16.39,26,37.83.52,9.97-3.75,19.62-9.88,25.25-6.29,5.78-16.3,12.09-24.35,14.42-17.42,5.04-42.39-7.48-50.05-24.74-3.04-6.86-1.15-16.87-3.05-24.26.84-.24,10.66-22.19,20.33-23.7,5.24-2.38,12.1-2.43,18.83-2.82Z"/>
          <path class="cls-1" d="M269.13,333.93c16.19-9.55,32.01-19.84,48.63-28.53,55.66-29.1,109.76-26,161.82,9.79,1.7,1.17,3.32,2.46,4.91,3.78.67.55,1.19,1.3,1.29,3-1.76-.9-3.57-1.7-5.26-2.73-54.76-33.16-110.46-35.01-167.2-5.48-14.26,7.42-28.74,14.42-43.12,21.61l-1.07-1.44Z"/>
          <path class="cls-1" d="M464.2,378.36c-58.49,40.21-135.82,29.94-177.6-15.34,58.76,37.64,109.66,44.1,177.6,15.34Z"/>
          <path class="cls-1" d="M391.84,280.92c-12.21,1.89-23.29,3.87-34.57,6.49-11.14,2.6-22.48,5.86-33.58,8.69,21.8-14.58,43.47-16.92,68.14-15.18Z"/>
          <path class="cls-4" d="M354.39,330.52c0-5.24,0-3.88,1.89-14.55,11.26-17.67,22.47-11.87,38.14-8.68-5.11,5.68-9.4,10.01-13.18,14.76-3.86,4.85-7.01,10.11-11.71,16.8-2.91-1.51-7.6-2.21-12.16-4.58"/>
          <path class="cls-1" d="M415.17,353.62c-21.62,28.47-54.7,8.12-56.76,1.29,3.58.67,19.99,19.62,56.76-1.29Z"/>
        </g>
        <path class="cls-2" d="M384.03,414.89c-54.95-.26-86.68-21.84-126.8-64.14-6.16-7.24-5.38-14.65,2.32-19.82,13.64-9.16,21.55-19.66,33.69-30.63,55.13-49.8,128.96-45.4,178.95-2.04,12.66,10.98,23.96,19.38,37.35,30.68,5.31,4.82,10.71,8.39,6.37,15.12-40,44.23-59.47,60.23-103.09,68.04-9.47,1.7-19.18,1.91-28.79,2.8ZM434.31,313.22c7.06,45.22-15.93,64.68-45.85,68.12-14.03.62-23.12-3.3-30.7-8.68-18.53-13.17-25.54-34.14-22.82-55.08-6.5,3.33-4.62,20.8.44,33.17-.34.13-1.37-1.55-2.3-2.81-2.79-4.43-6.54-14.08-4.89-26.53-7.26,4.27-30.2,15.64-37.27,20.3-5.16,3.4-5.76,11.28-1.52,13.77,6.03,3.55,12.96,5.98,18.06,10.58,22.17,20,48.45,26.26,77.06,26.95,27.79.67,52.64-6.23,73.52-25.74.83-.78,2.05-1.12,4.12-2.2-1.42,2.63-1.6,4.52-2.34,5.89,1.71-1,1.62-1.18,2.42-1.69,7.64-7.8,11.05-11.7,17.78-19.12-1.2,3.67-2.31,7.08-3.65,11.16,10.66-10.66,9.3-18.96-3.13-24.38-4.78-2.3-21.94-17.21-29.82-19.53-4.51-1.33,4.56,14.22-8.37,32.21-.84,1.17,8.37-21.8-.74-36.37ZM368.99,338.59c4.7-6.69,8.04-11.69,11.9-16.54,3.78-4.75,8.07-9.08,13.18-14.76-15.67-3.19-21.73-5.9-33.32,2.85,2.09-4.09.91-1.77,2.99-5.85-9.67,1.51-12.47,10.55-12.46,37.65l-4.13-15.35c-.84.24-1.68.49-2.53.73,1.91,7.39,2.86,15.22,5.9,22.08,7.65,17.26,26.97,27.35,44.38,22.31,8.05-2.33,15.95-7.47,22.25-13.26,6.13-5.63,7.88-13.18,7.36-23.15-1.13-21.44-7.1-32.47-24.1-33.9,21.58,17.55,23.76,39.65,6.06,53.77,1.65-7.22,3.47-15.14,5.29-23.07-16.29,28.93-20.3,30.88-44.06,20.43,2.68,2.17,5.35,4.34,8.88,7.2-12.99-3.4-21.57-14.54-20.44-26.9,4.56,2.37,9.96,4.45,12.83,5.73ZM269.13,333.93l1.07,1.44c14.38-7.19,28.86-14.18,43.12-21.61,56.74-29.53,112.44-27.68,167.2,5.48,1.69,1.02,3.5,1.82,5.26,2.73-.1-1.7-.61-2.45-1.29-3-1.6-1.31-3.21-2.61-4.91-3.78-52.06-35.78-106.16-38.89-161.82-9.79-16.62,8.69-32.44,18.97-48.63,28.53ZM464.07,378.36c-62.67,27.51-122.55,23.67-179.32-16.63,41.78,45.28,121.15,55.66,179.32,16.63ZM391.84,280.92c-30.07-.47-46.86,4.53-68.14,15.18,11.1-2.83,21.9-6.96,33.04-9.55,11.28-2.63,22.89-3.74,35.1-5.63Z"/>
      </g>
    </g>
  </g>
</svg>