<?xml version="1.0" encoding="UTF-8"?>
<svg id="uuid-a9149d15-b18c-461f-9c9e-612e3d3b6659" data-name="Layer 1" xmlns="http://www.w3.org/2000/svg" viewBox="0 0 1000 1000">
  <defs>
    <style>
      .uuid-0c762d1a-ea8e-4b1a-a358-bfeed0ecdcd2 {
        fill: #f27fa0;
      }
    </style>
  </defs>
  <g>
    <g>
      <path class="uuid-0c762d1a-ea8e-4b1a-a358-bfeed0ecdcd2" d="M1000,989.96v10.04h-10.04l-25.25-25.25c-5.73-5.73-13.93-8.28-21.89-6.77-19.08,3.63-28.61,17.83-28.6,32.02h-14.22v-.02c0-5.91,1.12-11.68,3.34-17.14,2.29-5.66,5.66-10.73,10.01-15.08s9.42-7.72,15.08-10.01c5.46-2.22,11.23-3.34,17.14-3.34s11.69,1.12,17.15,3.34c5.66,2.29,10.73,5.66,15.08,10.01l22.2,22.2Z"/>
      <g>
        <path class="uuid-0c762d1a-ea8e-4b1a-a358-bfeed0ecdcd2" d="M760.04,1000h-20.08l-25.25-25.25c-5.73-5.73-13.93-8.28-21.89-6.77-19.08,3.63-28.61,17.83-28.6,32.02h-14.22v-.02c0-5.91,1.12-11.68,3.34-17.14,2.29-5.66,5.66-10.73,10.01-15.08s9.42-7.72,15.08-10.01c5.46-2.22,11.23-3.34,17.14-3.34s11.69,1.12,17.15,3.34c5.66,2.29,10.73,5.66,15.08,10.01l32.24,32.24Z"/>
        <path class="uuid-0c762d1a-ea8e-4b1a-a358-bfeed0ecdcd2" d="M850,1000h-13.57c0-2.26-.31-4.53-.95-6.73-7.63-26.43-37.1-31.57-53.24-15.44l-.03-.03-17.12,17.11-10.04-10.04,17.12-17.11.03.03c4.35-4.34,9.43-7.71,15.08-10.01,5.46-2.21,11.23-3.33,17.15-3.33s11.68,1.12,17.14,3.33c5.66,2.3,10.73,5.67,15.08,10.01,4.35,4.35,7.72,9.43,10.01,15.08,2.22,5.46,3.34,11.22,3.34,17.13Z"/>
      </g>
      <g>
        <path class="uuid-0c762d1a-ea8e-4b1a-a358-bfeed0ecdcd2" d="M510.04,1000h-20.08l-25.25-25.25c-5.73-5.73-13.93-8.28-21.89-6.77-19.08,3.63-28.61,17.83-28.6,32.02h-14.22v-.02c0-5.91,1.12-11.68,3.34-17.14,2.29-5.66,5.66-10.73,10.01-15.08s9.42-7.72,15.08-10.01c5.46-2.22,11.23-3.34,17.14-3.34s11.69,1.12,17.15,3.34c5.66,2.29,10.73,5.66,15.08,10.01l32.24,32.24Z"/>
        <path class="uuid-0c762d1a-ea8e-4b1a-a358-bfeed0ecdcd2" d="M600,1000h-13.57c0-2.26-.31-4.53-.95-6.73-7.63-26.43-37.1-31.57-53.24-15.44l-.03-.03-17.12,17.11-10.04-10.04,17.12-17.11.03.03c4.35-4.34,9.43-7.71,15.08-10.01,5.46-2.21,11.23-3.33,17.15-3.33s11.68,1.12,17.14,3.33c5.66,2.3,10.73,5.67,15.08,10.01,4.35,4.35,7.72,9.43,10.01,15.08,2.22,5.46,3.34,11.22,3.34,17.13Z"/>
      </g>
      <g>
        <path class="uuid-0c762d1a-ea8e-4b1a-a358-bfeed0ecdcd2" d="M227.8,967.76l32.24,32.24h-20.08l-25.25-25.25c-5.73-5.73-13.93-8.28-21.89-6.77-19.08,3.63-28.61,17.83-28.6,32.02h-14.22v-.02c0-5.91,1.12-11.68,3.34-17.14,2.29-5.66,5.66-10.73,10.01-15.08s9.42-7.72,15.08-10.01c5.46-2.22,11.23-3.34,17.14-3.34s11.69,1.12,17.15,3.34c5.66,2.29,10.73,5.66,15.08,10.01Z"/>
        <path class="uuid-0c762d1a-ea8e-4b1a-a358-bfeed0ecdcd2" d="M350,1000h-13.57c0-2.26-.31-4.53-.95-6.73-7.63-26.43-37.1-31.57-53.24-15.44l-.03-.03-17.12,17.11-10.04-10.04,17.12-17.11.03.03c4.35-4.34,9.43-7.71,15.08-10.01,5.46-2.21,11.23-3.33,17.15-3.33s11.68,1.12,17.14,3.33c5.66,2.3,10.73,5.67,15.08,10.01,4.35,4.35,7.72,9.43,10.01,15.08,2.22,5.46,3.34,11.22,3.34,17.13Z"/>
      </g>
      <g>
        <polygon class="uuid-0c762d1a-ea8e-4b1a-a358-bfeed0ecdcd2" points="0 989.96 10.04 1000 0 1000 0 989.96"/>
        <path class="uuid-0c762d1a-ea8e-4b1a-a358-bfeed0ecdcd2" d="M100,1000h-13.57c0-2.26-.31-4.53-.95-6.73-7.63-26.43-37.1-31.57-53.24-15.44l-.03-.03-17.12,17.11-10.04-10.04,17.12-17.11.03.03c4.35-4.34,9.43-7.71,15.08-10.01,5.46-2.21,11.23-3.33,17.15-3.33s11.68,1.12,17.14,3.33c5.66,2.3,10.73,5.67,15.08,10.01,4.35,4.35,7.72,9.43,10.01,15.08,2.22,5.46,3.34,11.22,3.34,17.13Z"/>
      </g>
    </g>
    <g>
      <path class="uuid-0c762d1a-ea8e-4b1a-a358-bfeed0ecdcd2" d="M942.82,781.98c7.96,1.52,16.16-1.03,21.89-6.77l20.16-20.16,10.04,10.04-17.11,17.12c-4.35,4.34-9.43,7.71-15.08,10.01-5.46,2.21-11.23,3.33-17.15,3.33s-11.68-1.12-17.14-3.33c-5.66-2.3-10.73-5.67-15.08-10.01-4.35-4.35-7.72-9.42-10.01-15.08-2.22-5.46-3.34-11.23-3.34-17.15s1.12-11.68,3.34-17.14c2.29-5.66,5.66-10.73,10.01-15.08s9.42-7.72,15.08-10.01c5.46-2.22,11.23-3.34,17.14-3.34s11.69,1.12,17.15,3.34c5.66,2.29,10.73,5.66,15.08,10.01l22.2,22.2v20.08l-35.29-35.29c-5.73-5.73-13.93-8.28-21.89-6.77-38.14,7.26-38.14,56.75,0,64Z"/>
      <path class="uuid-0c762d1a-ea8e-4b1a-a358-bfeed0ecdcd2" d="M846.663,732.874c-2.294-5.659-5.662-10.731-10.011-15.08-4.348-4.348-9.42-7.716-15.079-10.01-5.461-2.215-11.228-3.338-17.145-3.338s-11.684,1.123-17.145,3.338c-5.657,2.294-10.731,5.662-15.079,10.01l-.036-.036-17.115,17.115,10.039,10.039,17.115-17.115.036.036c16.134-16.134,45.611-10.989,53.236,15.433,1.272,4.409,1.272,9.095,0,13.504-7.624,26.423-37.102,31.567-53.236,15.433l-54.446-54.446c-4.349-4.349-9.421-7.717-15.08-10.011-5.461-2.215-11.228-3.338-17.145-3.338s-11.684,1.123-17.145,3.338c-5.657,2.294-10.73,5.663-15.078,10.011s-7.717,9.421-10.011,15.078c-2.215,5.461-3.338,11.23-3.338,17.145,0,5.917,1.123,11.684,3.338,17.145,2.294,5.659,5.662,10.731,10.011,15.08,4.348,4.348,9.42,7.716,15.079,10.01,5.461,2.215,11.228,3.338,17.145,3.338,5.915,0,11.684-1.123,17.145-3.338,5.657-2.294,10.731-5.662,15.079-10.01l17.115-17.115-10.039-10.039-20.162,20.162c-5.733,5.733-13.931,8.285-21.896,6.769-38.137-7.258-38.137-56.744,0-64.003,7.965-1.516,16.163,1.036,21.896,6.769l57.493,57.493c4.349,4.349,9.421,7.717,15.08,10.011,5.461,2.215,11.228,3.338,17.144,3.337,5.916.001,11.685-1.122,17.146-3.337,5.657-2.294,10.73-5.663,15.078-10.011,4.348-4.348,7.717-9.421,10.011-15.078,2.215-5.461,3.338-11.23,3.337-17.146,0-5.916-1.122-11.683-3.337-17.144Z"/>
      <path class="uuid-0c762d1a-ea8e-4b1a-a358-bfeed0ecdcd2" d="M596.663,732.874c-2.294-5.659-5.662-10.731-10.011-15.08-4.348-4.348-9.42-7.716-15.079-10.01-5.461-2.215-11.228-3.338-17.145-3.338s-11.684,1.123-17.145,3.338c-5.657,2.294-10.731,5.662-15.079,10.01l-.036-.036-17.115,17.115,10.039,10.039,17.115-17.115.036.036c16.134-16.134,45.611-10.989,53.236,15.433,1.272,4.409,1.272,9.095,0,13.504-7.624,26.423-37.102,31.567-53.236,15.433l-54.446-54.446c-4.349-4.349-9.421-7.717-15.08-10.011-5.461-2.215-11.228-3.338-17.145-3.338s-11.684,1.123-17.145,3.338c-5.657,2.294-10.73,5.663-15.078,10.011s-7.717,9.421-10.011,15.078c-2.215,5.461-3.338,11.23-3.338,17.145,0,5.917,1.123,11.684,3.338,17.145,2.294,5.659,5.662,10.731,10.011,15.08,4.348,4.348,9.42,7.716,15.079,10.01,5.461,2.215,11.228,3.338,17.145,3.338,5.915,0,11.684-1.123,17.145-3.338,5.657-2.294,10.731-5.662,15.079-10.01l17.115-17.115-10.039-10.039-20.162,20.162c-5.733,5.733-13.931,8.285-21.896,6.769-38.137-7.258-38.137-56.744,0-64.003,7.965-1.516,16.163,1.036,21.896,6.769l57.493,57.493c4.349,4.349,9.421,7.717,15.08,10.011,5.461,2.215,11.228,3.338,17.144,3.337,5.916.001,11.685-1.122,17.146-3.337,5.657-2.294,10.73-5.663,15.078-10.011,4.348-4.348,7.717-9.421,10.011-15.078,2.215-5.461,3.338-11.23,3.337-17.146,0-5.916-1.122-11.683-3.337-17.144Z"/>
      <path class="uuid-0c762d1a-ea8e-4b1a-a358-bfeed0ecdcd2" d="M346.663,732.874c-2.294-5.659-5.662-10.731-10.011-15.08-4.348-4.348-9.42-7.716-15.079-10.01-5.461-2.215-11.228-3.338-17.145-3.338s-11.684,1.123-17.145,3.338c-5.657,2.294-10.731,5.662-15.079,10.01l-.036-.036-17.115,17.115,10.039,10.039,17.115-17.115.036.036c16.134-16.134,45.611-10.989,53.236,15.433,1.272,4.409,1.272,9.095,0,13.504-7.624,26.423-37.102,31.567-53.236,15.433l-54.446-54.446c-4.349-4.349-9.421-7.717-15.08-10.011-5.461-2.215-11.228-3.338-17.145-3.338s-11.684,1.123-17.145,3.338c-5.657,2.294-10.73,5.663-15.078,10.011s-7.717,9.421-10.011,15.078c-2.215,5.461-3.338,11.23-3.338,17.145,0,5.917,1.123,11.684,3.338,17.145,2.294,5.659,5.662,10.731,10.011,15.08,4.348,4.348,9.42,7.716,15.079,10.01,5.461,2.215,11.228,3.338,17.145,3.338,5.915,0,11.684-1.123,17.145-3.338,5.657-2.294,10.731-5.662,15.079-10.01l17.115-17.115-10.039-10.039-20.162,20.162c-5.733,5.733-13.931,8.285-21.896,6.769-38.137-7.258-38.137-56.744,0-64.003,7.965-1.516,16.163,1.036,21.896,6.769l57.493,57.493c4.349,4.349,9.421,7.717,15.08,10.011,5.461,2.215,11.228,3.338,17.144,3.337,5.916.001,11.685-1.122,17.146-3.337,5.657-2.294,10.73-5.663,15.078-10.011,4.348-4.348,7.717-9.421,10.011-15.078,2.215-5.461,3.338-11.23,3.337-17.146,0-5.916-1.122-11.683-3.337-17.144Z"/>
      <path class="uuid-0c762d1a-ea8e-4b1a-a358-bfeed0ecdcd2" d="M100,750.02c0,5.91-1.12,11.68-3.34,17.14-2.29,5.66-5.66,10.74-10.01,15.08-4.35,4.35-9.42,7.72-15.08,10.01-5.46,2.22-11.23,3.34-17.14,3.34s-11.68-1.12-17.15-3.34c-5.65-2.29-10.73-5.66-15.08-10.01l-22.2-22.2v-20.08l32.24,32.24c16.14,16.14,45.61,10.99,53.24-15.43,1.27-4.41,1.27-9.09,0-13.5-7.63-26.43-37.1-31.57-53.24-15.44l-.03-.03-17.12,17.11-10.04-10.04,17.12-17.11.03.03c4.35-4.34,9.43-7.71,15.08-10.01,5.46-2.21,11.23-3.33,17.15-3.33s11.68,1.12,17.14,3.33c5.66,2.3,10.73,5.67,15.08,10.01,4.35,4.35,7.72,9.43,10.01,15.08,2.22,5.47,3.34,11.23,3.34,17.15Z"/>
    </g>
    <g>
      <path class="uuid-0c762d1a-ea8e-4b1a-a358-bfeed0ecdcd2" d="M942.82,531.98c7.96,1.52,16.16-1.03,21.89-6.77l20.16-20.16,10.04,10.04-17.11,17.12c-4.35,4.34-9.43,7.71-15.08,10.01-5.46,2.21-11.23,3.33-17.15,3.33s-11.68-1.12-17.14-3.33c-5.66-2.3-10.73-5.67-15.08-10.01-4.35-4.35-7.72-9.42-10.01-15.08-2.22-5.46-3.34-11.23-3.34-17.15s1.12-11.68,3.34-17.14c2.29-5.66,5.66-10.73,10.01-15.08s9.42-7.72,15.08-10.01c5.46-2.22,11.23-3.34,17.14-3.34s11.69,1.12,17.15,3.34c5.66,2.29,10.73,5.66,15.08,10.01l22.2,22.2v20.08l-35.29-35.29c-5.73-5.73-13.93-8.28-21.89-6.77-38.14,7.26-38.14,56.75,0,64Z"/>
      <path class="uuid-0c762d1a-ea8e-4b1a-a358-bfeed0ecdcd2" d="M846.663,482.874c-2.294-5.659-5.662-10.731-10.011-15.08-4.348-4.348-9.42-7.716-15.079-10.01-5.461-2.215-11.228-3.338-17.145-3.338s-11.684,1.123-17.145,3.338c-5.657,2.294-10.731,5.662-15.079,10.01l-.036-.036-17.115,17.115,10.039,10.039,17.115-17.115.036.036c16.134-16.134,45.611-10.989,53.236,15.433,1.272,4.409,1.272,9.095,0,13.504-7.624,26.423-37.102,31.567-53.236,15.433l-54.446-54.446c-4.349-4.349-9.421-7.717-15.08-10.011-5.461-2.215-11.228-3.338-17.145-3.338s-11.684,1.123-17.145,3.338c-5.657,2.294-10.73,5.663-15.078,10.011s-7.717,9.421-10.011,15.078c-2.215,5.461-3.338,11.23-3.338,17.145,0,5.917,1.123,11.684,3.338,17.145,2.294,5.659,5.662,10.731,10.011,15.08,4.348,4.348,9.42,7.716,15.079,10.01,5.461,2.215,11.228,3.338,17.145,3.338,5.915,0,11.684-1.123,17.145-3.338,5.657-2.294,10.731-5.662,15.079-10.01l17.115-17.115-10.039-10.039-20.162,20.162c-5.733,5.733-13.931,8.285-21.896,6.769-38.137-7.258-38.137-56.744,0-64.003,7.965-1.516,16.163,1.036,21.896,6.769l57.493,57.493c4.349,4.349,9.421,7.717,15.08,10.011,5.461,2.215,11.228,3.338,17.144,3.337,5.916.001,11.685-1.122,17.146-3.337,5.657-2.294,10.73-5.663,15.078-10.011,4.348-4.348,7.717-9.421,10.011-15.078,2.215-5.461,3.338-11.23,3.337-17.146,0-5.916-1.122-11.683-3.337-17.144Z"/>
      <path class="uuid-0c762d1a-ea8e-4b1a-a358-bfeed0ecdcd2" d="M596.663,482.874c-2.294-5.659-5.662-10.731-10.011-15.08-4.348-4.348-9.42-7.716-15.079-10.01-5.461-2.215-11.228-3.338-17.145-3.338s-11.684,1.123-17.145,3.338c-5.657,2.294-10.731,5.662-15.079,10.01l-.036-.036-17.115,17.115,10.039,10.039,17.115-17.115.036.036c16.134-16.134,45.611-10.989,53.236,15.433,1.272,4.409,1.272,9.095,0,13.504-7.624,26.423-37.102,31.567-53.236,15.433l-54.446-54.446c-4.349-4.349-9.421-7.717-15.08-10.011-5.461-2.215-11.228-3.338-17.145-3.338s-11.684,1.123-17.145,3.338c-5.657,2.294-10.73,5.663-15.078,10.011s-7.717,9.421-10.011,15.078c-2.215,5.461-3.338,11.23-3.338,17.145,0,5.917,1.123,11.684,3.338,17.145,2.294,5.659,5.662,10.731,10.011,15.08,4.348,4.348,9.42,7.716,15.079,10.01,5.461,2.215,11.228,3.338,17.145,3.338,5.915,0,11.684-1.123,17.145-3.338,5.657-2.294,10.731-5.662,15.079-10.01l17.115-17.115-10.039-10.039-20.162,20.162c-5.733,5.733-13.931,8.285-21.896,6.769-38.137-7.258-38.137-56.744,0-64.003,7.965-1.516,16.163,1.036,21.896,6.769l57.493,57.493c4.349,4.349,9.421,7.717,15.08,10.011,5.461,2.215,11.228,3.338,17.144,3.337,5.916.001,11.685-1.122,17.146-3.337,5.657-2.294,10.73-5.663,15.078-10.011,4.348-4.348,7.717-9.421,10.011-15.078,2.215-5.461,3.338-11.23,3.337-17.146,0-5.916-1.122-11.683-3.337-17.144Z"/>
      <path class="uuid-0c762d1a-ea8e-4b1a-a358-bfeed0ecdcd2" d="M346.663,482.874c-2.294-5.659-5.662-10.731-10.011-15.08-4.348-4.348-9.42-7.716-15.079-10.01-5.461-2.215-11.228-3.338-17.145-3.338s-11.684,1.123-17.145,3.338c-5.657,2.294-10.731,5.662-15.079,10.01l-.036-.036-17.115,17.115,10.039,10.039,17.115-17.115.036.036c16.134-16.134,45.611-10.989,53.236,15.433,1.272,4.409,1.272,9.095,0,13.504-7.624,26.423-37.102,31.567-53.236,15.433l-54.446-54.446c-4.349-4.349-9.421-7.717-15.08-10.011-5.461-2.215-11.228-3.338-17.145-3.338s-11.684,1.123-17.145,3.338c-5.657,2.294-10.73,5.663-15.078,10.011s-7.717,9.421-10.011,15.078c-2.215,5.461-3.338,11.23-3.338,17.145,0,5.917,1.123,11.684,3.338,17.145,2.294,5.659,5.662,10.731,10.011,15.08,4.348,4.348,9.42,7.716,15.079,10.01,5.461,2.215,11.228,3.338,17.145,3.338,5.915,0,11.684-1.123,17.145-3.338,5.657-2.294,10.731-5.662,15.079-10.01l17.115-17.115-10.039-10.039-20.162,20.162c-5.733,5.733-13.931,8.285-21.896,6.769-38.137-7.258-38.137-56.744,0-64.003,7.965-1.516,16.163,1.036,21.896,6.769l57.493,57.493c4.349,4.349,9.421,7.717,15.08,10.011,5.461,2.215,11.228,3.338,17.144,3.337,5.916.001,11.685-1.122,17.146-3.337,5.657-2.294,10.73-5.663,15.078-10.011,4.348-4.348,7.717-9.421,10.011-15.078,2.215-5.461,3.338-11.23,3.337-17.146,0-5.916-1.122-11.683-3.337-17.144Z"/>
      <path class="uuid-0c762d1a-ea8e-4b1a-a358-bfeed0ecdcd2" d="M100,500.02c0,5.91-1.12,11.68-3.34,17.14-2.29,5.66-5.66,10.74-10.01,15.08-4.35,4.35-9.42,7.72-15.08,10.01-5.46,2.22-11.23,3.34-17.14,3.34s-11.68-1.12-17.15-3.34c-5.65-2.29-10.73-5.66-15.08-10.01L0,510.04v-20.08l32.24,32.24c16.14,16.14,45.61,10.99,53.24-15.43,1.27-4.41,1.27-9.09,0-13.5-7.63-26.43-37.1-31.57-53.24-15.44l-.03-.03-17.12,17.11-10.04-10.04,17.12-17.11.03.03c4.35-4.34,9.43-7.71,15.08-10.01,5.46-2.21,11.23-3.33,17.15-3.33s11.68,1.12,17.14,3.33c5.66,2.3,10.73,5.67,15.08,10.01,4.35,4.35,7.72,9.43,10.01,15.08,2.22,5.47,3.34,11.23,3.34,17.15Z"/>
    </g>
    <g>
      <path class="uuid-0c762d1a-ea8e-4b1a-a358-bfeed0ecdcd2" d="M942.82,281.98c7.96,1.52,16.16-1.03,21.89-6.77l20.16-20.16,10.04,10.04-17.11,17.12c-4.35,4.34-9.43,7.71-15.08,10.01-5.46,2.21-11.23,3.33-17.15,3.33s-11.68-1.12-17.14-3.33c-5.66-2.3-10.73-5.67-15.08-10.01-4.35-4.35-7.72-9.42-10.01-15.08-2.22-5.46-3.34-11.23-3.34-17.15s1.12-11.68,3.34-17.14c2.29-5.66,5.66-10.73,10.01-15.08s9.42-7.72,15.08-10.01c5.46-2.22,11.23-3.34,17.14-3.34s11.69,1.12,17.15,3.34c5.66,2.29,10.73,5.66,15.08,10.01l22.2,22.2v20.08l-35.29-35.29c-5.73-5.73-13.93-8.28-21.89-6.77-38.14,7.26-38.14,56.75,0,64Z"/>
      <path class="uuid-0c762d1a-ea8e-4b1a-a358-bfeed0ecdcd2" d="M846.663,232.874c-2.294-5.659-5.662-10.731-10.011-15.08-4.348-4.348-9.42-7.716-15.079-10.01-5.461-2.215-11.228-3.338-17.145-3.338s-11.684,1.123-17.145,3.338c-5.657,2.294-10.731,5.662-15.079,10.01l-.036-.036-17.115,17.115,10.039,10.039,17.115-17.115.036.036c16.134-16.134,45.611-10.989,53.236,15.433,1.272,4.409,1.272,9.095,0,13.504-7.624,26.423-37.102,31.567-53.236,15.433l-54.446-54.446c-4.349-4.349-9.421-7.717-15.08-10.011-5.461-2.215-11.228-3.338-17.145-3.338s-11.684,1.123-17.145,3.338c-5.657,2.294-10.73,5.663-15.078,10.011s-7.717,9.421-10.011,15.078c-2.215,5.461-3.338,11.23-3.338,17.145,0,5.917,1.123,11.684,3.338,17.145,2.294,5.659,5.662,10.731,10.011,15.08,4.348,4.348,9.42,7.716,15.079,10.01,5.461,2.215,11.228,3.338,17.145,3.338,5.915,0,11.684-1.123,17.145-3.338,5.657-2.294,10.731-5.662,15.079-10.01l17.115-17.115-10.039-10.039-20.162,20.162c-5.733,5.733-13.931,8.285-21.896,6.769-38.137-7.258-38.137-56.744,0-64.003,7.965-1.516,16.163,1.036,21.896,6.769l57.493,57.493c4.349,4.349,9.421,7.717,15.08,10.011,5.461,2.215,11.228,3.338,17.144,3.337,5.916.001,11.685-1.122,17.146-3.337,5.657-2.294,10.73-5.663,15.078-10.011,4.348-4.348,7.717-9.421,10.011-15.078,2.215-5.461,3.338-11.23,3.337-17.146,0-5.916-1.122-11.683-3.337-17.144Z"/>
      <path class="uuid-0c762d1a-ea8e-4b1a-a358-bfeed0ecdcd2" d="M596.663,232.874c-2.294-5.659-5.662-10.731-10.011-15.08-4.348-4.348-9.42-7.716-15.079-10.01-5.461-2.215-11.228-3.338-17.145-3.338s-11.684,1.123-17.145,3.338c-5.657,2.294-10.731,5.662-15.079,10.01l-.036-.036-17.115,17.115,10.039,10.039,17.115-17.115.036.036c16.134-16.134,45.611-10.989,53.236,15.433,1.272,4.409,1.272,9.095,0,13.504-7.624,26.423-37.102,31.567-53.236,15.433l-54.446-54.446c-4.349-4.349-9.421-7.717-15.08-10.011-5.461-2.215-11.228-3.338-17.145-3.338s-11.684,1.123-17.145,3.338c-5.657,2.294-10.73,5.663-15.078,10.011s-7.717,9.421-10.011,15.078c-2.215,5.461-3.338,11.23-3.338,17.145,0,5.917,1.123,11.684,3.338,17.145,2.294,5.659,5.662,10.731,10.011,15.08,4.348,4.348,9.42,7.716,15.079,10.01,5.461,2.215,11.228,3.338,17.145,3.338,5.915,0,11.684-1.123,17.145-3.338,5.657-2.294,10.731-5.662,15.079-10.01l17.115-17.115-10.039-10.039-20.162,20.162c-5.733,5.733-13.931,8.285-21.896,6.769-38.137-7.258-38.137-56.744,0-64.003,7.965-1.516,16.163,1.036,21.896,6.769l57.493,57.493c4.349,4.349,9.421,7.717,15.08,10.011,5.461,2.215,11.228,3.338,17.144,3.337,5.916.001,11.685-1.122,17.146-3.337,5.657-2.294,10.73-5.663,15.078-10.011,4.348-4.348,7.717-9.421,10.011-15.078,2.215-5.461,3.338-11.23,3.337-17.146,0-5.916-1.122-11.683-3.337-17.144Z"/>
      <path class="uuid-0c762d1a-ea8e-4b1a-a358-bfeed0ecdcd2" d="M346.663,232.874c-2.294-5.659-5.662-10.731-10.011-15.08-4.348-4.348-9.42-7.716-15.079-10.01-5.461-2.215-11.228-3.338-17.145-3.338s-11.684,1.123-17.145,3.338c-5.657,2.294-10.731,5.662-15.079,10.01l-.036-.036-17.115,17.115,10.039,10.039,17.115-17.115.036.036c16.134-16.134,45.611-10.989,53.236,15.433,1.272,4.409,1.272,9.095,0,13.504-7.624,26.423-37.102,31.567-53.236,15.433l-54.446-54.446c-4.349-4.349-9.421-7.717-15.08-10.011-5.461-2.215-11.228-3.338-17.145-3.338s-11.684,1.123-17.145,3.338c-5.657,2.294-10.73,5.663-15.078,10.011s-7.717,9.421-10.011,15.078c-2.215,5.461-3.338,11.23-3.338,17.145,0,5.917,1.123,11.684,3.338,17.145,2.294,5.659,5.662,10.731,10.011,15.08,4.348,4.348,9.42,7.716,15.079,10.01,5.461,2.215,11.228,3.338,17.145,3.338,5.915,0,11.684-1.123,17.145-3.338,5.657-2.294,10.731-5.662,15.079-10.01l17.115-17.115-10.039-10.039-20.162,20.162c-5.733,5.733-13.931,8.285-21.896,6.769-38.137-7.258-38.137-56.744,0-64.003,7.965-1.516,16.163,1.036,21.896,6.769l57.493,57.493c4.349,4.349,9.421,7.717,15.08,10.011,5.461,2.215,11.228,3.338,17.144,3.337,5.916.001,11.685-1.122,17.146-3.337,5.657-2.294,10.73-5.663,15.078-10.011,4.348-4.348,7.717-9.421,10.011-15.078,2.215-5.461,3.338-11.23,3.337-17.146,0-5.916-1.122-11.683-3.337-17.144Z"/>
      <path class="uuid-0c762d1a-ea8e-4b1a-a358-bfeed0ecdcd2" d="M100,250.02c0,5.91-1.12,11.68-3.34,17.14-2.29,5.66-5.66,10.74-10.01,15.08-4.35,4.35-9.42,7.72-15.08,10.01-5.46,2.22-11.23,3.34-17.14,3.34s-11.68-1.12-17.15-3.34c-5.65-2.29-10.73-5.66-15.08-10.01L0,260.04v-20.08l32.24,32.24c16.14,16.14,45.61,10.99,53.24-15.43,1.27-4.41,1.27-9.09,0-13.5-7.63-26.43-37.1-31.57-53.24-15.44l-.03-.03-17.12,17.11-10.04-10.04,17.12-17.11.03.03c4.35-4.34,9.43-7.71,15.08-10.01,5.46-2.21,11.23-3.33,17.15-3.33s11.68,1.12,17.14,3.33c5.66,2.3,10.73,5.67,15.08,10.01,4.35,4.35,7.72,9.43,10.01,15.08,2.22,5.47,3.34,11.23,3.34,17.15Z"/>
    </g>
    <g>
      <g>
        <path class="uuid-0c762d1a-ea8e-4b1a-a358-bfeed0ecdcd2" d="M984.87,5.05l10.04,10.04-17.11,17.12c-4.35,4.34-9.43,7.71-15.08,10.01-5.46,2.21-11.23,3.33-17.15,3.33s-11.68-1.12-17.14-3.33c-5.66-2.3-10.73-5.67-15.08-10.01-4.35-4.35-7.72-9.42-10.01-15.08-2.22-5.45-3.34-11.22-3.34-17.13h14.22c.01,14.18,9.54,28.36,28.6,31.98,7.96,1.52,16.16-1.03,21.89-6.77l20.16-20.16Z"/>
        <polygon class="uuid-0c762d1a-ea8e-4b1a-a358-bfeed0ecdcd2" points="1000 0 1000 10.04 989.96 0 1000 0"/>
      </g>
      <g>
        <path class="uuid-0c762d1a-ea8e-4b1a-a358-bfeed0ecdcd2" d="M734.87,5.05l10.04,10.04-17.11,17.12c-4.35,4.34-9.43,7.71-15.08,10.01-5.46,2.21-11.23,3.33-17.15,3.33s-11.68-1.12-17.14-3.33c-5.66-2.3-10.73-5.67-15.08-10.01-4.35-4.35-7.72-9.42-10.01-15.08-2.22-5.45-3.34-11.22-3.34-17.13h14.22c.01,14.18,9.54,28.36,28.6,31.98,7.96,1.52,16.16-1.03,21.89-6.77l20.16-20.16Z"/>
        <path class="uuid-0c762d1a-ea8e-4b1a-a358-bfeed0ecdcd2" d="M850,0v.02c0,5.91-1.12,11.68-3.34,17.14-2.29,5.66-5.66,10.74-10.01,15.08-4.35,4.35-9.42,7.72-15.08,10.01-5.46,2.22-11.23,3.34-17.14,3.34s-11.68-1.12-17.15-3.34c-5.65-2.29-10.73-5.66-15.08-10.01L739.96,0h20.08l22.2,22.2c16.14,16.14,45.61,10.99,53.24-15.43.64-2.21.95-4.49.95-6.77h13.57Z"/>
      </g>
      <g>
        <path class="uuid-0c762d1a-ea8e-4b1a-a358-bfeed0ecdcd2" d="M484.87,5.05l10.04,10.04-17.11,17.12c-4.35,4.34-9.43,7.71-15.08,10.01-5.46,2.21-11.23,3.33-17.15,3.33s-11.68-1.12-17.14-3.33c-5.66-2.3-10.73-5.67-15.08-10.01-4.35-4.35-7.72-9.42-10.01-15.08-2.22-5.45-3.34-11.22-3.34-17.13h14.22c.01,14.18,9.54,28.36,28.6,31.98,7.96,1.52,16.16-1.03,21.89-6.77l20.16-20.16Z"/>
        <path class="uuid-0c762d1a-ea8e-4b1a-a358-bfeed0ecdcd2" d="M600,0v.02c0,5.91-1.12,11.68-3.34,17.14-2.29,5.66-5.66,10.74-10.01,15.08-4.35,4.35-9.42,7.72-15.08,10.01-5.46,2.22-11.23,3.34-17.14,3.34s-11.68-1.12-17.15-3.34c-5.65-2.29-10.73-5.66-15.08-10.01L489.96,0h20.08l22.2,22.2c16.14,16.14,45.61,10.99,53.24-15.43.64-2.21.95-4.49.95-6.77h13.57Z"/>
      </g>
      <g>
        <path class="uuid-0c762d1a-ea8e-4b1a-a358-bfeed0ecdcd2" d="M234.87,5.05l10.04,10.04-17.11,17.12c-4.35,4.34-9.43,7.71-15.08,10.01-5.46,2.21-11.23,3.33-17.15,3.33s-11.68-1.12-17.14-3.33c-5.66-2.3-10.73-5.67-15.08-10.01-4.35-4.35-7.72-9.42-10.01-15.08-2.22-5.45-3.34-11.22-3.34-17.13h14.22c.01,14.18,9.54,28.36,28.6,31.98,7.96,1.52,16.16-1.03,21.89-6.77l20.16-20.16Z"/>
        <path class="uuid-0c762d1a-ea8e-4b1a-a358-bfeed0ecdcd2" d="M350,0v.02c0,5.91-1.12,11.68-3.34,17.14-2.29,5.66-5.66,10.74-10.01,15.08-4.35,4.35-9.42,7.72-15.08,10.01-5.46,2.22-11.23,3.34-17.14,3.34s-11.68-1.12-17.15-3.34c-5.65-2.29-10.73-5.66-15.08-10.01L239.96,0h20.08l22.2,22.2c16.14,16.14,45.61,10.99,53.24-15.43.64-2.21.95-4.49.95-6.77h13.57Z"/>
      </g>
      <path class="uuid-0c762d1a-ea8e-4b1a-a358-bfeed0ecdcd2" d="M100,0v.02c0,5.91-1.12,11.68-3.34,17.14-2.29,5.66-5.66,10.74-10.01,15.08-4.35,4.35-9.42,7.72-15.08,10.01-5.46,2.22-11.23,3.34-17.14,3.34s-11.68-1.12-17.15-3.34c-5.65-2.29-10.73-5.66-15.08-10.01L0,10.04V0h10.04l22.2,22.2c16.14,16.14,45.61,10.99,53.24-15.43.64-2.21.95-4.49.95-6.77h13.57Z"/>
    </g>
  </g>
  <g>
    <g>
      <path class="uuid-0c762d1a-ea8e-4b1a-a358-bfeed0ecdcd2" d="M971.663,857.874c-2.294-5.659-5.662-10.731-10.011-15.08-4.348-4.348-9.42-7.716-15.079-10.01-5.461-2.215-11.228-3.338-17.145-3.338s-11.684,1.123-17.145,3.338c-5.657,2.294-10.731,5.662-15.079,10.01l-.036-.036-17.115,17.115,10.039,10.039,17.115-17.115.036.036c16.134-16.134,45.611-10.989,53.236,15.433,1.272,4.409,1.272,9.095,0,13.504-7.624,26.423-37.102,31.567-53.236,15.433l-54.446-54.446c-4.349-4.349-9.421-7.717-15.08-10.011-5.461-2.215-11.228-3.338-17.145-3.338s-11.684,1.123-17.145,3.338c-5.657,2.294-10.73,5.663-15.078,10.011s-7.717,9.421-10.011,15.078c-2.215,5.461-3.338,11.23-3.338,17.145,0,5.917,1.123,11.684,3.338,17.145,2.294,5.659,5.662,10.731,10.011,15.08,4.348,4.348,9.42,7.716,15.079,10.01,5.461,2.215,11.228,3.338,17.145,3.338,5.915,0,11.684-1.123,17.145-3.338,5.657-2.294,10.731-5.662,15.079-10.01l17.115-17.115-10.039-10.039-20.162,20.162c-5.733,5.733-13.931,8.285-21.896,6.769-38.137-7.258-38.137-56.744,0-64.003,7.965-1.516,16.163,1.036,21.896,6.769l57.493,57.493c4.349,4.349,9.421,7.717,15.08,10.011,5.461,2.215,11.228,3.338,17.144,3.337,5.916.001,11.685-1.122,17.146-3.337,5.657-2.294,10.73-5.663,15.078-10.011,4.348-4.348,7.717-9.421,10.011-15.078,2.215-5.461,3.338-11.23,3.337-17.146,0-5.916-1.122-11.683-3.337-17.144Z"/>
      <path class="uuid-0c762d1a-ea8e-4b1a-a358-bfeed0ecdcd2" d="M721.663,857.874c-2.294-5.659-5.662-10.731-10.011-15.08-4.348-4.348-9.42-7.716-15.079-10.01-5.461-2.215-11.228-3.338-17.145-3.338s-11.684,1.123-17.145,3.338c-5.657,2.294-10.731,5.662-15.079,10.01l-.036-.036-17.115,17.115,10.039,10.039,17.115-17.115.036.036c16.134-16.134,45.611-10.989,53.236,15.433,1.272,4.409,1.272,9.095,0,13.504-7.624,26.423-37.102,31.567-53.236,15.433l-54.446-54.446c-4.349-4.349-9.421-7.717-15.08-10.011-5.461-2.215-11.228-3.338-17.145-3.338s-11.684,1.123-17.145,3.338c-5.657,2.294-10.73,5.663-15.078,10.011s-7.717,9.421-10.011,15.078c-2.215,5.461-3.338,11.23-3.338,17.145,0,5.917,1.123,11.684,3.338,17.145,2.294,5.659,5.662,10.731,10.011,15.08,4.348,4.348,9.42,7.716,15.079,10.01,5.461,2.215,11.228,3.338,17.145,3.338,5.915,0,11.684-1.123,17.145-3.338,5.657-2.294,10.731-5.662,15.079-10.01l17.115-17.115-10.039-10.039-20.162,20.162c-5.733,5.733-13.931,8.285-21.896,6.769-38.137-7.258-38.137-56.744,0-64.003,7.965-1.516,16.163,1.036,21.896,6.769l57.493,57.493c4.349,4.349,9.421,7.717,15.08,10.011,5.461,2.215,11.228,3.338,17.144,3.337,5.916.001,11.685-1.122,17.146-3.337,5.657-2.294,10.73-5.663,15.078-10.011,4.348-4.348,7.717-9.421,10.011-15.078,2.215-5.461,3.338-11.23,3.337-17.146,0-5.916-1.122-11.683-3.337-17.144Z"/>
      <path class="uuid-0c762d1a-ea8e-4b1a-a358-bfeed0ecdcd2" d="M471.663,857.874c-2.294-5.659-5.662-10.731-10.011-15.08-4.348-4.348-9.42-7.716-15.079-10.01-5.461-2.215-11.228-3.338-17.145-3.338s-11.684,1.123-17.145,3.338c-5.657,2.294-10.731,5.662-15.079,10.01l-.036-.036-17.115,17.115,10.039,10.039,17.115-17.115.036.036c16.134-16.134,45.611-10.989,53.236,15.433,1.272,4.409,1.272,9.095,0,13.504-7.624,26.423-37.102,31.567-53.236,15.433l-54.446-54.446c-4.349-4.349-9.421-7.717-15.08-10.011-5.461-2.215-11.228-3.338-17.145-3.338s-11.684,1.123-17.145,3.338c-5.657,2.294-10.73,5.663-15.078,10.011s-7.717,9.421-10.011,15.078c-2.215,5.461-3.338,11.23-3.338,17.145,0,5.917,1.123,11.684,3.338,17.145,2.294,5.659,5.662,10.731,10.011,15.08,4.348,4.348,9.42,7.716,15.079,10.01,5.461,2.215,11.228,3.338,17.145,3.338,5.915,0,11.684-1.123,17.145-3.338,5.657-2.294,10.731-5.662,15.079-10.01l17.115-17.115-10.039-10.039-20.162,20.162c-5.733,5.733-13.931,8.285-21.896,6.769-38.137-7.258-38.137-56.744,0-64.003,7.965-1.516,16.163,1.036,21.896,6.769l57.493,57.493c4.349,4.349,9.421,7.717,15.08,10.011,5.461,2.215,11.228,3.338,17.144,3.337,5.916.001,11.685-1.122,17.146-3.337,5.657-2.294,10.73-5.663,15.078-10.011,4.348-4.348,7.717-9.421,10.011-15.078,2.215-5.461,3.338-11.23,3.337-17.146,0-5.916-1.122-11.683-3.337-17.144Z"/>
      <path class="uuid-0c762d1a-ea8e-4b1a-a358-bfeed0ecdcd2" d="M221.663,857.874c-2.294-5.659-5.662-10.731-10.011-15.08-4.348-4.348-9.42-7.716-15.079-10.01-5.461-2.215-11.228-3.338-17.145-3.338s-11.684,1.123-17.145,3.338c-5.657,2.294-10.731,5.662-15.079,10.01l-.036-.036-17.115,17.115,10.039,10.039,17.115-17.115.036.036c16.134-16.134,45.611-10.989,53.236,15.433,1.272,4.409,1.272,9.095,0,13.504-7.624,26.423-37.102,31.567-53.236,15.433l-54.446-54.446c-4.349-4.349-9.421-7.717-15.08-10.011-5.461-2.215-11.228-3.338-17.145-3.338s-11.684,1.123-17.145,3.338c-5.657,2.294-10.73,5.663-15.078,10.011s-7.717,9.421-10.011,15.078c-2.215,5.461-3.338,11.23-3.338,17.145,0,5.917,1.123,11.684,3.338,17.145,2.294,5.659,5.662,10.731,10.011,15.08,4.348,4.348,9.42,7.716,15.079,10.01,5.461,2.215,11.228,3.338,17.145,3.338,5.915,0,11.684-1.123,17.145-3.338,5.657-2.294,10.731-5.662,15.079-10.01l17.115-17.115-10.039-10.039-20.162,20.162c-5.733,5.733-13.931,8.285-21.896,6.769-38.137-7.258-38.137-56.744,0-64.003,7.965-1.516,16.163,1.036,21.896,6.769l57.493,57.493c4.349,4.349,9.421,7.717,15.08,10.011,5.461,2.215,11.228,3.338,17.144,3.337,5.916.001,11.685-1.122,17.146-3.337,5.657-2.294,10.73-5.663,15.078-10.011,4.348-4.348,7.717-9.421,10.011-15.078,2.215-5.461,3.338-11.23,3.337-17.146,0-5.916-1.122-11.683-3.337-17.144Z"/>
    </g>
    <g>
      <path class="uuid-0c762d1a-ea8e-4b1a-a358-bfeed0ecdcd2" d="M971.663,607.874c-2.294-5.659-5.662-10.731-10.011-15.08-4.348-4.348-9.42-7.716-15.079-10.01-5.461-2.215-11.228-3.338-17.145-3.338s-11.684,1.123-17.145,3.338c-5.657,2.294-10.731,5.662-15.079,10.01l-.036-.036-17.115,17.115,10.039,10.039,17.115-17.115.036.036c16.134-16.134,45.611-10.989,53.236,15.433,1.272,4.409,1.272,9.095,0,13.504-7.624,26.423-37.102,31.567-53.236,15.433l-54.446-54.446c-4.349-4.349-9.421-7.717-15.08-10.011-5.461-2.215-11.228-3.338-17.145-3.338s-11.684,1.123-17.145,3.338c-5.657,2.294-10.73,5.663-15.078,10.011s-7.717,9.421-10.011,15.078c-2.215,5.461-3.338,11.23-3.338,17.145,0,5.917,1.123,11.684,3.338,17.145,2.294,5.659,5.662,10.731,10.011,15.08,4.348,4.348,9.42,7.716,15.079,10.01,5.461,2.215,11.228,3.338,17.145,3.338,5.915,0,11.684-1.123,17.145-3.338,5.657-2.294,10.731-5.662,15.079-10.01l17.115-17.115-10.039-10.039-20.162,20.162c-5.733,5.733-13.931,8.285-21.896,6.769-38.137-7.258-38.137-56.744,0-64.003,7.965-1.516,16.163,1.036,21.896,6.769l57.493,57.493c4.349,4.349,9.421,7.717,15.08,10.011,5.461,2.215,11.228,3.338,17.144,3.337,5.916.001,11.685-1.122,17.146-3.337,5.657-2.294,10.73-5.663,15.078-10.011,4.348-4.348,7.717-9.421,10.011-15.078,2.215-5.461,3.338-11.23,3.337-17.146,0-5.916-1.122-11.683-3.337-17.144Z"/>
      <path class="uuid-0c762d1a-ea8e-4b1a-a358-bfeed0ecdcd2" d="M721.663,607.874c-2.294-5.659-5.662-10.731-10.011-15.08-4.348-4.348-9.42-7.716-15.079-10.01-5.461-2.215-11.228-3.338-17.145-3.338s-11.684,1.123-17.145,3.338c-5.657,2.294-10.731,5.662-15.079,10.01l-.036-.036-17.115,17.115,10.039,10.039,17.115-17.115.036.036c16.134-16.134,45.611-10.989,53.236,15.433,1.272,4.409,1.272,9.095,0,13.504-7.624,26.423-37.102,31.567-53.236,15.433l-54.446-54.446c-4.349-4.349-9.421-7.717-15.08-10.011-5.461-2.215-11.228-3.338-17.145-3.338s-11.684,1.123-17.145,3.338c-5.657,2.294-10.73,5.663-15.078,10.011s-7.717,9.421-10.011,15.078c-2.215,5.461-3.338,11.23-3.338,17.145,0,5.917,1.123,11.684,3.338,17.145,2.294,5.659,5.662,10.731,10.011,15.08,4.348,4.348,9.42,7.716,15.079,10.01,5.461,2.215,11.228,3.338,17.145,3.338,5.915,0,11.684-1.123,17.145-3.338,5.657-2.294,10.731-5.662,15.079-10.01l17.115-17.115-10.039-10.039-20.162,20.162c-5.733,5.733-13.931,8.285-21.896,6.769-38.137-7.258-38.137-56.744,0-64.003,7.965-1.516,16.163,1.036,21.896,6.769l57.493,57.493c4.349,4.349,9.421,7.717,15.08,10.011,5.461,2.215,11.228,3.338,17.144,3.337,5.916.001,11.685-1.122,17.146-3.337,5.657-2.294,10.73-5.663,15.078-10.011,4.348-4.348,7.717-9.421,10.011-15.078,2.215-5.461,3.338-11.23,3.337-17.146,0-5.916-1.122-11.683-3.337-17.144Z"/>
      <path class="uuid-0c762d1a-ea8e-4b1a-a358-bfeed0ecdcd2" d="M471.663,607.874c-2.294-5.659-5.662-10.731-10.011-15.08-4.348-4.348-9.42-7.716-15.079-10.01-5.461-2.215-11.228-3.338-17.145-3.338s-11.684,1.123-17.145,3.338c-5.657,2.294-10.731,5.662-15.079,10.01l-.036-.036-17.115,17.115,10.039,10.039,17.115-17.115.036.036c16.134-16.134,45.611-10.989,53.236,15.433,1.272,4.409,1.272,9.095,0,13.504-7.624,26.423-37.102,31.567-53.236,15.433l-54.446-54.446c-4.349-4.349-9.421-7.717-15.08-10.011-5.461-2.215-11.228-3.338-17.145-3.338s-11.684,1.123-17.145,3.338c-5.657,2.294-10.73,5.663-15.078,10.011s-7.717,9.421-10.011,15.078c-2.215,5.461-3.338,11.23-3.338,17.145,0,5.917,1.123,11.684,3.338,17.145,2.294,5.659,5.662,10.731,10.011,15.08,4.348,4.348,9.42,7.716,15.079,10.01,5.461,2.215,11.228,3.338,17.145,3.338,5.915,0,11.684-1.123,17.145-3.338,5.657-2.294,10.731-5.662,15.079-10.01l17.115-17.115-10.039-10.039-20.162,20.162c-5.733,5.733-13.931,8.285-21.896,6.769-38.137-7.258-38.137-56.744,0-64.003,7.965-1.516,16.163,1.036,21.896,6.769l57.493,57.493c4.349,4.349,9.421,7.717,15.08,10.011,5.461,2.215,11.228,3.338,17.144,3.337,5.916.001,11.685-1.122,17.146-3.337,5.657-2.294,10.73-5.663,15.078-10.011,4.348-4.348,7.717-9.421,10.011-15.078,2.215-5.461,3.338-11.23,3.337-17.146,0-5.916-1.122-11.683-3.337-17.144Z"/>
      <path class="uuid-0c762d1a-ea8e-4b1a-a358-bfeed0ecdcd2" d="M221.663,607.874c-2.294-5.659-5.662-10.731-10.011-15.08-4.348-4.348-9.42-7.716-15.079-10.01-5.461-2.215-11.228-3.338-17.145-3.338s-11.684,1.123-17.145,3.338c-5.657,2.294-10.731,5.662-15.079,10.01l-.036-.036-17.115,17.115,10.039,10.039,17.115-17.115.036.036c16.134-16.134,45.611-10.989,53.236,15.433,1.272,4.409,1.272,9.095,0,13.504-7.624,26.423-37.102,31.567-53.236,15.433l-54.446-54.446c-4.349-4.349-9.421-7.717-15.08-10.011-5.461-2.215-11.228-3.338-17.145-3.338s-11.684,1.123-17.145,3.338c-5.657,2.294-10.73,5.663-15.078,10.011s-7.717,9.421-10.011,15.078c-2.215,5.461-3.338,11.23-3.338,17.145,0,5.917,1.123,11.684,3.338,17.145,2.294,5.659,5.662,10.731,10.011,15.08,4.348,4.348,9.42,7.716,15.079,10.01,5.461,2.215,11.228,3.338,17.145,3.338,5.915,0,11.684-1.123,17.145-3.338,5.657-2.294,10.731-5.662,15.079-10.01l17.115-17.115-10.039-10.039-20.162,20.162c-5.733,5.733-13.931,8.285-21.896,6.769-38.137-7.258-38.137-56.744,0-64.003,7.965-1.516,16.163,1.036,21.896,6.769l57.493,57.493c4.349,4.349,9.421,7.717,15.08,10.011,5.461,2.215,11.228,3.338,17.144,3.337,5.916.001,11.685-1.122,17.146-3.337,5.657-2.294,10.73-5.663,15.078-10.011,4.348-4.348,7.717-9.421,10.011-15.078,2.215-5.461,3.338-11.23,3.337-17.146,0-5.916-1.122-11.683-3.337-17.144Z"/>
    </g>
    <g>
      <path class="uuid-0c762d1a-ea8e-4b1a-a358-bfeed0ecdcd2" d="M971.663,357.874c-2.294-5.659-5.662-10.731-10.011-15.08-4.348-4.348-9.42-7.716-15.079-10.01-5.461-2.215-11.228-3.338-17.145-3.338s-11.684,1.123-17.145,3.338c-5.657,2.294-10.731,5.662-15.079,10.01l-.036-.036-17.115,17.115,10.039,10.039,17.115-17.115.036.036c16.134-16.134,45.611-10.989,53.236,15.433,1.272,4.409,1.272,9.095,0,13.504-7.624,26.423-37.102,31.567-53.236,15.433l-54.446-54.446c-4.349-4.349-9.421-7.717-15.08-10.011-5.461-2.215-11.228-3.338-17.145-3.338s-11.684,1.123-17.145,3.338c-5.657,2.294-10.73,5.663-15.078,10.011s-7.717,9.421-10.011,15.078c-2.215,5.461-3.338,11.23-3.338,17.145,0,5.917,1.123,11.684,3.338,17.145,2.294,5.659,5.662,10.731,10.011,15.08,4.348,4.348,9.42,7.716,15.079,10.01,5.461,2.215,11.228,3.338,17.145,3.338,5.915,0,11.684-1.123,17.145-3.338,5.657-2.294,10.731-5.662,15.079-10.01l17.115-17.115-10.039-10.039-20.162,20.162c-5.733,5.733-13.931,8.285-21.896,6.769-38.137-7.258-38.137-56.744,0-64.003,7.965-1.516,16.163,1.036,21.896,6.769l57.493,57.493c4.349,4.349,9.421,7.717,15.08,10.011,5.461,2.215,11.228,3.338,17.144,3.337,5.916.001,11.685-1.122,17.146-3.337,5.657-2.294,10.73-5.663,15.078-10.011,4.348-4.348,7.717-9.421,10.011-15.078,2.215-5.461,3.338-11.23,3.337-17.146,0-5.916-1.122-11.683-3.337-17.144Z"/>
      <path class="uuid-0c762d1a-ea8e-4b1a-a358-bfeed0ecdcd2" d="M721.663,357.874c-2.294-5.659-5.662-10.731-10.011-15.08-4.348-4.348-9.42-7.716-15.079-10.01-5.461-2.215-11.228-3.338-17.145-3.338s-11.684,1.123-17.145,3.338c-5.657,2.294-10.731,5.662-15.079,10.01l-.036-.036-17.115,17.115,10.039,10.039,17.115-17.115.036.036c16.134-16.134,45.611-10.989,53.236,15.433,1.272,4.409,1.272,9.095,0,13.504-7.624,26.423-37.102,31.567-53.236,15.433l-54.446-54.446c-4.349-4.349-9.421-7.717-15.08-10.011-5.461-2.215-11.228-3.338-17.145-3.338s-11.684,1.123-17.145,3.338c-5.657,2.294-10.73,5.663-15.078,10.011s-7.717,9.421-10.011,15.078c-2.215,5.461-3.338,11.23-3.338,17.145,0,5.917,1.123,11.684,3.338,17.145,2.294,5.659,5.662,10.731,10.011,15.08,4.348,4.348,9.42,7.716,15.079,10.01,5.461,2.215,11.228,3.338,17.145,3.338,5.915,0,11.684-1.123,17.145-3.338,5.657-2.294,10.731-5.662,15.079-10.01l17.115-17.115-10.039-10.039-20.162,20.162c-5.733,5.733-13.931,8.285-21.896,6.769-38.137-7.258-38.137-56.744,0-64.003,7.965-1.516,16.163,1.036,21.896,6.769l57.493,57.493c4.349,4.349,9.421,7.717,15.08,10.011,5.461,2.215,11.228,3.338,17.144,3.337,5.916.001,11.685-1.122,17.146-3.337,5.657-2.294,10.73-5.663,15.078-10.011,4.348-4.348,7.717-9.421,10.011-15.078,2.215-5.461,3.338-11.23,3.337-17.146,0-5.916-1.122-11.683-3.337-17.144Z"/>
      <path class="uuid-0c762d1a-ea8e-4b1a-a358-bfeed0ecdcd2" d="M471.663,357.874c-2.294-5.659-5.662-10.731-10.011-15.08-4.348-4.348-9.42-7.716-15.079-10.01-5.461-2.215-11.228-3.338-17.145-3.338s-11.684,1.123-17.145,3.338c-5.657,2.294-10.731,5.662-15.079,10.01l-.036-.036-17.115,17.115,10.039,10.039,17.115-17.115.036.036c16.134-16.134,45.611-10.989,53.236,15.433,1.272,4.409,1.272,9.095,0,13.504-7.624,26.423-37.102,31.567-53.236,15.433l-54.446-54.446c-4.349-4.349-9.421-7.717-15.08-10.011-5.461-2.215-11.228-3.338-17.145-3.338s-11.684,1.123-17.145,3.338c-5.657,2.294-10.73,5.663-15.078,10.011s-7.717,9.421-10.011,15.078c-2.215,5.461-3.338,11.23-3.338,17.145,0,5.917,1.123,11.684,3.338,17.145,2.294,5.659,5.662,10.731,10.011,15.08,4.348,4.348,9.42,7.716,15.079,10.01,5.461,2.215,11.228,3.338,17.145,3.338,5.915,0,11.684-1.123,17.145-3.338,5.657-2.294,10.731-5.662,15.079-10.01l17.115-17.115-10.039-10.039-20.162,20.162c-5.733,5.733-13.931,8.285-21.896,6.769-38.137-7.258-38.137-56.744,0-64.003,7.965-1.516,16.163,1.036,21.896,6.769l57.493,57.493c4.349,4.349,9.421,7.717,15.08,10.011,5.461,2.215,11.228,3.338,17.144,3.337,5.916.001,11.685-1.122,17.146-3.337,5.657-2.294,10.73-5.663,15.078-10.011,4.348-4.348,7.717-9.421,10.011-15.078,2.215-5.461,3.338-11.23,3.337-17.146,0-5.916-1.122-11.683-3.337-17.144Z"/>
      <path class="uuid-0c762d1a-ea8e-4b1a-a358-bfeed0ecdcd2" d="M221.663,357.874c-2.294-5.659-5.662-10.731-10.011-15.08-4.348-4.348-9.42-7.716-15.079-10.01-5.461-2.215-11.228-3.338-17.145-3.338s-11.684,1.123-17.145,3.338c-5.657,2.294-10.731,5.662-15.079,10.01l-.036-.036-17.115,17.115,10.039,10.039,17.115-17.115.036.036c16.134-16.134,45.611-10.989,53.236,15.433,1.272,4.409,1.272,9.095,0,13.504-7.624,26.423-37.102,31.567-53.236,15.433l-54.446-54.446c-4.349-4.349-9.421-7.717-15.08-10.011-5.461-2.215-11.228-3.338-17.145-3.338s-11.684,1.123-17.145,3.338c-5.657,2.294-10.73,5.663-15.078,10.011s-7.717,9.421-10.011,15.078c-2.215,5.461-3.338,11.23-3.338,17.145,0,5.917,1.123,11.684,3.338,17.145,2.294,5.659,5.662,10.731,10.011,15.08,4.348,4.348,9.42,7.716,15.079,10.01,5.461,2.215,11.228,3.338,17.145,3.338,5.915,0,11.684-1.123,17.145-3.338,5.657-2.294,10.731-5.662,15.079-10.01l17.115-17.115-10.039-10.039-20.162,20.162c-5.733,5.733-13.931,8.285-21.896,6.769-38.137-7.258-38.137-56.744,0-64.003,7.965-1.516,16.163,1.036,21.896,6.769l57.493,57.493c4.349,4.349,9.421,7.717,15.08,10.011,5.461,2.215,11.228,3.338,17.144,3.337,5.916.001,11.685-1.122,17.146-3.337,5.657-2.294,10.73-5.663,15.078-10.011,4.348-4.348,7.717-9.421,10.011-15.078,2.215-5.461,3.338-11.23,3.337-17.146,0-5.916-1.122-11.683-3.337-17.144Z"/>
    </g>
    <g>
      <path class="uuid-0c762d1a-ea8e-4b1a-a358-bfeed0ecdcd2" d="M971.663,107.874c-2.294-5.659-5.662-10.731-10.011-15.08-4.348-4.348-9.42-7.716-15.079-10.01-5.461-2.215-11.228-3.338-17.145-3.338s-11.684,1.123-17.145,3.338c-5.657,2.294-10.731,5.662-15.079,10.01l-.036-.036-17.115,17.115,10.039,10.039,17.115-17.115.036.036c16.134-16.134,45.611-10.989,53.236,15.433,1.272,4.409,1.272,9.095,0,13.504-7.624,26.423-37.102,31.567-53.236,15.433l-54.446-54.446c-4.349-4.349-9.421-7.717-15.08-10.011-5.461-2.215-11.228-3.338-17.145-3.338s-11.684,1.123-17.145,3.338c-5.657,2.294-10.73,5.663-15.078,10.011s-7.717,9.421-10.011,15.078c-2.215,5.461-3.338,11.23-3.338,17.145,0,5.917,1.123,11.684,3.338,17.145,2.294,5.659,5.662,10.731,10.011,15.08,4.348,4.348,9.42,7.716,15.079,10.01,5.461,2.215,11.228,3.338,17.145,3.338,5.915,0,11.684-1.123,17.145-3.338,5.657-2.294,10.731-5.662,15.079-10.01l17.115-17.115-10.039-10.039-20.162,20.162c-5.733,5.733-13.931,8.285-21.896,6.769-38.137-7.258-38.137-56.744,0-64.003,7.965-1.516,16.163,1.036,21.896,6.769l57.493,57.493c4.349,4.349,9.421,7.717,15.08,10.011,5.461,2.215,11.228,3.338,17.144,3.337,5.916.001,11.685-1.122,17.146-3.337,5.657-2.294,10.73-5.663,15.078-10.011,4.348-4.348,7.717-9.421,10.011-15.078,2.215-5.461,3.338-11.23,3.337-17.146,0-5.916-1.122-11.683-3.337-17.144Z"/>
      <path class="uuid-0c762d1a-ea8e-4b1a-a358-bfeed0ecdcd2" d="M721.663,107.874c-2.294-5.659-5.662-10.731-10.011-15.08-4.348-4.348-9.42-7.716-15.079-10.01-5.461-2.215-11.228-3.338-17.145-3.338s-11.684,1.123-17.145,3.338c-5.657,2.294-10.731,5.662-15.079,10.01l-.036-.036-17.115,17.115,10.039,10.039,17.115-17.115.036.036c16.134-16.134,45.611-10.989,53.236,15.433,1.272,4.409,1.272,9.095,0,13.504-7.624,26.423-37.102,31.567-53.236,15.433l-54.446-54.446c-4.349-4.349-9.421-7.717-15.08-10.011-5.461-2.215-11.228-3.338-17.145-3.338s-11.684,1.123-17.145,3.338c-5.657,2.294-10.73,5.663-15.078,10.011s-7.717,9.421-10.011,15.078c-2.215,5.461-3.338,11.23-3.338,17.145,0,5.917,1.123,11.684,3.338,17.145,2.294,5.659,5.662,10.731,10.011,15.08,4.348,4.348,9.42,7.716,15.079,10.01,5.461,2.215,11.228,3.338,17.145,3.338,5.915,0,11.684-1.123,17.145-3.338,5.657-2.294,10.731-5.662,15.079-10.01l17.115-17.115-10.039-10.039-20.162,20.162c-5.733,5.733-13.931,8.285-21.896,6.769-38.137-7.258-38.137-56.744,0-64.003,7.965-1.516,16.163,1.036,21.896,6.769l57.493,57.493c4.349,4.349,9.421,7.717,15.08,10.011,5.461,2.215,11.228,3.338,17.144,3.337,5.916.001,11.685-1.122,17.146-3.337,5.657-2.294,10.73-5.663,15.078-10.011,4.348-4.348,7.717-9.421,10.011-15.078,2.215-5.461,3.338-11.23,3.337-17.146,0-5.916-1.122-11.683-3.337-17.144Z"/>
      <path class="uuid-0c762d1a-ea8e-4b1a-a358-bfeed0ecdcd2" d="M471.663,107.874c-2.294-5.659-5.662-10.731-10.011-15.08-4.348-4.348-9.42-7.716-15.079-10.01-5.461-2.215-11.228-3.338-17.145-3.338s-11.684,1.123-17.145,3.338c-5.657,2.294-10.731,5.662-15.079,10.01l-.036-.036-17.115,17.115,10.039,10.039,17.115-17.115.036.036c16.134-16.134,45.611-10.989,53.236,15.433,1.272,4.409,1.272,9.095,0,13.504-7.624,26.423-37.102,31.567-53.236,15.433l-54.446-54.446c-4.349-4.349-9.421-7.717-15.08-10.011-5.461-2.215-11.228-3.338-17.145-3.338s-11.684,1.123-17.145,3.338c-5.657,2.294-10.73,5.663-15.078,10.011s-7.717,9.421-10.011,15.078c-2.215,5.461-3.338,11.23-3.338,17.145,0,5.917,1.123,11.684,3.338,17.145,2.294,5.659,5.662,10.731,10.011,15.08,4.348,4.348,9.42,7.716,15.079,10.01,5.461,2.215,11.228,3.338,17.145,3.338,5.915,0,11.684-1.123,17.145-3.338,5.657-2.294,10.731-5.662,15.079-10.01l17.115-17.115-10.039-10.039-20.162,20.162c-5.733,5.733-13.931,8.285-21.896,6.769-38.137-7.258-38.137-56.744,0-64.003,7.965-1.516,16.163,1.036,21.896,6.769l57.493,57.493c4.349,4.349,9.421,7.717,15.08,10.011,5.461,2.215,11.228,3.338,17.144,3.337,5.916.001,11.685-1.122,17.146-3.337,5.657-2.294,10.73-5.663,15.078-10.011,4.348-4.348,7.717-9.421,10.011-15.078,2.215-5.461,3.338-11.23,3.337-17.146,0-5.916-1.122-11.683-3.337-17.144Z"/>
      <path class="uuid-0c762d1a-ea8e-4b1a-a358-bfeed0ecdcd2" d="M221.663,107.874c-2.294-5.659-5.662-10.731-10.011-15.08-4.348-4.348-9.42-7.716-15.079-10.01-5.461-2.215-11.228-3.338-17.145-3.338s-11.684,1.123-17.145,3.338c-5.657,2.294-10.731,5.662-15.079,10.01l-.036-.036-17.115,17.115,10.039,10.039,17.115-17.115.036.036c16.134-16.134,45.611-10.989,53.236,15.433,1.272,4.409,1.272,9.095,0,13.504-7.624,26.423-37.102,31.567-53.236,15.433l-54.446-54.446c-4.349-4.349-9.421-7.717-15.08-10.011-5.461-2.215-11.228-3.338-17.145-3.338s-11.684,1.123-17.145,3.338c-5.657,2.294-10.73,5.663-15.078,10.011s-7.717,9.421-10.011,15.078c-2.215,5.461-3.338,11.23-3.338,17.145,0,5.917,1.123,11.684,3.338,17.145,2.294,5.659,5.662,10.731,10.011,15.08,4.348,4.348,9.42,7.716,15.079,10.01,5.461,2.215,11.228,3.338,17.145,3.338,5.915,0,11.684-1.123,17.145-3.338,5.657-2.294,10.731-5.662,15.079-10.01l17.115-17.115-10.039-10.039-20.162,20.162c-5.733,5.733-13.931,8.285-21.896,6.769-38.137-7.258-38.137-56.744,0-64.003,7.965-1.516,16.163,1.036,21.896,6.769l57.493,57.493c4.349,4.349,9.421,7.717,15.08,10.011,5.461,2.215,11.228,3.338,17.144,3.337,5.916.001,11.685-1.122,17.146-3.337,5.657-2.294,10.73-5.663,15.078-10.011,4.348-4.348,7.717-9.421,10.011-15.078,2.215-5.461,3.338-11.23,3.337-17.146,0-5.916-1.122-11.683-3.337-17.144Z"/>
    </g>
  </g>
</svg>