<?xml version="1.0" encoding="UTF-8"?>
<svg id="Layer_2" data-name="Layer 2" xmlns="http://www.w3.org/2000/svg" viewBox="0 0 762.58 698.06">
  <defs>
    <style>
      .cls-1 {
        fill: #bb7b9c;
      }

      .cls-1, .cls-2, .cls-3, .cls-4 {
        stroke-width: 0px;
      }

      .cls-3 {
        fill: #5b407d;
      }

      .cls-4 {
        fill: #fff;
      }
    </style>
  </defs>
  <g id="Layer_1-2" data-name="Layer 1">
    <g id="mantelbrodyr">
      <g>
        <path class="cls-3" d="M370.72,477.82c-75.3,6.3-120.02-16-166.23-83.64-12.96-22.6-31.22-57.38-36.55-91.51-1.37,33.43,1.12,44.46,8,71.97-43.3-89.22-22.86-166.11,18.73-213.35-9.55,21.59-7.82,19.57-10.46,28.86,30.09-41.01,34.16-51.35,71.9-83.42,40.6-28.33,89.94-53.66,160.16-58.55-47.16,6.67-67.52,17.27-93.64,29.25-74.21,35-100.14,88.53-121.92,125.11-20.89,39.79-22.42,97.07,5.07,155.43,1.26,2.67,3.23,4.98,6.85,10.44-3.22-14.37-4.67-17.75-7.84-29.71-2.33-7.53-4.92-23.27-3.67-23.7,1.81,4.45,10.68,28.44,12.59,32.84,23.4,53.94,52.27,95.65,109.37,107.36,10.79,2.21,52.69,4.6,66.41,1.27,36.61-5.61,78.1-29.63,83.88-58.07-15.33,11.78-45.39,23.21-58.08,27.69-42.58,14.26-99.11-1.38-124.87-21.7,0,0-13.45-12.7-19.01-19.92-3.92-5.1-14.42-19.07-18.43-42.49-1.87-51.12,23.4-82.03,33.61-91.92,14.1-13.66,37.91-35.33,79.75-46.33,28.08-7.74,49.19-8.04,76.65-6.67,15.89,1.44,31.33,2.33,38.85,6.13-9.14-2.03-27.25-2.79-32.85-.65,93.56,11.56,140.12,38.77,170.81,70.57-45.8-39.8-235.17-106.54-312.97-11.88,70.98-37.67,176.24-30.39,224.5,23.09-23.38-17.93-56.72-35.07-87.99-32.15,59.77,14.3,101.95,62.04,132.28,114.29,1.37-4.72,2.41-8.32,3.58-12.33,81.53,107.21,42.9,260.88-139.67,343.92,12.08-7.34,19.71-11.89,31.49-19.74,61.99-41.26,115.53-91.62,129.44-170.11,3.48-19.63,6.33-68.19-4-86-3.9-6.27-6.47-9.74-8.91-12.8-3.49-4.38-6.7-7.89-13.09-17.54-20.56-72.62-89.67-114.67-155.67-128-38.64-2.61-42.17.67-65.13,6.38-19.79,8.49-2.59,46.51,4.33,67.39,6.04,18.24,26.18,31.45,45.84,30.09,15.36-1.07,17.83-3.55,22.81-26.14-10.79,17-23.33,19.15-36.53,11.59-16.58-9.49-16.83-25.51-12.81-42.43,0,0-.43.99-.43.99,28.58-26.39,45.95-25.87,83.67,2.49l-.65-.64c43,66.38,25.48,111.2-27.09,149.03-5.06,3.73-7.35,6.05-15.39,9.64,9.08-8.58,12.56-10.27,14.55-18.64-11.86,8.49-24.78,16.49-48.88,22.18l-12.33,2.02ZM346.6,404.4c-44-25.14-57.74-60.87-49.11-107.46-19.17,48.1,1.88,97.71,49.11,107.46Z"/>
        <path class="cls-3" d="M366.26,620.17c-2.5,0-8.88.97-18.88,1.35,6-2.92,16.62-4.88,24.01-15.11C240.28,631.8,78.94,568.86,0,384.85c3.09,3.11,25.46,42.8,28.18,46.23,84.53,124.19,205.42,187.88,332.31,158,16.05-3.78,27.98,5.33,59.33-5.55,64-22.33,97.8-64.29,109-124.22.92-4.94,2-12.33,3.44-29.33,6.22,86-46.49,148-105.78,173.28-5.65,3.18-15.85,6.24-21.82,8.34,0,0-18.46,5.53-38.41,8.58Z"/>
        <path class="cls-3" d="M110.77,91.58C0,262.69,55.83,450.37,171.71,540.96c-51.89-25.28-97.97-91.76-106.46-109.58-14.11-29.6-26.78-49.92-36.93-98.33-2.42-11.55,28.37,77.6,17.39,14.09-14.17-63.57,7.04-184.16,65.07-255.56Z"/>
        <path class="cls-1" d="M462.91,319.68c-2.54-5.69-5.08-11.38-7.58-16.97,24.75,11.41,54.16,49.71,58.49,101.69,0,79-19.14,96.44-41.67,122.49-16.41,13.1-21.53,19.47-41.67,31.13-9.63,4.6-28.46,11.03-36.18,12.17-1.54.23-2.71.22-2.71.22,50-17.83,68.67-44,78.44-56.89,0,0,3.78-7,3.78-7,1.9-6.23,4.42-8.95-10-.89-12.41,6.99-17.44,10.56-17.44,10.56-5.48,3.74-19.32,15.14-20.26,14.23,13.56-14.44,47.24-37.32,57.44-49.2,23.93-29.48,33.37-112.81-5.46-140.57-3.67-8-10.46-14.43-15.83-21.6-.02-.02.63.63.63.63Z"/>
        <path class="cls-1" d="M243.94,275.41c-11.22,38.78,1.94,76.75-.78,69-1.68-4.8-3.95-11.01-4.42-13.17-.49-2.27-3.48-15.68-3.36-29.82.2-25.13,3.78-58.3,38.44-96.15,37.96-41.46,77.06-47.5,126.23-51.77l-18.78,7.44c62.2-10.41,144.69,1.68,182.11,22.17-86.98-29.6-222.31-28-280.65,48.5,0-3.48,2.44-13.13,5.78-18.8l-6.01,3.63c-28.61,20.03-38.53,58.88-38.56,58.97Z"/>
        <path class="cls-1" d="M137.5,221.84C185.35,32.84,327.79-8.49,499.54,8.08,354.94.96,204.23,37.9,137.5,221.84Z"/>
        <path class="cls-3" d="M272.22,132.18c151.66-112.12,318.07-95.78,454.63,13.65-141.43-100.47-293.55-108.15-454.63-13.65Z"/>
        <path class="cls-1" d="M426.83,490.24c15-7.33,15.75-8.5,7.22-.33-21.47,20.55-57.39,31.54-78.05,35.67-26.86,3.36-69.07.21-87.25-8.81-46.21-23.13-81.18-58.4-103.54-107.35,40.8,57.08,92.72,107.51,161.75,104.16-27.95-6.57-43.46-15.16-50.1-18.31-8.25-4.38-28.34-17.01-28.7-20.9,7,4.83,18.76,11,22.09,12.54,50.72,26.22,83.28,24.21,115.59,17.95,8.61-1.67,23.63-6.99,29.35-9.33,0,0,11.39-5.19,11.66-5.28Z"/>
        <path class="cls-1" d="M365.34,142.57c118.21-33.4,247.81-30.4,374.98,149.95-103.33-119.39-200.67-184.99-374.98-149.95Z"/>
        <path class="cls-1" d="M159.24,112.44c-76.19,133.91-63.01,259.95,28.36,382.38-116.96-107.53-127.07-260.7-28.36-382.38Z"/>
        <path class="cls-1" d="M405.16,628.95c10.55-3.83,28.22-8.98,54.01-22.09-95.37,72.87-258.76,57.04-367.27-51.82,11.05,10.6,31.47,24.52,43.59,32.03,70.08,42.36,139.18,62.37,229.85,50.94,12.83-2.05,39.82-9.06,39.82-9.06Z"/>
        <path class="cls-1" d="M439.82,640.18c88.83-46.92,127.43-94.58,113.01-230.77,34.22,90.77,11.7,191.17-113.01,230.77Z"/>
        <path class="cls-1" d="M381.82,326.22s.43-.98.43-.99c-2.34,5.99-4.68,11.99-6.81,17.43-7.55-19.41-14.14-48.76-3.68-60.73,2.87-2.41,13.33-29.67,113.45,15.93,34.52,20.48,55.9,52.24,66.79,92.35-5.96-10.28-11.18-21.15-18.07-30.69-10.53-16.56-9.5-18.2-19.8-26.53-25.08-20.3-53.68-38.87-86.76-37.44-20.51.88-37.52,8.76-45.55,30.68Z"/>
        <path class="cls-1" d="M416.27,530.38c-86.45,66.92-230.45,30.36-288.95-63.61,17.83,20.31,31.08,40.22,90.06,68.31,70,28.44,152.22,22.63,198.89-4.7Z"/>
        <path class="cls-3" d="M744.11,389.04c-18.32-45.91-42.58-85.69-83.34-123.95,1.19,6.85,1.81,10.43,3.07,17.63-30.53-46.7-76.75-73.56-148.67-86.2.73-1.79,22.67,1.56,29.95,2.73,25.31,4.78,45.09,9.92,71.75,24.78,4,1.33-.37-5.09-2.41-11.49,35.5,18.33,108,86.62,129.66,176.51Z"/>
        <path class="cls-3" d="M669.83,344.64c11.11,15.33,12.99,16.13,17.75,25.27,7.05,13.54,3.8,4.91,19.74,39.66,1.15-3.15-1.3-8.06-.38-12.7,23.24,40.67,19.61,140.75-5.29,203.53,26.19-100.06,19.63-187.1-71.82-299.58-3.24-5.6,37.24,40.13,40,43.82Z"/>
        <path class="cls-1" d="M509.94,242.35c134.03,62.52,203.36,225.84,155.41,335.19,4.39-19.35,13.17-70.57,1.24-45.14-18.95,46.21-38.21,75.36-59.12,95.71-18.83,18.33-44.83,35.92-56.58,42.03,30.58-22.04,40.08-32.7,40.08-32.7,0,0,13.36-14.76,19.52-22.73,12.93-16.71,15.7-21.77,15.7-21.77,0,0,13.48-20.59,25.52-66.36,14.83-56.2,4.26-156.64-92.18-247.86-17.2-15.97-25.89-21.78-49.58-36.37Z"/>
        <path class="cls-1" d="M437.5,108.55c11.92,1.7,23.85,3.4,35.77,5.11-118.37-10.61-268.12,59.09-251.63,198.18-11.16-40.19.65-101.66,35.32-137.66,82.33-82.75,197.51-89.11,288.03-75.11,70.72,18.83,86.57,29.84,125.99,47.85-72.44-29.28-152.66-60.25-233.48-38.38Z"/>
        <path class="cls-1" d="M275.54,675.74c101.92,11.75,126.53-6.44,150.6-14.41,5.09-1.68,48.52-16.31,47.75-15.75-31.05,22.27-70.4,58.16-198.36,30.16Z"/>
      </g>
      <g id="blixtar_4" data-name="blixtar 4">
        <path class="cls-4" d="M291.97,485.98c-2.5-2.62-4.65-5.2-7.09-7.4-20.34-18.26-21.89-19.81-39.33-5.79-5.98,4.8-9.62,6.72-17.93,15.38,9.69-17.69,19.11-34.74,40-39.08,12.99-2.7,25.48-9.59,38.43-13.15,8.34-2.3,11.61-7.34,13.28-15.65,1.1-5.48,3.3-10.79,7.58-15.91-.91,8.24-2.53,16.54-2.56,24.72-.06,13.58-10.48,12.02-17.17,15.4-8.84,4.47-18.09,7.81-29.26,12.52,8.1,8.17,15.03,15.95,22.75,22.65,4.62,4.01,5.14,7.48,1.96,13.13-5.45,9.7-10.5,19.65-17.69,28.9-.07-2.44,2.68-12.24,2.58-15.37-21.79,17.62-39.8,47.37-52.23,70.63-12.82-24.21-22.49-29.66-32.62-39.03-4.52-4.18-25.1-9.87-25.1-9.87,3.25,14.28,2.27,10.06,4.76,19.57-11.4-1.44-23.59-.27-25.86.43,6.73,5.94,12.49,8.98,20.04,13.01-25.59,23.03-50.27,48.85-53.18,51.97-14.24,15.31-30.6,34.48-45.65,50.94-4.96-9.87-8.84-20.43-13.54-28.04-17.53,16.55-32.49,35.26-49.75,51.55-.55-.58,5.93-8.32,8.46-12.22,17.43-22.92,27.69-37.78,45.7-61.47,4.49,9.05,4.08,14.7,12.96,31.34,23.59-28.91,46.3-54.95,67.66-76.57,5.79-5.86,4.76-10.62-2.13-13.44-8.89-3.63-17.8-7.23-26.47-13.09,32.49-3.59,44.99-.59,51.17-3.33-2.17-7.04-8.05-16.56-8.91-21.58,6.84.84,20.13,1.63,28.25,2.37.39-12.93-1.62-15.34-1.44-35.21,5.61,14.32,6.56,21.88,9.3,28.11,4.69,10.65,26.45,21.3,37.68,31.84,18.64-19.62,36.89-38.83,55.35-58.26Z"/>
        <path class="cls-4" d="M482.47,198.03c2.46,2.65,4.58,5.26,7,7.48,20.11,18.51,21.64,20.08,39.25,6.28,6.04-4.73,9.7-6.6,18.13-15.15-9.91,17.57-19.54,34.5-40.49,38.58-13.02,2.54-25.6,9.27-38.59,12.67-8.37,2.19-11.7,7.2-13.47,15.48-1.17,5.47-3.43,10.74-7.78,15.81,1.01-8.23,2.73-16.51,2.87-24.69.23-13.57,10.63-11.89,17.36-15.19,8.89-4.36,18.18-7.58,29.42-12.15-8-8.27-14.83-16.13-22.47-22.94-4.57-4.07-5.04-7.55-1.8-13.15,5.57-9.63,10.74-19.51,18.05-28.68.04,2.44-2.83,12.2-2.77,15.33,22.01-17.35,40.39-46.87,53.11-69.97,12.52,24.37,22.12,29.94,32.13,39.44,4.46,4.24,24.97,10.18,24.97,10.18-3.08-14.32-2.15-10.09-4.52-19.63,11.38,1.58,23.58.57,25.86-.11-6.65-6.02-12.37-9.13-19.87-13.26,25.88-22.71,50.88-48.22,53.83-51.31,14.43-15.13,31.03-34.09,46.29-50.37,4.84,9.93,8.58,20.54,13.19,28.21,17.73-16.33,32.93-34.85,50.39-50.92.55.58-6.03,8.24-8.61,12.12-17.71,22.7-28.16,37.43-46.46,60.9-4.38-9.11-3.9-14.75-12.57-31.5-23.95,28.61-46.98,54.37-68.61,75.72-5.86,5.79-4.89,10.56,1.97,13.47,8.85,3.74,17.71,7.45,26.31,13.42-32.53,3.18-45,.03-51.21,2.69,2.08,7.06,7.85,16.66,8.64,21.69-6.83-.93-20.11-1.88-28.22-2.73-.55,12.92,1.42,15.36,1,35.22-5.43-14.38-6.28-21.96-8.95-28.22-4.56-10.7-26.18-21.63-37.28-32.31-18.88,19.39-37.37,38.37-56.07,57.57Z"/>
      </g>
      <g>
        <g>
          <path class="cls-4" d="M428.16,307.41c.6.26,16.67,7.99,27.37,15.41,9.2,6.38,31.53,20.68,31.96,20.92,9.51,5.4-8.17,25.5-24.17,29.28-.44-.37-4.87.95-5.83,1.55-25.17,15.63-46.21,20.17-74,19.5-28.61-.7-57.17-8.33-79.33-28.33-5.1-4.6-11.54-7.12-17.56-10.67-4.24-2.5-3.77-10.94,1.39-14.33,7.07-4.65,38.37-25.17,52-28.9-2.72,20.94,2.06,43.26,15.67,54.9,10.84,9.28,28.74,13.71,35.94,11.17,29.49-10.39,44.02-30.81,38.72-68.33"/>
          <path class="cls-3" d="M380.49,299.89c11.34-.02,8.53-3.5,22.17-1.98,17,1.42,24.87,16.39,26,37.83.52,9.97-3.75,19.62-9.88,25.25-6.29,5.78-16.3,12.09-24.35,14.42-17.42,5.04-42.39-7.48-50.05-24.74-3.04-6.86-1.15-16.87-3.05-24.26.84-.24,10.66-22.19,20.33-23.7,5.24-2.38,12.1-2.43,18.83-2.82Z"/>
          <path class="cls-1" d="M269.13,333.93c16.19-9.55,32.01-19.84,48.63-28.53,55.66-29.1,109.76-26,161.82,9.79,1.7,1.17,3.32,2.46,4.91,3.78.67.55,1.19,1.3,1.29,3-1.76-.9-3.57-1.7-5.26-2.73-54.76-33.16-110.46-35.01-167.2-5.48-14.26,7.42-28.74,14.42-43.12,21.61l-1.07-1.44Z"/>
          <path class="cls-1" d="M464.2,378.36c-58.49,40.21-135.82,29.94-177.6-15.34,58.76,37.64,109.66,44.1,177.6,15.34Z"/>
          <path class="cls-1" d="M391.84,280.92c-12.21,1.89-23.29,3.87-34.57,6.49-11.14,2.6-22.48,5.86-33.58,8.69,21.8-14.58,43.47-16.92,68.14-15.18Z"/>
          <path class="cls-4" d="M354.39,330.52c0-5.24,0-3.88,1.89-14.55,11.26-17.67,22.47-11.87,38.14-8.68-5.11,5.68-9.4,10.01-13.18,14.76-3.86,4.85-7.01,10.11-11.71,16.8-2.91-1.51-7.6-2.21-12.16-4.58"/>
          <path class="cls-1" d="M415.17,353.62c-21.62,28.47-54.7,8.12-56.76,1.29,3.58.67,19.99,19.62,56.76-1.29Z"/>
        </g>
        <path class="cls-2" d="M384.03,414.89c-54.95-.26-86.68-21.84-126.8-64.14-6.16-7.24-5.38-14.65,2.32-19.82,13.64-9.16,21.55-19.66,33.69-30.63,55.13-49.8,128.96-45.4,178.95-2.04,12.66,10.98,23.96,19.38,37.35,30.68,5.31,4.82,10.71,8.39,6.37,15.12-40,44.23-59.47,60.23-103.09,68.04-9.47,1.7-19.18,1.91-28.79,2.8ZM434.31,313.22c7.06,45.22-15.93,64.68-45.85,68.12-14.03.62-23.12-3.3-30.7-8.68-18.53-13.17-25.54-34.14-22.82-55.08-6.5,3.33-4.62,20.8.44,33.17-.34.13-1.37-1.55-2.3-2.81-2.79-4.43-6.54-14.08-4.89-26.53-7.26,4.27-30.2,15.64-37.27,20.3-5.16,3.4-5.76,11.28-1.52,13.77,6.03,3.55,12.96,5.98,18.06,10.58,22.17,20,48.45,26.26,77.06,26.95,27.79.67,52.64-6.23,73.52-25.74.83-.78,2.05-1.12,4.12-2.2-1.42,2.63-1.6,4.52-2.34,5.89,1.71-1,1.62-1.18,2.42-1.69,7.64-7.8,11.05-11.7,17.78-19.12-1.2,3.67-2.31,7.08-3.65,11.16,10.66-10.66,9.3-18.96-3.13-24.38-4.78-2.3-21.94-17.21-29.82-19.53-4.51-1.33,4.56,14.22-8.37,32.21-.84,1.17,8.37-21.8-.74-36.37ZM368.99,338.59c4.7-6.69,8.04-11.69,11.9-16.54,3.78-4.75,8.07-9.08,13.18-14.76-15.67-3.19-21.73-5.9-33.32,2.85,2.09-4.09.91-1.77,2.99-5.85-9.67,1.51-12.47,10.55-12.46,37.65l-4.13-15.35c-.84.24-1.68.49-2.53.73,1.91,7.39,2.86,15.22,5.9,22.08,7.65,17.26,26.97,27.35,44.38,22.31,8.05-2.33,15.95-7.47,22.25-13.26,6.13-5.63,7.88-13.18,7.36-23.15-1.13-21.44-7.1-32.47-24.1-33.9,21.58,17.55,23.76,39.65,6.06,53.77,1.65-7.22,3.47-15.14,5.29-23.07-16.29,28.93-20.3,30.88-44.06,20.43,2.68,2.17,5.35,4.34,8.88,7.2-12.99-3.4-21.57-14.54-20.44-26.9,4.56,2.37,9.96,4.45,12.83,5.73ZM269.13,333.93l1.07,1.44c14.38-7.19,28.86-14.18,43.12-21.61,56.74-29.53,112.44-27.68,167.2,5.48,1.69,1.02,3.5,1.82,5.26,2.73-.1-1.7-.61-2.45-1.29-3-1.6-1.31-3.21-2.61-4.91-3.78-52.06-35.78-106.16-38.89-161.82-9.79-16.62,8.69-32.44,18.97-48.63,28.53ZM464.07,378.36c-62.67,27.51-122.55,23.67-179.32-16.63,41.78,45.28,121.15,55.66,179.32,16.63ZM391.84,280.92c-30.07-.47-46.86,4.53-68.14,15.18,11.1-2.83,21.9-6.96,33.04-9.55,11.28-2.63,22.89-3.74,35.1-5.63Z"/>
      </g>
    </g>
  </g>
</svg>