<?xml version="1.0" encoding="UTF-8"?>
<svg id="uuid-05c2bc77-1ea4-48bb-a079-9baab6f33b18" data-name="Layer 1" xmlns="http://www.w3.org/2000/svg" viewBox="0 0 737.008 655.879">
  <defs>
    <style>
      .uuid-6c1f0ce0-4e65-4af2-b446-9b6596c23ca2 {
        fill: #231f20;
      }

      .uuid-e043d47e-0b05-4c7f-a03f-6c78d973d6f7 {
        fill: #8e68ad;
      }

      .uuid-d64ecf84-4b9d-49a5-ace7-5e6968e42697 {
        fill: #f27fa0;
      }

      .uuid-edc02e36-086c-42e9-8f3b-868abc140864 {
        fill: #fff;
      }

      .uuid-422913cf-7eba-4f79-b7fa-0a8e1e168205 {
        fill: #b5aaad;
      }
    </style>
  </defs>
  <g>
    <path class="uuid-edc02e36-086c-42e9-8f3b-868abc140864" d="M297.119,99.028c-13.733-2.275-26.39-5.198-37.634-8.691.665-1.665,1.19-3.37,1.563-5.08,10.769,3.553,23.241,6.525,37.086,8.835-.292,1.603-.632,3.259-1.015,4.936Z"/>
    <path class="uuid-edc02e36-086c-42e9-8f3b-868abc140864" d="M304.644,97.517c12.138,2.27,24.51,3.761,36.92,4.634-.047.563-.103,1.126-.159,1.698-12.804-.732-25.28-1.97-37.108-3.696.131-.891.244-1.773.347-2.636Z"/>
    <path class="uuid-edc02e36-086c-42e9-8f3b-868abc140864" d="M341.845,98.83c-.019.3-.047.61-.075.919-12.41-.525-24.829-1.388-37.098-2.486.084-.713.159-1.416.235-2.111,11.622,1.707,24.051,2.945,36.939,3.677Z"/>
    <path class="uuid-edc02e36-086c-42e9-8f3b-868abc140864" d="M388.455,104.195c-6.65.272-13.367.413-19.952.413s-13.301-.141-19.952-.413c.019-.544.028-1.079.038-1.613,6.651.347,13.301.525,19.914.553,6.613-.028,13.264-.206,19.914-.553.009.535.019,1.069.038,1.613Z"/>
    <path class="uuid-edc02e36-086c-42e9-8f3b-868abc140864" d="M348.58,100.002c0-.281,0-.572-.009-.854,6.632.272,13.339.413,19.933.413s13.301-.141,19.933-.413c-.009.281-.009.572-.009.854-6.651.216-13.301.328-19.923.319-6.613.009-13.263-.103-19.923-.319Z"/>
    <path class="uuid-edc02e36-086c-42e9-8f3b-868abc140864" d="M439.888,99.028c-.382-1.674-.722-3.33-1.014-4.936,13.844-2.31,26.317-5.282,37.086-8.835.373,1.71.897,3.415,1.563,5.08-11.244,3.494-23.901,6.416-37.635,8.691Z"/>
    <path class="uuid-edc02e36-086c-42e9-8f3b-868abc140864" d="M432.336,97.264c-12.297,1.088-24.698,1.96-37.099,2.486-.028-.31-.056-.61-.075-.919,12.888-.732,25.317-1.97,36.939-3.677.075.694.15,1.398.235,2.111Z"/>
    <path class="uuid-edc02e36-086c-42e9-8f3b-868abc140864" d="M432.711,100.153c-11.828,1.726-24.304,2.964-37.108,3.696-.056-.572-.113-1.135-.169-1.698,12.41-.863,24.792-2.354,36.93-4.634.103.863.216,1.735.347,2.636Z"/>
    <path class="uuid-edc02e36-086c-42e9-8f3b-868abc140864" d="M484.094,88.173c-.711-1.612-1.333-3.333-1.851-5.125,21.083-7.945,32.224-17.598,32.224-27.93,0-24.506-65.479-44.442-145.964-44.442s-145.964,19.936-145.964,44.442c0,10.332,11.141,19.985,32.224,27.93-.518,1.793-1.14,3.513-1.851,5.125-28.044-9.765-43.479-22.495-43.479-35.869C209.434,23.463,280.793,0,368.504,0s159.07,23.463,159.07,52.304c0,13.374-15.436,26.104-43.479,35.869Z"/>
    <path class="uuid-422913cf-7eba-4f79-b7fa-0a8e1e168205" d="M215.939,65.604c-6.689-6.54-8.263-19.464,0-25.407.115-.077.274.047.218.178-1.339,4.35-2.891,8.185-3.518,12.593-.436,4.419,1.12,8.787,3.518,12.459.11.134-.104.322-.218.178h0Z"/>
    <path class="uuid-422913cf-7eba-4f79-b7fa-0a8e1e168205" d="M222.882,47.12c2.108-5.08,5.528-9.682,9.888-13.081,3.185-2.732,6.924-4.911,11.116-5.601,1.373-.262,2.779-.402,4.202-.281.08.007.139.077.133.157-.005.054-.038.098-.084.12,0,0-7.127,3.708-7.127,3.708-4.695,2.306-9.415,4.814-12.984,8.756-1.927,1.853-3.414,4.089-4.897,6.355-.082.137-.322.022-.247-.133h0Z"/>
    <path class="uuid-422913cf-7eba-4f79-b7fa-0a8e1e168205" d="M520.85,65.426c1.799-2.792,3.162-5.924,3.502-9.238.412-3.256-.55-6.365-1.473-9.43-.58-2.076-1.304-4.139-2.032-6.393-.046-.124.112-.249.221-.168,7.183,5.076,6.987,16.077,2.199,22.728-.637.973-1.471,1.802-2.199,2.679-.113.133-.33-.032-.218-.178h0Z"/>
    <path class="uuid-422913cf-7eba-4f79-b7fa-0a8e1e168205" d="M513.873,47.245c-2.803-4.572-6.479-8.479-10.963-11.388-3.926-2.379-9.953-5.19-14.038-7.423-.074-.035-.107-.126-.068-.199,2.793-.453,5.704.454,8.356,1.344,5.111,2.185,9.496,6.072,12.893,10.405,1.708,2.181,2.983,4.65,4.073,7.136.066.153-.166.282-.252.125h0Z"/>
    <path class="uuid-422913cf-7eba-4f79-b7fa-0a8e1e168205" d="M302.032,9.328c42.649-8.79,90.291-8.81,132.943,0-22.04-1.635-44.372-2.876-66.472-2.831-22.104-.051-44.427,1.186-66.472,2.832h0Z"/>
    <path class="uuid-422913cf-7eba-4f79-b7fa-0a8e1e168205" d="M432.364,97.517c-12.138,2.279-24.52,3.771-36.93,4.634-.075-.807-.141-1.613-.197-2.401,12.401-.525,24.801-1.398,37.099-2.486.009.084.019.169.028.253Z"/>
    <path class="uuid-422913cf-7eba-4f79-b7fa-0a8e1e168205" d="M388.427,100.002c-.019.854-.019,1.707-.009,2.58-6.651.347-13.301.525-19.914.553-6.613-.028-13.263-.206-19.914-.553.009-.872.009-1.726-.009-2.58,6.66.216,13.31.328,19.923.319,6.622.009,13.273-.103,19.923-.319Z"/>
    <path class="uuid-422913cf-7eba-4f79-b7fa-0a8e1e168205" d="M341.77,99.749c-.047.788-.122,1.595-.197,2.401h-.009c-12.41-.872-24.782-2.364-36.92-4.634.009-.084.019-.169.028-.253,12.269,1.097,24.689,1.96,37.098,2.486Z"/>
    <path class="uuid-422913cf-7eba-4f79-b7fa-0a8e1e168205" d="M249.04,82.082c-8.932-2.65-25.012-8.51-25.83-19.369.005-.105.159-.129.187-.019,1.059,2.553,2.853,4.602,4.753,6.477,1.374,1.378,3.017,2.8,4.526,4.051,2.707,2.047,5.765,3.834,8.804,5.331,2.166,1.09,5.337,2.443,7.619,3.351.108.035.057.214-.059.178h0Z"/>
    <path class="uuid-422913cf-7eba-4f79-b7fa-0a8e1e168205" d="M487.908,81.904c5.055-2.027,10.282-4.385,14.759-7.485,2.174-1.49,4.324-3.412,6.19-5.248,1.9-1.876,3.695-3.924,4.753-6.477.018-.1.193-.095.187.019-.793,8.883-10.673,13.539-17.886,16.696-2.283.904-5.567,1.964-7.944,2.673-.108.034-.173-.136-.059-.178h0Z"/>
  </g>
  <g>
    <path class="uuid-edc02e36-086c-42e9-8f3b-868abc140864" d="M380.645,271.974c39.621-47.564,29.538-82.245,18.916-118.794-4.497-15.472-9.147-31.47-9.69-48.565-.067-2.041-.073-3.98-.019-5.928.236-9.499,1.792-18.704,4.732-27.911-1.21,9.262-1.489,18.392-.855,27.676.127,1.954.305,3.968.528,5.986,2.052,18.701,7.373,34.813,12.519,50.395,6.709,20.314,13.046,39.502,9.605,59.743-3.215,18.918-14.674,37.408-35.736,57.397Z"/>
    <path class="uuid-d64ecf84-4b9d-49a5-ace7-5e6968e42697" d="M521.19,163.542c9.937-24.791-5.294-37.026-20.059-48.886-8.801-7.07-17.903-14.38-22.108-24.387l-.243-.574c-.678-1.716-1.199-3.473-1.55-5.231-1.342-6.499-.649-13.642,2.12-21.684-.747,7.444-.274,14.116,1.422,20.233.601,2.157,1.347,4.22,2.217,6.132,5.566,12.382,16.211,19.962,25.603,26.649,16.011,11.402,28.862,20.553,12.599,47.748Z"/>
    <path class="uuid-e043d47e-0b05-4c7f-a03f-6c78d973d6f7" d="M467.935,304.52c36.274-45.787,15.671-86.926-6.077-130.341-11.735-23.427-23.87-47.653-27.684-73.768-.302-2.048-.536-3.971-.716-5.88-1.239-12.947-.247-25.439,3.032-37.818-1.746,12.019-1.435,24.3.917,37.164.338,1.907.745,3.892,1.21,5.896,5.746,25.292,18.209,48.923,30.262,71.777,13.28,25.179,25.823,48.963,27.656,71.991,1.831,23.007-7.292,42.577-28.599,60.978Z"/>
    <path class="uuid-edc02e36-086c-42e9-8f3b-868abc140864" d="M356.362,271.974c-21.062-19.99-32.52-38.479-35.736-57.397-3.441-20.241,2.896-39.429,9.605-59.744,5.146-15.582,10.467-31.694,12.519-50.395.223-2.013.4-4.029.529-5.988.633-9.282.355-18.411-.855-27.673,2.94,9.205,4.496,18.41,4.731,27.907.054,1.932.048,3.926-.019,5.93-.543,17.096-5.193,33.094-9.69,48.567-10.622,36.548-20.706,71.228,18.916,118.793Z"/>
    <path class="uuid-d64ecf84-4b9d-49a5-ace7-5e6968e42697" d="M215.818,163.542c-16.263-27.195-3.412-36.346,12.599-47.748,9.392-6.687,20.037-14.267,25.604-26.653.868-1.908,1.614-3.971,2.215-6.127,1.696-6.118,2.169-12.79,1.422-20.235,2.77,8.042,3.462,15.185,2.121,21.68-.392,1.961-.993,3.914-1.785,5.812-4.208,10.005-13.31,17.315-22.112,24.384-14.767,11.86-30.001,24.095-20.064,48.888Z"/>
    <path class="uuid-e043d47e-0b05-4c7f-a03f-6c78d973d6f7" d="M269.072,304.52c-21.307-18.401-30.431-37.971-28.599-60.978,1.833-23.028,14.376-46.812,27.656-71.991,12.053-22.854,24.516-46.486,30.263-71.781.465-2.006.873-3.992,1.21-5.898,2.351-12.859,2.662-25.14.916-37.16,3.28,12.38,4.272,24.871,3.033,37.817-.181,1.919-.415,3.842-.716,5.88-3.814,26.117-15.949,50.342-27.684,73.77-21.748,43.415-42.352,84.554-6.077,130.341Z"/>
  </g>
  <g>
    <path class="uuid-6c1f0ce0-4e65-4af2-b446-9b6596c23ca2" d="M672.361,305.429c-6.695-4.045-13.056-8.654-18.983-13.771-6.039-5.003-11.646-10.623-15.797-17.334,0,0,.148-.116.148-.116,5.696,5.356,11.067,10.892,16.652,16.333,5.661,5.338,11.707,10.257,18.082,14.73,0,0-.102.158-.102.158h0Z"/>
    <path class="uuid-e043d47e-0b05-4c7f-a03f-6c78d973d6f7" d="M685.394,171.498c-.919-1.173-1.81-2.336-2.664-3.461-.403-.525-.788-1.051-1.173-1.567-.779-1.041-1.529-2.045-2.223-3.002-.028-.038-.056-.075-.084-.113v-.084l-.281-.281c-7.748-9.465-24.435-28.975-30.373-35.157-.103-.113-.225-.235-.338-.347l-.178-.188c-.253-.253-.469-.46-.657-.638l-.263-.244c-.056-.047-.113-.094-.159-.141l-.009-.009-.169-.15s-.769-.647-.976-.807c-13.948-23.206-26.274-48.383-22.297-75.248.694-4.793,3.855-14.173,8.001-14.173.103,0,.206.009.31.019.113.009.188.16.188.281-.038,10.759,3.368,23.225,9.577,35.119,0,1.801.056,3.489.178,5.009.535,6.125,2.56,9.092,3.583,7.204.354-.653,1.407-2.617,1.407-2.617l.263-.497c1.96,2.917,4.052,5.637,6.228,8.104.272,2.129.647,4.259,1.097,6.332.169.722.338,1.445.516,2.157.91,3.583,2.12,7.054,3.593,10.318.788,1.735,1.604,3.33,2.486,4.868.553.976,1.135,1.923,1.717,2.823.403.619.816,1.229,1.248,1.839.844,1.201,1.698,2.317,2.589,3.414,1.454,6.444,5.131,13.432,9.024,20.815,5.562,10.571,11.312,21.471,9.84,30.42Z"/>
    <path class="uuid-6c1f0ce0-4e65-4af2-b446-9b6596c23ca2" d="M681.557,166.47c-.779-1.041-1.529-2.045-2.223-3.002-.835-2.589-1.548-5.206-2.326-7.842-1.491-4.521-3.424-8.892-5.975-12.926-.066-.084.075-.206.15-.113,3.049,3.733,5.375,8.048,7.232,12.513,1.613,3.611,2.786,7.429,3.142,11.369Z"/>
    <path class="uuid-6c1f0ce0-4e65-4af2-b446-9b6596c23ca2" d="M640.362,110.23c-4.903-9.311-8.715-19.159-11.304-29.372-2.759-10.165-4.198-20.938-2.177-31.39.027-.155.28-.141.28.023.667,7.542,1.834,15.698,2.848,23.193.236,1.929.858,5.772,1.243,7.676,2.022,10.194,5.289,20.184,9.363,29.748.078.152-.176.292-.253.122h0Z"/>
    <path class="uuid-e043d47e-0b05-4c7f-a03f-6c78d973d6f7" d="M712.053,297.995c-.641-.464-1.694-1.47-3.217-3.653-.829-1.199-1.729-2.652-2.674-4.316-.576-.98-1.135-2.034-1.861-3.416-.351-.682-.724-1.41-1.096-2.165-.135-.264-.257-.52-.381-.78l-.246-.512c-.091-.176-.172-.343-.253-.511.22-.724.517-1.615.567-1.756,2.295-7.985,4.114-16.496,5.426-25.365,5.528,2.621,9.394,5.416,11.503,8.321,3.73,6.946,2.117,18.229-.163,28.666-1.958-1.747-4.101-3.531-6.387-5.32l-1.517-1.187v2.03l.104,3.428v.212s.027,1.177.027,1.177l.141,4.118.029,1.03Z"/>
    <path class="uuid-e043d47e-0b05-4c7f-a03f-6c78d973d6f7" d="M409.955,592.718c-9.483-16.967-14.071-43.522-12.566-72.848,1.446-28.173,8.451-55.423,18.74-72.894,24.032-40.818,71.766-49.264,122.304-58.206,53.513-9.469,108.845-19.259,145.407-66.837,4.266,2.847,8.096,5.313,10.625,6.933l.194.124,1.131.104c3.796.37,6.813.846,8.992,1.42-.298.564-.589,1.103-.836,1.562l-.119.22-1.044,1.855c-3.375,5.591-7.069,10.861-10.727,15.304-.687-.505-1.358-.972-2.013-1.399l-.198-.213-.136-.002c-2.561-1.636-4.592-2.431-6.202-2.431-.103,0-.204.003-.304.01h-.015c-.088,0-.172-.005-.271-.01-.191-.01-.424-.021-.688-.021-2.852,0-6.524,1.515-7.824,8.736-.478,2.671-.305,7.792-.025,10.685-45.251,35.184-91.404,41.585-132.138,47.234-36.736,5.094-68.462,9.495-92.041,33.147-25.752,25.833-38.532,72.707-40.219,147.514l-.027.013Z"/>
    <path class="uuid-6c1f0ce0-4e65-4af2-b446-9b6596c23ca2" d="M400.744,548.027c-.175-4.195-.666-10.182-.684-14.309.037-2.596.006-8.261.056-10.755.131-2.244.53-8.412.681-10.741.724-7.113,1.751-14.291,3.14-21.305,1.97-9.372,4.526-18.664,8.184-27.547,3.766-8.561,8.202-18.313,14.221-24.891-11.1,18.281-18.251,38.809-22.334,59.746-.444,2.008-.901,4.964-1.166,7.035-.666,4.087-1.281,9.996-1.57,14.184-.462,4.068-.491,10.141-.648,14.271-.092,4.113.246,10.145.308,14.298.015.116-.185.139-.187.013h0Z"/>
    <path class="uuid-6c1f0ce0-4e65-4af2-b446-9b6596c23ca2" d="M595.657,397.546c25.801-5.625,47.852-20.272,71.073-32.096.135-.08.289.128.16.232-10.035,8.571-21.669,14.992-33.711,20.262-11.993,5.327-24.478,9.838-37.472,11.879-.167.029-.228-.242-.05-.277h0Z"/>
    <path class="uuid-d64ecf84-4b9d-49a5-ace7-5e6968e42697" d="M701.946,232.36c-7.138-6.558-15.751-12.283-21.852-15.68-.18-9.941-1.979-17.8-3.098-21.777.043.032.086.064.129.097,9.307,7.011,23.373,17.607,24.734,26.043.216,3.543.247,7.36.087,11.317Z"/>
    <path class="uuid-d64ecf84-4b9d-49a5-ace7-5e6968e42697" d="M691.729,274.408c-2.665-1.035-10.456-3.866-19.408-6.788,3.752-9.096,5.22-16.268,6.022-20.18.074-.36.142-.691.205-.991.586.104,1.174.215,1.767.332.252.051.583.116.976.193,2.95.578,9.733,1.907,17.386,4.572-1.292,7.355-3.683,15.224-6.948,22.862Z"/>
    <path class="uuid-d64ecf84-4b9d-49a5-ace7-5e6968e42697" d="M701.199,214.553c-4.906-7.551-15.346-15.421-22.803-21.04-.872-.657-1.698-1.285-2.467-1.867-.901-.675-1.792-1.36-2.645-2.054-8.358-6.735-17.822-12.541-29.304-19.004,0,0,1.784.007,2.186-.375.742-.705-.038-3.217-5.675-5.666-2.795-1.219-6.529-2.457-11.087-3.677l-1.388-.356c-.872-.235-1.782-.469-2.748-.704l-1.238-.291c-33.478-18.901-62.781-39.922-54.255-88.389.122-.722.75-1.098,1.313-1.098.281,0,.553.094.788.263,2.767,2.092,7.345,5.544,12.982,9.83,2.129,2.889,4.071,5.253,5.769,7.026,2.514,2.626,7,5.677,7.288,3.358.016-.128-.094-.507-.094-.507,14.971,11.463,34.547,26.602,46.704,36.658.253.197.497.394.732.591l.047.038v.038l.375.291c.066.056.141.122.235.206l.103.084.113.113c.178.169.385.366.6.582l.197.197c.094.103.197.206.3.319,5.881,6.125,22.353,25.373,30.148,34.885v.047l.225.225c1.116,1.529,2.336,3.18,3.63,4.896,1.163,1.52,2.383,3.105,3.63,4.69l.094.113.009.009.131.197c3.414,5.056,5.938,9.774,8.048,14.689.572,1.351,1.126,2.72,1.651,4.109,2.12,5.562,3.912,11.538,6.041,18.629v.056l.038.094.328,2.795Z"/>
    <path class="uuid-d64ecf84-4b9d-49a5-ace7-5e6968e42697" d="M383.082,494.444c-2.123-8.457-5.15-31.436,2.643-55.068,7.061-21.434,22.875-39.404,48.345-54.936,6.983-4.261,25.697-12.734,43.691-17.385,19.579-5.062,37.959-8.895,55.734-12.602,53.803-11.22,96.387-20.102,121.112-53.482,2.579,1.949,11.121,8.391,16.56,12.285-21.156,35.225-71.348,45.296-124.466,55.953-38.44,7.712-78.188,15.687-108.921,33.798-33.944,20.002-51.861,49.936-54.697,91.437Z"/>
    <path class="uuid-6c1f0ce0-4e65-4af2-b446-9b6596c23ca2" d="M694.793,192.979c-4.324-4.23-8.545-8.527-12.776-12.86-5.881-5.759-12.016-11.266-18.582-16.237-.094-.066.009-.225.113-.159,6.894,4.559,13.357,9.765,19.492,15.299,3.527,3.095,6.969,6.341,10.102,9.849.572,1.351,1.126,2.72,1.651,4.109Z"/>
    <path class="uuid-6c1f0ce0-4e65-4af2-b446-9b6596c23ca2" d="M587.748,128.292c-.78-.893-2.447-2.745-3.161-3.627-1.508-2.031-3.193-4.482-4.436-6.715-4.976-9.471-8.522-20.15-8.08-30.962.066-2.155.284-4.312.76-6.434.03-.147.269-.144.281.015,2.098,12.517,2.841,25.29,8.291,36.741,1.695,3.861,4.024,7.388,6.555,10.796.117.124-.089.333-.211.186h0Z"/>
    <path class="uuid-6c1f0ce0-4e65-4af2-b446-9b6596c23ca2" d="M386.182,451.547c2.307-11.485,6.953-22.557,13.759-32.128,4.947-7.344,11.108-13.921,18.517-18.824,2.456-1.633,5.007-3.132,7.738-4.267.144-.064.275.155.136.246-9.006,7.289-17.359,15.145-24.576,24.175-5.3,6.786-9.552,14.528-12.6,22.584-1.003,2.361-1.874,5.825-2.7,8.275-.032.166-.321.119-.274-.063h0Z"/>
    <path class="uuid-6c1f0ce0-4e65-4af2-b446-9b6596c23ca2" d="M603.326,340.524c9.642-2.586,18.809-6.537,27.223-11.883,9.354-6.291,17.735-13.649,25.901-21.452.099-.117.315.022.228.164-6.062,10.668-16.131,18.388-26.806,24.079-8.239,4.548-17.263,7.647-26.487,9.368-.164.035-.241-.236-.059-.275h0Z"/>
    <path class="uuid-d64ecf84-4b9d-49a5-ace7-5e6968e42697" d="M625.096,612.167c-24.842,0-53.649-12.135-85.625-36.069-6.47-18.57-10.45-21.351-12.25-21.351-.219,0-.377.041-.471.076,0,0-.468.088-.558.206-1.257,1.646-.725,8.251-.725,8.251-5.529-5.788-11.528-12.415-17.072-18.861-2.902-12.042-4.028-25.152-3.349-39,6.391,4.899,13.57,9.773,21.358,14.501,22.255,22.46,45.212,39.187,68.268,49.746,0,0-6.667,1.716-7.861,3.507-.16.239.036,1.325.64,1.944,1.664,1.703,7.207,3.733,24.164,3.733,1.033,0,2.11-.007,3.234-.023,1.543-.027,3.162-.064,4.879-.118,11.056,2.918,22.138,4.396,32.942,4.396,10.419,0,18.219-1.355,22.88-2.165,1.181-.205,2.182-.379,2.94-.479-.387,1.703-2.539,6.323-7.224,11.715-6.487,7.467-21.111,19.991-46.171,19.991Z"/>
    <path class="uuid-6c1f0ce0-4e65-4af2-b446-9b6596c23ca2" d="M652.189,601.601c3.945-2.71,7.711-5.651,11.237-8.879,3.465-3.335,6.835-6.612,10.744-9.483.075-.064.195.034.142.122-2.422,4.28-6.014,7.628-9.92,10.509-3.797,2.977-7.835,5.661-12.108,7.893-.096.051-.196-.094-.096-.161h0Z"/>
    <path class="uuid-6c1f0ce0-4e65-4af2-b446-9b6596c23ca2" d="M544.552,572.071c9.358,7.539,19.551,13.981,30.405,19.118,10.923,4.981,22.032,9.293,33.248,13.627.081.019.142.107.107.19-.023.06-.082.095-.143.089-3.064-.288-6.03-.906-8.981-1.641-11.85-2.815-22.764-8.568-33.15-14.763-1.863-1.156-3.882-2.493-5.74-3.678-1.213-.845-4.307-3.081-5.537-3.969-1.974-1.587-5.175-4.031-7.02-5.744,0,0-3.375-3.018-3.375-3.018-.128-.111.047-.336.186-.211h0Z"/>
    <path class="uuid-d64ecf84-4b9d-49a5-ace7-5e6968e42697" d="M649.955,507.34c-34.173,0-72.516-6.807-110.883-19.685-5.229-2.689-9.192-5.008-11.651-6.517,11.198.991,22.532,1.493,33.723,1.493,13.525,0,27.098-.731,40.343-2.173,8.479.832,16.891,1.255,24.929,1.255,9.762,0,19.357-.627,28.56-1.864,0,0-1.876,1.704-1.99,2.493-.073.504.955,1.545,2.749,1.545,1.308,0,3.082-.369,5.274-1.098,1.616-.55,3.214-1.169,4.889-1.895,1.109-.484,2.319-1.042,3.598-1.657l.244-.116c.381-.182.768-.367,1.162-.573.241-.106.532-.256.834-.417.394-.197.83-.424,1.266-.652.479-.231.998-.503,1.528-.781.316-.167.637-.335.961-.5.287-.166.532-.305.786-.442,12.138-3.04,23.868-7.23,35.829-12.798,7.132,12.419-2.571,30.641-5.768,36.011l-.072.121c-14.034,5.321-34.004,8.249-56.312,8.249-.001,0,0,0,0,0Z"/>
    <path class="uuid-6c1f0ce0-4e65-4af2-b446-9b6596c23ca2" d="M623.729,502.065c1.724.098,5.809.325,7.456.419,3.561.08,8.853.158,12.43.033,16.465-.093,33.029-3.015,49.348-4.983,3.312-.415,6.534-.849,9.967-1.149.14-.019.194.207.053.248,0,0-.089.031-.089.031-12.594,4.352-26.002,6.351-39.283,6.905-8.265.517-16.719.551-24.997.164-2.779-.217-7.21-.468-9.957-.828,0,0-4.958-.56-4.958-.56-.168-.016-.158-.302.03-.28h0Z"/>
    <path class="uuid-d64ecf84-4b9d-49a5-ace7-5e6968e42697" d="M722.018,376.217c-4.737-6.421-10.378-12.497-16.415-17.679,3.254-5.089,6.339-10.639,9.185-16.521,6.67,4.192,12.941,8.276,17.592,15.098-.684,2.26-4.219,8.384-7.09,13.358-1.214,2.103-2.376,4.117-3.272,5.744Z"/>
    <path class="uuid-d64ecf84-4b9d-49a5-ace7-5e6968e42697" d="M736.909,335.801c-.356,6.21-1.745,12.466-3.724,19.032-4.99-6.697-11.65-10.881-18.104-14.933l-.206-.131c-2.411-1.51-4.906-3.077-7.26-4.746-.366-.253-1.022-.685-2.017-1.323,0,0,3.498-.458,4.184-1.313.453-.565-.347-2.364-3.283-3.33l-.028-.009-.103-.028c-2.336-.75-5.834-1.351-10.393-1.792l-.685-.066c-2.495-1.595-6.181-3.968-10.271-6.697l-.657-.441-.206-.141c-3.752-2.505-7.495-5.065-11.144-7.617l-.028-.019-.525-.375c-.563-.385-1.126-.779-1.688-1.182-5.853-4.155-11.031-7.992-15.834-11.725-1.182-.91-2.345-1.829-3.518-2.758l-.253-.206h-.009c-21.049-16.894-33.018-30.739-35.588-41.132.178-.066.582-.159,1.416-.159,3.94,0,12.935,2.017,26.724,5.984.516.61,1.013,1.182,1.482,1.717,5.215,5.938,8.855,8.949,10.825,8.949.535,0,1.256-.262,1.407-.75.5-1.619-2.101-6.444-2.101-6.444,4.024,1.238,8.433,2.626,13.695,4.324.066.019.122.038.178.056,10.59,3.433,19.623,6.529,21.678,7.288.788.319,1.642.666,2.533,1.069l.066.028.075.019c1.66.76,3.471,1.707,5.356,2.805l.178.385c.206.45.394.854.582,1.276l.919,1.923c.103.225.206.441.319.657l.235.478c.122.272.253.544.394.816.375.75.75,1.491,1.107,2.186.6,1.135,1.266,2.411,1.904,3.489.966,1.698,1.895,3.199,2.758,4.446,2.242,3.227,5.787,5.73,6.688,4.456.427-.603-.3-9.952-.3-9.952,2.129,1.717,4.108,3.414,5.9,5.065l.075.066c4.915,4.521,8.489,8.705,10.393,12.11,4.155,7.401,6.219,14.399,6.782,21.34.206,2.439.225,4.868.075,7.307Z"/>
    <path class="uuid-6c1f0ce0-4e65-4af2-b446-9b6596c23ca2" d="M654.841,291.199c-5.394-3.757-10.485-7.948-15.325-12.402-5.013-4.333-9.581-9.184-12.505-15.241-.063-.128.104-.274.221-.174,5.262,4.067,9.561,8.849,13.872,13.82,4.417,4.81,9.089,9.364,13.911,13.776.123.106-.03.325-.175.221h0Z"/>
    <path class="uuid-d64ecf84-4b9d-49a5-ace7-5e6968e42697" d="M529.041,655.879c-19.623-4.369-51.591-29.283-72.576-64.614,0,0,1.803-9.779,1.306-11.476-.194-.663-.883-.544-1.28-.511-1.216.102-2.841,1.115-4.827,3.318-13.854-26.857-25.506-67.773-4.391-112.366,12.819-27.091,38.274-36.58,45.77-38.843,15.63-4.715,33.78-5.24,52.995-5.795,37.958-1.097,85.153-2.461,137.253-37.067,4.095,5.051,9.148,8.86,14.484,12.882,1.158.872,2.323,1.751,3.487,2.649-15.339,14.984-40.531,26.09-74.904,33.019-29.108,5.868-60.083,7.905-86.547,9.124h-.025c-5.324.245-10.266.461-14.787.658-18.49.833-33.567,6.828-44.824,17.821l-.286.272c-2.851,2.822-5.416,5.942-7.626,9.275-4.213,6.32-7.378,13.617-9.405,21.686l-.028.122c-11.675,46.643,14.291,109.274,66.211,159.846Z"/>
    <path class="uuid-6c1f0ce0-4e65-4af2-b446-9b6596c23ca2" d="M442.392,542.417c-2.113-10.613-2.741-21.514-1.897-32.312.959-12.209,3.491-24.573,9.28-35.462.051-.095.211-.029.17.079-.441,1.371-.904,2.728-1.285,4.114-3.156,10.967-5.814,22.167-6.933,33.541-.394,4.274-.623,8.569-.52,12.862-.051,5.738.588,11.451,1.369,17.145.025.113-.163.155-.185.034h0Z"/>
    <path class="uuid-6c1f0ce0-4e65-4af2-b446-9b6596c23ca2" d="M497.005,628.383c3.102,3.645,6.415,7.089,9.989,10.263,3.674,3.103,7.281,6.117,10.538,9.711.071.068-.014.198-.107.154-4.507-1.968-8.206-5.197-11.474-8.786-3.352-3.471-6.438-7.21-9.097-11.231-.061-.09.074-.205.151-.112h0Z"/>
    <path class="uuid-6c1f0ce0-4e65-4af2-b446-9b6596c23ca2" d="M612.136,422.034c25.349-3.173,47.486-16.382,70.419-26.658.139-.073.282.14.15.239-10.042,7.897-21.621,13.534-33.558,17.926-11.892,4.441-24.276,7.985-36.987,8.774-.169.014-.204-.262-.024-.28h0Z"/>
    <path class="uuid-6c1f0ce0-4e65-4af2-b446-9b6596c23ca2" d="M473.367,465.568c12.728-15.705,33.397-23.934,53.362-24.027,2.854.092,5.989-.006,8.672.722-5.642.367-11.446.682-17.04,1.635-11.156,1.636-22.309,4.667-31.872,10.833-4.832,2.966-9.179,6.711-12.979,10.957-.071.091-.223-.03-.144-.121h0Z"/>
    <path class="uuid-e043d47e-0b05-4c7f-a03f-6c78d973d6f7" d="M717.436,258.705c-2.429-1.895-5.553-3.705-9.352-5.422-2.101-.957-4.427-1.885-6.923-2.776-6.022-2.148-13.057-4.071-20.355-5.562-.91-.178-1.81-.347-2.701-.507-.657-.113-1.313-.225-1.979-.338-2.898-.507-5.628-.976-8.47-1.782-18.535-5.347-45.259-15.308-68.944-32.662,1.154-.16,6.175-1.319,6.181-1.923s-9.605-3.827-13.226-3.827c-.122,0-.235.009-.338.009-23-19.023-36.142-41.395-39.059-66.477-.066-.544.084-1.06.431-1.454.347-.394.854-.619,1.37-.619.244,0,.497.056.732.15,7.804,3.227,23.347,20.458,28.459,26.124.6.666,1.088,1.201,1.426,1.576,2.617,2.833,5.328,5.581,8.076,8.151,2.504,8.348,4.746,12.588,6.679,12.588,0,0,.635.138.929-.244.796-1.035.61-5.187.61-5.187,20.392,16.546,43.336,26.583,71.392,36.479,1.576.563,3.808,1.604,6.275,2.955l.15.084c6.407,3.508,15.871,9.793,23.338,16.959l.084.084c1.876,1.801,3.508,3.555,4.925,5.262,1.679,2.036,3.039,4.005,4.062,5.881.066.122.122.235.188.356,1.238,2.354,3.996,7.945,6.041,12.119Z"/>
    <path class="uuid-6c1f0ce0-4e65-4af2-b446-9b6596c23ca2" d="M580.291,187.203c-4.17-3.997-8.006-8.614-11.209-13.428-5.345-8.125-10.303-17.01-10.958-26.921-.011-.147.211-.21.273-.067,4.88,9.44,8.137,19.455,13.711,28.499,2.451,4.141,5.317,8,8.386,11.724.118.121-.075.332-.204.194h0Z"/>
    <path class="uuid-e043d47e-0b05-4c7f-a03f-6c78d973d6f7" d="M581.957,639.179c-25.34,0-51.439-12.289-71.61-33.719-21.393-22.729-33.855-53.076-35.089-85.446-.729-19.167,4.095-34.282,14.34-44.923,14.816-15.391,36.674-17.053,45.383-17.053,1.657,0,3.282.056,4.831.166,7.663.547,15.388.824,22.959.824,75.371,0,129.681-27.278,150.526-43.839,5.031,6.03,8.452,13.02,10.44,21.326-1.03.79-2.133,1.602-3.345,2.463-1.013-.904-1.998-1.494-2.938-1.757-.377-.111-.776-.18-1.176-.202-.098-.009-.249-.011-.39-.011-.125,0-.26.008-.404.018-4.821.321-9.949,5.928-10.828,11.693-27.575,14.981-64.207,25.579-103.229,29.861l-.069.005c-13.201,1.44-26.732,2.17-40.214,2.17-11.856,0-23.873-.566-35.716-1.683l-.069-.007-.069.004c-.872.047-1.328.066-1.331.066l-2.824.118,2.335,1.594c.054.037,5.447,3.699,14.808,8.511,15.489,7.984,40.096,18.322,70.227,22.838,0,0-4.171,2.371-4.728,3.778-.319.807,1.218,2.299,7.148,2.299,3.355,0,7.831-.457,13.303-1.358.636-.1,1.292-.216,1.973-.336l.821-.144c.376-.074,1.958-.373,2.396-.46,12.192,1.801,24.599,2.714,36.88,2.714,22.795,0,39.213-3.129,45.393-4.308.475-.09.939-.179,1.338-.252-5.468,19.157-16.77,31.984-33.612,38.135-5.659-1.212-10.14-1.827-13.323-1.827-4.424,0-5.757,1.504-5.591,2.509.183,1.111,3.6,2.707,3.6,2.707-3.392.169-6.819.256-10.221.256-53.32.002-98.17-20.409-126.405-37.533-8.128-4.928-15.587-10.017-22.169-15.123-.264-.205-.446-.346-.544-.419l-1.391-1.029-.103,1.727c-.884,14.773.244,28.752,3.355,41.55,15.262,62.885,74.508,86.406,108.44,86.509-10.335,5.036-21.461,7.587-33.1,7.588h-.007Z"/>
    <path class="uuid-d64ecf84-4b9d-49a5-ace7-5e6968e42697" d="M708.996,498.113c4.02-7.258,11.936-24.517,4.398-36.661v-.023l-.15-.233c-1.05-1.625-2.333-3.082-3.814-4.327-1.369-1.157-2.286-2.547-2.724-4.133v-.104s-.061-.124-.061-.124l-.006-.022c-.24-.984-.301-2.015-.183-3.066.554-5.041,5.076-10.249,9.129-10.52.129-.008.219-.016.304-.016h.076c.061,0,.124,0,.179.005.287.016.544.06.795.134.814.229,1.721.843,2.705,1.827.303.311.616.66.928,1.034.269.324.539.664.803,1.024l.186.767.079.288c.06.215.117.423.18.631.212.784.431,1.519.641,2.187.347,1.076.687,2.013,1.041,2.872,1.043,2.478,2.056,3.679,3.101,3.679h.119l.058-.013c.622,1.762,1.001,3.3,1.051,4.315.826,15.964-3.762,34.572-18.834,40.479Z"/>
    <path class="uuid-6c1f0ce0-4e65-4af2-b446-9b6596c23ca2" d="M717.36,482.555c1.321-5.272,2.05-11.028.908-16.379-1.335-5.311-3.957-10.061-7.902-13.926,0,0,.094-.162.094-.162,6.892,2.977,9.774,11.057,9.54,18.113.057,4.118-1.136,8.527-2.461,12.412,0,0-.179-.057-.179-.057h0Z"/>
    <path class="uuid-6c1f0ce0-4e65-4af2-b446-9b6596c23ca2" d="M690.089,543.845c4.004-4.013,7.947-8.43,11.176-13.068,3.129-4.809,6.062-9.59,8.685-14.717.033-.096.198-.064.182.044-.697,5.889-3.982,11.092-7.666,15.572-2.721,3.417-5.738,6.558-8.968,9.479,0,0-3.286,2.829-3.286,2.829-.085.074-.213-.055-.125-.14h0Z"/>
    <path class="uuid-6c1f0ce0-4e65-4af2-b446-9b6596c23ca2" d="M552.348,629.818c15.35,7.328,32.676,4.951,49.072,3.937.104-.016.146.152.04.183-12.09,3.852-25.216,3.372-37.493.65-4.075-1.088-8.033-2.582-11.708-4.605-.101-.054-.02-.221.089-.165h0Z"/>
    <path class="uuid-6c1f0ce0-4e65-4af2-b446-9b6596c23ca2" d="M711.208,246.23c-4.953-1.67-9.39-4.306-13.855-6.96l-9.277-5.065c-3.086-1.717-6.219-3.33-9.352-4.971-.188-.094-.075-.422.15-.347,6.726,2.223,13.32,4.849,19.811,7.692,2.823,1.238,5.75,2.279,8.461,3.771,1.679,2.036,3.039,4.005,4.062,5.881Z"/>
    <path class="uuid-6c1f0ce0-4e65-4af2-b446-9b6596c23ca2" d="M539.633,477.402c12.111.084,24.208-.34,36.273-1.323,12.076-1.166,24.052-2.368,36.219-2.562.156-.011.202.24.043.278-11.744,3.246-24,4.301-36.134,4.532-12.138.435-24.309.311-36.414-.643-.168-.008-.167-.288.013-.281h0Z"/>
    <path class="uuid-6c1f0ce0-4e65-4af2-b446-9b6596c23ca2" d="M478.862,521.431c-.716-18.461,5.267-39.269,21.076-50.271,2.246-1.53,4.62-2.891,7.207-3.749.143-.049.26.158.128.249-4.311,3.13-8.103,6.756-11.501,10.677-11.058,12.112-16.031,26.818-16.628,43.095.001.168-.282.178-.282,0h0Z"/>
    <path class="uuid-6c1f0ce0-4e65-4af2-b446-9b6596c23ca2" d="M573.124,535.914c12.744,4.77,26.053,7.741,39.475,9.777,13.517,1.775,26.931,3.038,40.467,5,.076.011.129.082.118.158-.014.077-.079.124-.154.121-13.663,1.121-27.412-.348-40.808-3.06-13.423-2.557-26.703-6.2-39.206-11.737-.156-.065-.061-.329.109-.26h0Z"/>
    <path class="uuid-e043d47e-0b05-4c7f-a03f-6c78d973d6f7" d="M734.114,416.508c-.272,2.326-.797,4.653-1.632,6.951-.947,2.655-2.298,5.281-4.127,7.833-.9,1.266-1.923,2.523-3.058,3.724-2.167-8.452-5.834-15.58-11.162-21.743-3.668-4.23-7.739-7.589-10.872-10.037-1.454-1.135-2.908-2.242-4.362-3.33-5.469-4.118-10.637-8.02-14.671-13.217-6.266-8.058-8.677-18.188-7.589-31.902.347-4.418,2.261-6.866,5.534-7.082h.075c1.848.075,4.146.732,6.81,1.942.985.45,1.998.957,2.992,1.52,3.658,2.026,7.71,4.878,11.706,8.273,6.538,5.516,12.626,12.119,17.616,19.089,6.21,8.686,14.464,23.328,12.738,37.98Z"/>
    <path class="uuid-6c1f0ce0-4e65-4af2-b446-9b6596c23ca2" d="M698.911,394.993c-10.946-5.765-21.038-19.147-18.637-32.042,0,0,.281,0,.281,0,.897,3.133,1.756,6.129,2.802,9.058,1.477,4.402,3.046,8.846,5.733,12.701,2.26,3.171,4.949,6.216,8.077,8.569,0,0,1.891,1.474,1.891,1.474s-.146.24-.146.24h0Z"/>
    <path class="uuid-d64ecf84-4b9d-49a5-ace7-5e6968e42697" d="M665.478,115.769c-.415-.59-.82-1.18-1.208-1.78-.565-.87-1.124-1.789-1.661-2.732-.878-1.544-1.689-3.131-2.409-4.718-1.424-3.145-2.595-6.51-3.481-10.001-.176-.694-.343-1.399-.5-2.103-.447-2.037-.818-4.208-1.101-6.451-1.47-11.563,3.514-32.903,5.069-36.038.158-.321.308-.653.468-1.006.81-1.792,1.898-4.195,5.496-7.906-3.429,30.682-3.573,55.228-.432,73.072-.08-.112-.16-.224-.24-.337Z"/>
    <path class="uuid-6c1f0ce0-4e65-4af2-b446-9b6596c23ca2" d="M659.98,94.238c-1.639-5.887-1.928-12.072-1.676-18.16.171-6.115,1.07-12.24,3.506-17.905.038-.093.194-.059.181.047-.425,6.077-1.395,11.962-2.191,17.968-.585,5.977-.744,12.045.361,18.005.028.108-.152.162-.182.045h0Z"/>
    <path class="uuid-6c1f0ce0-4e65-4af2-b446-9b6596c23ca2" d="M736.909,335.801c-.713-1.416-1.473-2.683-2.383-3.883-1.051-1.398-2.054-2.927-3.18-4.277-1.182-1.435-2.608-2.673-4.062-3.818-2.974-2.439-6.257-4.399-9.624-6.313-.188-.094-.066-.413.15-.338,6.041,1.782,11.847,4.549,16.659,8.742.891.732,1.688,1.604,2.364,2.58.206,2.439.225,4.868.075,7.307Z"/>
    <path class="uuid-6c1f0ce0-4e65-4af2-b446-9b6596c23ca2" d="M732.482,423.458c.019-.854.038-1.707.038-2.589-.45-4.165-3.039-7.823-5.581-11.125-.131-.16.094-.403.263-.272,2.673,1.923,5.178,4.184,6.913,7.035-.272,2.326-.797,4.653-1.632,6.951Z"/>
  </g>
  <g>
    <path class="uuid-6c1f0ce0-4e65-4af2-b446-9b6596c23ca2" d="M64.545,305.272c6.375-4.472,12.421-9.392,18.082-14.73,5.585-5.441,10.956-10.976,16.652-16.332,0,0,.148.116.148.116-4.151,6.711-9.758,12.331-15.797,17.334-5.927,5.117-12.288,9.726-18.983,13.771,0,0-.101-.158-.101-.158h0Z"/>
    <path class="uuid-e043d47e-0b05-4c7f-a03f-6c78d973d6f7" d="M51.614,171.498c.919-1.173,1.81-2.336,2.664-3.461.403-.525.788-1.051,1.173-1.567.779-1.041,1.529-2.045,2.223-3.002.028-.038.056-.075.084-.113v-.084l.281-.281c7.748-9.465,24.435-28.975,30.373-35.157.103-.113.225-.235.338-.347l.178-.188c.253-.253.469-.46.657-.638l.263-.244c.056-.047.113-.094.159-.141l.009-.009.169-.15s.769-.647.976-.807c13.948-23.206,26.274-48.383,22.297-75.248-.694-4.793-3.855-14.173-8.001-14.173-.103,0-.206.009-.31.019-.113.009-.188.16-.188.281.038,10.759-3.368,23.225-9.577,35.119,0,1.801-.056,3.489-.178,5.009-.535,6.125-2.56,9.092-3.583,7.204-.354-.653-1.407-2.617-1.407-2.617l-.263-.497c-1.96,2.917-4.052,5.637-6.228,8.104-.272,2.129-.647,4.259-1.097,6.332-.169.722-.338,1.445-.516,2.157-.91,3.583-2.12,7.054-3.593,10.318-.788,1.735-1.604,3.33-2.486,4.868-.553.976-1.135,1.923-1.717,2.823-.403.619-.816,1.229-1.248,1.839-.844,1.201-1.698,2.317-2.589,3.414-1.454,6.444-5.131,13.432-9.024,20.815-5.562,10.571-11.312,21.471-9.84,30.42Z"/>
    <path class="uuid-6c1f0ce0-4e65-4af2-b446-9b6596c23ca2" d="M55.451,166.47c.779-1.041,1.529-2.045,2.223-3.002.835-2.589,1.548-5.206,2.326-7.842,1.491-4.521,3.424-8.892,5.975-12.926.066-.084-.075-.206-.15-.113-3.049,3.733-5.375,8.048-7.232,12.513-1.613,3.611-2.786,7.429-3.142,11.369Z"/>
    <path class="uuid-6c1f0ce0-4e65-4af2-b446-9b6596c23ca2" d="M96.393,110.107c4.074-9.566,7.34-19.553,9.363-29.748.384-1.899,1.009-5.753,1.243-7.676,1.014-7.5,2.18-15.638,2.848-23.193-.001-.157.256-.186.281-.023,2.022,10.453.582,21.225-2.177,31.39-1.973,7.658-4.541,15.135-7.839,22.312-1.059,2.4-2.307,4.715-3.465,7.061-.073.154-.336.045-.253-.122h0Z"/>
    <path class="uuid-e043d47e-0b05-4c7f-a03f-6c78d973d6f7" d="M24.955,297.995c.641-.464,1.694-1.47,3.217-3.653.829-1.199,1.729-2.652,2.674-4.316.576-.98,1.135-2.034,1.861-3.416.351-.682.724-1.41,1.096-2.165.135-.264.257-.52.381-.78l.246-.512c.091-.176.172-.343.253-.511-.22-.724-.517-1.615-.567-1.756-2.295-7.985-4.114-16.496-5.426-25.365-5.528,2.621-9.394,5.416-11.503,8.321-3.73,6.946-2.117,18.229.163,28.666,1.958-1.747,4.101-3.531,6.387-5.32l1.517-1.187v2.03s-.104,3.428-.104,3.428v.212s-.027,1.177-.027,1.177l-.141,4.118-.029,1.03Z"/>
    <path class="uuid-e043d47e-0b05-4c7f-a03f-6c78d973d6f7" d="M327.053,592.718c9.483-16.967,14.071-43.522,12.566-72.848-1.446-28.173-8.451-55.423-18.74-72.894-24.032-40.818-71.766-49.264-122.304-58.206-53.513-9.469-108.845-19.259-145.407-66.837-4.266,2.847-8.096,5.313-10.625,6.933l-.194.124-1.131.104c-3.796.37-6.813.846-8.992,1.42.298.564.589,1.103.836,1.562l.119.22,1.044,1.855c3.375,5.591,7.069,10.861,10.727,15.304.687-.505,1.358-.972,2.013-1.399l.198-.213.136-.002c2.561-1.636,4.592-2.431,6.202-2.431.103,0,.204.003.304.01h.015c.088,0,.172-.005.271-.01.191-.01.424-.021.688-.021,2.852,0,6.524,1.515,7.824,8.736.478,2.671.305,7.792.025,10.685,45.251,35.184,91.404,41.585,132.138,47.234,36.736,5.094,68.462,9.495,92.041,33.147,25.752,25.833,38.532,72.707,40.219,147.514l.027.013Z"/>
    <path class="uuid-6c1f0ce0-4e65-4af2-b446-9b6596c23ca2" d="M336.077,548.014c.064-4.191.398-10.179.308-14.298-.1-2.584-.225-8.231-.336-10.713-.202-2.229-.717-8.357-.911-10.672-.641-4.632-1.192-9.519-2.137-14.105-4.083-20.937-11.234-41.464-22.334-59.746-.064-.091.086-.201.152-.108,5.979,7.515,10.336,16.176,14.069,24.998,3.657,8.882,6.213,18.174,8.184,27.547,1.818,9.235,3.15,19.036,3.602,28.467.358,4.094.225,10.186.274,14.334-.016,4.121-.513,10.152-.683,14.309-.003.117-.201.112-.187-.013h0Z"/>
    <path class="uuid-6c1f0ce0-4e65-4af2-b446-9b6596c23ca2" d="M141.301,397.823c-12.994-2.041-25.478-6.552-37.472-11.879-12.042-5.27-23.676-11.691-33.711-20.262-.122-.099.016-.314.16-.232,11.679,5.952,22.942,12.374,34.515,18.459,5.834,2.896,11.786,5.549,17.859,7.917,6.091,2.316,12.321,4.262,18.698,5.719.167.027.129.309-.05.277h0Z"/>
    <path class="uuid-d64ecf84-4b9d-49a5-ace7-5e6968e42697" d="M35.062,232.36c7.138-6.558,15.751-12.283,21.852-15.68.18-9.941,1.979-17.8,3.098-21.777-.043.032-.086.064-.129.097-9.307,7.011-23.373,17.607-24.734,26.043-.216,3.543-.247,7.36-.087,11.317Z"/>
    <path class="uuid-d64ecf84-4b9d-49a5-ace7-5e6968e42697" d="M45.279,274.408c2.665-1.035,10.456-3.866,19.408-6.788-3.752-9.096-5.22-16.268-6.022-20.18-.074-.36-.142-.691-.205-.991-.586.104-1.174.215-1.767.332-.252.051-.583.116-.976.193-2.95.578-9.733,1.907-17.386,4.572,1.292,7.355,3.683,15.224,6.948,22.862Z"/>
    <path class="uuid-d64ecf84-4b9d-49a5-ace7-5e6968e42697" d="M35.809,214.553c4.906-7.551,15.346-15.421,22.803-21.04.872-.657,1.698-1.285,2.467-1.867.901-.675,1.792-1.36,2.645-2.054,8.358-6.735,17.822-12.541,29.304-19.004,0,0-1.784.007-2.186-.375-.742-.705.038-3.217,5.675-5.666,2.795-1.219,6.529-2.457,11.087-3.677l1.388-.356c.872-.235,1.782-.469,2.748-.704l1.238-.291c33.478-18.901,62.781-39.922,54.255-88.389-.122-.722-.75-1.098-1.313-1.098-.281,0-.553.094-.788.263-2.767,2.092-7.345,5.544-12.982,9.83-2.129,2.889-4.071,5.253-5.769,7.026-2.514,2.626-7,5.677-7.288,3.358-.016-.128.094-.507.094-.507-14.971,11.463-34.547,26.602-46.704,36.658-.253.197-.497.394-.732.591l-.047.038v.038l-.375.291c-.066.056-.141.122-.235.206l-.103.084-.113.113c-.178.169-.385.366-.6.582l-.197.197c-.094.103-.197.206-.3.319-5.881,6.125-22.353,25.373-30.148,34.885v.047l-.225.225c-1.116,1.529-2.336,3.18-3.63,4.896-1.163,1.52-2.383,3.105-3.63,4.69l-.094.113-.009.009-.131.197c-3.414,5.056-5.938,9.774-8.048,14.689-.572,1.351-1.126,2.72-1.651,4.109-2.12,5.562-3.912,11.538-6.041,18.629v.056l-.038.094-.328,2.795Z"/>
    <path class="uuid-d64ecf84-4b9d-49a5-ace7-5e6968e42697" d="M353.926,494.444c2.123-8.457,5.15-31.436-2.643-55.068-7.061-21.434-22.875-39.404-48.345-54.936-6.983-4.261-25.697-12.734-43.691-17.385-19.579-5.062-37.959-8.895-55.734-12.602-53.803-11.22-96.387-20.102-121.112-53.482-2.579,1.949-11.121,8.391-16.56,12.285,21.156,35.225,71.348,45.296,124.466,55.953,38.44,7.712,78.188,15.687,108.921,33.798,33.944,20.002,51.861,49.936,54.697,91.437Z"/>
    <path class="uuid-6c1f0ce0-4e65-4af2-b446-9b6596c23ca2" d="M42.215,192.979c4.324-4.23,8.545-8.527,12.776-12.86,5.881-5.759,12.016-11.266,18.582-16.237.094-.066-.009-.225-.113-.159-6.894,4.559-13.357,9.765-19.492,15.299-3.527,3.095-6.969,6.341-10.102,9.849-.572,1.351-1.126,2.72-1.651,4.109Z"/>
    <path class="uuid-6c1f0ce0-4e65-4af2-b446-9b6596c23ca2" d="M149.048,128.106c5.163-6.702,8.718-14.464,10.713-22.649,1.807-8.265,2.814-16.483,4.134-24.888.009-.149.254-.173.281-.015.476,2.122.694,4.279.76,6.434.341,6.505-.955,12.946-3.01,19.088-2.276,7.141-5.69,14.083-10.548,19.813,0,0-2.118,2.404-2.118,2.404-.114.126-.336-.042-.211-.186h0Z"/>
    <path class="uuid-6c1f0ce0-4e65-4af2-b446-9b6596c23ca2" d="M350.552,451.609c-.841-2.484-1.696-5.906-2.699-8.275,0,0-1.611-4.031-1.611-4.031-2.919-6.57-6.55-12.888-10.989-18.553-7.217-9.031-15.569-16.886-24.576-24.175-.133-.084-.013-.318.136-.246,2.731,1.135,5.282,2.634,7.738,4.267,7.409,4.903,13.57,11.48,18.517,18.824,3.368,4.804,6.307,9.982,8.584,15.383,2.403,5.364,3.926,11.058,5.175,16.745.038.165-.233.245-.274.063h0Z"/>
    <path class="uuid-6c1f0ce0-4e65-4af2-b446-9b6596c23ca2" d="M133.623,340.799c-9.908-1.807-19.499-5.349-28.273-10.321-9.96-5.627-19.31-13.033-25.02-23.125-.076-.134.119-.289.229-.164,3.841,3.739,7.741,7.288,11.802,10.643,5.039,4.187,10.113,8.485,15.793,11.831,7.912,4.9,16.541,8.415,25.529,10.861.165.031.122.318-.059.275h0Z"/>
    <path class="uuid-d64ecf84-4b9d-49a5-ace7-5e6968e42697" d="M111.912,612.167c24.842,0,53.649-12.135,85.625-36.069,6.47-18.57,10.45-21.351,12.25-21.351.219,0,.377.041.471.076,0,0,.468.088.558.206,1.257,1.646.725,8.251.725,8.251,5.529-5.788,11.528-12.415,17.072-18.861,2.902-12.042,4.028-25.152,3.349-39-6.391,4.899-13.57,9.773-21.358,14.501-22.255,22.46-45.212,39.187-68.268,49.746,0,0,6.667,1.716,7.861,3.507.16.239-.036,1.325-.64,1.944-1.664,1.703-7.207,3.733-24.164,3.733-1.033,0-2.11-.007-3.234-.023-1.543-.027-3.162-.064-4.879-.118-11.056,2.918-22.138,4.396-32.942,4.396-10.419,0-18.219-1.355-22.88-2.165-1.181-.205-2.182-.379-2.94-.479.387,1.703,2.539,6.323,7.224,11.715,6.487,7.467,21.111,19.991,46.171,19.991Z"/>
    <path class="uuid-6c1f0ce0-4e65-4af2-b446-9b6596c23ca2" d="M84.723,601.762c-4.273-2.231-8.311-4.916-12.108-7.893-3.906-2.881-7.499-6.229-9.92-10.509-.05-.085.063-.187.143-.122,3.909,2.87,7.279,6.147,10.744,9.483,3.526,3.228,7.293,6.169,11.238,8.879.092.058.011.219-.096.161h0Z"/>
    <path class="uuid-6c1f0ce0-4e65-4af2-b446-9b6596c23ca2" d="M192.642,572.282c-1.952,1.729-4.8,4.377-6.842,5.938,0,0-3.553,2.824-3.553,2.824-1.251.905-4.321,3.119-5.537,3.969-12.034,7.808-24.844,15.024-38.89,18.441-2.952.735-5.918,1.353-8.982,1.641-.077.007-.145-.049-.152-.126-.004-.078.045-.134.116-.153,15.32-6.072,30.919-11.545,45.145-19.948.977-.541,2.909-1.719,3.838-2.341,5.157-3.084,9.925-6.746,14.67-10.456.124-.116.33.091.186.211h0Z"/>
    <path class="uuid-d64ecf84-4b9d-49a5-ace7-5e6968e42697" d="M87.053,507.34c34.173,0,72.516-6.807,110.883-19.685,5.229-2.689,9.192-5.008,11.651-6.517-11.198.991-22.532,1.493-33.723,1.493-13.525,0-27.098-.731-40.343-2.173-8.479.832-16.891,1.255-24.929,1.255-9.762,0-19.357-.627-28.56-1.864,0,0,1.876,1.704,1.99,2.493.073.504-.955,1.545-2.749,1.545-1.308,0-3.082-.369-5.274-1.098-1.616-.55-3.214-1.169-4.889-1.895-1.109-.484-2.319-1.042-3.598-1.657l-.244-.116c-.381-.182-.768-.367-1.162-.573-.241-.106-.532-.256-.834-.417-.394-.197-.83-.424-1.266-.652-.479-.231-.998-.503-1.528-.781-.316-.167-.637-.335-.961-.5-.287-.166-.532-.305-.786-.442-12.138-3.04-23.868-7.23-35.829-12.798-7.132,12.419,2.571,30.641,5.768,36.011l.072.121c14.034,5.321,34.004,8.249,56.312,8.249.001,0,0,0,0,0Z"/>
    <path class="uuid-6c1f0ce0-4e65-4af2-b446-9b6596c23ca2" d="M113.309,502.345c-1.72.197-5.796.653-7.44.841-3.568.283-8.875.661-12.47.738-19.914.287-40.315-.698-59.285-7.26,0,0-.089-.031-.089-.031-.135-.041-.092-.268.053-.248,3.433.3,6.655.734,9.967,1.149,9.583,1.113,19.997,2.747,29.529,3.791,9.787,1.01,19.907,1.405,29.761,1.201,2.815.001,7.112-.32,9.944-.461.079-.008.15.052.154.132.004.075-.051.139-.125.148h0Z"/>
    <path class="uuid-d64ecf84-4b9d-49a5-ace7-5e6968e42697" d="M14.99,376.217c4.737-6.421,10.378-12.497,16.415-17.679-3.254-5.089-6.339-10.639-9.185-16.521-6.67,4.192-12.941,8.276-17.592,15.098.684,2.26,4.219,8.384,7.09,13.358,1.214,2.103,2.376,4.117,3.272,5.744Z"/>
    <path class="uuid-d64ecf84-4b9d-49a5-ace7-5e6968e42697" d="M.098,335.801c.356,6.21,1.745,12.466,3.724,19.032,4.99-6.697,11.65-10.881,18.104-14.933l.206-.131c2.411-1.51,4.906-3.077,7.26-4.746.366-.253,1.022-.685,2.017-1.323,0,0-3.498-.458-4.184-1.313-.453-.565.347-2.364,3.283-3.33l.028-.009.103-.028c2.336-.75,5.834-1.351,10.393-1.792l.685-.066c2.495-1.595,6.181-3.968,10.271-6.697l.657-.441.206-.141c3.752-2.505,7.495-5.065,11.144-7.617l.028-.019.525-.375c.563-.385,1.126-.779,1.688-1.182,5.853-4.155,11.031-7.992,15.834-11.725,1.182-.91,2.345-1.829,3.518-2.758l.253-.206h.009c21.049-16.894,33.018-30.739,35.588-41.132-.178-.066-.582-.159-1.416-.159-3.94,0-12.935,2.017-26.724,5.984-.516.61-1.013,1.182-1.482,1.717-5.215,5.938-8.855,8.949-10.825,8.949-.535,0-1.256-.262-1.407-.75-.5-1.619,2.101-6.444,2.101-6.444-4.024,1.238-8.433,2.626-13.695,4.324-.066.019-.122.038-.178.056-10.59,3.433-19.623,6.529-21.678,7.288-.788.319-1.642.666-2.533,1.069l-.066.028-.075.019c-1.66.76-3.471,1.707-5.356,2.805l-.178.385c-.206.45-.394.854-.582,1.276l-.919,1.923c-.103.225-.206.441-.319.657l-.235.478c-.122.272-.253.544-.394.816-.375.75-.75,1.491-1.107,2.186-.6,1.135-1.266,2.411-1.904,3.489-.966,1.698-1.895,3.199-2.758,4.446-2.242,3.227-5.787,5.73-6.688,4.456-.427-.603.3-9.952.3-9.952-2.129,1.717-4.108,3.414-5.9,5.065l-.075.066c-4.915,4.521-8.489,8.705-10.393,12.11-4.155,7.401-6.219,14.399-6.782,21.34-.206,2.439-.225,4.868-.075,7.307Z"/>
    <path class="uuid-6c1f0ce0-4e65-4af2-b446-9b6596c23ca2" d="M81.992,290.978c4.823-4.413,9.494-8.966,13.911-13.776,4.312-4.971,8.61-9.752,13.873-13.82.108-.092.292.037.221.174-2.924,6.057-7.492,10.907-12.505,15.24-4.84,4.454-9.931,8.645-15.325,12.402-.132.094-.309-.102-.175-.221h0Z"/>
    <path class="uuid-d64ecf84-4b9d-49a5-ace7-5e6968e42697" d="M207.967,655.879c19.623-4.369,51.591-29.283,72.576-64.614,0,0-1.803-9.779-1.306-11.476.194-.663.883-.544,1.28-.511,1.216.102,2.841,1.115,4.827,3.318,13.854-26.857,25.506-67.773,4.391-112.366-12.819-27.091-38.274-36.58-45.77-38.843-15.63-4.715-33.78-5.24-52.995-5.795-37.958-1.097-85.153-2.461-137.253-37.067-4.095,5.051-9.148,8.86-14.484,12.882-1.158.872-2.323,1.751-3.487,2.649,15.339,14.984,40.531,26.09,74.904,33.019,29.108,5.868,60.083,7.905,86.547,9.124h.025c5.324.245,10.266.461,14.787.658,18.49.833,33.567,6.828,44.824,17.821l.286.272c2.851,2.822,5.416,5.942,7.626,9.275,4.213,6.32,7.378,13.617,9.405,21.686l.028.122c11.675,46.643-14.291,109.274-66.211,159.846Z"/>
    <path class="uuid-6c1f0ce0-4e65-4af2-b446-9b6596c23ca2" d="M294.431,542.383c1.617-10.651,1.808-21.445.658-32.144-1.346-10.631-3.736-21.124-6.742-31.405-.381-1.386-.844-2.743-1.285-4.114-.042-.099.117-.18.17-.079,5.788,10.89,8.321,23.253,9.28,35.462.843,10.798.216,21.7-1.898,32.312-.018.114-.206.087-.184-.034h0Z"/>
    <path class="uuid-6c1f0ce0-4e65-4af2-b446-9b6596c23ca2" d="M240.154,628.495c-2.66,4.021-5.746,7.761-9.097,11.231-3.268,3.588-6.968,6.818-11.475,8.786-.09.041-.179-.082-.107-.154,3.257-3.593,6.864-6.608,10.538-9.711,3.574-3.175,6.887-6.619,9.989-10.264.067-.085.219.012.151.112h0Z"/>
    <path class="uuid-6c1f0ce0-4e65-4af2-b446-9b6596c23ca2" d="M124.849,422.315c-12.711-.79-25.094-4.334-36.987-8.774-11.938-4.392-23.517-10.029-33.558-17.926-.126-.095.003-.314.15-.238,11.559,5.202,22.742,10.846,34.251,16.077,5.795,2.456,11.696,4.662,17.714,6.526,6.031,1.813,12.184,3.216,18.454,4.056.169.011.157.296-.024.28h0Z"/>
    <path class="uuid-6c1f0ce0-4e65-4af2-b446-9b6596c23ca2" d="M263.497,465.688c-11.323-13.027-28.08-19.559-44.851-21.79-5.585-.872-11.237-1.403-16.945-1.556-.109.007-.129-.171-.017-.187,2.841-.465,5.719-.606,8.595-.614,19.192-.111,42,8.799,53.218,24.148h0Z"/>
    <path class="uuid-e043d47e-0b05-4c7f-a03f-6c78d973d6f7" d="M19.572,258.705c2.429-1.895,5.553-3.705,9.352-5.422,2.101-.957,4.427-1.885,6.923-2.776,6.022-2.148,13.057-4.071,20.355-5.562.91-.178,1.81-.347,2.701-.507.657-.113,1.313-.225,1.979-.338,2.898-.507,5.628-.976,8.47-1.782,18.535-5.347,45.259-15.308,68.944-32.662-1.154-.16-6.175-1.319-6.181-1.923s9.605-3.827,13.226-3.827c.122,0,.235.009.338.009,23-19.023,36.142-41.395,39.059-66.477.066-.544-.084-1.06-.431-1.454-.347-.394-.854-.619-1.37-.619-.244,0-.497.056-.732.15-7.804,3.227-23.347,20.458-28.459,26.124-.6.666-1.088,1.201-1.426,1.576-2.617,2.833-5.328,5.581-8.076,8.151-2.504,8.348-4.746,12.588-6.679,12.588,0,0-.635.138-.929-.244-.796-1.035-.61-5.187-.61-5.187-20.392,16.546-43.336,26.583-71.392,36.479-1.576.563-3.808,1.604-6.275,2.955l-.15.084c-6.407,3.508-15.871,9.793-23.338,16.959l-.084.084c-1.876,1.801-3.508,3.555-4.925,5.262-1.679,2.036-3.039,4.005-4.062,5.881-.066.122-.122.235-.188.356-1.238,2.354-3.996,7.945-6.041,12.119Z"/>
    <path class="uuid-6c1f0ce0-4e65-4af2-b446-9b6596c23ca2" d="M156.514,187.009c4.934-5.914,9.155-12.364,12.53-19.278,3.232-7.017,6.07-13.999,9.567-20.945.056-.136.287-.088.273.067-.766,10.892-6.541,20.564-12.634,29.323-1.521,2.208-3.686,4.837-5.485,6.837-1.246,1.493-2.701,2.802-4.047,4.19-.118.122-.333-.057-.204-.194h0Z"/>
    <path class="uuid-e043d47e-0b05-4c7f-a03f-6c78d973d6f7" d="M155.05,639.179c25.34,0,51.439-12.289,71.61-33.719,21.393-22.729,33.855-53.076,35.089-85.446.729-19.167-4.095-34.282-14.34-44.923-14.816-15.391-36.674-17.053-45.383-17.053-1.657,0-3.282.056-4.831.166-7.663.547-15.388.824-22.959.824-75.371,0-129.681-27.278-150.526-43.839-5.031,6.03-8.452,13.02-10.44,21.326,1.03.79,2.133,1.602,3.345,2.463,1.013-.904,1.998-1.494,2.938-1.757.377-.111.776-.18,1.176-.202.098-.009.249-.011.39-.011.125,0,.26.008.404.018,4.821.321,9.949,5.928,10.828,11.693,27.575,14.981,64.207,25.579,103.229,29.861l.069.005c13.201,1.44,26.732,2.17,40.214,2.17,11.856,0,23.873-.566,35.716-1.683l.069-.007.069.004c.872.047,1.328.066,1.331.066l2.824.118-2.335,1.594c-.054.037-5.447,3.699-14.808,8.511-15.489,7.984-40.096,18.322-70.227,22.838,0,0,4.171,2.371,4.728,3.778.319.807-1.218,2.299-7.148,2.299-3.355,0-7.831-.457-13.303-1.358-.636-.1-1.292-.216-1.973-.336l-.821-.144c-.376-.074-1.958-.373-2.396-.46-12.192,1.801-24.599,2.714-36.88,2.714-22.795,0-39.213-3.129-45.393-4.308-.475-.09-.939-.179-1.338-.252,5.468,19.157,16.77,31.984,33.612,38.135,5.659-1.212,10.14-1.827,13.323-1.827,4.424,0,5.757,1.504,5.591,2.509-.183,1.111-3.6,2.707-3.6,2.707,3.392.169,6.819.256,10.221.256,53.32.002,98.17-20.409,126.405-37.533,8.128-4.928,15.587-10.017,22.169-15.123.264-.205.446-.346.544-.419l1.391-1.029.103,1.727c.884,14.773-.244,28.752-3.355,41.55-15.262,62.885-74.508,86.406-108.44,86.509,10.335,5.036,21.461,7.587,33.1,7.588h.007Z"/>
    <path class="uuid-d64ecf84-4b9d-49a5-ace7-5e6968e42697" d="M28.012,498.113c-4.02-7.258-11.936-24.517-4.398-36.661v-.023l.15-.233c1.05-1.625,2.333-3.082,3.814-4.327,1.369-1.157,2.286-2.547,2.724-4.133v-.104s.061-.124.061-.124l.006-.022c.24-.984.301-2.015.183-3.066-.554-5.041-5.076-10.249-9.129-10.52-.129-.008-.219-.016-.304-.016h-.076c-.061,0-.124,0-.179.005-.287.016-.544.06-.795.134-.814.229-1.721.843-2.705,1.827-.303.311-.616.66-.928,1.034-.269.324-.539.664-.803,1.024l-.186.767-.079.288c-.06.215-.117.423-.18.631-.212.784-.431,1.519-.641,2.187-.347,1.076-.687,2.013-1.041,2.872-1.043,2.478-2.056,3.679-3.101,3.679h-.119l-.058-.013c-.622,1.762-1.001,3.3-1.051,4.315-.826,15.964,3.762,34.572,18.834,40.479Z"/>
    <path class="uuid-6c1f0ce0-4e65-4af2-b446-9b6596c23ca2" d="M19.469,482.612c-1.326-3.895-2.517-8.287-2.461-12.412-.235-7.054,2.649-15.137,9.54-18.113,0,0,.094.162.094.162-3.944,3.865-6.567,8.616-7.902,13.926-.562,2.665-.663,5.465-.481,8.172.122,2.421.81,5.822,1.39,8.207,0,0-.179.057-.179.057h0Z"/>
    <path class="uuid-6c1f0ce0-4e65-4af2-b446-9b6596c23ca2" d="M46.793,543.984c-4.413-3.674-8.697-7.8-12.253-12.309-3.683-4.479-6.969-9.683-7.666-15.572-.011-.102.145-.146.182-.044,4.625,8.893,9.897,17.417,16.845,24.692,0,0,3.017,3.092,3.017,3.092.085.075-.033.219-.125.14h0Z"/>
    <path class="uuid-6c1f0ce0-4e65-4af2-b446-9b6596c23ca2" d="M184.749,629.983c-13.534,7.49-34.55,8.658-49.2,3.955-.101-.031-.07-.197.04-.184,12.425.738,24.925,2.317,37.248-.082,4.063-.83,8.049-2.063,11.824-3.855.099-.057.197.108.089.165h0Z"/>
    <path class="uuid-6c1f0ce0-4e65-4af2-b446-9b6596c23ca2" d="M25.8,246.23c4.953-1.67,9.39-4.306,13.855-6.96l9.277-5.065c3.086-1.717,6.219-3.33,9.352-4.971.188-.094.075-.422-.15-.347-6.726,2.223-13.32,4.849-19.811,7.692-2.823,1.238-5.75,2.279-8.461,3.771-1.679,2.036-3.039,4.005-4.062,5.881Z"/>
    <path class="uuid-6c1f0ce0-4e65-4af2-b446-9b6596c23ca2" d="M197.388,477.683c-12.106.954-24.276,1.078-36.414.643-12.134-.231-24.391-1.286-36.134-4.532-.152-.037-.12-.289.043-.278,12.167.195,24.143,1.397,36.219,2.563,6.026.498,12.066.839,18.112,1.048,6.047.293,12.099.28,18.162.275.168-.009.194.272.013.281h0Z"/>
    <path class="uuid-6c1f0ce0-4e65-4af2-b446-9b6596c23ca2" d="M257.865,521.431c-.6-16.286-5.569-30.977-16.629-43.094-3.397-3.921-7.19-7.547-11.501-10.677-.127-.081-.02-.308.128-.249,2.587.858,4.961,2.219,7.207,3.749,11.366,7.722,17.568,21.124,20.031,34.271.912,5.3,1.266,10.67,1.045,16.001-.004.168-.278.178-.281,0h0Z"/>
    <path class="uuid-6c1f0ce0-4e65-4af2-b446-9b6596c23ca2" d="M163.992,536.173c-12.503,5.536-25.783,9.18-39.206,11.737-13.396,2.711-27.146,4.18-40.808,3.059-.082.003-.166-.063-.155-.152.005-.066.056-.118.119-.127,13.536-1.962,26.95-3.224,40.467-4.999,6.712-.992,13.373-2.301,19.979-3.861,6.605-1.574,13.114-3.54,19.495-5.917.154-.069.279.19.109.26h0Z"/>
    <path class="uuid-e043d47e-0b05-4c7f-a03f-6c78d973d6f7" d="M2.894,416.508c.272,2.326.797,4.653,1.632,6.951.947,2.655,2.298,5.281,4.127,7.833.9,1.266,1.923,2.523,3.058,3.724,2.167-8.452,5.834-15.58,11.162-21.743,3.668-4.23,7.739-7.589,10.872-10.037,1.454-1.135,2.908-2.242,4.362-3.33,5.469-4.118,10.637-8.02,14.671-13.217,6.266-8.058,8.677-18.188,7.589-31.902-.347-4.418-2.261-6.866-5.534-7.082h-.075c-1.848.075-4.146.732-6.81,1.942-.985.45-1.998.957-2.992,1.52-3.658,2.026-7.71,4.878-11.706,8.273-6.538,5.516-12.626,12.119-17.616,19.089-6.21,8.686-14.464,23.328-12.738,37.98Z"/>
    <path class="uuid-6c1f0ce0-4e65-4af2-b446-9b6596c23ca2" d="M37.951,394.752c1.106-.917,2.719-2.002,3.728-2.986,2.337-2.066,4.45-4.525,6.239-7.056,2.687-3.854,4.257-8.298,5.733-12.701,1.046-2.929,1.904-5.926,2.802-9.058,0,0,.281,0,.281,0,1.648,8.329-2.222,16.504-7.352,22.855-3.098,3.787-7.014,6.884-11.285,9.187,0,0-.146-.24-.146-.24h0Z"/>
    <path class="uuid-d64ecf84-4b9d-49a5-ace7-5e6968e42697" d="M71.53,115.769c.415-.59.82-1.18,1.208-1.78.565-.87,1.124-1.789,1.661-2.732.878-1.544,1.689-3.131,2.409-4.718,1.424-3.145,2.595-6.51,3.481-10.001.176-.694.343-1.399.5-2.103.447-2.037.818-4.208,1.101-6.451,1.47-11.563-3.514-32.903-5.069-36.038-.158-.321-.308-.653-.468-1.006-.81-1.792-1.898-4.195-5.496-7.906,3.429,30.682,3.573,55.228.432,73.072.08-.112.16-.224.24-.337Z"/>
    <path class="uuid-6c1f0ce0-4e65-4af2-b446-9b6596c23ca2" d="M76.846,94.194c2.359-12.058-.97-23.955-1.829-35.973-.013-.1.142-.147.182-.047,2.436,5.665,3.335,11.789,3.506,17.905.253,6.088-.037,12.273-1.676,18.16-.029.108-.207.074-.182-.045h0Z"/>
    <path class="uuid-6c1f0ce0-4e65-4af2-b446-9b6596c23ca2" d="M.098,335.801c.713-1.416,1.473-2.683,2.383-3.883,1.051-1.398,2.054-2.927,3.18-4.277,1.182-1.435,2.608-2.673,4.062-3.818,2.974-2.439,6.257-4.399,9.624-6.313.188-.094.066-.413-.15-.338-6.041,1.782-11.847,4.549-16.659,8.742-.891.732-1.688,1.604-2.364,2.58-.206,2.439-.225,4.868-.075,7.307Z"/>
    <path class="uuid-6c1f0ce0-4e65-4af2-b446-9b6596c23ca2" d="M4.526,423.458c-.019-.854-.038-1.707-.038-2.589.45-4.165,3.039-7.823,5.581-11.125.131-.16-.094-.403-.263-.272-2.673,1.923-5.178,4.184-6.913,7.035.272,2.326.797,4.653,1.632,6.951Z"/>
  </g>
  <g>
    <path class="uuid-edc02e36-086c-42e9-8f3b-868abc140864" d="M479.765,311.607c-17.017,1.175-17.97,2.127-19.144,19.144-1.175-17.017-2.127-17.969-19.144-19.144,17.017-1.175,17.97-2.127,19.144-19.144,1.175,17.017,2.127,17.969,19.144,19.144Z"/>
    <path class="uuid-edc02e36-086c-42e9-8f3b-868abc140864" d="M257.243,311.607c17.017,1.175,17.97,2.127,19.144,19.144,1.175-17.017,2.127-17.969,19.144-19.144-17.017-1.175-17.97-2.127-19.144-19.144-1.175,17.017-2.127,17.969-19.144,19.144Z"/>
    <path class="uuid-edc02e36-086c-42e9-8f3b-868abc140864" d="M428.133,284.008c-53.004,3.659-55.97,6.625-59.629,59.629-3.659-53.003-6.625-55.969-59.629-59.629,53.004-3.659,55.97-6.625,59.629-59.629,3.659,53.003,6.625,55.969,59.629,59.629Z"/>
    <path class="uuid-edc02e36-086c-42e9-8f3b-868abc140864" d="M531.291,178.177c-17.017,1.175-17.97,2.127-19.144,19.144-1.175-17.017-2.127-17.969-19.144-19.144,17.017-1.175,17.97-2.127,19.144-19.144,1.175,17.017,2.127,17.969,19.144,19.144Z"/>
    <path class="uuid-edc02e36-086c-42e9-8f3b-868abc140864" d="M244.01,178.177c-17.017,1.175-17.97,2.127-19.144,19.144-1.175-17.017-2.127-17.969-19.144-19.144,17.017-1.175,17.97-2.127,19.144-19.144,1.175,17.017,2.127,17.969,19.144,19.144Z"/>
  </g>
</svg>