<?xml version="1.0" encoding="UTF-8"?>
<svg id="Layer_2" data-name="Layer 2" xmlns="http://www.w3.org/2000/svg" viewBox="0 0 762.58 698.06">
  <defs>
    <style>
      .cls-1 {
        fill: #bb7b9c;
      }

      .cls-1, .cls-2, .cls-3, .cls-4 {
        stroke-width: 0px;
      }

      .cls-3 {
        fill: #5b407d;
      }

      .cls-4 {
        fill: #fff;
      }
    </style>
  </defs>
  <g id="Layer_1-2" data-name="Layer 1">
    <g id="mantelbrodyr">
      <g>
        <path class="cls-3" d="M370.72,477.82c-75.3,6.3-120.02-16-166.23-83.64-12.96-22.6-31.22-57.38-36.55-91.51-1.37,33.43,1.12,44.46,8,71.97-43.3-89.22-22.86-166.11,18.73-213.35-9.55,21.59-7.82,19.57-10.46,28.86,30.09-41.01,34.16-51.35,71.9-83.42,40.6-28.33,89.94-53.66,160.16-58.55-47.16,6.67-67.52,17.27-93.64,29.25-74.21,35-100.14,88.53-121.92,125.11-20.89,39.79-22.42,97.07,5.07,155.43,1.26,2.67,3.23,4.98,6.85,10.44-3.22-14.37-4.67-17.75-7.84-29.71-2.33-7.53-4.92-23.27-3.67-23.7,1.81,4.45,10.68,28.44,12.59,32.84,23.4,53.94,52.27,95.65,109.37,107.36,10.79,2.21,52.69,4.6,66.41,1.27,36.61-5.61,78.1-29.63,83.88-58.07-15.33,11.78-45.39,23.21-58.08,27.69-42.58,14.26-99.11-1.38-124.87-21.7,0,0-13.45-12.7-19.01-19.92-3.92-5.1-14.42-19.07-18.43-42.49-1.87-51.12,23.4-82.03,33.61-91.92,14.1-13.66,37.91-35.33,79.75-46.33,28.08-7.74,49.19-8.04,76.65-6.67,15.89,1.44,31.33,2.33,38.85,6.13-9.14-2.03-27.25-2.79-32.85-.65,93.56,11.56,140.12,38.77,170.81,70.57-45.8-39.8-235.17-106.54-312.97-11.88,70.98-37.67,176.24-30.39,224.5,23.09-23.38-17.93-56.72-35.07-87.99-32.15,59.77,14.3,101.95,62.04,132.28,114.29,1.37-4.72,2.41-8.32,3.58-12.33,81.53,107.21,42.9,260.88-139.67,343.92,12.08-7.34,19.71-11.89,31.49-19.74,61.99-41.26,115.53-91.62,129.44-170.11,3.48-19.63,6.33-68.19-4-86-3.9-6.27-6.47-9.74-8.91-12.8-3.49-4.38-6.7-7.89-13.09-17.54-20.56-72.62-89.67-114.67-155.67-128-38.64-2.61-42.17.67-65.13,6.38-19.79,8.49-2.59,46.51,4.33,67.39,6.04,18.24,26.18,31.45,45.84,30.09,15.36-1.07,17.83-3.55,22.81-26.14-10.79,17-23.33,19.15-36.53,11.59-16.58-9.49-16.83-25.51-12.81-42.43,0,0-.43.99-.43.99,28.58-26.39,45.95-25.87,83.67,2.49l-.65-.64c43,66.38,25.48,111.2-27.09,149.03-5.06,3.73-7.35,6.05-15.39,9.64,9.08-8.58,12.56-10.27,14.55-18.64-11.86,8.49-24.78,16.49-48.88,22.18l-12.33,2.02ZM346.6,404.4c-44-25.14-57.74-60.87-49.11-107.46-19.17,48.1,1.88,97.71,49.11,107.46Z"/>
        <path class="cls-3" d="M366.26,620.17c-2.5,0-8.88.97-18.88,1.35,6-2.92,16.62-4.88,24.01-15.11C240.28,631.8,78.94,568.86,0,384.85c3.09,3.11,25.46,42.8,28.18,46.23,84.53,124.19,205.42,187.88,332.31,158,16.05-3.78,27.98,5.33,59.33-5.55,64-22.33,97.8-64.29,109-124.22.92-4.94,2-12.33,3.44-29.33,6.22,86-46.49,148-105.78,173.28-5.65,3.18-15.85,6.24-21.82,8.34,0,0-18.46,5.53-38.41,8.58Z"/>
        <path class="cls-3" d="M110.77,91.58C0,262.69,55.83,450.37,171.71,540.96c-51.89-25.28-97.97-91.76-106.46-109.58-14.11-29.6-26.78-49.92-36.93-98.33-2.42-11.55,28.37,77.6,17.39,14.09-14.17-63.57,7.04-184.16,65.07-255.56Z"/>
        <path class="cls-1" d="M462.91,319.68c-2.54-5.69-5.08-11.38-7.58-16.97,24.75,11.41,54.16,49.71,58.49,101.69,0,79-19.14,96.44-41.67,122.49-16.41,13.1-21.53,19.47-41.67,31.13-9.63,4.6-28.46,11.03-36.18,12.17-1.54.23-2.71.22-2.71.22,50-17.83,68.67-44,78.44-56.89,0,0,3.78-7,3.78-7,1.9-6.23,4.42-8.95-10-.89-12.41,6.99-17.44,10.56-17.44,10.56-5.48,3.74-19.32,15.14-20.26,14.23,13.56-14.44,47.24-37.32,57.44-49.2,23.93-29.48,33.37-112.81-5.46-140.57-3.67-8-10.46-14.43-15.83-21.6-.02-.02.63.63.63.63Z"/>
        <path class="cls-1" d="M243.94,275.41c-11.22,38.78,1.94,76.75-.78,69-1.68-4.8-3.95-11.01-4.42-13.17-.49-2.27-3.48-15.68-3.36-29.82.2-25.13,3.78-58.3,38.44-96.15,37.96-41.46,77.06-47.5,126.23-51.77l-18.78,7.44c62.2-10.41,144.69,1.68,182.11,22.17-86.98-29.6-222.31-28-280.65,48.5,0-3.48,2.44-13.13,5.78-18.8l-6.01,3.63c-28.61,20.03-38.53,58.88-38.56,58.97Z"/>
        <path class="cls-1" d="M137.5,221.84C185.35,32.84,327.79-8.49,499.54,8.08,354.94.96,204.23,37.9,137.5,221.84Z"/>
        <path class="cls-3" d="M272.22,132.18c151.66-112.12,318.07-95.78,454.63,13.65-141.43-100.47-293.55-108.15-454.63-13.65Z"/>
        <path class="cls-1" d="M426.83,490.24c15-7.33,15.75-8.5,7.22-.33-21.47,20.55-57.39,31.54-78.05,35.67-26.86,3.36-69.07.21-87.25-8.81-46.21-23.13-81.18-58.4-103.54-107.35,40.8,57.08,92.72,107.51,161.75,104.16-27.95-6.57-43.46-15.16-50.1-18.31-8.25-4.38-28.34-17.01-28.7-20.9,7,4.83,18.76,11,22.09,12.54,50.72,26.22,83.28,24.21,115.59,17.95,8.61-1.67,23.63-6.99,29.35-9.33,0,0,11.39-5.19,11.66-5.28Z"/>
        <path class="cls-1" d="M365.34,142.57c118.21-33.4,247.81-30.4,374.98,149.95-103.33-119.39-200.67-184.99-374.98-149.95Z"/>
        <path class="cls-1" d="M159.24,112.44c-76.19,133.91-63.01,259.95,28.36,382.38-116.96-107.53-127.07-260.7-28.36-382.38Z"/>
        <path class="cls-1" d="M405.16,628.95c10.55-3.83,28.22-8.98,54.01-22.09-95.37,72.87-258.76,57.04-367.27-51.82,11.05,10.6,31.47,24.52,43.59,32.03,70.08,42.36,139.18,62.37,229.85,50.94,12.83-2.05,39.82-9.06,39.82-9.06Z"/>
        <path class="cls-1" d="M439.82,640.18c88.83-46.92,127.43-94.58,113.01-230.77,34.22,90.77,11.7,191.17-113.01,230.77Z"/>
        <path class="cls-1" d="M381.82,326.22s.43-.98.43-.99c-2.34,5.99-4.68,11.99-6.81,17.43-7.55-19.41-14.14-48.76-3.68-60.73,2.87-2.41,13.33-29.67,113.45,15.93,34.52,20.48,55.9,52.24,66.79,92.35-5.96-10.28-11.18-21.15-18.07-30.69-10.53-16.56-9.5-18.2-19.8-26.53-25.08-20.3-53.68-38.87-86.76-37.44-20.51.88-37.52,8.76-45.55,30.68Z"/>
        <path class="cls-1" d="M416.27,530.38c-86.45,66.92-230.45,30.36-288.95-63.61,17.83,20.31,31.08,40.22,90.06,68.31,70,28.44,152.22,22.63,198.89-4.7Z"/>
        <path class="cls-3" d="M744.11,389.04c-18.32-45.91-42.58-85.69-83.34-123.95,1.19,6.85,1.81,10.43,3.07,17.63-30.53-46.7-76.75-73.56-148.67-86.2.73-1.79,22.67,1.56,29.95,2.73,25.31,4.78,45.09,9.92,71.75,24.78,4,1.33-.37-5.09-2.41-11.49,35.5,18.33,108,86.62,129.66,176.51Z"/>
        <path class="cls-3" d="M669.83,344.64c11.11,15.33,12.99,16.13,17.75,25.27,7.05,13.54,3.8,4.91,19.74,39.66,1.15-3.15-1.3-8.06-.38-12.7,23.24,40.67,19.61,140.75-5.29,203.53,26.19-100.06,19.63-187.1-71.82-299.58-3.24-5.6,37.24,40.13,40,43.82Z"/>
        <path class="cls-1" d="M509.94,242.35c134.03,62.52,203.36,225.84,155.41,335.19,4.39-19.35,13.17-70.57,1.24-45.14-18.95,46.21-38.21,75.36-59.12,95.71-18.83,18.33-44.83,35.92-56.58,42.03,30.58-22.04,40.08-32.7,40.08-32.7,0,0,13.36-14.76,19.52-22.73,12.93-16.71,15.7-21.77,15.7-21.77,0,0,13.48-20.59,25.52-66.36,14.83-56.2,4.26-156.64-92.18-247.86-17.2-15.97-25.89-21.78-49.58-36.37Z"/>
        <path class="cls-1" d="M437.5,108.55c11.92,1.7,23.85,3.4,35.77,5.11-118.37-10.61-268.12,59.09-251.63,198.18-11.16-40.19.65-101.66,35.32-137.66,82.33-82.75,197.51-89.11,288.03-75.11,70.72,18.83,86.57,29.84,125.99,47.85-72.44-29.28-152.66-60.25-233.48-38.38Z"/>
        <path class="cls-1" d="M275.54,675.74c101.92,11.75,126.53-6.44,150.6-14.41,5.09-1.68,48.52-16.31,47.75-15.75-31.05,22.27-70.4,58.16-198.36,30.16Z"/>
      </g>
    </g>
  </g>
</svg>