<?xml version="1.0" encoding="UTF-8" standalone="no"?>
<!-- Created with Inkscape (http://www.inkscape.org/) -->

<svg
   version="1.1"
   id="svg2"
   width="3000"
   height="2000"
   viewBox="90 80 2800 1790"
   sodipodi:docname="set_of_black_blobs_flat.eps"
   xmlns:inkscape="http://www.inkscape.org/namespaces/inkscape"
   xmlns:sodipodi="http://sodipodi.sourceforge.net/DTD/sodipodi-0.dtd"
   xmlns="http://www.w3.org/2000/svg"
   xmlns:svg="http://www.w3.org/2000/svg">
  <defs
     id="defs6" />
  <g
     id="g8"
     inkscape:groupmode="layer"
     inkscape:label="ink_ext_XXXXXX"
     fill="#181c36"
     transform="matrix(1.3333333,0,0,-1.3333333,0,1954.6667)">
    <g
       id="g10"
       transform="scale(0.1)">
      <path
         d="M 0,0 H 22000 V 14660 H 0 V 0"
         style=";fill-opacity:1;fill-rule:nonzero;stroke:none"
         id="path12" />
      <path
         d="m 6156.17,11028.6 c -205.45,-356.1 -838.39,-87 -1124.27,-382.6 -275.57,-285.1 28.19,-780.15 -113.53,-1150.51 -115.65,-301.84 -506.01,-418.02 -818.92,-336.74 -312.9,81.29 -565.16,305.67 -806.89,520.38 -241.73,214.6 -500.48,434.17 -816.58,501.87 -272.37,58.2 -553.89,-3.7 -831.48,-27.1 -277.69,-23.5 -585.59,3.5 -785.402,197.5 -287.157,279 -205.551,787.6 64.05,1083.6 269.602,295.9 667.092,433.2 1046.502,561.2 379.29,128 776.25,269.7 1040.11,570.7 149.38,170.3 244.81,379.8 359.61,575 114.91,195.2 260.03,385.7 466.44,478.9 90.71,41 233.66,70.7 382.24,61.2 221.98,-14.3 439.84,53.6 620.51,183.3 122.44,88 268.16,139.8 421.23,134.3 477.82,-17.1 843.93,-586.4 661.35,-1028.3 -95.65,-231.7 -309.93,-424.5 -310.78,-675.2 -0.85,-243.1 198.22,-431.9 360.89,-612.6 162.57,-180.7 306.42,-444.3 184.92,-654.9"
         style="fill:#FF79C6;fill-opacity:1;fill-rule:nonzero;stroke:none"
         id="path14" />
      <path
         d="m 11045.3,10752.3 c -113,-438.5 -601,-809.97 -1015.5,-627.4 -457.98,201.6 -517.67,891.8 -965.38,1115.3 -295.13,147.3 -647.19,37 -976.91,46.9 -566.45,17.1 -1387.36,253.6 -1324.42,1080.9 65.99,867.3 980.46,716.4 1607.64,1451.1 409.76,480 1163.53,475.5 1632.57,142.4 288.1,-204.6 417.2,-561.7 530.3,-896.5 111.1,-328.7 222.2,-657.5 333.3,-986.3 144.9,-428.9 291.3,-887.9 178.4,-1326.4"
         style="fill:#FF79C6;fill-opacity:1;fill-rule:nonzero;stroke:none"
         id="path16" />
      <path
         d="m 9706.52,6194.91 c -96.34,-407.04 -449.22,-576.05 -735.95,-625.84 -286.84,-49.69 -593.47,29.57 -820.2,212.04 -235.77,189.81 -385.89,481.54 -651.35,626.98 -283.33,155.34 -644.1,173.34 -949.89,68.95 -842.89,-287.75 -1187.25,5.84 -1317.34,369.36 -120.21,335.86 30.06,704.83 341.55,878.69 152.6,85.18 295.63,225.68 409.56,448.52 112.67,220.55 482.5,1903.69 1760.62,1903.69 551.55,0 991.48,-337.06 1102.99,-1263.2 183.88,-1527.27 1140.61,-1433.63 860.01,-2619.19"
         style="fill:#FF79C6;fill-opacity:1;fill-rule:nonzero;stroke:none"
         id="path18" />
      <path
         d="m 13625.5,5298.2 c -283.1,-365.68 -979.3,-549.74 -1404.6,-30.85 -166.5,203.02 -242.5,372.15 -284.3,532.54 -127.5,488.23 -413.3,919.22 -802.3,1240.68 -152.6,126.09 -293.9,261.55 -394.6,427.55 -320.1,527.29 -84.8,1308.76 473.1,1571.77 557.9,263 1310.3,-52.88 1513.5,-635.29 63.7,-182.99 78.5,-380.14 140.3,-563.78 158.4,-470.69 598.4,-790.09 827.3,-1230.77 213.2,-410.37 214.7,-946.17 -68.4,-1311.85"
         style="fill:#FF79C6;fill-opacity:1;fill-rule:nonzero;stroke:none"
         id="path20" />
      <path
         d="m 14909.9,8984.19 c -245.5,-103.1 -526.6,-141.29 -779.5,-58.09 -370.2,121.82 -614.6,474.94 -772.1,831.37 -193.5,437.73 -298.1,914.53 -305.5,1393.13 -3.6,228.4 14.7,457.9 -13.1,684.8 -27.9,226.7 -107.9,456.8 -275.6,612 -138.8,128.7 -323.6,194.1 -480.8,299.5 -157.1,105.5 -295.5,283.7 -256.4,468.9 48.8,231.9 292.1,506.6 1070.8,602.9 892,79.9 1451.2,-287.5 1905,-771.1 532.5,-567.4 943.9,-1380.2 985.6,-2157.1 41.8,-777.1 -360.9,-1605.21 -1078.4,-1906.31"
         style="fill:#FF79C6;fill-opacity:1;fill-rule:nonzero;stroke:none"
         id="path22" />
      <path
         d="M 4315.41,6656.34 C 4148.38,6182.42 3981.35,5708.38 3814.32,5234.33 3697.66,4903.59 3563.77,4549.8 3271.74,4355.6 c -416.91,-277.4 -1071.38,-50.1 -1226.88,425.9 -96.9,296.8 -36.19,669.17 -266.58,879.68 -245.91,224.83 -690.26,123.02 -907.796,375.16 -109.23,126.6 -150.324,440.9 143.966,637.5 1080.66,721.67 281.96,1543.83 1166.82,1974.52 v 0 c 299.51,118.48 536.89,-41.18 605.92,-292.48 37.59,-136.86 101.77,-294.26 213.32,-387.3 346.27,-288.82 952.73,-20.68 1277.78,-333.26 249.48,-240.07 152.31,-652.35 37.12,-978.98"
         style="fill:#FF79C6;fill-opacity:1;fill-rule:nonzero;stroke:none"
         id="path24" />
      <path
         d="M 7589.87,4039.4 C 7473.05,3363.2 7356.23,2686.9 7239.41,2010.6 7185.15,1696.5 7119.61,1360.2 6891.28,1137.8 6588.17,842.602 6106.62,849.199 5689.24,919.102 5310.37,982.402 4931.5,1084.5 4605.08,1287 c -326.42,202.4 -597.3,515.9 -684.01,890.1 -102.68,442.9 61.39,907.4 297.48,1296 452.88,745.2 1190.01,1308.5 2020.95,1569.15 178.54,56.01 364.02,88.46 551.14,89.14 295.01,1.07 581.18,-62.86 736.46,-298.5 149.7,-227.29 109.16,-525.29 62.77,-793.49"
         style="fill:#FF79C6;fill-opacity:1;fill-rule:nonzero;stroke:none"
         id="path26" />
      <path
         d="m 13383,2100.3 c -96.8,-124.7 -239.7,-203.4 -378.4,-278.6 -266.6,-144.5 -533.2,-289.1 -799.7,-433.7 -275.9,-149.6 -553.8,-300 -852.6,-395.398 -505.2,-161.403 -1068.1,-155.5 -1557.43,48.898 -489.42,204.3 -896.91,612.5 -1068.95,1114.2 -203.32,592.9 -48.2,1301.6 407.28,1732.4 290.46,274.7 696.25,419.3 1094.1,408.5 0.3,0 0.5,0 0.8,-0.1 52.7,-3.3 104,-7.3 153.6,-12 1596.7,-151.6 1726.9,-1013.4 2570.6,-1156.5 756.9,-128.3 623,-779.7 430.7,-1027.7"
         style="fill:#FF79C6;fill-opacity:1;fill-rule:nonzero;stroke:none"
         id="path28" />
      <path
         d="M 2810.31,894.699 C 2686.11,567.902 2282.61,423.801 1936.21,471.5 1331.81,554.699 842.805,1147.3 875.805,1756.6 c 26.703,492.6 346.905,964.9 241.105,1446.8 -32.1,146.5 -102.4,281.8 -145.605,425.5 -12.489,41.4 -28.551,102.3 -38.328,172.1 -57.067,407.6 438.893,662.4 728.883,370.4 4.44,-4.5 8.79,-9 13.05,-13.6 188.8,-205 236.9,-501.2 250,-779.6 13.1,-278.4 1.2,-565.5 100.8,-825.8 113.8,-297.5 358.1,-521.7 552.2,-774.2 194.1,-252.4 345.4,-585.8 232.4,-883.501"
         style="fill:#FF79C6;fill-opacity:1;fill-rule:nonzero;stroke:none"
         id="path30" />
      <path
         d="m 20474.2,5026.42 c -356.2,-186.9 -783.3,-198.7 -1177,-116.2 -420.8,88.1 -815.7,276.8 -1237.5,359.8 -421.8,82.9 -908,37.4 -1204.8,-273.6 -167.2,-175.2 -253.3,-412.32 -401.8,-603.72 -249.3,-321.4 -648.3,-484.3 -1035,-610.6 -313.5,-102.4 -651.7,-190.4 -969.1,-101.2 -317.5,89.2 -589,420.6 -496.7,737.2 58.8,201.6 243.8,342.32 437.1,424.32 193.3,82 402.9,119.7 597.3,199.1 826.6,337.7 909.6,1762.4 3040.9,1944.8 460.1,56.7 1700,96.8 2145.3,-32 445.4,-128.8 857.1,-491.8 892.8,-954 31,-401.1 -235.3,-787.1 -591.5,-973.9"
         style="fill:#FF79C6;fill-opacity:1;fill-rule:nonzero;stroke:none"
         id="path32" />
      <path
         d="m 20799.3,968.5 c -194.7,-198.098 -497.7,-239.398 -775.3,-232.398 -795.6,19.796 -1573.2,341.098 -2365.8,269.598 -406.8,-36.798 -796.4,-175.798 -1194.6,-266.798 -398.2,-91.101 -827.6,-131.703 -1205.8,22.797 -378.1,154.5 -680.5,553.301 -608.4,955.401 52.3,292.1 284.9,524 546.5,664.2 261.5,140.2 554.9,206.5 837.8,296.2 282.9,89.7 568,210.7 766.5,431.4 163.4,181.6 256.6,418.6 424.2,596.4 256.8,272.3 684.8,351.9 1032.3,223.1 75.7,-34.1 149,-74.7 219.2,-118.3 9.4,-5.8 18.7,-11.7 27.9,-17.6 225.9,-144.3 435,-318.9 681.1,-425.2 431.9,-186.5 957.4,-154.4 1330,-441.8 323.7,-249.6 447.2,-680.7 487.9,-1087.4 30.7,-306.3 12.3,-650.2 -203.5,-869.6"
         style="fill:#FF79C6;fill-opacity:1;fill-rule:nonzero;stroke:none"
         id="path34" />
      <path
         d="m 20475.8,8304.86 c -121.9,-196 -358.7,-294.4 -588.5,-316 -229.8,-21.5 -460,21.2 -689.6,44.6 -534.3,54.5 -1079.1,3.5 -1594.1,-149.1 -262.6,-77.9 -518.7,-182.1 -788.8,-227.3 -270.1,-45.2 -564.8,-24.8 -791.1,129.5 -226.2,154.4 -355.9,467.7 -240.6,716.1 77,165.8 240.1,271.8 395,368.9 9.5,5.94 19.3,12.12 29.5,18.53 447.7,282.67 811.1,678.75 1064.3,1143.81 20.1,36.9 41.9,72.9 65.6,107.9 212.9,314.5 592,530.2 968.8,482.9 306.4,-38.5 566.4,-234.9 810.2,-424.4 253.3,-196.9 506.5,-393.74 759.8,-590.64 208.2,-161.8 421.1,-328.9 557.5,-554.5 136.3,-225.7 181.2,-526.4 42,-750.3"
         style="fill:#FF79C6;fill-opacity:1;fill-rule:nonzero;stroke:none"
         id="path36" />
      <path
         d="m 21317.3,12584.7 c -15.1,-341.5 -40.1,-688.6 -162.3,-1007.8 -122.3,-319.1 -356.7,-611.3 -678.8,-725.4 -394.9,-140 -842,12.7 -1176.6,264.8 -334.6,252.2 -587.9,594.3 -873.9,900.6 -285.9,306.2 -628.7,589.5 -1040.9,664.9 -195.1,35.7 -411.8,28.1 -568.4,149.8 -179.1,139.3 -209.5,417.1 -104.6,618.3 104.9,201.2 316.8,329.5 536.9,384.6 39.7,9.9 79.8,17.8 120.1,23.9 174,26.5 344.2,71.8 509.3,132.9 231.1,85.5 495,83.3 713.1,-33.2 264.8,-141.5 450.4,-415.1 733.3,-515.4 290.1,-102.7 606.8,0.5 905.8,73.2 299,72.8 652.7,101.5 877.7,-108.4 214,-199.6 222.3,-530.6 209.3,-822.8"
         style="fill:#FF79C6;fill-opacity:1;fill-rule:nonzero;stroke:none"
         id="path38" />
    </g>
  </g>
</svg>
