<svg viewBox="0 0 200 200" xmlns="http://www.w3.org/2000/svg">
  <path fill="#000000" d="M37.3,-68.7C45.6,-59.7,47.9,-44.4,52.3,-31.8C56.6,-19.3,63,-9.7,64.7,1C66.5,11.7,63.5,23.3,59.7,36.7C55.9,50.1,51.1,65.3,41,71C30.9,76.8,15.5,73.3,3.1,67.9C-9.2,62.4,-18.4,55.2,-31.1,50.8C-43.7,46.5,-59.7,45.1,-66.8,37.1C-73.9,29.2,-72,14.6,-72.7,-0.4C-73.4,-15.4,-76.6,-30.7,-72.8,-44.3C-68.9,-57.9,-58,-69.8,-44.7,-76C-31.4,-82.2,-15.7,-82.7,-0.6,-81.6C14.4,-80.5,28.9,-77.8,37.3,-68.7Z" transform="translate(100 100)" />
</svg>